<mxfile host="Electron" modified="2024-04-07T13:51:15.789Z" agent="Mozilla/5.0 (X11; Linux x86_64) AppleWebKit/537.36 (KHTML, like Gecko) draw.io/24.1.0 Chrome/120.0.6099.291 Electron/28.2.10 Safari/537.36" etag="x4h2J0Nf07gfiIM7O9RK" version="24.1.0" type="device" pages="2">
  <diagram id="a6F4jR_KgmYnjlJ-m0tW" name="Possible styles">
    <mxGraphModel dx="1434" dy="815" grid="1" gridSize="10" guides="1" tooltips="1" connect="1" arrows="1" fold="1" page="1" pageScale="1" pageWidth="320" pageHeight="80" math="0" shadow="0">
      <root>
        <mxCell id="0" />
        <mxCell id="1" parent="0" />
        <mxCell id="fSjbTYhbLkrsspspIT7g-1" value="" style="rounded=0;whiteSpace=wrap;html=1;" parent="1" vertex="1">
          <mxGeometry width="160" height="40" as="geometry" />
        </mxCell>
        <mxCell id="fSjbTYhbLkrsspspIT7g-2" value="" style="shape=image;verticalLabelPosition=bottom;labelBackgroundColor=default;verticalAlign=top;aspect=fixed;imageAspect=0;image=data:image/svg+xml,PHN2ZyB4bWxuczp4bGluaz0iaHR0cDovL3d3dy53My5vcmcvMTk5OS94bGluayIgeG1sbnM9Imh0dHA6Ly93d3cudzMub3JnLzIwMDAvc3ZnIiB2aWV3Qm94PSIwIDAgOC40NjY3IDguNDY2NyIgdmVyc2lvbj0iMS4xIiBoZWlnaHQ9IjMyIiB3aWR0aD0iMzIiPjxkZWZzPjxsaW5lYXJHcmFkaWVudCBpZD0iYyI+PHN0b3Agb2Zmc2V0PSIwIiBzdG9wLWNvbG9yPSIjMjkyOTI5Ii8+PHN0b3Agb2Zmc2V0PSIxIiBzdG9wLWNvbG9yPSIjM2QzZDNkIi8+PC9saW5lYXJHcmFkaWVudD48bGluZWFyR3JhZGllbnQgaWQ9ImIiPjxzdG9wIG9mZnNldD0iMCIgc3RvcC1jb2xvcj0iI2MyY2FkYSIvPjxzdG9wIG9mZnNldD0iMSIgc3RvcC1jb2xvcj0iIzllYTA5ZiIvPjwvbGluZWFyR3JhZGllbnQ+PGxpbmVhckdyYWRpZW50IGdyYWRpZW50VW5pdHM9InVzZXJTcGFjZU9uVXNlIiBncmFkaWVudFRyYW5zZm9ybT0ibWF0cml4KC41MzgyMiAwIDAgLjU3NjkxIC0xLjE4NTkgLTQuODg0KSIgeTI9IjY1LjA4OCIgeTE9IjQ5LjQ3NyIgeDI9IjIuNjQ1OCIgeDE9IjIuNjQ1OCIgaWQ9InciPjxzdG9wIG9mZnNldD0iMCIgc3RvcC1jb2xvcj0iI2NmY2NjMyIvPjxzdG9wIG9mZnNldD0iMSIgc3RvcC1jb2xvcj0iI2FiYThhNSIvPjwvbGluZWFyR3JhZGllbnQ+PGxpbmVhckdyYWRpZW50IHhsaW5rOmhyZWY9IiNiIiBncmFkaWVudFVuaXRzPSJ1c2VyU3BhY2VPblVzZSIgZ3JhZGllbnRUcmFuc2Zvcm09Im1hdHJpeCguOTM0OTEgMCAwIC45MzUwOSAtMy41Mjg4IC0yNy41MzgpIiB5Mj0iNTUuOTg5IiB5MT0iNTIuOTcxIiB4Mj0iOC4yNzU2IiB4MT0iNS4yNTczIiBpZD0ibCIvPjxsaW5lYXJHcmFkaWVudCBncmFkaWVudFVuaXRzPSJ1c2VyU3BhY2VPblVzZSIgZ3JhZGllbnRUcmFuc2Zvcm09Im1hdHJpeCguNjk3NzUgMCAwIC43NDU3NiAtMi4wMDczIC0xNy44NDMpIiB5Mj0iNjEuMzgzIiB5MT0iNTEuMzI5IiB4Mj0iMjMuMDE5IiB4MT0iMjMuMDE5IiBpZD0ieCI+PHN0b3Agb2Zmc2V0PSIwIiBzdG9wLWNvbG9yPSIjMWMxYzIxIi8+PHN0b3Agb2Zmc2V0PSIxIiBzdG9wLWNvbG9yPSIjMmYyZTM4Ii8+PC9saW5lYXJHcmFkaWVudD48bGluZWFyR3JhZGllbnQgeGxpbms6aHJlZj0iI2MiIGdyYWRpZW50VW5pdHM9InVzZXJTcGFjZU9uVXNlIiBncmFkaWVudFRyYW5zZm9ybT0ibWF0cml4KC42NjI4IDAgMCAuNjg4NjcgLS4zMzA3NyAtMTQuMjI3KSIgeTI9IjYxLjM4MyIgeTE9IjUxLjMyOSIgeDI9IjQyLjU5OCIgeDE9IjQyLjU5OCIgaWQ9InQiLz48bGluZWFyR3JhZGllbnQgeGxpbms6aHJlZj0iI2MiIGdyYWRpZW50VW5pdHM9InVzZXJTcGFjZU9uVXNlIiBncmFkaWVudFRyYW5zZm9ybT0ibWF0cml4KC42NjI4IDAgMCAuNjg4NjcgLS43ODI4NiAtMTQuMjI3KSIgeTI9IjYxLjM4MyIgeTE9IjUxLjMyOSIgeDI9IjQyLjU5OCIgeDE9IjQyLjU5OCIgaWQ9InMiLz48cmFkaWFsR3JhZGllbnQgZ3JhZGllbnRVbml0cz0idXNlclNwYWNlT25Vc2UiIGdyYWRpZW50VHJhbnNmb3JtPSJtYXRyaXgoLTkuMjI5MmUtNiAxLjkwNjYgLTEuOTE1NSAtOS40NTQ4ZS02IDEyNi42MiAtMjUuNDIpIiByPSIuNTI5MTciIGN5PSI1Ny44NTYiIGN4PSIyNy4yMDgiIGlkPSJpIj48c3RvcCBvZmZzZXQ9IjAiIHN0b3AtY29sb3I9IiNmZmYiLz48c3RvcCBvZmZzZXQ9Ii40OTgwNiIgc3RvcC1jb2xvcj0iI2YwMCIvPjxzdG9wIG9mZnNldD0iMSIgc3RvcC1jb2xvcj0iI2EwMCIvPjwvcmFkaWFsR3JhZGllbnQ+PGxpbmVhckdyYWRpZW50IGdyYWRpZW50VW5pdHM9InVzZXJTcGFjZU9uVXNlIiBncmFkaWVudFRyYW5zZm9ybT0ibWF0cml4KC4zMDA5NiAwIDAgLjMwNzYgLTMuNTg1MSAtNS4yNDYxKSIgeTI9IjM5LjU1NSIgeTE9IjIuNjQ1OCIgeDI9IjcuOTMyNiIgeDE9IjcuOTM3NSIgaWQ9InYiPjxzdG9wIG9mZnNldD0iMCIgc3RvcC1jb2xvcj0iI2Q1ZDJkNCIvPjxzdG9wIG9mZnNldD0iLjA3IiBzdG9wLWNvbG9yPSIjYWJhYWFiIi8+PHN0b3Agb2Zmc2V0PSIuOTMiIHN0b3AtY29sb3I9IiNhMmEyYTIiLz48c3RvcCBvZmZzZXQ9IjEiIHN0b3AtY29sb3I9IiM2ODY4NjgiLz48L2xpbmVhckdyYWRpZW50PjxsaW5lYXJHcmFkaWVudCBncmFkaWVudFVuaXRzPSJ1c2VyU3BhY2VPblVzZSIgZ3JhZGllbnRUcmFuc2Zvcm09Im1hdHJpeCguMzAwOTYgMCAwIC4zMDc2IC0zLjU4NTEgLTUuMjQ2MSkiIHkyPSIzNS45ODMiIHkxPSIzMy40NzgiIHgyPSIxMi43NDciIHgxPSIxMS4xNTkiIGlkPSJ1Ij48c3RvcCBvZmZzZXQ9IjAiIHN0b3AtY29sb3I9IiM1YjU5NTgiLz48c3RvcCBvZmZzZXQ9Ii41IiBzdG9wLWNvbG9yPSIjODQ3ZTdiIi8+PHN0b3Agb2Zmc2V0PSIxIiBzdG9wLWNvbG9yPSIjYzBiZmJlIi8+PC9saW5lYXJHcmFkaWVudD48bGluZWFyR3JhZGllbnQgZ3JhZGllbnRVbml0cz0idXNlclNwYWNlT25Vc2UiIGdyYWRpZW50VHJhbnNmb3JtPSJtYXRyaXgoLjMwMDk2IDAgMCAuMzA3NiAtNC4wNjQxIC01LjI0NjEpIiB5Mj0iMzMuODY3IiB5MT0iNi44NzkyIiB4Mj0iMjUuNCIgeDE9IjEzLjIyOSIgaWQ9InIiPjxzdG9wIG9mZnNldD0iMCIgc3RvcC1jb2xvcj0iIzQxM2YzZiIvPjxzdG9wIG9mZnNldD0iLjUiIHN0b3AtY29sb3I9IiM3MjZjNjkiLz48c3RvcCBvZmZzZXQ9IjEiIHN0b3AtY29sb3I9IiNhN2E1YTQiLz48L2xpbmVhckdyYWRpZW50PjxsaW5lYXJHcmFkaWVudCB4bGluazpocmVmPSIjYiIgZ3JhZGllbnRVbml0cz0idXNlclNwYWNlT25Vc2UiIGdyYWRpZW50VHJhbnNmb3JtPSJtYXRyaXgoMS44ODYyIDAgMCAxLjU4OTIgLTQzLjkzNyAtOC4xNzUzKSIgeTI9IjEzLjY2OCIgeTE9IjkuNzUzNSIgeDI9IjU0Ljk2OCIgeDE9IjUxLjY1NiIgaWQ9ImsiLz48cmFkaWFsR3JhZGllbnQgZ3JhZGllbnRVbml0cz0idXNlclNwYWNlT25Vc2UiIGdyYWRpZW50VHJhbnNmb3JtPSJtYXRyaXgoLTIuMDMwNmUtNiAuNDI5MSAtLjQyMTQzIC0yLjEyNzllLTYgMzYuNjQ4IC0xMS4xOTcpIiByPSIuNTI5MTciIGN5PSI1Ny44NTYiIGN4PSIyNy4yMDgiIGlkPSJqIj48c3RvcCBvZmZzZXQ9IjAiIHN0b3AtY29sb3I9IiNmZmIiLz48c3RvcCBvZmZzZXQ9Ii40OTgwNiIgc3RvcC1jb2xvcj0iI2FmMCIvPjxzdG9wIG9mZnNldD0iMSIgc3RvcC1jb2xvcj0iIzBmMCIvPjwvcmFkaWFsR3JhZGllbnQ+PHJhZGlhbEdyYWRpZW50IGdyYWRpZW50VW5pdHM9InVzZXJTcGFjZU9uVXNlIiBncmFkaWVudFRyYW5zZm9ybT0ibWF0cml4KC43MDIzOCAyLjUxMjVlLTYgLTEuMjE2OWUtNiAuNzE1MTYgLTI1LjU4OSAtMTQuMjI1KSIgcj0iLjc5Mzc1IiBjeT0iMjAuNjM3IiBjeD0iNTMuOTc1IiBpZD0iaCI+PHN0b3Agb2Zmc2V0PSIuMyIgc3RvcC1vcGFjaXR5PSIuMiIgc3RvcC1jb2xvcj0iIzBmMCIvPjxzdG9wIG9mZnNldD0iMSIgc3RvcC1vcGFjaXR5PSIwIiBzdG9wLWNvbG9yPSIjMGYwIi8+PC9yYWRpYWxHcmFkaWVudD48cmFkaWFsR3JhZGllbnQgZ3JhZGllbnRVbml0cz0idXNlclNwYWNlT25Vc2UiIGdyYWRpZW50VHJhbnNmb3JtPSJtYXRyaXgoMS4wNzA1IDEuMDcwNSAtLjU3NjQzIC41NzY0MyA5LjY0OTYgLTQ3Ljk1MykiIHI9IjEuNjA2NSIgY3k9IjIzLjM0MyIgY3g9IjUzLjk3NSIgaWQ9ImYiPjxzdG9wIG9mZnNldD0iMCIgc3RvcC1vcGFjaXR5PSIuNSIvPjxzdG9wIG9mZnNldD0iMSIgc3RvcC1vcGFjaXR5PSIwIi8+PC9yYWRpYWxHcmFkaWVudD48cmFkaWFsR3JhZGllbnQgZ3JhZGllbnRVbml0cz0idXNlclNwYWNlT25Vc2UiIGdyYWRpZW50VHJhbnNmb3JtPSJtYXRyaXgoLS41IC42IC0uOTgzOCAtLjgxOTg0IDEwMy4yMiA4Ljc0NDIpIiByPSIxLjMyMjkiIGN5PSIyMy4wNjMiIGN4PSI1NC41NDgiIGlkPSJlIj48c3RvcCBvZmZzZXQ9IjAiIHN0b3AtY29sb3I9IiNkNmNiYWUiLz48c3RvcCBvZmZzZXQ9IjEiIHN0b3AtY29sb3I9IiM5ZDk3ODYiLz48L3JhZGlhbEdyYWRpZW50PjxsaW5lYXJHcmFkaWVudCBncmFkaWVudFVuaXRzPSJ1c2VyU3BhY2VPblVzZSIgZ3JhZGllbnRUcmFuc2Zvcm09InRyYW5zbGF0ZSguMDgwMzYzIC4wNzU1ODQpIiB5Mj0iMjQuNjA2IiB5MT0iMjEuOTYiIHgyPSI1NS4yOTgiIHgxPSI1Mi42NTIiIGlkPSJuIj48c3RvcCBvZmZzZXQ9IjAiIHN0b3AtY29sb3I9IiNiYWIyOGQiLz48c3RvcCBvZmZzZXQ9Ii40OTgzMiIgc3RvcC1vcGFjaXR5PSIwIiBzdG9wLWNvbG9yPSIjYjhiMzg5Ii8+PC9saW5lYXJHcmFkaWVudD48bGluZWFyR3JhZGllbnQgZ3JhZGllbnRVbml0cz0idXNlclNwYWNlT25Vc2UiIGdyYWRpZW50VHJhbnNmb3JtPSJ0cmFuc2xhdGUoLjA4MDM2MyAuMDc1NTg0KSIgeTI9IjI0LjM0MiIgeTE9IjIyLjc1NCIgeDI9IjU1LjAzMyIgeDE9IjUzLjQ0NiIgaWQ9Im0iPjxzdG9wIG9mZnNldD0iMCIgc3RvcC1jb2xvcj0iIzlkOTc4NiIvPjxzdG9wIG9mZnNldD0iMSIgc3RvcC1jb2xvcj0iIzc3NzA1ZiIvPjwvbGluZWFyR3JhZGllbnQ+PGxpbmVhckdyYWRpZW50IGdyYWRpZW50VW5pdHM9InVzZXJTcGFjZU9uVXNlIiBncmFkaWVudFRyYW5zZm9ybT0ibWF0cml4KC4zMTcyNSAwIDAgLjMwNzYgLTQuMTM2NiAtNS4yNDYxKSIgeTI9IjM1LjA1NyIgeTE9IjYuMjE3NyIgeDI9IjU1Ljk1OSIgeDE9IjExLjc3NCIgaWQ9InAiPjxzdG9wIG9mZnNldD0iMCIgc3RvcC1jb2xvcj0iIzc0NzA2ZCIvPjxzdG9wIG9mZnNldD0iMSIgc3RvcC1jb2xvcj0iIzdlN2E3NyIvPjwvbGluZWFyR3JhZGllbnQ+PHJhZGlhbEdyYWRpZW50IGdyYWRpZW50VW5pdHM9InVzZXJTcGFjZU9uVXNlIiBncmFkaWVudFRyYW5zZm9ybT0ibWF0cml4KC4zNTMwMSAtLjEzODc3IC4wNTU1MjQgLjE0NzU1IC01LjYxNDQgLS4xODExNykiIHI9IjE3LjU5NSIgY3k9IjEwLjA2NSIgY3g9IjE5LjA1IiBpZD0iZyI+PHN0b3Agb2Zmc2V0PSIwIiBzdG9wLW9wYWNpdHk9Ii4yIiBzdG9wLWNvbG9yPSIjZmZmIi8+PHN0b3Agb2Zmc2V0PSIxIiBzdG9wLW9wYWNpdHk9IjAiIHN0b3AtY29sb3I9IiNmZmYiLz48L3JhZGlhbEdyYWRpZW50PjxsaW5lYXJHcmFkaWVudCBncmFkaWVudFVuaXRzPSJ1c2VyU3BhY2VPblVzZSIgZ3JhZGllbnRUcmFuc2Zvcm09Im1hdHJpeCgxIDAgMCAxIC0uMzgwOTYgLTcuOTU1NmUtNykiIHkyPSIyNS45NSIgeTE9IjIxLjQxIiB4Mj0iMTguNzIiIHgxPSIxOC43MiIgaWQ9InEiPjxzdG9wIG9mZnNldD0iMCIgc3RvcC1jb2xvcj0iIzI5MjkyOSIvPjxzdG9wIG9mZnNldD0iLjMzMTI2IiBzdG9wLWNvbG9yPSIjMmIyYjJiIi8+PHN0b3Agb2Zmc2V0PSIuNTIwMzEiIHN0b3AtY29sb3I9IiM0NzQ3NDciLz48c3RvcCBvZmZzZXQ9IjEiIHN0b3AtY29sb3I9IiMzZTNlM2UiLz48L2xpbmVhckdyYWRpZW50PjxsaW5lYXJHcmFkaWVudCBncmFkaWVudFVuaXRzPSJ1c2VyU3BhY2VPblVzZSIgeTI9IjI4LjIyIiB5MT0iMjUuOTUiIHgyPSIxNS4yOTgiIHgxPSIxNS4yOTgiIGlkPSJvIj48c3RvcCBvZmZzZXQ9IjAiLz48c3RvcCBvZmZzZXQ9IjEiIHN0b3Atb3BhY2l0eT0iMCIvPjwvbGluZWFyR3JhZGllbnQ+PC9kZWZzPjxnIHN0eWxlPSJtaXgtYmxlbmQtbW9kZTpub3JtYWwiIHRyYW5zZm9ybT0ibWF0cml4KC4yMjAzNCAwIDAgLjIyMDM0IC40Nzk4MyAuNzM5ODIpIj48cGF0aCBzdHlsZT0ibWl4LWJsZW5kLW1vZGU6bm9ybWFsIiBzdHJva2Utd2lkdGg9Ii4xNDY5IiBzdHJva2UtbGluZWpvaW49InJvdW5kIiBzdHJva2UtbGluZWNhcD0icm91bmQiIGZpbGw9IiNlZGYxZWEiIGQ9Im0xLjIyMTIgMjIuNzU5aDMxLjYyN2MwLjU1MjQ4IDAgMC45OTcyNSAwLjQ3Mjg4IDAuOTk3MjUgMS4wNjAzdjAuNzQwOWgtMzMuNjIybDFlLTcgLTAuNzQwOWMwLTAuNTg3MzkgMC40NDQ3Ny0xLjA2MDMgMC45OTcyNS0xLjA2MDN6Ii8+PHBhdGggZmlsbD0idXJsKCN3KSIgZD0ibTEuMDY0MSAyMy42NmgzMS45MjdjMC40MjcyMSAwIDAuODM5NDMgMC41MTg5OCAwLjg0MDE5IDAuOTAwNThsMC4wMTQyNiA3LjE4OTRjOS43OWUtNCAwLjUwNzM4LTAuMzgxMSAwLjkxNTg0LTAuODU0NDUgMC45MTU4NGgtMzEuOTI3Yy0wLjQ3MzM1IDAtMC44NDAxOC0wLjM5MzItMC44NDAxOC0wLjkwMDU4di03LjIwNDZjMC0wLjM4MTYgMC40MTI5Ny0wLjkwMDU4IDAuODQwMTgtMC45MDA1OHoiLz48ZyBzdHlsZT0ibWl4LWJsZW5kLW1vZGU6bm9ybWFsIiBzdHJva2Utd2lkdGg9Ii45NTM5NCIgdHJhbnNmb3JtPSJtYXRyaXgoLjg1MTA3IDAgMCAuODUwOTcgLjI0NDg3IDUuNTQ0KSI+PHJlY3Qgc3R5bGU9Im1peC1ibGVuZC1tb2RlOm5vcm1hbDtwYWludC1vcmRlcjptYXJrZXJzIHN0cm9rZSBmaWxsIiBzdHJva2Utd2lkdGg9Ii4zNTI3NSIgc3Ryb2tlLW9wYWNpdHk9Ii41IiBzdHJva2UtbGluZWpvaW49InJvdW5kIiBzdHJva2UtbGluZWNhcD0icm91bmQiIHN0cm9rZT0iIzAwMCIgZmlsbD0idXJsKCNsKSIgcnk9IjYuODY3ZS0xOCIgcng9IjYuODY1N2UtMTgiIGhlaWdodD0iMi40Njk0IiB3aWR0aD0iMi40NjkxIiB5PSIyMy40MDUiIHg9IjEuNTYyNiIvPjwvZz48ZyBzdHlsZT0ibWl4LWJsZW5kLW1vZGU6bm9ybWFsIiB0cmFuc2Zvcm09Im1hdHJpeCguNzY5MjUgMCAwIC43NjkyNSAuNjEwNTIgOS43NTQzKSI+PHBhdGggc3R5bGU9InBhaW50LW9yZGVyOm1hcmtlcnMgc3Ryb2tlIGZpbGwiIHN0cm9rZS13aWR0aD0iLjc4MDQ4IiBzdHJva2Utb3BhY2l0eT0iLjUzMzMzIiBzdHJva2UtbGluZWpvaW49InJvdW5kIiBzdHJva2UtbGluZWNhcD0icm91bmQiIHN0cm9rZT0iIzAwMCIgZmlsbD0ibm9uZSIgZD0ibTEuNDQ4NiAyNS40OTF2Mi4zNDE0IiBpZD0iYSIvPjx1c2UgeGxpbms6aHJlZj0iI2EiIHRyYW5zZm9ybT0idHJhbnNsYXRlKDEuNTYxKSIvPjx1c2UgeGxpbms6aHJlZj0iI2EiIHRyYW5zZm9ybT0idHJhbnNsYXRlKDMuMTIxOSkiLz48dXNlIHhsaW5rOmhyZWY9IiNhIiB0cmFuc2Zvcm09InRyYW5zbGF0ZSg2LjI0MzkpIi8+PHVzZSB4bGluazpocmVmPSIjYSIgdHJhbnNmb3JtPSJ0cmFuc2xhdGUoNC42ODI5KSIvPjx1c2UgeGxpbms6aHJlZj0iI2EiIHRyYW5zZm9ybT0idHJhbnNsYXRlKDcuODA0OCkiLz48L2c+PGcgdHJhbnNmb3JtPSJtYXRyaXgoLjc5MTMyIDAgMCAuNzc1ODEgLjA5MDI3NCA5LjM3ODkpIj48cmVjdCBzdHlsZT0ibWl4LWJsZW5kLW1vZGU6bm9ybWFsO3BhaW50LW9yZGVyOm1hcmtlcnMgc3Ryb2tlIGZpbGwiIHN0cm9rZS13aWR0aD0iLjE5MDg2IiBzdHJva2Utb3BhY2l0eT0iLjUiIHN0cm9rZS1saW5lam9pbj0icm91bmQiIHN0cm9rZS1saW5lY2FwPSJyb3VuZCIgZmlsbD0idXJsKCN4KSIgcnk9IjEuMDYxOCIgcng9IjEuMDYxOCIgaGVpZ2h0PSI5LjI4NjYiIHdpZHRoPSIyOC44MzEiIHk9IjE5LjE4MiIgeD0iMTIuMzA4Ii8+PGcgc3R5bGU9Im1peC1ibGVuZC1tb2RlOm5vcm1hbCIgdHJhbnNmb3JtPSJtYXRyaXgoLjk5ODA0IDAgMCAxLjAyMjcgLjA3NTA3NiAtMS4xNjY2KSI+PHJlY3Qgc3R5bGU9Im1peC1ibGVuZC1tb2RlOm5vcm1hbDtwYWludC1vcmRlcjptYXJrZXJzIHN0cm9rZSBmaWxsIiBmaWxsLW9wYWNpdHk9Ii41MDIxNiIgZmlsbD0idXJsKCNzKSIgaGVpZ2h0PSI5LjA4MDMiIHdpZHRoPSIxMi4xNjMiIHk9IjE5Ljg5NiIgeD0iMTMuNzc4Ii8+PHBhdGggc3R5bGU9Im1peC1ibGVuZC1tb2RlOm5vcm1hbDtwYWludC1vcmRlcjpzdHJva2UgbWFya2VycyBmaWxsIiBzdHJva2Utd2lkdGg9Ii4zOTEwMiIgc3Ryb2tlLW9wYWNpdHk9Ii43NSIgc3Ryb2tlLWxpbmVjYXA9InJvdW5kIiBmaWxsPSJ1cmwoI28pIiBkPSJtMTMuNzc4IDIzLjY4aDQuMTgxMXYtMi42NDg0aDMuODAxdjIuNjQ4NGg0LjE4MTF2MC43NTY2OWgtNC4xODExdjMuNzgzNGgtMy44MDF2LTMuNzgzNGgtNC4xODExeiIvPjxlbGxpcHNlIHN0eWxlPSJwYWludC1vcmRlcjpzdHJva2UgbWFya2VycyBmaWxsIiBmaWxsPSJ1cmwoI2kpIiByeT0iLjc1NjY5IiByeD0iLjc2MDIiIGN5PSIyNi43MDYiIGN4PSIxNi4wNTgiLz48cmVjdCBzdHlsZT0icGFpbnQtb3JkZXI6c3Ryb2tlIGZpbGwgbWFya2VycyIgZmlsbD0idXJsKCNxKSIgaGVpZ2h0PSI0LjU0MDEiIHdpZHRoPSIzLjA0MDgiIHk9IjIxLjQxIiB4PSIxOC4zMzkiLz48cmVjdCBzdHlsZT0icGFpbnQtb3JkZXI6c3Ryb2tlIGZpbGwgbWFya2VycyIgZmlsbD0iIzhiOGI4YiIgaGVpZ2h0PSIuNzU2NjkiIHdpZHRoPSI0LjE4MTEiIHk9IjI0LjQzNiIgeD0iMTMuNzc4Ii8+PHJlY3Qgc3R5bGU9InBhaW50LW9yZGVyOnN0cm9rZSBmaWxsIG1hcmtlcnMiIGZpbGw9IiM4YjhiOGIiIGhlaWdodD0iLjc1NjY5IiB3aWR0aD0iNC4xODExIiB5PSIyNC40MzYiIHg9IjIxLjc2Ii8+PC9nPjxnIHN0eWxlPSJtaXgtYmxlbmQtbW9kZTpub3JtYWwiIHRyYW5zZm9ybT0ibWF0cml4KC45OTgwNCAwIDAgMS4wMjI3IC4wOTA2MDYgLTEuMTY2NikiPjxyZWN0IHN0eWxlPSJtaXgtYmxlbmQtbW9kZTpub3JtYWw7cGFpbnQtb3JkZXI6bWFya2VycyBzdHJva2UgZmlsbCIgZmlsbC1vcGFjaXR5PSIuNTAyMTYiIGZpbGw9InVybCgjdCkiIGhlaWdodD0iOS4wODAzIiB3aWR0aD0iMTIuMTYzIiB5PSIxOS44OTYiIHg9IjI3LjQ0NiIvPjxyZWN0IHN0eWxlPSJtaXgtYmxlbmQtbW9kZTpub3JtYWw7cGFpbnQtb3JkZXI6c3Ryb2tlIG1hcmtlcnMgZmlsbCIgZmlsbD0iIzI1MjUyNSIgaGVpZ2h0PSIxLjUxMzQiIHdpZHRoPSI5LjEyMDMiIHk9IjI1Ljk1IiB4PSIyOC45NjYiLz48cmVjdCBzdHlsZT0ibWl4LWJsZW5kLW1vZGU6bm9ybWFsO3BhaW50LW9yZGVyOnN0cm9rZSBtYXJrZXJzIGZpbGwiIGZpbGw9IiNjMDAiIHJ5PSIwIiBoZWlnaHQ9IjEuNTEzNCIgd2lkdGg9IjEuNTIwNCIgeT0iMjUuOTUiIHg9IjMwLjQ4NiIvPjwvZz48L2c+PC9nPjxnIHRyYW5zZm9ybT0ibWF0cml4KC40NzQ1OCAwIDAgLjQ2NjA5IDEuMDk3NSAyLjU5NSkiPjxwYXRoIHN0eWxlPSJwYWludC1vcmRlcjpub3JtYWwiIGZpbGw9InVybCgjdikiIGQ9Im0tMC40Nzk0OS00LjMxMDJjMi4zNjE1LTAuMDc2MjE4IDQuNzI0NC0wLjEyMjA4IDcuMDg3MS0wLjEyMjA4IDIuMzYyNyAwIDQuNzI1NSAwLjA0NTg2MSA3LjA4NzEgMC4xMjIwOCAwLjMzNzkgMC4wMTA5MDYgMC42MTEzIDAuMDIyODAzIDAuNjM3MDQgMC42MTAzOSAwLjA3MjQ0IDEuNjUzNCAwLjA4NjI3IDMuMzA5NSAwLjA3OTYzIDQuOTY0NS0wLjAwNjYgMS42NTUzLTAuMDM0OTUgMy4zMTE0LTAuMTE5NDQgNC45NjQ1LTAuMDE3OCAwLjMxMDQyLTAuMTE2NTEgMC41NTg5Ny0wLjQzNzk2IDAuNTY5Ny0yLjQxNDkgMC4wNjUyOTktNC44MzA2IDAuMTIyMDgtNy4yNDYzIDAuMTIyMDgtMi40MTU4IDAtNC44MzE0LTAuMDU2Nzg3LTcuMjQ2My0wLjEyMjA4LTAuMzI5NTEgMC4wMjAzNjEtMC40MTA2Ny0wLjI4NTkzLTAuNDM3OTYtMC41Njk3LTAuMDg0NDkyLTEuNjUzMS0wLjExMjgxLTMuMzA5Mi0wLjExOTQ0LTQuOTY0NS0wLjAwNjY0LTEuNjU1IDAuMDA3MTktMy4zMTExIDAuMDc5NjMtNC45NjQ1IDAuMDI1NzQzLTAuNTg3NTkgMC4yOTkxNS0wLjU5OTQ4IDAuNjM3MDQtMC42MTAzOXoiLz48cmVjdCBzdHlsZT0ibWl4LWJsZW5kLW1vZGU6bm9ybWFsIiBmaWxsLW9wYWNpdHk9Ii43NSIgZmlsbD0idXJsKCNwKSIgcnk9IjIuMjc5OGUtMTgiIHJ4PSIyLjMxNTllLTE4IiBoZWlnaHQ9IjguODcxIiB3aWR0aD0iMTQuMDE4IiB5PSItMy4zMzM2IiB4PSItLjQwMTI5Ii8+PHBhdGggZmlsbD0idXJsKCN1KSIgZD0ibTYuNjA3Ni0zLjYxODRjLTIuMDgzNiAwLTQuNTY2NiAwLjAzOTAyMi02LjY0OTIgMC4xMDI4NC0wLjMxMjEgMC4wMDk1Ni0wLjUwNzIxIDAuMDI3NTgyLTAuNTI4MDEgMC40Nzg0Ni0wLjA2Mzg1NCAxLjM4MzktMC4wNzYzMDcgMi43NzAxLTAuMDcwNDUzIDQuMTU1OSAwLjAwNTg1IDEuMzg2IDAuMDMwODA3IDIuNzcyNCAwLjEwNTI5IDQuMTU2IDAuMDIyNTQ2IDAuMzczMjUgMC4xOTMxNSAwLjQzOTcxIDAuMzUyNDIgMC40NDQ3NiAyLjEyOTkgMC4wNTQ2OCA0LjY1OTYgMC4xMDI2OCA2Ljc4OTggMC4xMDI2OWgyLjk3N2UtNGMyLjEzMDItNC40ZS02IDQuNjU5OC0wLjA0ODAxMSA2Ljc4OTctMC4xMDI2OSAwLjE1OTI5LTAuMDA0OTQgMC4zMzAwNC0wLjA3MTUxOCAwLjM1MjU4LTAuNDQ0NzYgMC4wNzQ0OC0xLjM4MzcgMC4wOTk0NC0yLjc3IDAuMTA1MjktNC4xNTYgMC4wMDU4LTEuMzg1OC0wLjAwNjYtMi43NzItMC4wNzA0Ni00LjE1NTktMC4wMjA3OS0wLjQ1MDg3LTAuMjE1OS0wLjQ2ODg5LTAuNTI4LTAuNDc4NDYtMi4wODI3LTAuMDYzODIzLTQuNTY1Ny0wLjEwMjg0LTYuNjQ5Mi0wLjEwMjg0em0wIDAuMzI1NTRjMi4wMTA5IDAgNC40MjEzIDAuMDM2MjcgNi40MzEzIDAuMDk1NjkyIDAuMzAxMjIgMC4wMDg5IDAuNDg5MjcgMC4wMjU2MTMgMC41MDkzNSAwLjQ0NTM5IDAuMDYxNjMgMS4yODg0IDAuMDczNzggMi41NzkyIDAuMDY4MTIgMy44Njk1LTAuMDA1NyAxLjI5MDQtMC4wMjk2NyAyLjU4MTItMC4xMDE1NiAzLjg2OTUtMC4wMjE3NSAwLjM0NzUtMC4xODY1NiAwLjQwOTM5LTAuMzQwMjkgMC40MTQwOC0yLjA1NTYgMC4wNTA5MTQtNC41MTA5IDAuMDk1NTI5LTYuNTY2OCAwLjA5NTUzM2gtMi45NjhlLTRjLTIuMDU1OS0zLjdlLTYgLTQuNTExMi0wLjA0NDYyMy02LjU2NjgtMC4wOTU1MzMtMC4xNTM3Mi0wLjAwNDY5LTAuMzE4NTQtMC4wNjY1NjYtMC4zNDAyOS0wLjQxNDA4LTAuMDcxODg2LTEuMjg4Mi0wLjA5NTkxMy0yLjU3OS0wLjEwMTU2LTMuODY5NS0wLjAwNTY0LTEuMjkwMiAwLjAwNjQ5LTIuNTgxIDAuMDY4MTItMy44Njk1IDAuMDIwMDc3LTAuNDE5NzggMC4yMDgxMy0wLjQzNjQ5IDAuNTA5MzUtMC40NDUzOSAyLjAxLTAuMDU5NDIyIDQuNDIwNS0wLjA5NTY5MiA2LjQzMTMtMC4wOTU2OTJ6Ii8+PHJlY3Qgcnk9IjIuMjU4OWUtMTgiIHJ4PSIyLjIxMDJlLTE4IiBoZWlnaHQ9IjguMTY5OCIgd2lkdGg9IjEwLjczOSIgeT0iLTMuMDY0NCIgeD0iLjExNjQ2Ii8+PGcgc3Ryb2tlLXdpZHRoPSIuMTQwNjQiIHN0cm9rZS1vcGFjaXR5PSIuMjUiIHN0cm9rZS1taXRlcmxpbWl0PSIzLjMiIHN0cm9rZS1saW5lam9pbj0icm91bmQiIHN0cm9rZS1saW5lY2FwPSJyb3VuZCIgZmlsbD0iIzgwZmZkZiI+PHBhdGggc3R5bGU9InBhaW50LW9yZGVyOnN0cm9rZSBmaWxsIG1hcmtlcnMiIGQ9Im0xLjU4OTktMS41OTRoMC41NTc1MXYxLjk4NjhsMC4yNzg3NiAwLjI4MzgzaDAuNTU3NTFsMC4yNzg3Ni0wLjI4Mzgzdi0xLjk4NjhoMC41NTc1MXY1LjEwOWgtMC41NTc1MXYtMS45ODY4bC0wLjI3ODc2LTAuMjgzODNoLTEuMTE1bC0wLjI3ODc2LTAuMjgzODN6Ii8+PHBhdGggc3R5bGU9InBhaW50LW9yZGVyOnN0cm9rZSBmaWxsIG1hcmtlcnMiIGQ9Im00LjkzNS0xLjU5NC0wLjU1NzUxIDAuNTY3NjYgMmUtNyAxLjQxOTIgMC41NTc1MSAwLjU2NzY2LTAuNTU3NTEgMC41Njc2Ni0yZS03IDEuNDE5MiAwLjU1NzUxIDAuNTY3NjZoMS4xMTVsMC41NTc1MS0wLjU2NzY2IDJlLTcgLTEuNDE5Mi0wLjU1NzUxLTAuNTY3NjYgMC41NTc1MS0wLjU2NzY2LTJlLTcgLTEuNDE5Mi0wLjU1NzUxLTAuNTY3NjZ6bTAuMjc4NzYgMC41Njc2NmgwLjU1NzUxbDAuMjc4NzYgMC4yODM4MyAyZS03IDAuODUxNDktMC4yNzg3NiAwLjI4MzgzaC0wLjU1NzUxbC0wLjI3ODc2LTAuMjgzODMtMmUtNyAtMC44NTE0OXptMCAyLjU1NDVoMC41NTc1MWwwLjI3ODc2IDAuMjgzODMtMmUtNyAwLjg1MTQ5LTAuMjc4NzYgMC4yODM4M2gtMC41NTc1MWwtMC4yNzg3Ni0wLjI4MzgzIDJlLTcgLTAuODUxNDl6Ii8+PHBhdGggc3R5bGU9InBhaW50LW9yZGVyOnN0cm9rZSBmaWxsIG1hcmtlcnMiIGQ9Im03LjcyMjYtMS41OTQtMC41NTc1MSAwLjU2NzY2djMuOTczNmwwLjU1NzUxIDAuNTY3NjZoMS4xMTVsMC41NTc1MS0wLjU2NzY2di0xLjcwM2wtMC41NTc1MS0wLjU2NzY2aC0wLjgzNjI3bC0wLjI3ODc2IDAuMjgzODN2LTEuNzAzbDAuMjc4NzYtMC4yODM4M2gwLjU1NzUxbDAuMjc4NzYgMC4yODM4M3YwLjI4MzgzaDAuNTU3NTF2LTAuNTY3NjZsLTAuNTU3NTEtMC41Njc2NnptMC4yNzg3NiAyLjgzODNoMC41NTc1MWwwLjI3ODc2IDAuMjgzODMtM2UtNyAxLjEzNTMtMC4yNzg3NiAwLjI4MzgzaC0wLjU1NzUxbC0wLjI3ODc2LTAuMjgzODMgM2UtNyAtMS4xMzUzeiIvPjwvZz48cmVjdCBmaWxsPSJ1cmwoI2cpIiByeT0iMi4yNTg5ZS0xOCIgcng9IjIuMjEwMmUtMTgiIGhlaWdodD0iOC4wNTcxIiB3aWR0aD0iMTAuNTkxIiB5PSItMy4wMDgiIHg9Ii4xMTY0NiIvPjxwYXRoIHN0eWxlPSJwYWludC1vcmRlcjpmaWxsIG1hcmtlcnMgc3Ryb2tlIiBzdHJva2Utd2lkdGg9Ii4wODA1MDMiIHN0cm9rZS1vcGFjaXR5PSIuNSIgc3Ryb2tlLW1pdGVybGltaXQ9IjMuNiIgZmlsbD0idXJsKCNyKSIgZD0ibTAuMDc2NjQ3LTMuMTMwMWMtMC4wODgyMyAwLTAuMTU5MjYgMC4wNzI1OTctMC4xNTkyNiAwLjE2Mjc3djcuOTc1N2MwIDAuMDkwMTc0IDAuMDcxMDMgMC4xNjI3NyAwLjE1OTI2IDAuMTYyNzcgMCAwIDMuNTU2OCAwLjA4MTM4NCA1LjMzNTIgMC4wODEzODQgMS43Nzg0IDAgNS40OTY2LTAuMDgxMzg0IDUuNDk2Ni0wLjA4MTM4NCAwLjA4ODIzIDAgMC4xNTkyNi0wLjA3MjU5NCAwLjE1OTI2LTAuMTYyNzd2LTcuOTc1N2MwLTAuMDkwMTc1LTAuMDcxMDMtMC4xNjI3Ny0wLjE1OTI2LTAuMTYyNzd6bTUuMzM1MiAwLjE2Mjc3YzEuNjczMSAyZS03IDMuNTA2MiAwLjA5NjU0NCA1LjE3ODEgMC4xNjI3NyAwLjEwMjU2IDAuMDA0MDYgMC4xNTU1MyAwLjA0NDYyMiAwLjE1OTI2IDAuMTYyNzcgMC4xNDU4OSAyLjQxNzEgMC4xMzczNyA0LjkxMSAwIDcuMzI0Ny0wLjAwNDYgMC4wODEzNzQtMC4wNzk2MyAwLjE1Ny0wLjE1OTI2IDAuMTYyNzctMS42NDUgMC4xMTkxNC0zLjUyOSAwLjE2Mjc3LTUuMTc4MSAwLjE2Mjc3LTEuNjIyNiAwLTMuMzE4Ni0wLjA0MzcxNC00LjkzNzEtMC4xNjI3Ny0wLjA3OTYzLTAuMDA1ODUtMC4xNDkwMy0wLjA4MTgwOC0wLjE1OTI2LTAuMTYyNzctMC4zMDQwOC0yLjQwNy0wLjE1NjE2LTQuOTA3LTAuMDc5NjMtNy4zMjQ3IDAuMDAzNzUtMC4xMTgxMyAwLjA1NjY4Mi0wLjE1ODcxIDAuMTU5MjYtMC4xNjI3NyAxLjY3MTgtMC4wNjYyMjggMy4zNDQ1LTAuMTYyNzcgNS4wMTY3LTAuMTYyNzd6Ii8+PGcgc3R5bGU9Im1peC1ibGVuZC1tb2RlOm5vcm1hbCIgc3Ryb2tlLXdpZHRoPSIxLjIiIHRyYW5zZm9ybT0ibWF0cml4KC4yNjc4MyAwIDAgLjI3Mzc0IC0yLjcwMzEgLTQuNzM0NSkiPjxyZWN0IHN0eWxlPSJtaXgtYmxlbmQtbW9kZTpub3JtYWw7cGFpbnQtb3JkZXI6bWFya2VycyBzdHJva2UgZmlsbCIgZmlsbD0idXJsKCNrKSIgcnk9IjEuMTY3MWUtMTciIHJ4PSIxLjM4NTJlLTE3IiBoZWlnaHQ9IjYuMjIxMiIgd2lkdGg9IjYuMjQ0NyIgeT0iNy4zMjUyIiB4PSI1My40OTciLz48cGF0aCBhcmlhLWxhYmVsPSJIQUwiIHN0eWxlPSJtaXgtYmxlbmQtbW9kZTpub3JtYWw7cGFpbnQtb3JkZXI6bWFya2VycyBzdHJva2UgZmlsbCIgc3Ryb2tlLXdpZHRoPSIuNTA0NTYiIHN0cm9rZS1vcGFjaXR5PSIuNSIgc3Ryb2tlLWxpbmVqb2luPSJyb3VuZCIgc3Ryb2tlLWxpbmVjYXA9InJvdW5kIiBkPSJtNTUuODc3IDguNDgzOGgtMC41ODM1OHYtMC4xMjE3NGgwLjU4MzU4em0wIDAuMjM2MmgtMC41ODM1OHYtMC4xMjE3NGgwLjU4MzU4em0tMC4yMDY4OSAwLjIxNjcyaC0wLjM3NjY5di0wLjEwNDdoMC4zNzY2OXptLTAuNTcxODctMC40NTI5MWgtMC41NjAxNnYtMC4xMjE3NGgwLjU2MDE2em0wLjU3MTg3IDAuNjY5NjNoLTAuOTQ0NjZ2LTAuMTA3MTRoMC45NDQ2NnptLTAuNTcxODctMC40MzM0M2gtMC41NjAxNnYtMC4xMjE3NGgwLjU2MDE2em0wLjU3MTg3IDAuODg2MzRoLTAuMzc2Njl2LTAuMTM2MzZoMC4zNzY2OXptLTAuNTcxODctMC42Njk2M2gtMC4zNzI3OXYtMC4xMDQ3aDAuMzcyNzl6bTAuNzc4NzYgMC45MDgyNmgtMC41ODM1OHYtMC4xMjE3NmgwLjU4MzU4em0tMC4yMDY4OS0wLjQ4MjEzaC0wLjk0NDY2di0wLjExMmgwLjk0NDY2em0wLjIwNjg5IDAuNzE4MzNoLTAuNTgzNTh2LTAuMTE5MzJoMC41ODM1OHptLTAuNzc4NzYtMC40NzQ4M2gtMC4zNzI3OXYtMC4xMzYzNmgwLjM3Mjc5em0wIDAuMjM4NjNoLTAuNTYwMTZ2LTAuMTIxNzZoMC41NjAxNnptMCAwLjIzNjE5aC0wLjU2MDE2di0wLjExOTMyaDAuNTYwMTZ6bTEuOTYyNC0xLjU5NzRoLTAuNjMyMzhsMC4wMTU1Ny0wLjEyMTc0aDAuNTk5MnptMC4wNjYzNyAwLjQ2MDIyaC0wLjM0MzUxbC0wLjAxNTU2LTAuMTEyaDAuMzQxNTV6bS0wLjAzMzE5LTAuMjI0MDJoLTAuMzQxNTZsLTAuMDA5OC0wLjA3NTUwNC0wLjAwOTggMC4wNzU1MDRoLTAuMzM3NjZsMC4wMTU1Ni0wLjEyMTc0aDAuNjY1NTZ6bTAuMDY0NDIgMC40NDU2MWgtMC4zNDM1MWwtMC4wMTU1OC0wLjExMmgwLjM0MTU2em0tMC40NDExLTAuMzMzNi0wLjAxNzU3IDAuMTEyaC0wLjMzNTdsMC4wMTU1Ny0wLjExMnptMC43MTA0NSAxLjAxM2gtMC41NDg0NmwtMC4wMTM2OC0wLjEyMTc2aDAuNTYyMTF6bS0wLjIzODEyLTAuNDU3NzhoLTAuODg4MDZsMC4wMTU1Ny0wLjEwOTU4aDAuODU2ODN6bS0wLjUwMzU2LTAuMzMzNi0wLjAxNzU3IDAuMTEyaC0wLjMzNTdsMC4wMTU1Ni0wLjExMnptMC43NDE2OCAxLjAyNzZoLTAuNTIxMTJsLTAuMDEzNjgtMC4xMTkzMmgwLjUzNDc4em0tMC4yMDY4OS0wLjQ3NDgzaC0wLjk0ODU2bDAuMDE1NTctMC4xMTE5OWgwLjkxNzM0em0tMC42MDExNSAwLjExNjg4LTAuMDEzNjggMC4xMjE3NmgtMC41NTA0MXYtMC4xMjE3NnptLTAuMDI3MzMgMC4yMzg2My0wLjAxMzY4IDAuMTE5MzJoLTAuNTIzMDh2LTAuMTE5MzJ6bTEuNzc2OS0xLjQ3ODFoLTAuNzQ1NTh2LTAuMTIxNzRoMC43NDU1OHptMCAwLjIzNjJoLTAuNzQ1NTh2LTAuMTIxNzRoMC43NDU1OHptMC4zMzM3NiAwLjg4NjM0aC0wLjM1MTMydi0wLjEzNjM2aDAuMzUxMzJ6bS0wLjUxOTE4LTAuNjY5NjJoLTAuMzc0NzR2LTAuMTA0N2gwLjM3NDc0em0wIDAuMjE2NzJoLTAuMzc0NzR2LTAuMTA3MTRoMC4zNzQ3NHptMCAwLjIwOTQxaC0wLjM3NDc0di0wLjExMmgwLjM3NDc0em0wIDAuMjQzNWgtMC4zNzQ3NHYtMC4xMzYzNmgwLjM3NDc0em0wLjUxOTE3IDAuMjM4NjNoLTEuMDc5M3YtMC4xMjE3NmgxLjA3OTN6bTAgMC4yMzYxOWgtMS4wNzkzdi0wLjExOTMyaDEuMDc5M3oiLz48cGF0aCBzdHlsZT0ibWl4LWJsZW5kLW1vZGU6bm9ybWFsO3BhaW50LW9yZGVyOmZpbGwgbWFya2VycyBzdHJva2UiIHN0cm9rZS13aWR0aD0iLjQ4MzE2IiBzdHJva2Utb3BhY2l0eT0iLjUiIHN0cm9rZS1taXRlcmxpbWl0PSIzLjYiIGQ9Im01Ny4yNjYgMTAuODA5Yy0wLjAxMjA4IDAtMC4wMjE4OSA1ZS0zIC0wLjAyOTI0IDAuMDE0NzYtMC4wMDcyIDAuMDA5NS0wLjAxMDU5IDAuMDIyNzgtMC4wMTA1OSAwLjAzODc2IDAgMC4wMjc1MSAwLjAxMjQ4IDAuMDQwNTkgMC4wMzczOSAwLjA0MDU5IDAuMDExNjcgMCAwLjAyMTA5LTAuMDA0MSAwLjAyODQ2LTAuMDEyODUgMC4wMDc2LTAuMDA5MSAwLjAxMTQtMC4wMjI0OCAwLjAxMTQtMC4wMzk2OCAwLTAuMDI3NzctMC4wMTI0OC0wLjA0MTUyLTAuMDM3MzktMC4wNDE1MnptLTEuNTAyNSA4LjkxZS00IC0wLjAwNTcgMC4wMzIzaDAuMDA1N2MwLjAzMTE3IDAgMC4wNDYzMSAwLjAxMTQ3IDAuMDQ2MzEgMC4wMzUwNyAwIDAuMDA0NC0wLjAwMjQgMC4wMTc1Ni0wLjAwNjUgMC4wMzk2N2wtMC4wODYxMyAwLjQ2NjkzaDAuMDYxNzRsMC4wMzU3NC0wLjE5Mzc5YzAuMDA2OS0wLjAzNjg2IDAuMDIzNi0wLjA3MzU2IDAuMDQ5NTctMC4xMTE2NiAwLjAyNjE4LTAuMDM4MzEgMC4wNTE3My0wLjA1ODE0IDAuMDc2MzgtMC4wNTgxNCAwLjAyMDMzIDAgMC4wMzA4OSAwLjAxNTQ4IDAuMDMwODkgMC4wNDUyMSAwIDAuMDE2NDctMC4wMDMzIDAuMDM5NjctMC4wMDk2IDAuMDcwMTRsLTAuMDE1NDQgMC4wNzg0MmMtMC4wMDg0IDAuMDQ0OTYtMC4wMTMwMyAwLjA3ODQxLTAuMDEzMDMgMC4xMDE1MSAwIDAuMDIzMSAwLjAwNTQgMC4wNDE4NCAwLjAxNjI0IDAuMDU1MzggMC4wMTExMyAwLjAxMzU0IDAuMDI1NDggMC4wMjAzIDAuMDQzODggMC4wMjAzIDAuMDI1MTIgMCAwLjA1MjI3LTAuMDE0ODcgMC4wODEyNy0wLjA0MzM3bC0wLjAxMTQtMC4wMjIxNWMtMC4wMTU1OCAwLjAxMTQ3LTAuMDMwMyAwLjAxNzUzLTAuMDQzMDYgMC4wMTc1My0wLjAxNTU4IDAtMC4wMjM1Ny0wLjAxMTg4LTAuMDIzNTctMC4wMzU5OCAwLTAuMDIyNiAzZS0zIC0wLjA0OTEzIDllLTMgLTAuMDc5MzZsMC4wMTcwNi0wLjA4OTUxYzhlLTMgLTAuMDM5MzIgMC4wMTIyMS0wLjA2NjE2IDAuMDEyMjEtMC4wODIxMyAwLTAuMDU1NzgtMC4wMjMzLTAuMDgzOTgtMC4wNzA2OS0wLjA4Mzk4LTAuMDQ1MjEgMC0wLjA4NjczIDAuMDMzNjktMC4xMjM1MyAwLjEwMTUxaC0wLjAwNjVjMC4wMDk2LTAuMDQyMjggMC4wMTgyMS0wLjA4NDIxIDAuMDI2MDEtMC4xMjU1MWwwLjAyNi0wLjEzODQyem0tMS4xMjU1IDAuMDM1MDctMC4wMDU3IDAuMDMxMzhoOWUtM2MwLjAxOTA0IDAgMC4wMzEzMiAzZS0zIDAuMDM3MzkgMC4wMDkzIDZlLTMgMC4wMDYxIDllLTMgMC4wMTQ5NiA5ZS0zIDAuMDI2NzYgMCAwLjAwNTMtMy4xOGUtNCAwLjAxMTQ3LTAuMDAxOCAwLjAxODQ0bC0wLjA2OTA3IDAuMzcwOTZjLTNlLTMgMC4wMTU3Mi0wLjAwOTEgMC4wMjc4MS0wLjAxNzg3IDAuMDM2OTItMC4wMDg3IDAuMDA4OC0wLjAyNDYzIDAuMDEyODUtMC4wNDcxNCAwLjAxMjg1aC05ZS0zbC0wLjAwNDkgMC4wMzIzMWgwLjM1Njc0bDAuMDI5MjQtMC4xMzE5N2gtMC4wMzQ5NGwtMC4wMTA1OCAwLjAzMjNjLTAuMDEyNzUgMC4wNDEyNy0wLjAzODEyIDAuMDYxODQtMC4wNzU1NyAwLjA2MTg0aC0wLjEyNzU4bDAuMDQyMjYtMC4yMjYwOGgwLjE2MDA4bDAuMDA2NS0wLjAzNjkyaC0wLjE2MDA5bDAuMDM4MTgtMC4yMDAyNWgwLjExMTMzYzAuMDMxNiAwIDAuMDQ3MTQgMC4wMTYxNSAwLjA0NzE0IDAuMDQ5ODIgMCAwLjAwMjEtNS4yNWUtNCAwLjAwOTQtMC4wMDE4IDAuMDIxMjJsLTAuMDAxOCAwLjAyMzA2aDAuMDM0OTZsMC4wMjExMy0wLjEzMTk3em0yLjM4NSAwLjA0MDU5Yy0wLjAyNDQ1IDAuMDcwNTItMC4wNTgzMSAwLjEwNjEzLTAuMTAxNTcgMC4xMDYxM2wtMC4wMDU3IDAuMDMwNDVoMC4wNTAzOWwtMC4wNDA2NCAwLjIxNzc4Yy0wLjAwNDMgMC4wMjMzNS0wLjAwNjUgMC4wNDM4My0wLjAwNjUgMC4wNjI3NCAwIDAuMDU4NzQgMC4wMjQwNiAwLjA4ODU4IDAuMDcyMzMgMC4wODg1OCAwLjAyOTg3IDAgMC4wNTk1My0wLjAxMTg4IDAuMDg5MzctMC4wMzU5OGwtMC4wMTE0LTAuMDI4NmMtMC4wMTgxNyAwLjAxMTE5LTAuMDM1NjcgMC4wMTY2MS0wLjA1MzY0IDAuMDE2NjEtMC4wMjM1OCAwLTAuMDM1NzQtMC4wMTQwMS0wLjAzNTc0LTAuMDQxNTIgMC0wLjAxNDI1IDAuMDAyNy0wLjAzNTYxIDAuMDA4MS0wLjA2NDZsMC4wNDA2My0wLjIxNTAxaDAuMDgwNDZsMC4wMDgxLTAuMDQzMzZoLTAuMDgwNDRsMC4wMTcwNi0wLjA5MzIxem0xLjA1NTYgMC4wNTYyOGMtMC4wMjY4MyAwLTAuMDUwNTQgMC4wMTc4OC0wLjA3MTUxIDAuMDUzNTMtMC4wMTczLTAuMDE1OTYtMC4wMzk5LTAuMDIzOTktMC4wNjgyNi0wLjAyMzk5LTAuMDQ2MzEgMC0wLjA4Mzc5IDAuMDE3Ny0wLjExMjE0IDAuMDUyNi0wLjAyODE0IDAuMDM0NjUtMC4wNDIyNiAwLjA3MjgzLTAuMDQyMjYgMC4xMTUzNiAwIDAuMDQzIDAuMDE1MzYgMC4wNzMwNSAwLjA0NjMxIDAuMDg5NTEtMC4wMjQ0NSAwLjAxNDI1LTAuMDQwNjggMC4wMjcwMy0wLjA0OTU3IDAuMDM3ODItMC4wMDg3IDAuMDEwOTItMC4wMTMwMyAwLjAyMzI4LTAuMDEzMDMgMC4wMzg3NiAwIDAuMDIyODQgMC4wMTA0NSAwLjA0MDggMC4wMzE3IDAuMDUyNi0wLjAzMzU1IDAuMDA3NS0wLjA2MDE3IDAuMDE5ODMtMC4wNzk2NCAwLjAzODc2LTAuMDE5MjYgMC4wMTkxNi0wLjAyODQ0IDAuMDQzMTEtMC4wMjg0NCAwLjA3MDE0IDAgMC4wNjU2MiAwLjA0NzkyIDAuMDk3ODEgMC4xNDQ2NSAwLjA5NzgxIDAuMDU3NzggMCAwLjEwMjExLTAuMDEzNCAwLjEzMzI2LTAuMDM5NjggMC4wMzExNy0wLjAyNjA1IDAuMDQ3MTQtMC4wNjE5NiAwLjA0NzE0LTAuMTA4ODkgMC0wLjA1NzUxLTAuMDM0MzktMC4wOTAzOC0wLjEwMzIxLTAuMDk4NzRsLTAuMDY0MTktMC4wMDgzYy0wLjAyMjcyLTAuMDAyNi0wLjAzMzMzLTAuMDA5Ny0wLjAzMzMzLTAuMDIyMTUgMC0wLjAxNzE5IDAuMDE1NTQtMC4wMzM0OSAwLjA0NzE0LTAuMDQ3OTkgMC4wMDM5IDkuODFlLTQgMC4wMTExMyAwLjAwMTkgMC4wMjExMyAwLjAwMTkgMC4wNDU2NSAwIDAuMDgyNi0wLjAxNzQ2IDAuMTEwNTEtMC4wNTI2IDAuMDI3OTEtMC4wMzU0IDAuMDQxNDMtMC4wNzQgMC4wNDE0My0wLjExNjI3IDAtMC4wMjMxLTAuMDA0OS0wLjA0MjQtMC4wMTQ2My0wLjA1ODE0IDAuMDEzMTYtMC4wMTE0NyAwLjAyNDY2LTAuMDE3NTIgMC4wMzMzMy0wLjAxNzUyIDAuMDEyMzUgMCAwLjAxNzg3IDAuMDA4NiAwLjAxNzg3IDAuMDI2NzYgMC4wMjYxOCAwIDAuMDM5ODEtMC4wMTQ5MiAwLjAzOTgxLTAuMDQ2MTQgMC0wLjAyMzEtMC4wMTE4MS0wLjAzNTA4LTAuMDM0MTQtMC4wMzUwOHptLTIuNDg3NCAwLjAyOTU0Yy0wLjA1NzEzIDAtMC4xMDQ3NyAwLjAyNzk5LTAuMTQyMjEgMC4wODMwNS0wLjAzNzQ0IDAuMDU0OC0wLjA1NjA4IDAuMTE1LTAuMDU2MDggMC4xODA4NyAwIDAuMDQ4NCAwLjAxMTk0IDAuMDg2NjYgMC4wMzU3NyAwLjExNDQzIDAuMDIzODEgMC4wMjc3NyAwLjA1NTU0IDAuMDQxNTIgMC4wOTQyNiAwLjA0MTUyIDAuMDM1MDQgMCAwLjA2MjkyLTAuMDA5NCAwLjA4MzctMC4wMjY3OCAwLjAyMDk4LTAuMDE3NyAwLjAzMDktMC4wMzYxNSAwLjAzMDktMC4wNTYyOSAwLTAuMDA5NC0yZS0zIC0wLjAxNjE1LTAuMDA2NS0wLjAxOTM3LTAuMDI1MSAwLjAzNjEyLTAuMDU3MTQgMC4wNTQ0NC0wLjA5NTg4IDAuMDU0NDQtMC4wNDg2OSAwLTAuMDczMTMtMC4wMzQxMi0wLjA3MzEzLTAuMTAyNDQgMC0wLjA1MDM4IDAuMDEyMDgtMC4xMDE1MSAwLjAzNDk0LTAuMTU0MTEgMC4wMjMxNS0wLjA1MjYgMC4wNDk1LTAuMDc5MzYgMC4wODA0NC0wLjA3OTM2IDAuMDE2MDEgMCAwLjAyOTExIDAuMDA4NCAwLjAzODE3IDAuMDI0OTEgMC4wMDkxIDAuMDE2MjEgMC4wMTM4MSAwLjAzNzgyIDAuMDEzODEgMC4wNjQ1OSAwLjAxNzk1IDAgMC4wMzE2NC0wLjAwNDcgMC4wNDIyNi0wLjAxNDc2IDAuMDEwOTktMC4wMDk5IDAuMDE2MjQtMC4wMjM1MiAwLjAxNjI0LTAuMDM4NzYgMC0wLjAyMDY0LTAuMDA4MS0wLjAzNjk5LTAuMDI1Mi0wLjA1MDc1LTAuMDE3MDktMC4wMTM4Mi0wLjA0MTAxLTAuMDIxMjItMC4wNzE1MS0wLjAyMTIyem0wLjcyMTYxIDBjLTAuMDU2MDYgMC0wLjEwMzMyIDAuMDI5MzctMC4xNDE0IDAuMDg4NTgtMC4wMzc4NiAwLjA1OTIzLTAuMDU2ODkgMC4xMjM1Ni0wLjA1Njg5IDAuMTkyODYgMCAwLjA0MzUgMC4wMDc5IDAuMDc4MDkgMC4wMjI3NCAwLjEwMjQ0IDAuMDE1MTQgMC4wMjQwOCAwLjAzNjM0IDAuMDM1OTggMC4wNjMzOCAwLjAzNTk4IDAuMDUxMDggMCAwLjA5MjUyLTAuMDQwOTUgMC4xMjQzMy0wLjEyMTgxaDAuMDA0MWMtMC4wMDQ1IDAuMDIzMS0wLjAwNjUgMC4wNDMxLTAuMDA2NSAwLjA1OTA1IDAgMC4wNDE3NyAwLjAxNzM4IDAuMDYyNzQgMC4wNTIgMC4wNjI3NCAwLjAzMDc0IDAgMC4wNjE2NS0wLjAxNTI0IDAuMDkzNDYtMC4wNDUyMmwtMC4wMTIyMS0wLjAyMjE1Yy0wLjAxOTQ3IDAuMDEyOTktMC4wMzUzOSAwLjAxOTM3LTAuMDQ3OTMgMC4wMTkzNy0wLjAxNDQ5IDAtMC4wMjE5My0wLjAxMjMtMC4wMjE5My0wLjAzNzgyIDAtMC4wMjExMyAwLjAwMzMtMC4wNDkzMSAwLjAwOTYtMC4wODM5OGwwLjA0NTUtMC4yNDE3N2gtMC4wMjExM2wtMC4wMjkyNCAwLjAxOTM3Yy0wLjAyMTgzLTAuMDE4MTgtMC4wNDc5My0wLjAyNzY4LTAuMDc4MDEtMC4wMjc2OHptLTEuMDcxIDguOTNlLTRjLTAuMDQ0NzggMC0wLjA4NTE2IDAuMDMzNjktMC4xMjEwOCAwLjEwMTUxaC0wLjAwNjVsMC4wMTc4Ny0wLjA5NTA1aC0wLjEyMjc0bC0wLjAwNTcgMC4wMzEzOGgwLjAwNDljMC4wMzA5NCAwIDAuMDQ2MzEgMC4wMTIxNiAwLjA0NjMxIDAuMDM1OTkgMCAwLjAwODYtNi4zNWUtNCAwLjAyMDEzLTAuMDAzMyAwLjAzNDE0bC0wLjA1NjA5IDAuMzAzNmgwLjA2MTc2bDAuMDM1NzYtMC4xOTM3OGMwLjAwNzMtMC4wMzc2IDAuMDIzODEtMC4wNzQ3NSAwLjA0OTU3LTAuMTEyNTggMC4wMjU5Ni0wLjAzNzg0IDAuMDUxNzMtMC4wNTcyMiAwLjA3NjM4LTAuMDU3MjIgMC4wMjAzNCAwIDAuMDMwMDcgMC4wMTU0OCAwLjAzMDA3IDAuMDQ1MjEgMCAwLjAxNjQ3LTAuMDAzMyAwLjAzOTY3LTAuMDA5NiAwLjA3MDEzbC0wLjAxNTQzIDAuMDc4NDNjLTAuMDA4NCAwLjA0NDk2LTAuMDEyMjEgMC4wNzg0MS0wLjAxMjIxIDAuMTAxNSAwIDAuMDIzMSAwLjAwNTQgMC4wNDE4NCAwLjAxNjI0IDAuMDU1MzggMC4wMTExMyAwLjAxMzU0IDAuMDI1NDggMC4wMjAzIDAuMDQzODkgMC4wMjAzIDAuMDI1MTIgMCAwLjA1MjI2LTAuMDE0ODcgMC4wODEyNy0wLjA0MzM3bC0wLjAxMjIxLTAuMDIyMTVjLTAuMDE1NTggMC4wMTE0Ny0wLjAyOTQ5IDAuMDE3NTItMC4wNDIyNiAwLjAxNzUyLTAuMDE1NTggMC0wLjAyMzU3LTAuMDExODgtMC4wMjM1Ny0wLjAzNTk4IDAtMC4wMjI2IDNlLTMgLTAuMDQ5MTMgOWUtMyAtMC4wNzkzNmwwLjAxNzA2LTAuMDg4NThjOGUtMyAtMC4wMzkzMiAwLjAxMjIxLTAuMDY3MDcgMC4wMTIyMS0wLjA4MzA1IDAtMC4wNTU3OC0wLjAyNDEzLTAuMDgzOTgtMC4wNzE1MS0wLjA4Mzk4em0xLjUwNTggMGMtMC4wNDQ3OSAwLTAuMDg1MTUgMC4wMzM2OS0wLjEyMTA4IDAuMTAxNTFoLTAuMDA2NWwwLjAxNzg3LTAuMDk1MDVoLTAuMTIzNTNsLTAuMDA1NyAwLjAzMTM4aDAuMDA0OWMwLjAzMDk0IDAgMC4wNDcxNCAwLjAxMjE2IDAuMDQ3MTQgMC4wMzU5OSAwIDAuMDA4Ni0wLjAwMTQgMC4wMjAxMy0wLjAwNDEgMC4wMzQxNGwtMC4wNTYwOCAwLjMwMzZoMC4wNjE3N2wwLjAzNTc3LTAuMTkzNzhjMC4wMDczLTAuMDM3NiAwLjAyMzgxLTAuMDc0NzUgMC4wNDk1Ni0wLjExMjU4IDAuMDI1OTYtMC4wMzc4NCAwLjA1MTczLTAuMDU3MjIgMC4wNzYzOS0wLjA1NzIyIDAuMDIwMzMgMCAwLjAzMDA3IDAuMDE1NDggMC4wMzAwNyAwLjA0NTIxIDAgMC4wMTY0Ny0wLjAwMzMgMC4wMzk2Ny0wLjAwOTYgMC4wNzAxM2wtMC4wMTQ2MyAwLjA3ODQzYy0wLjAwODQgMC4wNDQ5Ni0wLjAxMzAzIDAuMDc4NDEtMC4wMTMwMyAwLjEwMTUgMCAwLjAyMzEgMC4wMDU0IDAuMDQxODQgMC4wMTYyNCAwLjA1NTM4IDAuMDExMTMgMC4wMTM1NCAwLjAyNTQ5IDAuMDIwMyAwLjA0Mzg5IDAuMDIwMyAwLjAyNTEgMCAwLjA1MjI3LTAuMDE0ODcgMC4wODEyNy0wLjA0MzM3bC0wLjAxMjIxLTAuMDIyMTVjLTAuMDE1NTggMC4wMTE0Ny0wLjAyOTUgMC4wMTc1Mi0wLjA0MjI2IDAuMDE3NTItMC4wMTU1OCAwLTAuMDIzNTctMC4wMTE4OC0wLjAyMzU3LTAuMDM1OTggMC0wLjAyMjYgM2UtMyAtMC4wNDkxMyA5ZS0zIC0wLjA3OTM2bDAuMDE3MDYtMC4wODg1OGM4ZS0zIC0wLjAzOTMyIDAuMDEyMjEtMC4wNjcwNyAwLjAxMjIxLTAuMDgzMDUgMC0wLjA1NTc4LTAuMDIzMy0wLjA4Mzk4LTAuMDcwNjktMC4wODM5OHptMC44NDUxMiAwYy0wLjA0NDc5IDAtMC4wODUxNCAwLjAzMzY5LTAuMTIxMDggMC4xMDE1MWgtMC4wMDY1bDAuMDE3ODctMC4wOTUwNWgtMC4xMjM1M2wtMC4wMDU3IDAuMDMxMzhoMC4wMDU3YzAuMDMwOTQgMCAwLjA0NjMxIDAuMDEyMTYgMC4wNDYzMSAwLjAzNTk5IDAgMC4wMDg2LTAuMDAxNCAwLjAyMDEzLTAuMDA0MSAwLjAzNDE0bC0wLjA1NjA4IDAuMzAzNmgwLjA2MTc2bDAuMDM1NzctMC4xOTM3OGMwLjAwNzMtMC4wMzc2IDAuMDI0NjItMC4wNzQ3NSAwLjA1MDM5LTAuMTEyNTggMC4wMjU5Ny0wLjAzNzg0IDAuMDUwOS0wLjA1NzIyIDAuMDc1NTctMC4wNTcyMiAwLjAyMDMzIDAgMC4wMzA4OCAwLjAxNTQ4IDAuMDMwODggMC4wNDUyMSAwIDAuMDE2NDctMC4wMDMzIDAuMDM5NjctMC4wMDk2IDAuMDcwMTNsLTAuMDE1NDQgMC4wNzg0M2MtMC4wMDg0IDAuMDQ0OTYtMC4wMTMwMyAwLjA3ODQxLTAuMDEzMDMgMC4xMDE1IDAgMC4wMjMxIDAuMDA1NCAwLjA0MTg0IDAuMDE2MjQgMC4wNTUzOCAwLjAxMTEzIDAuMDEzNTQgMC4wMjYzIDAuMDIwMyAwLjA0NDY5IDAuMDIwMyAwLjAyNTA5IDAgMC4wNTE0Ni0wLjAxNDg3IDAuMDgwNDQtMC4wNDMzN2wtMC4wMTE0LTAuMDIyMTVjLTAuMDE1NTggMC4wMTE0Ny0wLjAzMDMgMC4wMTc1Mi0wLjA0MzA2IDAuMDE3NTItMC4wMTU1OCAwLTAuMDIyNzQtMC4wMTE4OC0wLjAyMjc0LTAuMDM1OTggMC0wLjAyMjYgMC4wMDIzLTAuMDQ5MTMgMC4wMDgxLTAuMDc5MzZsMC4wMTcwNi0wLjA4OTUxYzhlLTMgLTAuMDM5MzEgMC4wMTIyMS0wLjA2NjE2IDAuMDEyMjEtMC4wODIxMyAwLTAuMDU1NzgtMC4wMjMzLTAuMDgzOTgtMC4wNzA3LTAuMDgzOTh6bS0wLjQzMTUgMC4wMDY0LTAuMDA1NyAwLjAzMTM4aDllLTNjMC4wMjcwNSAwIDAuMDQwNjQgMC4wMTExOSAwLjA0MDY0IDAuMDMyMyAwIDAuMDA1My05LjQzZS00IDAuMDExMzMtMC4wMDI2IDAuMDE5MzdsLTAuMDI2IDAuMTM5MzRjLTAuMDA5OSAwLjA1NjUxLTAuMDE0NjMgMC4wOTU1LTAuMDE0NjMgMC4xMTgxMSAwIDAuMDIwNjQgMC4wMDUzIDAuMDM4MTYgMC4wMTU0MyAwLjA1MTY5IDAuMDEwMTggMC4wMTM1NCAwLjAyMzM4IDAuMDIwMyAwLjAzOTgxIDAuMDIwMyAwLjAyOTIyIDAgMC4wNTk0OS0wLjAxNTI0IDAuMDkwMTktMC4wNDUyMmwtMC4wMTIyMS0wLjAyMjE1Yy0wLjAxOTA0IDAuMDEyOTktMC4wMzUxOSAwLjAxOTM3LTAuMDQ3OTMgMC4wMTkzNy0wLjAxNDcxIDAtMC4wMjE5Ni0wLjAxMjMtMC4wMjE5Ni0wLjAzNzgzIDAtMC4wMTk2NSAzZS0zIC0wLjA0Nzg1IDAuMDA5Ni0wLjA4Mzk4bDAuMDQ1NS0wLjI0Mjd6bS0wLjg0NDMxIDAuMDI2NzhjMC4wMjMzOCAwIDAuMDM5MzkgMC4wMDg2IDAuMDQ5NTcgMC4wMjY3NmwtMC4wMjQzNyAwLjEzMzgyYy0wLjAwNzcgMC4wNDM5OC0wLjAyMzcyIDAuMDg0Ny0wLjA0Nzk0IDAuMTIxODEtMC4wMjQyNSAwLjAzNzExLTAuMDQ3ODIgMC4wNTUzOC0wLjA2OTg4IDAuMDU1MzgtMC4wMjc5MSAwLTAuMDQxNDMtMC4wMjg1Mi0wLjA0MTQzLTAuMDg2NzQgMC0wLjA1Nzc2IDAuMDEyNzYtMC4xMTQzMiAwLjAzODE5LTAuMTY4ODcgMC4wMjU3Ni0wLjA1NDggMC4wNTgwMy0wLjA4MjEzIDAuMDk1ODgtMC4wODIxM3ptMS42MTM5IDguOTFlLTRjMC4wMzA1MiAwIDAuMDQ1NSAwLjAyMDUzIDAuMDQ1NSAwLjA2MTgzIDAgMC4wMzM5Mi04ZS0zIDAuMDY1MzctMC4wMjM1NyAwLjA5NDEyLTAuMDE1MzYgMC4wMjg1Mi0wLjAzNTYyIDAuMDQyNDUtMC4wNjA5NCAwLjA0MjQ1LTAuMDMwNzIgMC0wLjA0NjMxLTAuMDIwNTMtMC4wNDYzMS0wLjA2MTgzIDAtMC4wMzM0MSAwLjAwNzYtMC4wNjQ0NCAwLjAyMjc0LTAuMDkzMjEgMC4wMTUzNi0wLjAyOSAwLjAzNjU5LTAuMDQzMzcgMC4wNjI1OS0wLjA0MzM3em0tMC4wOTgzMSAwLjM2ODE5IDAuMDY0MTkgMC4wMDY0YzAuMDQxMzMgMC4wMDQxIDAuMDYyNTcgMC4wMjMzNSAwLjA2MjU3IDAuMDU2MjggMCAwLjAyNzc3LTAuMDEwMzEgMC4wNDkzLTAuMDMwODkgMC4wNjU0OS0wLjAyMDMzIDAuMDE2NDctMC4wNTA0NCAwLjAyNDkxLTAuMDg5MzcgMC4wMjQ5MS0wLjA2MjU0IDAtMC4wOTM0Ni0wLjAyMTc3LTAuMDkzNDYtMC4wNjU1MSAwLTAuMDIwMzkgMC4wMDU3LTAuMDM3NjcgMC4wMTcwNi0wLjA1MTY4IDAuMDExNTMtMC4wMTQwMSAwLjAyNDgzLTAuMDIzNDMgMC4wNDA2My0wLjAyODYgMC4wMTYtMC4wMDUzIDAuMDI2MDEtMC4wMDc3IDAuMDI5MjYtMC4wMDc1em0tMC43ODA5MyAwLjM3OTI3Yy0wLjAxMjA4IDAtMC4wMjE4OSA1ZS0zIC0wLjAyOTI2IDAuMDE0NzYtMC4wMDcyIDAuMDA5NS0wLjAxMDU4IDAuMDIyNzgtMC4wMTA1OCAwLjAzODc2IDAgMC4wMjc1MiAwLjAxMjQ4IDAuMDQwNiAwLjAzNzM5IDAuMDQwNiAwLjAxMTY3IDAgMC4wMjEwOS0wLjAwNDEgMC4wMjg0NC0wLjAxMjg1IDAuMDA3Ni0wLjAwOTEgMC4wMTE0LTAuMDIyNDcgMC4wMTE0LTAuMDM5NjcgMC0wLjAyNzc3LTAuMDEyNDgtMC4wNDE1Mi0wLjAzNzM5LTAuMDQxNTJ6bS0xLjYyNzcgOC45M2UtNCAtMC4wMDY1IDAuMDMyM2gwLjAwODFjMC4wMzExNyAwIDAuMDQ3MTQgMC4wMTE0NyAwLjA0NzE0IDAuMDM1MDcgMCAwLjAwNzctMC4wMDIyIDAuMDE5MTUtMC4wMDQ5IDAuMDM0MTRsLTAuMDUzNjQgMC4yODk3NmMtMC4wMDk2IDAuMDU1My0wLjAxNDYzIDAuMDk0MjctMC4wMTQ2MyAwLjExODExIDAgMC4wMjExMyAwLjAwNDMgMC4wMzg0IDAuMDE0NjMgMC4wNTE2OSAwLjAxMDMxIDAuMDEzMjYgMC4wMjM4MSAwLjAyMDMgMC4wMzk4MSAwLjAyMDMgMC4wMjkyMiAwIDAuMDU5NDgtMC4wMTUyNCAwLjA5MDE5LTAuMDQ1MjJsLTAuMDEyMjEtMC4wMjIxNWMtMC4wMTkwNCAwLjAxMjk5LTAuMDM1MTkgMC4wMTkzNy0wLjA0NzkzIDAuMDE5MzctMC4wMTQ3MSAwLTAuMDIxOTYtMC4wMTIzLTAuMDIxOTYtMC4wMzc4MiAwLTAuMDE5OSAwLjAwMzgtMC4wNDgwOCAwLjAxMDU4LTAuMDgzOThsMC4wNzYzOS0wLjQxMTU3em0yLjQ0MzUgMC0wLjAwNTcgMC4wMzIzaDAuMDA3M2MwLjAzMTE2IDAgMC4wNDcxNCAwLjAxMTQ3IDAuMDQ3MTQgMC4wMzUwNyAwIDAuMDA3Ny0wLjAwMTMgMC4wMTkxNS0wLjAwNDEgMC4wMzQxNGwtMC4wNTQ0MyAwLjI4OTc2Yy0wLjAwOTYgMC4wNTUzLTAuMDE0NjMgMC4wOTQyNy0wLjAxNDYzIDAuMTE4MTEgMCAwLjAyMTEzIDAuMDA1MyAwLjAzODQgMC4wMTU0MyAwLjA1MTY5IDAuMDEwMzEgMC4wMTMyNiAwLjAyMzgxIDAuMDIwMyAwLjAzOTgxIDAuMDIwMyAwLjAyOTIyIDAgMC4wNTg2OC0wLjAxNTI0IDAuMDg5MzctMC4wNDUyMmwtMC4wMTIyMS0wLjAyMjE1Yy0wLjAxOTA0IDAuMDEyOTktMC4wMzQzNyAwLjAxOTM3LTAuMDQ3MTQgMC4wMTkzNy0wLjAxNDcxIDAtMC4wMjE5Ni0wLjAxMjMtMC4wMjE5Ni0wLjAzNzgyIDAtMC4wMTk5IDNlLTMgLTAuMDQ4MDggMC4wMDk2LTAuMDgzOThsMC4wNzcyLTAuNDExNTd6bS0zLjAwNjcgMC4wMjY3NmMtMC4wNzc5MSAwLTAuMTQzNDcgMC4wMzU0MS0wLjE5NTg0IDAuMTA1Mi0wLjA1MjM3IDAuMDY5NTQtMC4wNzgwMSAwLjE1MTk2LTAuMDc4MDEgMC4yNDczMSAwIDAuMDY0MzkgMC4wMTU2OSAwLjExNDM1IDAuMDQ3OTMgMC4xNDk0OSAwLjAzMjQ3IDAuMDM1MTQgMC4wNzc5MyAwLjA1MjYgMC4xMzU3MSAwLjA1MjYgMC4wNDMyOCAwIDAuMDc2OTEtMC4wMDk4IDAuMTAxNTctMC4wMjg2MiAwLjAyNDY3LTAuMDE4OTMgMC4wMzczOS0wLjA0MDUxIDAuMDM3MzktMC4wNjQ1OSAwLTAuMDEyMDItM2UtMyAtMC4wMjAyMS05ZS0zIC0wLjAyNDkxLTAuMDMwNzMgMC4wNDU3Mi0wLjA3MjIyIDAuMDY5Mi0wLjEyMzUzIDAuMDY5Mi0wLjA3ODc3IDAtMC4xMTc4My0wLjA0NzA3LTAuMTE3ODMtMC4xNDExOSAwLTAuMDgwMzUgMC4wMTg0Ni0wLjE1NDgyIDAuMDU1MjYtMC4yMjIzOSAwLjAzNzAxLTAuMDY3ODMgMC4wODI1OS0wLjEwMTUgMC4xMzczMy0wLjEwMTUgMC4wNDQxNCAwIDAuMDY2NjMgMC4wMzQxIDAuMDY2NjMgMC4xMDI0NCAwLjAxOTY5IDAgMC4wMzUyMy0wLjAwNTEgMC4wNDcxNC0wLjAxNTcgMC4wMTE5NC0wLjAxMDY0IDAuMDE3ODctMC4wMjU0MiAwLjAxNzg3LTAuMDQzMzYgMC0wLjAyNTgxLTAuMDEwOTktMC4wNDU5My0wLjAzMjUxLTAuMDYwOTItMC4wMjE2NC0wLjAxNTI0LTAuMDUxNDgtMC4wMjMwNi0wLjA5MDItMC4wMjMwNnptMS42NDM5IDAuMDA4My0wLjAwNTcgMC4wMzEzOGgwLjAwODFjMC4wMzIwMyAwIDAuMDQ3OTQgMC4wMTAzNiAwLjA0Nzk0IDAuMDMwNDUgMCAwLjAwNDctNy4xMmUtNCAwLjAxMTg4LTAuMDAyNiAwLjAyMTIybC0wLjA2OTA3IDAuMzcwMDRjLTAuMDA2NiAwLjAzNjEyLTAuMDI4MjMgMC4wNTM1My0wLjA2NSAwLjA1MzUzaC05ZS0zbC0wLjAwNTcgMC4wMzIzaDAuMjA5NjZjMC4wODA3MSAwIDAuMTQ1MTUtMC4wMzIxNSAwLjE5MzQtMC4wOTUwNSAwLjA0ODI0LTAuMDYzMTQgMC4wNzIzMy0wLjE0MjY4IDAuMDcyMzMtMC4yMzkgMC0wLjA2NTg1LTAuMDE2MDktMC4xMTU5NS0wLjA0ODc2LTAuMTUxMzQtMC4wMzI2OS0wLjAzNTY1LTAuMDc5NDEtMC4wNTM1My0wLjEzOTc3LTAuMDUzNTN6bTAuMTIzNTMgMC4wMzY4OWgwLjA1MjgzYzAuMDg0MTkgMCAwLjEyNTk2IDAuMDUzNDkgMC4xMjU5NiAwLjE1OTY0IDAgMC4wOTA5My0wLjAxODYzIDAuMTY0NzctMC4wNTYwOCAwLjIyMDU1LTAuMDM3MjIgMC4wNTU3OC0wLjA4NzkxIDAuMDgzMDctMC4xNTE5NiAwLjA4MzA3aC0wLjA1Nzd6bS0xLjQzMjYgMC4wODk1MWMtMC4wNTkwOCAwLTAuMTA3MjcgMC4wMjcxNS0wLjE0MzgzIDAuMDgxMjItMC4wMzYzNCAwLjA1MzgyLTAuMDU0NDQgMC4xMTQ4Ny0wLjA1NDQ0IDAuMTgyNzEgMCAwLjA0ODkxIDAuMDExNjcgMC4wODY5MSAwLjAzNDE0IDAuMTE0NDIgMC4wMjI1IDAuMDI3NTIgMC4wNTM0MiAwLjA0MTUyIDAuMDkzNDYgMC4wNDE1MiAwLjA1ODg1IDAgMC4xMDY4OC0wLjAyNzE1IDAuMTQzMDItMC4wODEyIDAuMDM2MTQtMC4wNTQzMSAwLjA1MzY0LTAuMTE1NjIgMC4wNTM2NC0wLjE4MjcyIDAtMC4wNTA2My0wLjAxMDk5LTAuMDg4NTUtMC4wMzMzMS0wLjExNTM2LTAuMDIyNS0wLjAyNjc4LTAuMDUzNDctMC4wNDA1OS0wLjA5MjYzLTAuMDQwNTl6bTAuNTgzNDYgMGMtMC4wNTkwOCAwLTAuMTA2NDYgMC4wMjcxNS0wLjE0MzAyIDAuMDgxMjItMC4wMzYzNSAwLjA1MzgyLTAuMDU0NDYgMC4xMTQ4Ny0wLjA1NDQ2IDAuMTgyNzEgMCAwLjA0ODkxIDAuMDEwOTkgMC4wODY5MSAwLjAzMzMzIDAuMTE0NDIgMC4wMjI1IDAuMDI3NTIgMC4wNTQyMyAwLjA0MTUyIDAuMDk0MjYgMC4wNDE1MiAwLjA1ODg1IDAgMC4xMDYwOC0wLjAyNzE1IDAuMTQyMjEtMC4wODEyIDAuMDM2MTUtMC4wNTQzMSAwLjA1NDQzLTAuMTE1NjIgMC4wNTQ0My0wLjE4MjcyIDAtMC4wNTA2My0wLjAxMTY3LTAuMDg4NTUtMC4wMzQxMy0wLjExNTM2LTAuMDIyNS0wLjAyNjc4LTAuMDUzNDYtMC4wNDA1OS0wLjA5MjYzLTAuMDQwNTl6bTAuNDE1MjUgMGMtMC4wMjI5NSAwLTAuMDQyODMgMC4wMDc5LTAuMDYwMTMgMC4wMjQtMC4wMTczIDAuMDE2MjEtMC4wMzUwNyAwLjA0NzMxLTAuMDUyODMgMC4wOTIyOGgtMC4wMDY1bDAuMDEzOC0wLjEwODg5aC0wLjExNzAxbC0wLjAwNjUgMC4wMzEzOGgwLjAwNTdjMC4wMzUyOCAwIDAuMDUyODMgMC4wMTIxNiAwLjA1MjgzIDAuMDM1OTkgMCAwLjAwODYtMC4wMDE0IDAuMDIwMTUtMC4wMDQxIDAuMDM0MTNsLTAuMDU2MDkgMC4zMDM2aDAuMDYyNTdsMC4wMjQzNy0wLjEzNzQ5YzAuMDExMTMtMC4wNTc5OSAwLjAyODI1LTAuMTEgMC4wNTEyLTAuMTU1OTUgMC4wMjMxNi0wLjA0NTk2IDAuMDQ1MjctMC4wNjkyIDAuMDY1ODMtMC4wNjkyIDAuMDE3NzQgMCAwLjAyNjggMC4wMjAxNyAwLjAyNjggMC4wNTk5OCAwLjAzNjc3IDAgMC4wNTUyNy0wLjAxOTggMC4wNTUyNy0wLjA1ODE0IDAtMC4wMzQ2NC0wLjAxODkyLTAuMDUxNjctMC4wNTUyNy0wLjA1MTY3em0xLjQ4NzEgMGMtMC4wNDkxMSAwLTAuMDg5ODYgMC4wMzU5OC0wLjEyMTg4IDAuMTA3OTdoLTAuMDAzM2wwLjAxNjI0LTAuMTAwNTdoLTAuMTE3ODNsLTAuMDA1NyAwLjAzMTM4aDAuMDA0OWMwLjAzMDk0IDAgMC4wNDYzMSAwLjAxMjE2IDAuMDQ2MzEgMC4wMzU5OSAwIDAuMDA1NS0wLjAwMTkgMC4wMTg1NC0wLjAwNTcgMC4wMzk2OGwtMC4wODg1NyAwLjQ3ODkzaDAuMTI1MTZsMC4wMDU3LTAuMDMxMzhoLTllLTNjLTAuMDMwOTQgMC0wLjA0NjMxLTAuMDExNzQtMC4wNDYzMS0wLjAzNTA4IDAtN2UtMyAwLjAwMjQtMC4wMjE1NSAwLjAwNjUtMC4wNDI0NWw5ZS0zIC0wLjA0NjEzYzAuMDAxOC0wLjAwODIgMC4wMDM4LTAuMDE5NzcgMC4wMDU3LTAuMDM1OTggMC4wMTc5NCAwLjAxMTQ3IDAuMDM5NjggMC4wMTc1MiAwLjA2NTAxIDAuMDE3NTIgMC4wNTgwMSAwIDAuMTA1MjEtMC4wMzA5MSAwLjE0MjIxLTAuMDkxMzQgMC4wMzcyMi0wLjA2MDcgMC4wNTYwOS0wLjEyNDM3IDAuMDU2MDktMC4xOTE5NCAwLTAuMDQ0MjMtMC4wMDcyLTAuMDc4MTgtMC4wMjE5My0wLjEwMTUxLTAuMDE0NDgtMC4wMjMzNC0wLjAzNTUzLTAuMDM1MDgtMC4wNjI1Ny0wLjAzNTA4em0wLjU0MjAyIDBjLTAuMDU2MDYgMC0wLjEwMzMyIDAuMDI5MzctMC4xNDE0IDAuMDg4NTgtMC4wMzc4NyAwLjA1OTIzLTAuMDU2OSAwLjEyMzU3LTAuMDU2OSAwLjE5Mjg2IDAgMC4wNDM1IDAuMDA3OSAwLjA3ODA5IDAuMDIyNzQgMC4xMDI0NCAwLjAxNTE0IDAuMDI0MDggMC4wMzYzNCAwLjAzNTk5IDAuMDYzMzkgMC4wMzU5OSAwLjA1MTA4IDAgMC4wOTI1Mi0wLjA0MDk1IDAuMTI0MzMtMC4xMjE4MWgwLjAwNDFjLTAuMDA0NiAwLjAyMzEtMC4wMDczIDAuMDQzMDktMC4wMDczIDAuMDU5MDUgMCAwLjA0MTc3IDAuMDE3MzggMC4wNjI3NiAwLjA1MjAxIDAuMDYyNzYgMC4wMzA3NCAwIDAuMDYyNDUtMC4wMTUyNCAwLjA5NDI2LTAuMDQ1MjJsLTAuMDEyMjEtMC4wMjIxNWMtMC4wMTk0NyAwLjAxMjk5LTAuMDM1MzggMC4wMTkzNy0wLjA0NzkzIDAuMDE5MzctMC4wMTQ0OSAwLTAuMDIxOTYtMC4wMTIzLTAuMDIxOTYtMC4wMzc4MiAwLTAuMDIxMTMgMC4wMDMzLTAuMDQ5MzEgMC4wMDk2LTAuMDgzOThsMC4wNDU1LTAuMjQxNzdoLTAuMDIxMTNsLTAuMDI5MjYgMC4wMTkzN2MtMC4wMjE4NS0wLjAxODE3LTAuMDQ3OTMtMC4wMjc2OC0wLjA3ODAxLTAuMDI3Njh6bS0wLjkzNDUxIDguOTFlLTRjLTAuMDM4MDkgMC0wLjA2ODgzIDAuMDEwMjMtMC4wOTI2MyAwLjAzMTM4LTAuMDIzNTggMC4wMjA4OS0wLjAzNTc2IDAuMDQ4MjgtMC4wMzU3NiAwLjA4MTIgMCAwLjAyNDA4IDAuMDA1NCAwLjA0NTI0IDAuMDE2MjQgMC4wNjM2NiAwLjAxMTEzIDAuMDE4MTcgMC4wMzMyMSAwLjAzNTQgMC4wNjUwMSAwLjA1MjYgMC4wMjQ0NSAwLjAxMjcxIDAuMDQxMDIgMC4wMjYyNCAwLjA1MTIgMC4wMzg3NiAwLjAxMDE4IDAuMDEyMyAwLjAxNTQzIDAuMDI3MjkgMC4wMTU0MyAwLjA0NTIxIDAgMC4wNDY2OS0wLjAyMzY5IDAuMDcwMTMtMC4wNzE1MSAwLjA3MDEzLTAuMDI0MDIgMC0wLjA0MjY1LTAuMDA4Ny0wLjA1NjA4LTAuMDI1ODQtMC4wMTMxNi0wLjAxNzQ1LTAuMDIwMy0wLjA0MTY5LTAuMDIwMy0wLjA3MjktMC4wMTIwOCAwLTAuMDIyMDYgMC4wMDMzLTAuMDMwMDcgMC4wMTIwMi0wLjAwNzcgMC4wMDg0LTAuMDExNCAwLjAyMDY4LTAuMDExNCAwLjAzNjkgMCAwLjAyNjA2IDAuMDA5NSAwLjA0NzI3IDAuMDI5MjQgMC4wNjI3NCAwLjAxOTkxIDAuMDE1MjQgMC4wNDY5IDAuMDIzMDYgMC4wODA0NCAwLjAyMzA2IDAuMDQxNTQgMCAwLjA3NDg1LTAuMDExMzMgMC4wOTk5Ni0wLjAzNDE0IDAuMDI1MS0wLjAyMjg1IDAuMDM3MzktMC4wNTMzMiAwLjAzNzM5LTAuMDkwNDMgMC0wLjA1MTExLTAuMDI2NDEtMC4wOTAxNi0wLjA3OTY0LTAuMTE3MTgtMC4wMjMxNi0wLjAxMTQ3LTAuMDQwMTctMC4wMjMyOC0wLjA1MTItMC4wMzUwOC0wLjAxMTEzLTAuMDExNzQtMC4wMTYyNC0wLjAyNTc0LTAuMDE2MjQtMC4wNDI0NSAwLTAuMDE4OTIgMC4wMDU3LTAuMDM1MDEgMC4wMTcwNi0wLjA0NzA2IDAuMDExNjctMC4wMTIzIDAuMDI3MjMtMC4wMTg0NSAwLjA0NzE0LTAuMDE4NDUgMC4wMTg4MiAwIDAuMDMzNSAwLjAwNzkgMC4wNDM4OSAwLjAyMzA2IDAuMDEwNTggMC4wMTUyNCAwLjAxNjI0IDAuMDM1NjEgMC4wMTYyNCAwLjA2MDkyIDAuMDMzMzQgMCAwLjA0OTU3LTAuMDE1ODUgMC4wNDk1Ny0wLjA0NzA2IDAtMC4wMjAxNC0wLjAwOTItMC4wMzY5OS0wLjAyNzYzLTAuMDUwNzUtMC4wMTgxNy0wLjAxMzgyLTAuMDQzNzEtMC4wMjAzMS0wLjA3NjM5LTAuMDIwMzF6bTEuMzY0NCAwYy0wLjAxMTY3IDAtMC4wMjE0MSAwLjAwNDctMC4wMzAwNyAwLjAxNDc2LTAuMDA4NyAwLjAwOTktMC4wMTMwMyAwLjAyMzY0LTAuMDEzMDMgMC4wNDA1OSAwLjAyMTgzIDAgMC4wMzI1MSAwLjAxNDI2IDAuMDMyNTEgMC4wNDE1MiAwIDAuMDYzNjMtMC4wMjk0NSAwLjE0NjYyLTAuMDg5MzcgMC4yNTAwN2gtMC4wMDI2Yy0wLjAwMjYtMC4wMjgwMS0wLjAxMTY3LTAuMDczNDItMC4wMjc2My0wLjEzNjU3bC0wLjA1MjAxLTAuMjAzOTJoLTAuMDk2NzFsLTAuMDA1NyAwLjAzMTM4aDAuMDA3M2MwLjAxMzE2IDAgMC4wMjI1NCAzZS0zIDAuMDI5MjQgMC4wMDkzIDAuMDA2OCAwLjAwNTkgMC4wMTIzNSAwLjAxNjY0IDAuMDE2MjQgMC4wMzEzOGwwLjA4Nzc2IDAuMzM0MDVjLTAuMDYxMDIgMC4wOTE2Ni0wLjEyMzUgMC4xMzc0OS0wLjE4NjkgMC4xMzc0OS0wLjAxOTA0IDAtMC4wMzY0MS0wLjAwMzYtMC4wNTItMC4wMDkzbC0wLjAwOTYgMC4wMzc4M2MwLjAxODQgMC4wMDkxIDAuMDM5MiAwLjAxMzgzIDAuMDYyNTcgMC4wMTM4MyAwLjA1ODg1IDAgMC4xMDYyOS0wLjAxNzM4IDAuMTQyMjEtMC4wNTM1MyAwLjAzNjE0LTAuMDM2MTIgMC4wODQxMS0wLjEwOTc5IDAuMTQzODQtMC4yMTk2MiAwLjA1OTczLTAuMTEwMDggMC4wODkzNy0wLjE5NDkyIDAuMDg5MzctMC4yNTU2MSAwLTAuMDQyMjgtMC4wMTU0Mi0wLjA2MzY1LTAuMDQ1NS0wLjA2MzY1em0tMS43MDU3IDAuMDA2NC0wLjAwNjUgMC4wMzEzOCA5ZS0zIDguOTFlLTRjMC4wMjcwNSAwIDAuMDQwNjMgMC4wMTAyMiAwLjA0MDYzIDAuMDMxMzggMCAwLjAwNTMtOS40MmUtNCAwLjAxMTMzLTAuMDAyNiAwLjAxOTM3bC0wLjAyNTE5IDAuMTM5MzRjLTAuMDA5OSAwLjA1NjUzLTAuMDE1NDMgMC4wOTU1LTAuMDE1NDMgMC4xMTgxMSAwIDAuMDIwNjQgMC4wMDUzIDAuMDM4MTYgMC4wMTU0MyAwLjA1MTY4IDAuMDEwMTggMC4wMTM1NCAwLjAyMzM4IDAuMDIwMzEgMC4wMzk4MSAwLjAyMDMxIDAuMDI5MjIgMCAwLjA1OTQ5LTAuMDE1MjQgMC4wOTAxOS0wLjA0NTIybC0wLjAxMjIxLTAuMDIyMTVjLTAuMDE5MDQgMC4wMTI5OS0wLjAzNTE5IDAuMDE5MzctMC4wNDc5MyAwLjAxOTM3LTAuMDE0NzEgMC0wLjAyMTkzLTAuMDEyMy0wLjAyMTkzLTAuMDM3ODIgMC0wLjAxOTY1IDAuMDAzOC0wLjA0Nzg1IDAuMDEwNTgtMC4wODM5OWwwLjA0NDY5LTAuMjQyNjl6bTEuMjc5MSAwLjAyNjc4YzAuMDIzMzcgMCAwLjA0MDE5IDAuMDA4NiAwLjA1MDM4IDAuMDI2NzZsLTAuMDI0MzcgMC4xMzM4MmMtMC4wMDc3IDAuMDQzOTktMC4wMjM3MSAwLjA4NDcxLTAuMDQ3OTMgMC4xMjE4MS0wLjAyNDI0IDAuMDM3MS0wLjA0NzgxIDAuMDU1MzgtMC4wNjk4OCAwLjA1NTM4LTAuMDI3OTEgMC0wLjA0MTQzLTAuMDI4NTItMC4wNDE0My0wLjA4Njc0IDAtMC4wNTc3NiAwLjAxMjc2LTAuMTE0MzIgMC4wMzgxNy0wLjE2ODg3IDAuMDI1NzYtMC4wNTQ4IDAuMDU3MjItMC4wODIxMyAwLjA5NTA3LTAuMDgyMTN6bS0zLjAzOTIgMC4wMDU1YzAuMDQzMjggMCAwLjA2NTAxIDAuMDM1MTYgMC4wNjUwMSAwLjEwNTIgMCAwLjA1OTk1LTAuMDEwNTggMC4xMTQ4NS0wLjAzMjUxIDAuMTY0MjYtMC4wMjE2NCAwLjA0OTE1LTAuMDUxMiAwLjA3MzgyLTAuMDg3NzYgMC4wNzM4Mi0wLjA0MzkzIDAtMC4wNjU4My0wLjAzNDk4LTAuMDY1ODMtMC4xMDQyOCAwLTAuMDYwNDUgMC4wMTExMy0wLjExNDg2IDAuMDMzMzMtMC4xNjQyNiAwLjAyMjMtMC4wNDk0IDAuMDUxNjItMC4wNzQ3NCAwLjA4Nzc2LTAuMDc0NzR6bTAuNTg0MjggMGMwLjA0MzI3IDAgMC4wNjUwMSAwLjAzNTE2IDAuMDY1MDEgMC4xMDUyIDAgMC4wNTk5NS0wLjAxMTQgMC4xMTQ4NS0wLjAzMzMzIDAuMTY0MjYtMC4wMjE2NCAwLjA0OTE1LTAuMDUwMzcgMC4wNzM4Mi0wLjA4Njk0IDAuMDczODItMC4wNDM5MyAwLTAuMDY1ODMtMC4wMzQ5OC0wLjA2NTgzLTAuMTA0MjggMC0wLjA2MDQ1IDAuMDExMTMtMC4xMTQ4NiAwLjAzMzMxLTAuMTY0MjYgMC4wMjIzLTAuMDQ5NCAwLjA1MTYyLTAuMDc0NzQgMC4wODc3Ni0wLjA3NDc0em0xLjg4NDUgMC4wMDgzYzAuMDI3OTEgMCAwLjA0MjI2IDAuMDI4OTUgMC4wNDIyNiAwLjA4NzY1IDAgMC4wNTY3Ny0wLjAxMzMgMC4xMTI5LTAuMDM5IDAuMTY3OTUtMC4wMjU1MiAwLjA1NDgtMC4wNTY0NSAwLjA4MjEzLTAuMDkzNDYgMC4wODIxMy0wLjAyMDc4IDAtMC4wMzg1NC0wLjAwODgtMC4wNTI4My0wLjAyNjc2bDAuMDI2ODEtMC4xNDM5NmMwLjAwNzYtMC4wMzkwOCAwLjAyMzc1LTAuMDc2NDUgMC4wNDcxNC0wLjExMjU4IDAuMDIzMzgtMC4wMzYzNyAwLjA0NjE0LTAuMDU0NDQgMC4wNjkwNy0wLjA1NDQ0eiIvPjxyZWN0IHN0eWxlPSJtaXgtYmxlbmQtbW9kZTpub3JtYWw7cGFpbnQtb3JkZXI6ZmlsbCBtYXJrZXJzIHN0cm9rZSIgZmlsbD0iIzgwMCIgcnk9IjIuNzIzMmUtMTciIHJ4PSIxLjg0NjllLTE3IiBoZWlnaHQ9IjIuMDczNyIgd2lkdGg9IjIuMDgxNiIgeT0iMTMuNTQ2IiB4PSI1My40OTciLz48cmVjdCBzdHlsZT0ibWl4LWJsZW5kLW1vZGU6bm9ybWFsO3BhaW50LW9yZGVyOmZpbGwgbWFya2VycyBzdHJva2UiIGZpbGw9IiMwNjEiIHJ5PSIyLjcyMzJlLTE3IiByeD0iMS44NDY5ZS0xNyIgaGVpZ2h0PSIyLjA3MzciIHdpZHRoPSIyLjA4MTYiIHk9IjEzLjU0NiIgeD0iNTUuNTc4Ii8+PHJlY3Qgc3R5bGU9Im1peC1ibGVuZC1tb2RlOm5vcm1hbDtwYWludC1vcmRlcjpmaWxsIG1hcmtlcnMgc3Ryb2tlIiBmaWxsPSIjMDM5IiByeT0iMi43MjMyZS0xNyIgcng9IjEuODQ2OWUtMTciIGhlaWdodD0iMi4wNzM3IiB3aWR0aD0iMi4wODE2IiB5PSIxMy41NDYiIHg9IjU3LjY2Ii8+PC9nPjxlbGxpcHNlIHN0eWxlPSJtaXgtYmxlbmQtbW9kZTpub3JtYWw7cGFpbnQtb3JkZXI6c3Ryb2tlIG1hcmtlcnMgZmlsbCIgZmlsbD0idXJsKCNoKSIgcnk9Ii41Njc2NiIgcng9Ii41NTc1MSIgY3k9Ii41MzQ3NyIgY3g9IjEyLjMyMiIvPjxlbGxpcHNlIHN0eWxlPSJtaXgtYmxlbmQtbW9kZTpub3JtYWw7cGFpbnQtb3JkZXI6c3Ryb2tlIG1hcmtlcnMgZmlsbCIgZmlsbD0idXJsKCNqKSIgcnk9Ii4xNzAzIiByeD0iLjE2NzI1IiBjeT0iLjUzNDc3IiBjeD0iMTIuMzIyIi8+PGcgdHJhbnNmb3JtPSJtYXRyaXgoLjMwNzA1IDAgMCAuMzEzODIgLTQuMjYzIC0zLjM3NjcpIiBpZD0ieSI+PHBhdGggc3R5bGU9InBhaW50LW9yZGVyOnN0cm9rZSBmaWxsIG1hcmtlcnMiIHN0cm9rZS13aWR0aD0iLjI2NDU4IiBzdHJva2UtbWl0ZXJsaW1pdD0iMy42IiBmaWxsPSJ1cmwoI2YpIiBkPSJtNTYuMjgzIDIxLjk2djMuNjE3N2gtMy42MzE0di0xLjgwODlsMS44MTU3LTEuODA4OXoiLz48ZWxsaXBzZSBzdHlsZT0icGFpbnQtb3JkZXI6c3Ryb2tlIGZpbGwgbWFya2VycyIgc3Ryb2tlLXdpZHRoPSIuMjY0NTgiIHN0cm9rZS1taXRlcmxpbWl0PSIzLjYiIHN0cm9rZT0idXJsKCNuKSIgZmlsbD0idXJsKCNlKSIgcnk9IjEuMjY2MiIgcng9IjEuMjcxIiBjeT0iMjMuMzU5IiBjeD0iNTQuMDU1Ii8+PGVsbGlwc2Ugc3R5bGU9InBhaW50LW9yZGVyOnN0cm9rZSBtYXJrZXJzIGZpbGwiIHN0cm9rZS13aWR0aD0iLjI2NDU4IiBzdHJva2UtbWl0ZXJsaW1pdD0iMy42IiBzdHJva2U9InVybCgjbSkiIGZpbGw9IiM4NDdjNmEiIHJ5PSIuOTA0NDMiIHJ4PSIuOTA3ODUiIGN5PSIyMy42MjMiIGN4PSI1NC4zMiIvPjwvZz48dXNlIHhsaW5rOmhyZWY9IiN5IiB0cmFuc2Zvcm09InRyYW5zbGF0ZSgwIC0xLjEzNTMpIiBpZD0iZCIvPjx1c2UgeGxpbms6aHJlZj0iI2QiIHRyYW5zZm9ybT0idHJhbnNsYXRlKDAgLTEuMTM1MykiLz48L2c+PC9zdmc+;" parent="1" vertex="1">
          <mxGeometry x="4" y="4" width="32" height="32" as="geometry" />
        </mxCell>
        <mxCell id="fSjbTYhbLkrsspspIT7g-4" value="&lt;b&gt;486 PC&lt;/b&gt;&lt;div&gt;&lt;i&gt;Computer from 90&#39;s&lt;/i&gt;&lt;/div&gt;" style="text;html=1;align=left;verticalAlign=middle;whiteSpace=wrap;rounded=0;" parent="1" vertex="1">
          <mxGeometry x="40" y="5" width="110" height="30" as="geometry" />
        </mxCell>
        <mxCell id="fSjbTYhbLkrsspspIT7g-5" value="" style="rounded=0;whiteSpace=wrap;html=1;" parent="1" vertex="1">
          <mxGeometry y="40" width="160" height="40" as="geometry" />
        </mxCell>
        <mxCell id="fSjbTYhbLkrsspspIT7g-6" value="" style="shape=image;verticalLabelPosition=bottom;labelBackgroundColor=default;verticalAlign=top;aspect=fixed;imageAspect=0;image=data:image/svg+xml,PHN2ZyB4bWxuczp4bGluaz0iaHR0cDovL3d3dy53My5vcmcvMTk5OS94bGluayIgeG1sbnM9Imh0dHA6Ly93d3cudzMub3JnLzIwMDAvc3ZnIiB2aWV3Qm94PSIwIDAgOC40NjY3IDguNDY2NyIgdmVyc2lvbj0iMS4xIiBoZWlnaHQ9IjMyIiB3aWR0aD0iMzIiPjxkZWZzPjxsaW5lYXJHcmFkaWVudCBpZD0iYyI+PHN0b3Agb2Zmc2V0PSIwIiBzdG9wLWNvbG9yPSIjMjkyOTI5Ii8+PHN0b3Agb2Zmc2V0PSIxIiBzdG9wLWNvbG9yPSIjM2QzZDNkIi8+PC9saW5lYXJHcmFkaWVudD48bGluZWFyR3JhZGllbnQgaWQ9ImIiPjxzdG9wIG9mZnNldD0iMCIgc3RvcC1jb2xvcj0iI2MyY2FkYSIvPjxzdG9wIG9mZnNldD0iMSIgc3RvcC1jb2xvcj0iIzllYTA5ZiIvPjwvbGluZWFyR3JhZGllbnQ+PGxpbmVhckdyYWRpZW50IGdyYWRpZW50VW5pdHM9InVzZXJTcGFjZU9uVXNlIiBncmFkaWVudFRyYW5zZm9ybT0ibWF0cml4KC41MzgyMiAwIDAgLjU3NjkxIC0xLjE4NTkgLTQuODg0KSIgeTI9IjY1LjA4OCIgeTE9IjQ5LjQ3NyIgeDI9IjIuNjQ1OCIgeDE9IjIuNjQ1OCIgaWQ9InciPjxzdG9wIG9mZnNldD0iMCIgc3RvcC1jb2xvcj0iI2NmY2NjMyIvPjxzdG9wIG9mZnNldD0iMSIgc3RvcC1jb2xvcj0iI2FiYThhNSIvPjwvbGluZWFyR3JhZGllbnQ+PGxpbmVhckdyYWRpZW50IHhsaW5rOmhyZWY9IiNiIiBncmFkaWVudFVuaXRzPSJ1c2VyU3BhY2VPblVzZSIgZ3JhZGllbnRUcmFuc2Zvcm09Im1hdHJpeCguOTM0OTEgMCAwIC45MzUwOSAtMy41Mjg4IC0yNy41MzgpIiB5Mj0iNTUuOTg5IiB5MT0iNTIuOTcxIiB4Mj0iOC4yNzU2IiB4MT0iNS4yNTczIiBpZD0ibCIvPjxsaW5lYXJHcmFkaWVudCBncmFkaWVudFVuaXRzPSJ1c2VyU3BhY2VPblVzZSIgZ3JhZGllbnRUcmFuc2Zvcm09Im1hdHJpeCguNjk3NzUgMCAwIC43NDU3NiAtMi4wMDczIC0xNy44NDMpIiB5Mj0iNjEuMzgzIiB5MT0iNTEuMzI5IiB4Mj0iMjMuMDE5IiB4MT0iMjMuMDE5IiBpZD0ieCI+PHN0b3Agb2Zmc2V0PSIwIiBzdG9wLWNvbG9yPSIjMWMxYzIxIi8+PHN0b3Agb2Zmc2V0PSIxIiBzdG9wLWNvbG9yPSIjMmYyZTM4Ii8+PC9saW5lYXJHcmFkaWVudD48bGluZWFyR3JhZGllbnQgeGxpbms6aHJlZj0iI2MiIGdyYWRpZW50VW5pdHM9InVzZXJTcGFjZU9uVXNlIiBncmFkaWVudFRyYW5zZm9ybT0ibWF0cml4KC42NjI4IDAgMCAuNjg4NjcgLS4zMzA3NyAtMTQuMjI3KSIgeTI9IjYxLjM4MyIgeTE9IjUxLjMyOSIgeDI9IjQyLjU5OCIgeDE9IjQyLjU5OCIgaWQ9InQiLz48bGluZWFyR3JhZGllbnQgeGxpbms6aHJlZj0iI2MiIGdyYWRpZW50VW5pdHM9InVzZXJTcGFjZU9uVXNlIiBncmFkaWVudFRyYW5zZm9ybT0ibWF0cml4KC42NjI4IDAgMCAuNjg4NjcgLS43ODI4NiAtMTQuMjI3KSIgeTI9IjYxLjM4MyIgeTE9IjUxLjMyOSIgeDI9IjQyLjU5OCIgeDE9IjQyLjU5OCIgaWQ9InMiLz48cmFkaWFsR3JhZGllbnQgZ3JhZGllbnRVbml0cz0idXNlclNwYWNlT25Vc2UiIGdyYWRpZW50VHJhbnNmb3JtPSJtYXRyaXgoLTkuMjI5MmUtNiAxLjkwNjYgLTEuOTE1NSAtOS40NTQ4ZS02IDEyNi42MiAtMjUuNDIpIiByPSIuNTI5MTciIGN5PSI1Ny44NTYiIGN4PSIyNy4yMDgiIGlkPSJpIj48c3RvcCBvZmZzZXQ9IjAiIHN0b3AtY29sb3I9IiNmZmYiLz48c3RvcCBvZmZzZXQ9Ii40OTgwNiIgc3RvcC1jb2xvcj0iI2YwMCIvPjxzdG9wIG9mZnNldD0iMSIgc3RvcC1jb2xvcj0iI2EwMCIvPjwvcmFkaWFsR3JhZGllbnQ+PGxpbmVhckdyYWRpZW50IGdyYWRpZW50VW5pdHM9InVzZXJTcGFjZU9uVXNlIiBncmFkaWVudFRyYW5zZm9ybT0ibWF0cml4KC4zMDA5NiAwIDAgLjMwNzYgLTMuNTg1MSAtNS4yNDYxKSIgeTI9IjM5LjU1NSIgeTE9IjIuNjQ1OCIgeDI9IjcuOTMyNiIgeDE9IjcuOTM3NSIgaWQ9InYiPjxzdG9wIG9mZnNldD0iMCIgc3RvcC1jb2xvcj0iI2Q1ZDJkNCIvPjxzdG9wIG9mZnNldD0iLjA3IiBzdG9wLWNvbG9yPSIjYWJhYWFiIi8+PHN0b3Agb2Zmc2V0PSIuOTMiIHN0b3AtY29sb3I9IiNhMmEyYTIiLz48c3RvcCBvZmZzZXQ9IjEiIHN0b3AtY29sb3I9IiM2ODY4NjgiLz48L2xpbmVhckdyYWRpZW50PjxsaW5lYXJHcmFkaWVudCBncmFkaWVudFVuaXRzPSJ1c2VyU3BhY2VPblVzZSIgZ3JhZGllbnRUcmFuc2Zvcm09Im1hdHJpeCguMzAwOTYgMCAwIC4zMDc2IC0zLjU4NTEgLTUuMjQ2MSkiIHkyPSIzNS45ODMiIHkxPSIzMy40NzgiIHgyPSIxMi43NDciIHgxPSIxMS4xNTkiIGlkPSJ1Ij48c3RvcCBvZmZzZXQ9IjAiIHN0b3AtY29sb3I9IiM1YjU5NTgiLz48c3RvcCBvZmZzZXQ9Ii41IiBzdG9wLWNvbG9yPSIjODQ3ZTdiIi8+PHN0b3Agb2Zmc2V0PSIxIiBzdG9wLWNvbG9yPSIjYzBiZmJlIi8+PC9saW5lYXJHcmFkaWVudD48bGluZWFyR3JhZGllbnQgZ3JhZGllbnRVbml0cz0idXNlclNwYWNlT25Vc2UiIGdyYWRpZW50VHJhbnNmb3JtPSJtYXRyaXgoLjMwMDk2IDAgMCAuMzA3NiAtNC4wNjQxIC01LjI0NjEpIiB5Mj0iMzMuODY3IiB5MT0iNi44NzkyIiB4Mj0iMjUuNCIgeDE9IjEzLjIyOSIgaWQ9InIiPjxzdG9wIG9mZnNldD0iMCIgc3RvcC1jb2xvcj0iIzQxM2YzZiIvPjxzdG9wIG9mZnNldD0iLjUiIHN0b3AtY29sb3I9IiM3MjZjNjkiLz48c3RvcCBvZmZzZXQ9IjEiIHN0b3AtY29sb3I9IiNhN2E1YTQiLz48L2xpbmVhckdyYWRpZW50PjxsaW5lYXJHcmFkaWVudCB4bGluazpocmVmPSIjYiIgZ3JhZGllbnRVbml0cz0idXNlclNwYWNlT25Vc2UiIGdyYWRpZW50VHJhbnNmb3JtPSJtYXRyaXgoMS44ODYyIDAgMCAxLjU4OTIgLTQzLjkzNyAtOC4xNzUzKSIgeTI9IjEzLjY2OCIgeTE9IjkuNzUzNSIgeDI9IjU0Ljk2OCIgeDE9IjUxLjY1NiIgaWQ9ImsiLz48cmFkaWFsR3JhZGllbnQgZ3JhZGllbnRVbml0cz0idXNlclNwYWNlT25Vc2UiIGdyYWRpZW50VHJhbnNmb3JtPSJtYXRyaXgoLTIuMDMwNmUtNiAuNDI5MSAtLjQyMTQzIC0yLjEyNzllLTYgMzYuNjQ4IC0xMS4xOTcpIiByPSIuNTI5MTciIGN5PSI1Ny44NTYiIGN4PSIyNy4yMDgiIGlkPSJqIj48c3RvcCBvZmZzZXQ9IjAiIHN0b3AtY29sb3I9IiNmZmIiLz48c3RvcCBvZmZzZXQ9Ii40OTgwNiIgc3RvcC1jb2xvcj0iI2FmMCIvPjxzdG9wIG9mZnNldD0iMSIgc3RvcC1jb2xvcj0iIzBmMCIvPjwvcmFkaWFsR3JhZGllbnQ+PHJhZGlhbEdyYWRpZW50IGdyYWRpZW50VW5pdHM9InVzZXJTcGFjZU9uVXNlIiBncmFkaWVudFRyYW5zZm9ybT0ibWF0cml4KC43MDIzOCAyLjUxMjVlLTYgLTEuMjE2OWUtNiAuNzE1MTYgLTI1LjU4OSAtMTQuMjI1KSIgcj0iLjc5Mzc1IiBjeT0iMjAuNjM3IiBjeD0iNTMuOTc1IiBpZD0iaCI+PHN0b3Agb2Zmc2V0PSIuMyIgc3RvcC1vcGFjaXR5PSIuMiIgc3RvcC1jb2xvcj0iIzBmMCIvPjxzdG9wIG9mZnNldD0iMSIgc3RvcC1vcGFjaXR5PSIwIiBzdG9wLWNvbG9yPSIjMGYwIi8+PC9yYWRpYWxHcmFkaWVudD48cmFkaWFsR3JhZGllbnQgZ3JhZGllbnRVbml0cz0idXNlclNwYWNlT25Vc2UiIGdyYWRpZW50VHJhbnNmb3JtPSJtYXRyaXgoMS4wNzA1IDEuMDcwNSAtLjU3NjQzIC41NzY0MyA5LjY0OTYgLTQ3Ljk1MykiIHI9IjEuNjA2NSIgY3k9IjIzLjM0MyIgY3g9IjUzLjk3NSIgaWQ9ImYiPjxzdG9wIG9mZnNldD0iMCIgc3RvcC1vcGFjaXR5PSIuNSIvPjxzdG9wIG9mZnNldD0iMSIgc3RvcC1vcGFjaXR5PSIwIi8+PC9yYWRpYWxHcmFkaWVudD48cmFkaWFsR3JhZGllbnQgZ3JhZGllbnRVbml0cz0idXNlclNwYWNlT25Vc2UiIGdyYWRpZW50VHJhbnNmb3JtPSJtYXRyaXgoLS41IC42IC0uOTgzOCAtLjgxOTg0IDEwMy4yMiA4Ljc0NDIpIiByPSIxLjMyMjkiIGN5PSIyMy4wNjMiIGN4PSI1NC41NDgiIGlkPSJlIj48c3RvcCBvZmZzZXQ9IjAiIHN0b3AtY29sb3I9IiNkNmNiYWUiLz48c3RvcCBvZmZzZXQ9IjEiIHN0b3AtY29sb3I9IiM5ZDk3ODYiLz48L3JhZGlhbEdyYWRpZW50PjxsaW5lYXJHcmFkaWVudCBncmFkaWVudFVuaXRzPSJ1c2VyU3BhY2VPblVzZSIgZ3JhZGllbnRUcmFuc2Zvcm09InRyYW5zbGF0ZSguMDgwMzYzIC4wNzU1ODQpIiB5Mj0iMjQuNjA2IiB5MT0iMjEuOTYiIHgyPSI1NS4yOTgiIHgxPSI1Mi42NTIiIGlkPSJuIj48c3RvcCBvZmZzZXQ9IjAiIHN0b3AtY29sb3I9IiNiYWIyOGQiLz48c3RvcCBvZmZzZXQ9Ii40OTgzMiIgc3RvcC1vcGFjaXR5PSIwIiBzdG9wLWNvbG9yPSIjYjhiMzg5Ii8+PC9saW5lYXJHcmFkaWVudD48bGluZWFyR3JhZGllbnQgZ3JhZGllbnRVbml0cz0idXNlclNwYWNlT25Vc2UiIGdyYWRpZW50VHJhbnNmb3JtPSJ0cmFuc2xhdGUoLjA4MDM2MyAuMDc1NTg0KSIgeTI9IjI0LjM0MiIgeTE9IjIyLjc1NCIgeDI9IjU1LjAzMyIgeDE9IjUzLjQ0NiIgaWQ9Im0iPjxzdG9wIG9mZnNldD0iMCIgc3RvcC1jb2xvcj0iIzlkOTc4NiIvPjxzdG9wIG9mZnNldD0iMSIgc3RvcC1jb2xvcj0iIzc3NzA1ZiIvPjwvbGluZWFyR3JhZGllbnQ+PGxpbmVhckdyYWRpZW50IGdyYWRpZW50VW5pdHM9InVzZXJTcGFjZU9uVXNlIiBncmFkaWVudFRyYW5zZm9ybT0ibWF0cml4KC4zMTcyNSAwIDAgLjMwNzYgLTQuMTM2NiAtNS4yNDYxKSIgeTI9IjM1LjA1NyIgeTE9IjYuMjE3NyIgeDI9IjU1Ljk1OSIgeDE9IjExLjc3NCIgaWQ9InAiPjxzdG9wIG9mZnNldD0iMCIgc3RvcC1jb2xvcj0iIzc0NzA2ZCIvPjxzdG9wIG9mZnNldD0iMSIgc3RvcC1jb2xvcj0iIzdlN2E3NyIvPjwvbGluZWFyR3JhZGllbnQ+PHJhZGlhbEdyYWRpZW50IGdyYWRpZW50VW5pdHM9InVzZXJTcGFjZU9uVXNlIiBncmFkaWVudFRyYW5zZm9ybT0ibWF0cml4KC4zNTMwMSAtLjEzODc3IC4wNTU1MjQgLjE0NzU1IC01LjYxNDQgLS4xODExNykiIHI9IjE3LjU5NSIgY3k9IjEwLjA2NSIgY3g9IjE5LjA1IiBpZD0iZyI+PHN0b3Agb2Zmc2V0PSIwIiBzdG9wLW9wYWNpdHk9Ii4yIiBzdG9wLWNvbG9yPSIjZmZmIi8+PHN0b3Agb2Zmc2V0PSIxIiBzdG9wLW9wYWNpdHk9IjAiIHN0b3AtY29sb3I9IiNmZmYiLz48L3JhZGlhbEdyYWRpZW50PjxsaW5lYXJHcmFkaWVudCBncmFkaWVudFVuaXRzPSJ1c2VyU3BhY2VPblVzZSIgZ3JhZGllbnRUcmFuc2Zvcm09Im1hdHJpeCgxIDAgMCAxIC0uMzgwOTYgLTcuOTU1NmUtNykiIHkyPSIyNS45NSIgeTE9IjIxLjQxIiB4Mj0iMTguNzIiIHgxPSIxOC43MiIgaWQ9InEiPjxzdG9wIG9mZnNldD0iMCIgc3RvcC1jb2xvcj0iIzI5MjkyOSIvPjxzdG9wIG9mZnNldD0iLjMzMTI2IiBzdG9wLWNvbG9yPSIjMmIyYjJiIi8+PHN0b3Agb2Zmc2V0PSIuNTIwMzEiIHN0b3AtY29sb3I9IiM0NzQ3NDciLz48c3RvcCBvZmZzZXQ9IjEiIHN0b3AtY29sb3I9IiMzZTNlM2UiLz48L2xpbmVhckdyYWRpZW50PjxsaW5lYXJHcmFkaWVudCBncmFkaWVudFVuaXRzPSJ1c2VyU3BhY2VPblVzZSIgeTI9IjI4LjIyIiB5MT0iMjUuOTUiIHgyPSIxNS4yOTgiIHgxPSIxNS4yOTgiIGlkPSJvIj48c3RvcCBvZmZzZXQ9IjAiLz48c3RvcCBvZmZzZXQ9IjEiIHN0b3Atb3BhY2l0eT0iMCIvPjwvbGluZWFyR3JhZGllbnQ+PC9kZWZzPjxnIHN0eWxlPSJtaXgtYmxlbmQtbW9kZTpub3JtYWwiIHRyYW5zZm9ybT0ibWF0cml4KC4yMjAzNCAwIDAgLjIyMDM0IC40Nzk4MyAuNzM5ODIpIj48cGF0aCBzdHlsZT0ibWl4LWJsZW5kLW1vZGU6bm9ybWFsIiBzdHJva2Utd2lkdGg9Ii4xNDY5IiBzdHJva2UtbGluZWpvaW49InJvdW5kIiBzdHJva2UtbGluZWNhcD0icm91bmQiIGZpbGw9IiNlZGYxZWEiIGQ9Im0xLjIyMTIgMjIuNzU5aDMxLjYyN2MwLjU1MjQ4IDAgMC45OTcyNSAwLjQ3Mjg4IDAuOTk3MjUgMS4wNjAzdjAuNzQwOWgtMzMuNjIybDFlLTcgLTAuNzQwOWMwLTAuNTg3MzkgMC40NDQ3Ny0xLjA2MDMgMC45OTcyNS0xLjA2MDN6Ii8+PHBhdGggZmlsbD0idXJsKCN3KSIgZD0ibTEuMDY0MSAyMy42NmgzMS45MjdjMC40MjcyMSAwIDAuODM5NDMgMC41MTg5OCAwLjg0MDE5IDAuOTAwNThsMC4wMTQyNiA3LjE4OTRjOS43OWUtNCAwLjUwNzM4LTAuMzgxMSAwLjkxNTg0LTAuODU0NDUgMC45MTU4NGgtMzEuOTI3Yy0wLjQ3MzM1IDAtMC44NDAxOC0wLjM5MzItMC44NDAxOC0wLjkwMDU4di03LjIwNDZjMC0wLjM4MTYgMC40MTI5Ny0wLjkwMDU4IDAuODQwMTgtMC45MDA1OHoiLz48ZyBzdHlsZT0ibWl4LWJsZW5kLW1vZGU6bm9ybWFsIiBzdHJva2Utd2lkdGg9Ii45NTM5NCIgdHJhbnNmb3JtPSJtYXRyaXgoLjg1MTA3IDAgMCAuODUwOTcgLjI0NDg3IDUuNTQ0KSI+PHJlY3Qgc3R5bGU9Im1peC1ibGVuZC1tb2RlOm5vcm1hbDtwYWludC1vcmRlcjptYXJrZXJzIHN0cm9rZSBmaWxsIiBzdHJva2Utd2lkdGg9Ii4zNTI3NSIgc3Ryb2tlLW9wYWNpdHk9Ii41IiBzdHJva2UtbGluZWpvaW49InJvdW5kIiBzdHJva2UtbGluZWNhcD0icm91bmQiIHN0cm9rZT0iIzAwMCIgZmlsbD0idXJsKCNsKSIgcnk9IjYuODY3ZS0xOCIgcng9IjYuODY1N2UtMTgiIGhlaWdodD0iMi40Njk0IiB3aWR0aD0iMi40NjkxIiB5PSIyMy40MDUiIHg9IjEuNTYyNiIvPjwvZz48ZyBzdHlsZT0ibWl4LWJsZW5kLW1vZGU6bm9ybWFsIiB0cmFuc2Zvcm09Im1hdHJpeCguNzY5MjUgMCAwIC43NjkyNSAuNjEwNTIgOS43NTQzKSI+PHBhdGggc3R5bGU9InBhaW50LW9yZGVyOm1hcmtlcnMgc3Ryb2tlIGZpbGwiIHN0cm9rZS13aWR0aD0iLjc4MDQ4IiBzdHJva2Utb3BhY2l0eT0iLjUzMzMzIiBzdHJva2UtbGluZWpvaW49InJvdW5kIiBzdHJva2UtbGluZWNhcD0icm91bmQiIHN0cm9rZT0iIzAwMCIgZmlsbD0ibm9uZSIgZD0ibTEuNDQ4NiAyNS40OTF2Mi4zNDE0IiBpZD0iYSIvPjx1c2UgeGxpbms6aHJlZj0iI2EiIHRyYW5zZm9ybT0idHJhbnNsYXRlKDEuNTYxKSIvPjx1c2UgeGxpbms6aHJlZj0iI2EiIHRyYW5zZm9ybT0idHJhbnNsYXRlKDMuMTIxOSkiLz48dXNlIHhsaW5rOmhyZWY9IiNhIiB0cmFuc2Zvcm09InRyYW5zbGF0ZSg2LjI0MzkpIi8+PHVzZSB4bGluazpocmVmPSIjYSIgdHJhbnNmb3JtPSJ0cmFuc2xhdGUoNC42ODI5KSIvPjx1c2UgeGxpbms6aHJlZj0iI2EiIHRyYW5zZm9ybT0idHJhbnNsYXRlKDcuODA0OCkiLz48L2c+PGcgdHJhbnNmb3JtPSJtYXRyaXgoLjc5MTMyIDAgMCAuNzc1ODEgLjA5MDI3NCA5LjM3ODkpIj48cmVjdCBzdHlsZT0ibWl4LWJsZW5kLW1vZGU6bm9ybWFsO3BhaW50LW9yZGVyOm1hcmtlcnMgc3Ryb2tlIGZpbGwiIHN0cm9rZS13aWR0aD0iLjE5MDg2IiBzdHJva2Utb3BhY2l0eT0iLjUiIHN0cm9rZS1saW5lam9pbj0icm91bmQiIHN0cm9rZS1saW5lY2FwPSJyb3VuZCIgZmlsbD0idXJsKCN4KSIgcnk9IjEuMDYxOCIgcng9IjEuMDYxOCIgaGVpZ2h0PSI5LjI4NjYiIHdpZHRoPSIyOC44MzEiIHk9IjE5LjE4MiIgeD0iMTIuMzA4Ii8+PGcgc3R5bGU9Im1peC1ibGVuZC1tb2RlOm5vcm1hbCIgdHJhbnNmb3JtPSJtYXRyaXgoLjk5ODA0IDAgMCAxLjAyMjcgLjA3NTA3NiAtMS4xNjY2KSI+PHJlY3Qgc3R5bGU9Im1peC1ibGVuZC1tb2RlOm5vcm1hbDtwYWludC1vcmRlcjptYXJrZXJzIHN0cm9rZSBmaWxsIiBmaWxsLW9wYWNpdHk9Ii41MDIxNiIgZmlsbD0idXJsKCNzKSIgaGVpZ2h0PSI5LjA4MDMiIHdpZHRoPSIxMi4xNjMiIHk9IjE5Ljg5NiIgeD0iMTMuNzc4Ii8+PHBhdGggc3R5bGU9Im1peC1ibGVuZC1tb2RlOm5vcm1hbDtwYWludC1vcmRlcjpzdHJva2UgbWFya2VycyBmaWxsIiBzdHJva2Utd2lkdGg9Ii4zOTEwMiIgc3Ryb2tlLW9wYWNpdHk9Ii43NSIgc3Ryb2tlLWxpbmVjYXA9InJvdW5kIiBmaWxsPSJ1cmwoI28pIiBkPSJtMTMuNzc4IDIzLjY4aDQuMTgxMXYtMi42NDg0aDMuODAxdjIuNjQ4NGg0LjE4MTF2MC43NTY2OWgtNC4xODExdjMuNzgzNGgtMy44MDF2LTMuNzgzNGgtNC4xODExeiIvPjxlbGxpcHNlIHN0eWxlPSJwYWludC1vcmRlcjpzdHJva2UgbWFya2VycyBmaWxsIiBmaWxsPSJ1cmwoI2kpIiByeT0iLjc1NjY5IiByeD0iLjc2MDIiIGN5PSIyNi43MDYiIGN4PSIxNi4wNTgiLz48cmVjdCBzdHlsZT0icGFpbnQtb3JkZXI6c3Ryb2tlIGZpbGwgbWFya2VycyIgZmlsbD0idXJsKCNxKSIgaGVpZ2h0PSI0LjU0MDEiIHdpZHRoPSIzLjA0MDgiIHk9IjIxLjQxIiB4PSIxOC4zMzkiLz48cmVjdCBzdHlsZT0icGFpbnQtb3JkZXI6c3Ryb2tlIGZpbGwgbWFya2VycyIgZmlsbD0iIzhiOGI4YiIgaGVpZ2h0PSIuNzU2NjkiIHdpZHRoPSI0LjE4MTEiIHk9IjI0LjQzNiIgeD0iMTMuNzc4Ii8+PHJlY3Qgc3R5bGU9InBhaW50LW9yZGVyOnN0cm9rZSBmaWxsIG1hcmtlcnMiIGZpbGw9IiM4YjhiOGIiIGhlaWdodD0iLjc1NjY5IiB3aWR0aD0iNC4xODExIiB5PSIyNC40MzYiIHg9IjIxLjc2Ii8+PC9nPjxnIHN0eWxlPSJtaXgtYmxlbmQtbW9kZTpub3JtYWwiIHRyYW5zZm9ybT0ibWF0cml4KC45OTgwNCAwIDAgMS4wMjI3IC4wOTA2MDYgLTEuMTY2NikiPjxyZWN0IHN0eWxlPSJtaXgtYmxlbmQtbW9kZTpub3JtYWw7cGFpbnQtb3JkZXI6bWFya2VycyBzdHJva2UgZmlsbCIgZmlsbC1vcGFjaXR5PSIuNTAyMTYiIGZpbGw9InVybCgjdCkiIGhlaWdodD0iOS4wODAzIiB3aWR0aD0iMTIuMTYzIiB5PSIxOS44OTYiIHg9IjI3LjQ0NiIvPjxyZWN0IHN0eWxlPSJtaXgtYmxlbmQtbW9kZTpub3JtYWw7cGFpbnQtb3JkZXI6c3Ryb2tlIG1hcmtlcnMgZmlsbCIgZmlsbD0iIzI1MjUyNSIgaGVpZ2h0PSIxLjUxMzQiIHdpZHRoPSI5LjEyMDMiIHk9IjI1Ljk1IiB4PSIyOC45NjYiLz48cmVjdCBzdHlsZT0ibWl4LWJsZW5kLW1vZGU6bm9ybWFsO3BhaW50LW9yZGVyOnN0cm9rZSBtYXJrZXJzIGZpbGwiIGZpbGw9IiNjMDAiIHJ5PSIwIiBoZWlnaHQ9IjEuNTEzNCIgd2lkdGg9IjEuNTIwNCIgeT0iMjUuOTUiIHg9IjMwLjQ4NiIvPjwvZz48L2c+PC9nPjxnIHRyYW5zZm9ybT0ibWF0cml4KC40NzQ1OCAwIDAgLjQ2NjA5IDEuMDk3NSAyLjU5NSkiPjxwYXRoIHN0eWxlPSJwYWludC1vcmRlcjpub3JtYWwiIGZpbGw9InVybCgjdikiIGQ9Im0tMC40Nzk0OS00LjMxMDJjMi4zNjE1LTAuMDc2MjE4IDQuNzI0NC0wLjEyMjA4IDcuMDg3MS0wLjEyMjA4IDIuMzYyNyAwIDQuNzI1NSAwLjA0NTg2MSA3LjA4NzEgMC4xMjIwOCAwLjMzNzkgMC4wMTA5MDYgMC42MTEzIDAuMDIyODAzIDAuNjM3MDQgMC42MTAzOSAwLjA3MjQ0IDEuNjUzNCAwLjA4NjI3IDMuMzA5NSAwLjA3OTYzIDQuOTY0NS0wLjAwNjYgMS42NTUzLTAuMDM0OTUgMy4zMTE0LTAuMTE5NDQgNC45NjQ1LTAuMDE3OCAwLjMxMDQyLTAuMTE2NTEgMC41NTg5Ny0wLjQzNzk2IDAuNTY5Ny0yLjQxNDkgMC4wNjUyOTktNC44MzA2IDAuMTIyMDgtNy4yNDYzIDAuMTIyMDgtMi40MTU4IDAtNC44MzE0LTAuMDU2Nzg3LTcuMjQ2My0wLjEyMjA4LTAuMzI5NTEgMC4wMjAzNjEtMC40MTA2Ny0wLjI4NTkzLTAuNDM3OTYtMC41Njk3LTAuMDg0NDkyLTEuNjUzMS0wLjExMjgxLTMuMzA5Mi0wLjExOTQ0LTQuOTY0NS0wLjAwNjY0LTEuNjU1IDAuMDA3MTktMy4zMTExIDAuMDc5NjMtNC45NjQ1IDAuMDI1NzQzLTAuNTg3NTkgMC4yOTkxNS0wLjU5OTQ4IDAuNjM3MDQtMC42MTAzOXoiLz48cmVjdCBzdHlsZT0ibWl4LWJsZW5kLW1vZGU6bm9ybWFsIiBmaWxsLW9wYWNpdHk9Ii43NSIgZmlsbD0idXJsKCNwKSIgcnk9IjIuMjc5OGUtMTgiIHJ4PSIyLjMxNTllLTE4IiBoZWlnaHQ9IjguODcxIiB3aWR0aD0iMTQuMDE4IiB5PSItMy4zMzM2IiB4PSItLjQwMTI5Ii8+PHBhdGggZmlsbD0idXJsKCN1KSIgZD0ibTYuNjA3Ni0zLjYxODRjLTIuMDgzNiAwLTQuNTY2NiAwLjAzOTAyMi02LjY0OTIgMC4xMDI4NC0wLjMxMjEgMC4wMDk1Ni0wLjUwNzIxIDAuMDI3NTgyLTAuNTI4MDEgMC40Nzg0Ni0wLjA2Mzg1NCAxLjM4MzktMC4wNzYzMDcgMi43NzAxLTAuMDcwNDUzIDQuMTU1OSAwLjAwNTg1IDEuMzg2IDAuMDMwODA3IDIuNzcyNCAwLjEwNTI5IDQuMTU2IDAuMDIyNTQ2IDAuMzczMjUgMC4xOTMxNSAwLjQzOTcxIDAuMzUyNDIgMC40NDQ3NiAyLjEyOTkgMC4wNTQ2OCA0LjY1OTYgMC4xMDI2OCA2Ljc4OTggMC4xMDI2OWgyLjk3N2UtNGMyLjEzMDItNC40ZS02IDQuNjU5OC0wLjA0ODAxMSA2Ljc4OTctMC4xMDI2OSAwLjE1OTI5LTAuMDA0OTQgMC4zMzAwNC0wLjA3MTUxOCAwLjM1MjU4LTAuNDQ0NzYgMC4wNzQ0OC0xLjM4MzcgMC4wOTk0NC0yLjc3IDAuMTA1MjktNC4xNTYgMC4wMDU4LTEuMzg1OC0wLjAwNjYtMi43NzItMC4wNzA0Ni00LjE1NTktMC4wMjA3OS0wLjQ1MDg3LTAuMjE1OS0wLjQ2ODg5LTAuNTI4LTAuNDc4NDYtMi4wODI3LTAuMDYzODIzLTQuNTY1Ny0wLjEwMjg0LTYuNjQ5Mi0wLjEwMjg0em0wIDAuMzI1NTRjMi4wMTA5IDAgNC40MjEzIDAuMDM2MjcgNi40MzEzIDAuMDk1NjkyIDAuMzAxMjIgMC4wMDg5IDAuNDg5MjcgMC4wMjU2MTMgMC41MDkzNSAwLjQ0NTM5IDAuMDYxNjMgMS4yODg0IDAuMDczNzggMi41NzkyIDAuMDY4MTIgMy44Njk1LTAuMDA1NyAxLjI5MDQtMC4wMjk2NyAyLjU4MTItMC4xMDE1NiAzLjg2OTUtMC4wMjE3NSAwLjM0NzUtMC4xODY1NiAwLjQwOTM5LTAuMzQwMjkgMC40MTQwOC0yLjA1NTYgMC4wNTA5MTQtNC41MTA5IDAuMDk1NTI5LTYuNTY2OCAwLjA5NTUzM2gtMi45NjhlLTRjLTIuMDU1OS0zLjdlLTYgLTQuNTExMi0wLjA0NDYyMy02LjU2NjgtMC4wOTU1MzMtMC4xNTM3Mi0wLjAwNDY5LTAuMzE4NTQtMC4wNjY1NjYtMC4zNDAyOS0wLjQxNDA4LTAuMDcxODg2LTEuMjg4Mi0wLjA5NTkxMy0yLjU3OS0wLjEwMTU2LTMuODY5NS0wLjAwNTY0LTEuMjkwMiAwLjAwNjQ5LTIuNTgxIDAuMDY4MTItMy44Njk1IDAuMDIwMDc3LTAuNDE5NzggMC4yMDgxMy0wLjQzNjQ5IDAuNTA5MzUtMC40NDUzOSAyLjAxLTAuMDU5NDIyIDQuNDIwNS0wLjA5NTY5MiA2LjQzMTMtMC4wOTU2OTJ6Ii8+PHJlY3Qgcnk9IjIuMjU4OWUtMTgiIHJ4PSIyLjIxMDJlLTE4IiBoZWlnaHQ9IjguMTY5OCIgd2lkdGg9IjEwLjczOSIgeT0iLTMuMDY0NCIgeD0iLjExNjQ2Ii8+PGcgc3Ryb2tlLXdpZHRoPSIuMTQwNjQiIHN0cm9rZS1vcGFjaXR5PSIuMjUiIHN0cm9rZS1taXRlcmxpbWl0PSIzLjMiIHN0cm9rZS1saW5lam9pbj0icm91bmQiIHN0cm9rZS1saW5lY2FwPSJyb3VuZCIgZmlsbD0iIzgwZmZkZiI+PHBhdGggc3R5bGU9InBhaW50LW9yZGVyOnN0cm9rZSBmaWxsIG1hcmtlcnMiIGQ9Im0xLjU4OTktMS41OTRoMC41NTc1MXYxLjk4NjhsMC4yNzg3NiAwLjI4MzgzaDAuNTU3NTFsMC4yNzg3Ni0wLjI4Mzgzdi0xLjk4NjhoMC41NTc1MXY1LjEwOWgtMC41NTc1MXYtMS45ODY4bC0wLjI3ODc2LTAuMjgzODNoLTEuMTE1bC0wLjI3ODc2LTAuMjgzODN6Ii8+PHBhdGggc3R5bGU9InBhaW50LW9yZGVyOnN0cm9rZSBmaWxsIG1hcmtlcnMiIGQ9Im00LjkzNS0xLjU5NC0wLjU1NzUxIDAuNTY3NjYgMmUtNyAxLjQxOTIgMC41NTc1MSAwLjU2NzY2LTAuNTU3NTEgMC41Njc2Ni0yZS03IDEuNDE5MiAwLjU1NzUxIDAuNTY3NjZoMS4xMTVsMC41NTc1MS0wLjU2NzY2IDJlLTcgLTEuNDE5Mi0wLjU1NzUxLTAuNTY3NjYgMC41NTc1MS0wLjU2NzY2LTJlLTcgLTEuNDE5Mi0wLjU1NzUxLTAuNTY3NjZ6bTAuMjc4NzYgMC41Njc2NmgwLjU1NzUxbDAuMjc4NzYgMC4yODM4MyAyZS03IDAuODUxNDktMC4yNzg3NiAwLjI4MzgzaC0wLjU1NzUxbC0wLjI3ODc2LTAuMjgzODMtMmUtNyAtMC44NTE0OXptMCAyLjU1NDVoMC41NTc1MWwwLjI3ODc2IDAuMjgzODMtMmUtNyAwLjg1MTQ5LTAuMjc4NzYgMC4yODM4M2gtMC41NTc1MWwtMC4yNzg3Ni0wLjI4MzgzIDJlLTcgLTAuODUxNDl6Ii8+PHBhdGggc3R5bGU9InBhaW50LW9yZGVyOnN0cm9rZSBmaWxsIG1hcmtlcnMiIGQ9Im03LjcyMjYtMS41OTQtMC41NTc1MSAwLjU2NzY2djMuOTczNmwwLjU1NzUxIDAuNTY3NjZoMS4xMTVsMC41NTc1MS0wLjU2NzY2di0xLjcwM2wtMC41NTc1MS0wLjU2NzY2aC0wLjgzNjI3bC0wLjI3ODc2IDAuMjgzODN2LTEuNzAzbDAuMjc4NzYtMC4yODM4M2gwLjU1NzUxbDAuMjc4NzYgMC4yODM4M3YwLjI4MzgzaDAuNTU3NTF2LTAuNTY3NjZsLTAuNTU3NTEtMC41Njc2NnptMC4yNzg3NiAyLjgzODNoMC41NTc1MWwwLjI3ODc2IDAuMjgzODMtM2UtNyAxLjEzNTMtMC4yNzg3NiAwLjI4MzgzaC0wLjU1NzUxbC0wLjI3ODc2LTAuMjgzODMgM2UtNyAtMS4xMzUzeiIvPjwvZz48cmVjdCBmaWxsPSJ1cmwoI2cpIiByeT0iMi4yNTg5ZS0xOCIgcng9IjIuMjEwMmUtMTgiIGhlaWdodD0iOC4wNTcxIiB3aWR0aD0iMTAuNTkxIiB5PSItMy4wMDgiIHg9Ii4xMTY0NiIvPjxwYXRoIHN0eWxlPSJwYWludC1vcmRlcjpmaWxsIG1hcmtlcnMgc3Ryb2tlIiBzdHJva2Utd2lkdGg9Ii4wODA1MDMiIHN0cm9rZS1vcGFjaXR5PSIuNSIgc3Ryb2tlLW1pdGVybGltaXQ9IjMuNiIgZmlsbD0idXJsKCNyKSIgZD0ibTAuMDc2NjQ3LTMuMTMwMWMtMC4wODgyMyAwLTAuMTU5MjYgMC4wNzI1OTctMC4xNTkyNiAwLjE2Mjc3djcuOTc1N2MwIDAuMDkwMTc0IDAuMDcxMDMgMC4xNjI3NyAwLjE1OTI2IDAuMTYyNzcgMCAwIDMuNTU2OCAwLjA4MTM4NCA1LjMzNTIgMC4wODEzODQgMS43Nzg0IDAgNS40OTY2LTAuMDgxMzg0IDUuNDk2Ni0wLjA4MTM4NCAwLjA4ODIzIDAgMC4xNTkyNi0wLjA3MjU5NCAwLjE1OTI2LTAuMTYyNzd2LTcuOTc1N2MwLTAuMDkwMTc1LTAuMDcxMDMtMC4xNjI3Ny0wLjE1OTI2LTAuMTYyNzd6bTUuMzM1MiAwLjE2Mjc3YzEuNjczMSAyZS03IDMuNTA2MiAwLjA5NjU0NCA1LjE3ODEgMC4xNjI3NyAwLjEwMjU2IDAuMDA0MDYgMC4xNTU1MyAwLjA0NDYyMiAwLjE1OTI2IDAuMTYyNzcgMC4xNDU4OSAyLjQxNzEgMC4xMzczNyA0LjkxMSAwIDcuMzI0Ny0wLjAwNDYgMC4wODEzNzQtMC4wNzk2MyAwLjE1Ny0wLjE1OTI2IDAuMTYyNzctMS42NDUgMC4xMTkxNC0zLjUyOSAwLjE2Mjc3LTUuMTc4MSAwLjE2Mjc3LTEuNjIyNiAwLTMuMzE4Ni0wLjA0MzcxNC00LjkzNzEtMC4xNjI3Ny0wLjA3OTYzLTAuMDA1ODUtMC4xNDkwMy0wLjA4MTgwOC0wLjE1OTI2LTAuMTYyNzctMC4zMDQwOC0yLjQwNy0wLjE1NjE2LTQuOTA3LTAuMDc5NjMtNy4zMjQ3IDAuMDAzNzUtMC4xMTgxMyAwLjA1NjY4Mi0wLjE1ODcxIDAuMTU5MjYtMC4xNjI3NyAxLjY3MTgtMC4wNjYyMjggMy4zNDQ1LTAuMTYyNzcgNS4wMTY3LTAuMTYyNzd6Ii8+PGcgc3R5bGU9Im1peC1ibGVuZC1tb2RlOm5vcm1hbCIgc3Ryb2tlLXdpZHRoPSIxLjIiIHRyYW5zZm9ybT0ibWF0cml4KC4yNjc4MyAwIDAgLjI3Mzc0IC0yLjcwMzEgLTQuNzM0NSkiPjxyZWN0IHN0eWxlPSJtaXgtYmxlbmQtbW9kZTpub3JtYWw7cGFpbnQtb3JkZXI6bWFya2VycyBzdHJva2UgZmlsbCIgZmlsbD0idXJsKCNrKSIgcnk9IjEuMTY3MWUtMTciIHJ4PSIxLjM4NTJlLTE3IiBoZWlnaHQ9IjYuMjIxMiIgd2lkdGg9IjYuMjQ0NyIgeT0iNy4zMjUyIiB4PSI1My40OTciLz48cGF0aCBhcmlhLWxhYmVsPSJIQUwiIHN0eWxlPSJtaXgtYmxlbmQtbW9kZTpub3JtYWw7cGFpbnQtb3JkZXI6bWFya2VycyBzdHJva2UgZmlsbCIgc3Ryb2tlLXdpZHRoPSIuNTA0NTYiIHN0cm9rZS1vcGFjaXR5PSIuNSIgc3Ryb2tlLWxpbmVqb2luPSJyb3VuZCIgc3Ryb2tlLWxpbmVjYXA9InJvdW5kIiBkPSJtNTUuODc3IDguNDgzOGgtMC41ODM1OHYtMC4xMjE3NGgwLjU4MzU4em0wIDAuMjM2MmgtMC41ODM1OHYtMC4xMjE3NGgwLjU4MzU4em0tMC4yMDY4OSAwLjIxNjcyaC0wLjM3NjY5di0wLjEwNDdoMC4zNzY2OXptLTAuNTcxODctMC40NTI5MWgtMC41NjAxNnYtMC4xMjE3NGgwLjU2MDE2em0wLjU3MTg3IDAuNjY5NjNoLTAuOTQ0NjZ2LTAuMTA3MTRoMC45NDQ2NnptLTAuNTcxODctMC40MzM0M2gtMC41NjAxNnYtMC4xMjE3NGgwLjU2MDE2em0wLjU3MTg3IDAuODg2MzRoLTAuMzc2Njl2LTAuMTM2MzZoMC4zNzY2OXptLTAuNTcxODctMC42Njk2M2gtMC4zNzI3OXYtMC4xMDQ3aDAuMzcyNzl6bTAuNzc4NzYgMC45MDgyNmgtMC41ODM1OHYtMC4xMjE3NmgwLjU4MzU4em0tMC4yMDY4OS0wLjQ4MjEzaC0wLjk0NDY2di0wLjExMmgwLjk0NDY2em0wLjIwNjg5IDAuNzE4MzNoLTAuNTgzNTh2LTAuMTE5MzJoMC41ODM1OHptLTAuNzc4NzYtMC40NzQ4M2gtMC4zNzI3OXYtMC4xMzYzNmgwLjM3Mjc5em0wIDAuMjM4NjNoLTAuNTYwMTZ2LTAuMTIxNzZoMC41NjAxNnptMCAwLjIzNjE5aC0wLjU2MDE2di0wLjExOTMyaDAuNTYwMTZ6bTEuOTYyNC0xLjU5NzRoLTAuNjMyMzhsMC4wMTU1Ny0wLjEyMTc0aDAuNTk5MnptMC4wNjYzNyAwLjQ2MDIyaC0wLjM0MzUxbC0wLjAxNTU2LTAuMTEyaDAuMzQxNTV6bS0wLjAzMzE5LTAuMjI0MDJoLTAuMzQxNTZsLTAuMDA5OC0wLjA3NTUwNC0wLjAwOTggMC4wNzU1MDRoLTAuMzM3NjZsMC4wMTU1Ni0wLjEyMTc0aDAuNjY1NTZ6bTAuMDY0NDIgMC40NDU2MWgtMC4zNDM1MWwtMC4wMTU1OC0wLjExMmgwLjM0MTU2em0tMC40NDExLTAuMzMzNi0wLjAxNzU3IDAuMTEyaC0wLjMzNTdsMC4wMTU1Ny0wLjExMnptMC43MTA0NSAxLjAxM2gtMC41NDg0NmwtMC4wMTM2OC0wLjEyMTc2aDAuNTYyMTF6bS0wLjIzODEyLTAuNDU3NzhoLTAuODg4MDZsMC4wMTU1Ny0wLjEwOTU4aDAuODU2ODN6bS0wLjUwMzU2LTAuMzMzNi0wLjAxNzU3IDAuMTEyaC0wLjMzNTdsMC4wMTU1Ni0wLjExMnptMC43NDE2OCAxLjAyNzZoLTAuNTIxMTJsLTAuMDEzNjgtMC4xMTkzMmgwLjUzNDc4em0tMC4yMDY4OS0wLjQ3NDgzaC0wLjk0ODU2bDAuMDE1NTctMC4xMTE5OWgwLjkxNzM0em0tMC42MDExNSAwLjExNjg4LTAuMDEzNjggMC4xMjE3NmgtMC41NTA0MXYtMC4xMjE3NnptLTAuMDI3MzMgMC4yMzg2My0wLjAxMzY4IDAuMTE5MzJoLTAuNTIzMDh2LTAuMTE5MzJ6bTEuNzc2OS0xLjQ3ODFoLTAuNzQ1NTh2LTAuMTIxNzRoMC43NDU1OHptMCAwLjIzNjJoLTAuNzQ1NTh2LTAuMTIxNzRoMC43NDU1OHptMC4zMzM3NiAwLjg4NjM0aC0wLjM1MTMydi0wLjEzNjM2aDAuMzUxMzJ6bS0wLjUxOTE4LTAuNjY5NjJoLTAuMzc0NzR2LTAuMTA0N2gwLjM3NDc0em0wIDAuMjE2NzJoLTAuMzc0NzR2LTAuMTA3MTRoMC4zNzQ3NHptMCAwLjIwOTQxaC0wLjM3NDc0di0wLjExMmgwLjM3NDc0em0wIDAuMjQzNWgtMC4zNzQ3NHYtMC4xMzYzNmgwLjM3NDc0em0wLjUxOTE3IDAuMjM4NjNoLTEuMDc5M3YtMC4xMjE3NmgxLjA3OTN6bTAgMC4yMzYxOWgtMS4wNzkzdi0wLjExOTMyaDEuMDc5M3oiLz48cGF0aCBzdHlsZT0ibWl4LWJsZW5kLW1vZGU6bm9ybWFsO3BhaW50LW9yZGVyOmZpbGwgbWFya2VycyBzdHJva2UiIHN0cm9rZS13aWR0aD0iLjQ4MzE2IiBzdHJva2Utb3BhY2l0eT0iLjUiIHN0cm9rZS1taXRlcmxpbWl0PSIzLjYiIGQ9Im01Ny4yNjYgMTAuODA5Yy0wLjAxMjA4IDAtMC4wMjE4OSA1ZS0zIC0wLjAyOTI0IDAuMDE0NzYtMC4wMDcyIDAuMDA5NS0wLjAxMDU5IDAuMDIyNzgtMC4wMTA1OSAwLjAzODc2IDAgMC4wMjc1MSAwLjAxMjQ4IDAuMDQwNTkgMC4wMzczOSAwLjA0MDU5IDAuMDExNjcgMCAwLjAyMTA5LTAuMDA0MSAwLjAyODQ2LTAuMDEyODUgMC4wMDc2LTAuMDA5MSAwLjAxMTQtMC4wMjI0OCAwLjAxMTQtMC4wMzk2OCAwLTAuMDI3NzctMC4wMTI0OC0wLjA0MTUyLTAuMDM3MzktMC4wNDE1MnptLTEuNTAyNSA4LjkxZS00IC0wLjAwNTcgMC4wMzIzaDAuMDA1N2MwLjAzMTE3IDAgMC4wNDYzMSAwLjAxMTQ3IDAuMDQ2MzEgMC4wMzUwNyAwIDAuMDA0NC0wLjAwMjQgMC4wMTc1Ni0wLjAwNjUgMC4wMzk2N2wtMC4wODYxMyAwLjQ2NjkzaDAuMDYxNzRsMC4wMzU3NC0wLjE5Mzc5YzAuMDA2OS0wLjAzNjg2IDAuMDIzNi0wLjA3MzU2IDAuMDQ5NTctMC4xMTE2NiAwLjAyNjE4LTAuMDM4MzEgMC4wNTE3My0wLjA1ODE0IDAuMDc2MzgtMC4wNTgxNCAwLjAyMDMzIDAgMC4wMzA4OSAwLjAxNTQ4IDAuMDMwODkgMC4wNDUyMSAwIDAuMDE2NDctMC4wMDMzIDAuMDM5NjctMC4wMDk2IDAuMDcwMTRsLTAuMDE1NDQgMC4wNzg0MmMtMC4wMDg0IDAuMDQ0OTYtMC4wMTMwMyAwLjA3ODQxLTAuMDEzMDMgMC4xMDE1MSAwIDAuMDIzMSAwLjAwNTQgMC4wNDE4NCAwLjAxNjI0IDAuMDU1MzggMC4wMTExMyAwLjAxMzU0IDAuMDI1NDggMC4wMjAzIDAuMDQzODggMC4wMjAzIDAuMDI1MTIgMCAwLjA1MjI3LTAuMDE0ODcgMC4wODEyNy0wLjA0MzM3bC0wLjAxMTQtMC4wMjIxNWMtMC4wMTU1OCAwLjAxMTQ3LTAuMDMwMyAwLjAxNzUzLTAuMDQzMDYgMC4wMTc1My0wLjAxNTU4IDAtMC4wMjM1Ny0wLjAxMTg4LTAuMDIzNTctMC4wMzU5OCAwLTAuMDIyNiAzZS0zIC0wLjA0OTEzIDllLTMgLTAuMDc5MzZsMC4wMTcwNi0wLjA4OTUxYzhlLTMgLTAuMDM5MzIgMC4wMTIyMS0wLjA2NjE2IDAuMDEyMjEtMC4wODIxMyAwLTAuMDU1NzgtMC4wMjMzLTAuMDgzOTgtMC4wNzA2OS0wLjA4Mzk4LTAuMDQ1MjEgMC0wLjA4NjczIDAuMDMzNjktMC4xMjM1MyAwLjEwMTUxaC0wLjAwNjVjMC4wMDk2LTAuMDQyMjggMC4wMTgyMS0wLjA4NDIxIDAuMDI2MDEtMC4xMjU1MWwwLjAyNi0wLjEzODQyem0tMS4xMjU1IDAuMDM1MDctMC4wMDU3IDAuMDMxMzhoOWUtM2MwLjAxOTA0IDAgMC4wMzEzMiAzZS0zIDAuMDM3MzkgMC4wMDkzIDZlLTMgMC4wMDYxIDllLTMgMC4wMTQ5NiA5ZS0zIDAuMDI2NzYgMCAwLjAwNTMtMy4xOGUtNCAwLjAxMTQ3LTAuMDAxOCAwLjAxODQ0bC0wLjA2OTA3IDAuMzcwOTZjLTNlLTMgMC4wMTU3Mi0wLjAwOTEgMC4wMjc4MS0wLjAxNzg3IDAuMDM2OTItMC4wMDg3IDAuMDA4OC0wLjAyNDYzIDAuMDEyODUtMC4wNDcxNCAwLjAxMjg1aC05ZS0zbC0wLjAwNDkgMC4wMzIzMWgwLjM1Njc0bDAuMDI5MjQtMC4xMzE5N2gtMC4wMzQ5NGwtMC4wMTA1OCAwLjAzMjNjLTAuMDEyNzUgMC4wNDEyNy0wLjAzODEyIDAuMDYxODQtMC4wNzU1NyAwLjA2MTg0aC0wLjEyNzU4bDAuMDQyMjYtMC4yMjYwOGgwLjE2MDA4bDAuMDA2NS0wLjAzNjkyaC0wLjE2MDA5bDAuMDM4MTgtMC4yMDAyNWgwLjExMTMzYzAuMDMxNiAwIDAuMDQ3MTQgMC4wMTYxNSAwLjA0NzE0IDAuMDQ5ODIgMCAwLjAwMjEtNS4yNWUtNCAwLjAwOTQtMC4wMDE4IDAuMDIxMjJsLTAuMDAxOCAwLjAyMzA2aDAuMDM0OTZsMC4wMjExMy0wLjEzMTk3em0yLjM4NSAwLjA0MDU5Yy0wLjAyNDQ1IDAuMDcwNTItMC4wNTgzMSAwLjEwNjEzLTAuMTAxNTcgMC4xMDYxM2wtMC4wMDU3IDAuMDMwNDVoMC4wNTAzOWwtMC4wNDA2NCAwLjIxNzc4Yy0wLjAwNDMgMC4wMjMzNS0wLjAwNjUgMC4wNDM4My0wLjAwNjUgMC4wNjI3NCAwIDAuMDU4NzQgMC4wMjQwNiAwLjA4ODU4IDAuMDcyMzMgMC4wODg1OCAwLjAyOTg3IDAgMC4wNTk1My0wLjAxMTg4IDAuMDg5MzctMC4wMzU5OGwtMC4wMTE0LTAuMDI4NmMtMC4wMTgxNyAwLjAxMTE5LTAuMDM1NjcgMC4wMTY2MS0wLjA1MzY0IDAuMDE2NjEtMC4wMjM1OCAwLTAuMDM1NzQtMC4wMTQwMS0wLjAzNTc0LTAuMDQxNTIgMC0wLjAxNDI1IDAuMDAyNy0wLjAzNTYxIDAuMDA4MS0wLjA2NDZsMC4wNDA2My0wLjIxNTAxaDAuMDgwNDZsMC4wMDgxLTAuMDQzMzZoLTAuMDgwNDRsMC4wMTcwNi0wLjA5MzIxem0xLjA1NTYgMC4wNTYyOGMtMC4wMjY4MyAwLTAuMDUwNTQgMC4wMTc4OC0wLjA3MTUxIDAuMDUzNTMtMC4wMTczLTAuMDE1OTYtMC4wMzk5LTAuMDIzOTktMC4wNjgyNi0wLjAyMzk5LTAuMDQ2MzEgMC0wLjA4Mzc5IDAuMDE3Ny0wLjExMjE0IDAuMDUyNi0wLjAyODE0IDAuMDM0NjUtMC4wNDIyNiAwLjA3MjgzLTAuMDQyMjYgMC4xMTUzNiAwIDAuMDQzIDAuMDE1MzYgMC4wNzMwNSAwLjA0NjMxIDAuMDg5NTEtMC4wMjQ0NSAwLjAxNDI1LTAuMDQwNjggMC4wMjcwMy0wLjA0OTU3IDAuMDM3ODItMC4wMDg3IDAuMDEwOTItMC4wMTMwMyAwLjAyMzI4LTAuMDEzMDMgMC4wMzg3NiAwIDAuMDIyODQgMC4wMTA0NSAwLjA0MDggMC4wMzE3IDAuMDUyNi0wLjAzMzU1IDAuMDA3NS0wLjA2MDE3IDAuMDE5ODMtMC4wNzk2NCAwLjAzODc2LTAuMDE5MjYgMC4wMTkxNi0wLjAyODQ0IDAuMDQzMTEtMC4wMjg0NCAwLjA3MDE0IDAgMC4wNjU2MiAwLjA0NzkyIDAuMDk3ODEgMC4xNDQ2NSAwLjA5NzgxIDAuMDU3NzggMCAwLjEwMjExLTAuMDEzNCAwLjEzMzI2LTAuMDM5NjggMC4wMzExNy0wLjAyNjA1IDAuMDQ3MTQtMC4wNjE5NiAwLjA0NzE0LTAuMTA4ODkgMC0wLjA1NzUxLTAuMDM0MzktMC4wOTAzOC0wLjEwMzIxLTAuMDk4NzRsLTAuMDY0MTktMC4wMDgzYy0wLjAyMjcyLTAuMDAyNi0wLjAzMzMzLTAuMDA5Ny0wLjAzMzMzLTAuMDIyMTUgMC0wLjAxNzE5IDAuMDE1NTQtMC4wMzM0OSAwLjA0NzE0LTAuMDQ3OTkgMC4wMDM5IDkuODFlLTQgMC4wMTExMyAwLjAwMTkgMC4wMjExMyAwLjAwMTkgMC4wNDU2NSAwIDAuMDgyNi0wLjAxNzQ2IDAuMTEwNTEtMC4wNTI2IDAuMDI3OTEtMC4wMzU0IDAuMDQxNDMtMC4wNzQgMC4wNDE0My0wLjExNjI3IDAtMC4wMjMxLTAuMDA0OS0wLjA0MjQtMC4wMTQ2My0wLjA1ODE0IDAuMDEzMTYtMC4wMTE0NyAwLjAyNDY2LTAuMDE3NTIgMC4wMzMzMy0wLjAxNzUyIDAuMDEyMzUgMCAwLjAxNzg3IDAuMDA4NiAwLjAxNzg3IDAuMDI2NzYgMC4wMjYxOCAwIDAuMDM5ODEtMC4wMTQ5MiAwLjAzOTgxLTAuMDQ2MTQgMC0wLjAyMzEtMC4wMTE4MS0wLjAzNTA4LTAuMDM0MTQtMC4wMzUwOHptLTIuNDg3NCAwLjAyOTU0Yy0wLjA1NzEzIDAtMC4xMDQ3NyAwLjAyNzk5LTAuMTQyMjEgMC4wODMwNS0wLjAzNzQ0IDAuMDU0OC0wLjA1NjA4IDAuMTE1LTAuMDU2MDggMC4xODA4NyAwIDAuMDQ4NCAwLjAxMTk0IDAuMDg2NjYgMC4wMzU3NyAwLjExNDQzIDAuMDIzODEgMC4wMjc3NyAwLjA1NTU0IDAuMDQxNTIgMC4wOTQyNiAwLjA0MTUyIDAuMDM1MDQgMCAwLjA2MjkyLTAuMDA5NCAwLjA4MzctMC4wMjY3OCAwLjAyMDk4LTAuMDE3NyAwLjAzMDktMC4wMzYxNSAwLjAzMDktMC4wNTYyOSAwLTAuMDA5NC0yZS0zIC0wLjAxNjE1LTAuMDA2NS0wLjAxOTM3LTAuMDI1MSAwLjAzNjEyLTAuMDU3MTQgMC4wNTQ0NC0wLjA5NTg4IDAuMDU0NDQtMC4wNDg2OSAwLTAuMDczMTMtMC4wMzQxMi0wLjA3MzEzLTAuMTAyNDQgMC0wLjA1MDM4IDAuMDEyMDgtMC4xMDE1MSAwLjAzNDk0LTAuMTU0MTEgMC4wMjMxNS0wLjA1MjYgMC4wNDk1LTAuMDc5MzYgMC4wODA0NC0wLjA3OTM2IDAuMDE2MDEgMCAwLjAyOTExIDAuMDA4NCAwLjAzODE3IDAuMDI0OTEgMC4wMDkxIDAuMDE2MjEgMC4wMTM4MSAwLjAzNzgyIDAuMDEzODEgMC4wNjQ1OSAwLjAxNzk1IDAgMC4wMzE2NC0wLjAwNDcgMC4wNDIyNi0wLjAxNDc2IDAuMDEwOTktMC4wMDk5IDAuMDE2MjQtMC4wMjM1MiAwLjAxNjI0LTAuMDM4NzYgMC0wLjAyMDY0LTAuMDA4MS0wLjAzNjk5LTAuMDI1Mi0wLjA1MDc1LTAuMDE3MDktMC4wMTM4Mi0wLjA0MTAxLTAuMDIxMjItMC4wNzE1MS0wLjAyMTIyem0wLjcyMTYxIDBjLTAuMDU2MDYgMC0wLjEwMzMyIDAuMDI5MzctMC4xNDE0IDAuMDg4NTgtMC4wMzc4NiAwLjA1OTIzLTAuMDU2ODkgMC4xMjM1Ni0wLjA1Njg5IDAuMTkyODYgMCAwLjA0MzUgMC4wMDc5IDAuMDc4MDkgMC4wMjI3NCAwLjEwMjQ0IDAuMDE1MTQgMC4wMjQwOCAwLjAzNjM0IDAuMDM1OTggMC4wNjMzOCAwLjAzNTk4IDAuMDUxMDggMCAwLjA5MjUyLTAuMDQwOTUgMC4xMjQzMy0wLjEyMTgxaDAuMDA0MWMtMC4wMDQ1IDAuMDIzMS0wLjAwNjUgMC4wNDMxLTAuMDA2NSAwLjA1OTA1IDAgMC4wNDE3NyAwLjAxNzM4IDAuMDYyNzQgMC4wNTIgMC4wNjI3NCAwLjAzMDc0IDAgMC4wNjE2NS0wLjAxNTI0IDAuMDkzNDYtMC4wNDUyMmwtMC4wMTIyMS0wLjAyMjE1Yy0wLjAxOTQ3IDAuMDEyOTktMC4wMzUzOSAwLjAxOTM3LTAuMDQ3OTMgMC4wMTkzNy0wLjAxNDQ5IDAtMC4wMjE5My0wLjAxMjMtMC4wMjE5My0wLjAzNzgyIDAtMC4wMjExMyAwLjAwMzMtMC4wNDkzMSAwLjAwOTYtMC4wODM5OGwwLjA0NTUtMC4yNDE3N2gtMC4wMjExM2wtMC4wMjkyNCAwLjAxOTM3Yy0wLjAyMTgzLTAuMDE4MTgtMC4wNDc5My0wLjAyNzY4LTAuMDc4MDEtMC4wMjc2OHptLTEuMDcxIDguOTNlLTRjLTAuMDQ0NzggMC0wLjA4NTE2IDAuMDMzNjktMC4xMjEwOCAwLjEwMTUxaC0wLjAwNjVsMC4wMTc4Ny0wLjA5NTA1aC0wLjEyMjc0bC0wLjAwNTcgMC4wMzEzOGgwLjAwNDljMC4wMzA5NCAwIDAuMDQ2MzEgMC4wMTIxNiAwLjA0NjMxIDAuMDM1OTkgMCAwLjAwODYtNi4zNWUtNCAwLjAyMDEzLTAuMDAzMyAwLjAzNDE0bC0wLjA1NjA5IDAuMzAzNmgwLjA2MTc2bDAuMDM1NzYtMC4xOTM3OGMwLjAwNzMtMC4wMzc2IDAuMDIzODEtMC4wNzQ3NSAwLjA0OTU3LTAuMTEyNTggMC4wMjU5Ni0wLjAzNzg0IDAuMDUxNzMtMC4wNTcyMiAwLjA3NjM4LTAuMDU3MjIgMC4wMjAzNCAwIDAuMDMwMDcgMC4wMTU0OCAwLjAzMDA3IDAuMDQ1MjEgMCAwLjAxNjQ3LTAuMDAzMyAwLjAzOTY3LTAuMDA5NiAwLjA3MDEzbC0wLjAxNTQzIDAuMDc4NDNjLTAuMDA4NCAwLjA0NDk2LTAuMDEyMjEgMC4wNzg0MS0wLjAxMjIxIDAuMTAxNSAwIDAuMDIzMSAwLjAwNTQgMC4wNDE4NCAwLjAxNjI0IDAuMDU1MzggMC4wMTExMyAwLjAxMzU0IDAuMDI1NDggMC4wMjAzIDAuMDQzODkgMC4wMjAzIDAuMDI1MTIgMCAwLjA1MjI2LTAuMDE0ODcgMC4wODEyNy0wLjA0MzM3bC0wLjAxMjIxLTAuMDIyMTVjLTAuMDE1NTggMC4wMTE0Ny0wLjAyOTQ5IDAuMDE3NTItMC4wNDIyNiAwLjAxNzUyLTAuMDE1NTggMC0wLjAyMzU3LTAuMDExODgtMC4wMjM1Ny0wLjAzNTk4IDAtMC4wMjI2IDNlLTMgLTAuMDQ5MTMgOWUtMyAtMC4wNzkzNmwwLjAxNzA2LTAuMDg4NThjOGUtMyAtMC4wMzkzMiAwLjAxMjIxLTAuMDY3MDcgMC4wMTIyMS0wLjA4MzA1IDAtMC4wNTU3OC0wLjAyNDEzLTAuMDgzOTgtMC4wNzE1MS0wLjA4Mzk4em0xLjUwNTggMGMtMC4wNDQ3OSAwLTAuMDg1MTUgMC4wMzM2OS0wLjEyMTA4IDAuMTAxNTFoLTAuMDA2NWwwLjAxNzg3LTAuMDk1MDVoLTAuMTIzNTNsLTAuMDA1NyAwLjAzMTM4aDAuMDA0OWMwLjAzMDk0IDAgMC4wNDcxNCAwLjAxMjE2IDAuMDQ3MTQgMC4wMzU5OSAwIDAuMDA4Ni0wLjAwMTQgMC4wMjAxMy0wLjAwNDEgMC4wMzQxNGwtMC4wNTYwOCAwLjMwMzZoMC4wNjE3N2wwLjAzNTc3LTAuMTkzNzhjMC4wMDczLTAuMDM3NiAwLjAyMzgxLTAuMDc0NzUgMC4wNDk1Ni0wLjExMjU4IDAuMDI1OTYtMC4wMzc4NCAwLjA1MTczLTAuMDU3MjIgMC4wNzYzOS0wLjA1NzIyIDAuMDIwMzMgMCAwLjAzMDA3IDAuMDE1NDggMC4wMzAwNyAwLjA0NTIxIDAgMC4wMTY0Ny0wLjAwMzMgMC4wMzk2Ny0wLjAwOTYgMC4wNzAxM2wtMC4wMTQ2MyAwLjA3ODQzYy0wLjAwODQgMC4wNDQ5Ni0wLjAxMzAzIDAuMDc4NDEtMC4wMTMwMyAwLjEwMTUgMCAwLjAyMzEgMC4wMDU0IDAuMDQxODQgMC4wMTYyNCAwLjA1NTM4IDAuMDExMTMgMC4wMTM1NCAwLjAyNTQ5IDAuMDIwMyAwLjA0Mzg5IDAuMDIwMyAwLjAyNTEgMCAwLjA1MjI3LTAuMDE0ODcgMC4wODEyNy0wLjA0MzM3bC0wLjAxMjIxLTAuMDIyMTVjLTAuMDE1NTggMC4wMTE0Ny0wLjAyOTUgMC4wMTc1Mi0wLjA0MjI2IDAuMDE3NTItMC4wMTU1OCAwLTAuMDIzNTctMC4wMTE4OC0wLjAyMzU3LTAuMDM1OTggMC0wLjAyMjYgM2UtMyAtMC4wNDkxMyA5ZS0zIC0wLjA3OTM2bDAuMDE3MDYtMC4wODg1OGM4ZS0zIC0wLjAzOTMyIDAuMDEyMjEtMC4wNjcwNyAwLjAxMjIxLTAuMDgzMDUgMC0wLjA1NTc4LTAuMDIzMy0wLjA4Mzk4LTAuMDcwNjktMC4wODM5OHptMC44NDUxMiAwYy0wLjA0NDc5IDAtMC4wODUxNCAwLjAzMzY5LTAuMTIxMDggMC4xMDE1MWgtMC4wMDY1bDAuMDE3ODctMC4wOTUwNWgtMC4xMjM1M2wtMC4wMDU3IDAuMDMxMzhoMC4wMDU3YzAuMDMwOTQgMCAwLjA0NjMxIDAuMDEyMTYgMC4wNDYzMSAwLjAzNTk5IDAgMC4wMDg2LTAuMDAxNCAwLjAyMDEzLTAuMDA0MSAwLjAzNDE0bC0wLjA1NjA4IDAuMzAzNmgwLjA2MTc2bDAuMDM1NzctMC4xOTM3OGMwLjAwNzMtMC4wMzc2IDAuMDI0NjItMC4wNzQ3NSAwLjA1MDM5LTAuMTEyNTggMC4wMjU5Ny0wLjAzNzg0IDAuMDUwOS0wLjA1NzIyIDAuMDc1NTctMC4wNTcyMiAwLjAyMDMzIDAgMC4wMzA4OCAwLjAxNTQ4IDAuMDMwODggMC4wNDUyMSAwIDAuMDE2NDctMC4wMDMzIDAuMDM5NjctMC4wMDk2IDAuMDcwMTNsLTAuMDE1NDQgMC4wNzg0M2MtMC4wMDg0IDAuMDQ0OTYtMC4wMTMwMyAwLjA3ODQxLTAuMDEzMDMgMC4xMDE1IDAgMC4wMjMxIDAuMDA1NCAwLjA0MTg0IDAuMDE2MjQgMC4wNTUzOCAwLjAxMTEzIDAuMDEzNTQgMC4wMjYzIDAuMDIwMyAwLjA0NDY5IDAuMDIwMyAwLjAyNTA5IDAgMC4wNTE0Ni0wLjAxNDg3IDAuMDgwNDQtMC4wNDMzN2wtMC4wMTE0LTAuMDIyMTVjLTAuMDE1NTggMC4wMTE0Ny0wLjAzMDMgMC4wMTc1Mi0wLjA0MzA2IDAuMDE3NTItMC4wMTU1OCAwLTAuMDIyNzQtMC4wMTE4OC0wLjAyMjc0LTAuMDM1OTggMC0wLjAyMjYgMC4wMDIzLTAuMDQ5MTMgMC4wMDgxLTAuMDc5MzZsMC4wMTcwNi0wLjA4OTUxYzhlLTMgLTAuMDM5MzEgMC4wMTIyMS0wLjA2NjE2IDAuMDEyMjEtMC4wODIxMyAwLTAuMDU1NzgtMC4wMjMzLTAuMDgzOTgtMC4wNzA3LTAuMDgzOTh6bS0wLjQzMTUgMC4wMDY0LTAuMDA1NyAwLjAzMTM4aDllLTNjMC4wMjcwNSAwIDAuMDQwNjQgMC4wMTExOSAwLjA0MDY0IDAuMDMyMyAwIDAuMDA1My05LjQzZS00IDAuMDExMzMtMC4wMDI2IDAuMDE5MzdsLTAuMDI2IDAuMTM5MzRjLTAuMDA5OSAwLjA1NjUxLTAuMDE0NjMgMC4wOTU1LTAuMDE0NjMgMC4xMTgxMSAwIDAuMDIwNjQgMC4wMDUzIDAuMDM4MTYgMC4wMTU0MyAwLjA1MTY5IDAuMDEwMTggMC4wMTM1NCAwLjAyMzM4IDAuMDIwMyAwLjAzOTgxIDAuMDIwMyAwLjAyOTIyIDAgMC4wNTk0OS0wLjAxNTI0IDAuMDkwMTktMC4wNDUyMmwtMC4wMTIyMS0wLjAyMjE1Yy0wLjAxOTA0IDAuMDEyOTktMC4wMzUxOSAwLjAxOTM3LTAuMDQ3OTMgMC4wMTkzNy0wLjAxNDcxIDAtMC4wMjE5Ni0wLjAxMjMtMC4wMjE5Ni0wLjAzNzgzIDAtMC4wMTk2NSAzZS0zIC0wLjA0Nzg1IDAuMDA5Ni0wLjA4Mzk4bDAuMDQ1NS0wLjI0Mjd6bS0wLjg0NDMxIDAuMDI2NzhjMC4wMjMzOCAwIDAuMDM5MzkgMC4wMDg2IDAuMDQ5NTcgMC4wMjY3NmwtMC4wMjQzNyAwLjEzMzgyYy0wLjAwNzcgMC4wNDM5OC0wLjAyMzcyIDAuMDg0Ny0wLjA0Nzk0IDAuMTIxODEtMC4wMjQyNSAwLjAzNzExLTAuMDQ3ODIgMC4wNTUzOC0wLjA2OTg4IDAuMDU1MzgtMC4wMjc5MSAwLTAuMDQxNDMtMC4wMjg1Mi0wLjA0MTQzLTAuMDg2NzQgMC0wLjA1Nzc2IDAuMDEyNzYtMC4xMTQzMiAwLjAzODE5LTAuMTY4ODcgMC4wMjU3Ni0wLjA1NDggMC4wNTgwMy0wLjA4MjEzIDAuMDk1ODgtMC4wODIxM3ptMS42MTM5IDguOTFlLTRjMC4wMzA1MiAwIDAuMDQ1NSAwLjAyMDUzIDAuMDQ1NSAwLjA2MTgzIDAgMC4wMzM5Mi04ZS0zIDAuMDY1MzctMC4wMjM1NyAwLjA5NDEyLTAuMDE1MzYgMC4wMjg1Mi0wLjAzNTYyIDAuMDQyNDUtMC4wNjA5NCAwLjA0MjQ1LTAuMDMwNzIgMC0wLjA0NjMxLTAuMDIwNTMtMC4wNDYzMS0wLjA2MTgzIDAtMC4wMzM0MSAwLjAwNzYtMC4wNjQ0NCAwLjAyMjc0LTAuMDkzMjEgMC4wMTUzNi0wLjAyOSAwLjAzNjU5LTAuMDQzMzcgMC4wNjI1OS0wLjA0MzM3em0tMC4wOTgzMSAwLjM2ODE5IDAuMDY0MTkgMC4wMDY0YzAuMDQxMzMgMC4wMDQxIDAuMDYyNTcgMC4wMjMzNSAwLjA2MjU3IDAuMDU2MjggMCAwLjAyNzc3LTAuMDEwMzEgMC4wNDkzLTAuMDMwODkgMC4wNjU0OS0wLjAyMDMzIDAuMDE2NDctMC4wNTA0NCAwLjAyNDkxLTAuMDg5MzcgMC4wMjQ5MS0wLjA2MjU0IDAtMC4wOTM0Ni0wLjAyMTc3LTAuMDkzNDYtMC4wNjU1MSAwLTAuMDIwMzkgMC4wMDU3LTAuMDM3NjcgMC4wMTcwNi0wLjA1MTY4IDAuMDExNTMtMC4wMTQwMSAwLjAyNDgzLTAuMDIzNDMgMC4wNDA2My0wLjAyODYgMC4wMTYtMC4wMDUzIDAuMDI2MDEtMC4wMDc3IDAuMDI5MjYtMC4wMDc1em0tMC43ODA5MyAwLjM3OTI3Yy0wLjAxMjA4IDAtMC4wMjE4OSA1ZS0zIC0wLjAyOTI2IDAuMDE0NzYtMC4wMDcyIDAuMDA5NS0wLjAxMDU4IDAuMDIyNzgtMC4wMTA1OCAwLjAzODc2IDAgMC4wMjc1MiAwLjAxMjQ4IDAuMDQwNiAwLjAzNzM5IDAuMDQwNiAwLjAxMTY3IDAgMC4wMjEwOS0wLjAwNDEgMC4wMjg0NC0wLjAxMjg1IDAuMDA3Ni0wLjAwOTEgMC4wMTE0LTAuMDIyNDcgMC4wMTE0LTAuMDM5NjcgMC0wLjAyNzc3LTAuMDEyNDgtMC4wNDE1Mi0wLjAzNzM5LTAuMDQxNTJ6bS0xLjYyNzcgOC45M2UtNCAtMC4wMDY1IDAuMDMyM2gwLjAwODFjMC4wMzExNyAwIDAuMDQ3MTQgMC4wMTE0NyAwLjA0NzE0IDAuMDM1MDcgMCAwLjAwNzctMC4wMDIyIDAuMDE5MTUtMC4wMDQ5IDAuMDM0MTRsLTAuMDUzNjQgMC4yODk3NmMtMC4wMDk2IDAuMDU1My0wLjAxNDYzIDAuMDk0MjctMC4wMTQ2MyAwLjExODExIDAgMC4wMjExMyAwLjAwNDMgMC4wMzg0IDAuMDE0NjMgMC4wNTE2OSAwLjAxMDMxIDAuMDEzMjYgMC4wMjM4MSAwLjAyMDMgMC4wMzk4MSAwLjAyMDMgMC4wMjkyMiAwIDAuMDU5NDgtMC4wMTUyNCAwLjA5MDE5LTAuMDQ1MjJsLTAuMDEyMjEtMC4wMjIxNWMtMC4wMTkwNCAwLjAxMjk5LTAuMDM1MTkgMC4wMTkzNy0wLjA0NzkzIDAuMDE5MzctMC4wMTQ3MSAwLTAuMDIxOTYtMC4wMTIzLTAuMDIxOTYtMC4wMzc4MiAwLTAuMDE5OSAwLjAwMzgtMC4wNDgwOCAwLjAxMDU4LTAuMDgzOThsMC4wNzYzOS0wLjQxMTU3em0yLjQ0MzUgMC0wLjAwNTcgMC4wMzIzaDAuMDA3M2MwLjAzMTE2IDAgMC4wNDcxNCAwLjAxMTQ3IDAuMDQ3MTQgMC4wMzUwNyAwIDAuMDA3Ny0wLjAwMTMgMC4wMTkxNS0wLjAwNDEgMC4wMzQxNGwtMC4wNTQ0MyAwLjI4OTc2Yy0wLjAwOTYgMC4wNTUzLTAuMDE0NjMgMC4wOTQyNy0wLjAxNDYzIDAuMTE4MTEgMCAwLjAyMTEzIDAuMDA1MyAwLjAzODQgMC4wMTU0MyAwLjA1MTY5IDAuMDEwMzEgMC4wMTMyNiAwLjAyMzgxIDAuMDIwMyAwLjAzOTgxIDAuMDIwMyAwLjAyOTIyIDAgMC4wNTg2OC0wLjAxNTI0IDAuMDg5MzctMC4wNDUyMmwtMC4wMTIyMS0wLjAyMjE1Yy0wLjAxOTA0IDAuMDEyOTktMC4wMzQzNyAwLjAxOTM3LTAuMDQ3MTQgMC4wMTkzNy0wLjAxNDcxIDAtMC4wMjE5Ni0wLjAxMjMtMC4wMjE5Ni0wLjAzNzgyIDAtMC4wMTk5IDNlLTMgLTAuMDQ4MDggMC4wMDk2LTAuMDgzOThsMC4wNzcyLTAuNDExNTd6bS0zLjAwNjcgMC4wMjY3NmMtMC4wNzc5MSAwLTAuMTQzNDcgMC4wMzU0MS0wLjE5NTg0IDAuMTA1Mi0wLjA1MjM3IDAuMDY5NTQtMC4wNzgwMSAwLjE1MTk2LTAuMDc4MDEgMC4yNDczMSAwIDAuMDY0MzkgMC4wMTU2OSAwLjExNDM1IDAuMDQ3OTMgMC4xNDk0OSAwLjAzMjQ3IDAuMDM1MTQgMC4wNzc5MyAwLjA1MjYgMC4xMzU3MSAwLjA1MjYgMC4wNDMyOCAwIDAuMDc2OTEtMC4wMDk4IDAuMTAxNTctMC4wMjg2MiAwLjAyNDY3LTAuMDE4OTMgMC4wMzczOS0wLjA0MDUxIDAuMDM3MzktMC4wNjQ1OSAwLTAuMDEyMDItM2UtMyAtMC4wMjAyMS05ZS0zIC0wLjAyNDkxLTAuMDMwNzMgMC4wNDU3Mi0wLjA3MjIyIDAuMDY5Mi0wLjEyMzUzIDAuMDY5Mi0wLjA3ODc3IDAtMC4xMTc4My0wLjA0NzA3LTAuMTE3ODMtMC4xNDExOSAwLTAuMDgwMzUgMC4wMTg0Ni0wLjE1NDgyIDAuMDU1MjYtMC4yMjIzOSAwLjAzNzAxLTAuMDY3ODMgMC4wODI1OS0wLjEwMTUgMC4xMzczMy0wLjEwMTUgMC4wNDQxNCAwIDAuMDY2NjMgMC4wMzQxIDAuMDY2NjMgMC4xMDI0NCAwLjAxOTY5IDAgMC4wMzUyMy0wLjAwNTEgMC4wNDcxNC0wLjAxNTcgMC4wMTE5NC0wLjAxMDY0IDAuMDE3ODctMC4wMjU0MiAwLjAxNzg3LTAuMDQzMzYgMC0wLjAyNTgxLTAuMDEwOTktMC4wNDU5My0wLjAzMjUxLTAuMDYwOTItMC4wMjE2NC0wLjAxNTI0LTAuMDUxNDgtMC4wMjMwNi0wLjA5MDItMC4wMjMwNnptMS42NDM5IDAuMDA4My0wLjAwNTcgMC4wMzEzOGgwLjAwODFjMC4wMzIwMyAwIDAuMDQ3OTQgMC4wMTAzNiAwLjA0Nzk0IDAuMDMwNDUgMCAwLjAwNDctNy4xMmUtNCAwLjAxMTg4LTAuMDAyNiAwLjAyMTIybC0wLjA2OTA3IDAuMzcwMDRjLTAuMDA2NiAwLjAzNjEyLTAuMDI4MjMgMC4wNTM1My0wLjA2NSAwLjA1MzUzaC05ZS0zbC0wLjAwNTcgMC4wMzIzaDAuMjA5NjZjMC4wODA3MSAwIDAuMTQ1MTUtMC4wMzIxNSAwLjE5MzQtMC4wOTUwNSAwLjA0ODI0LTAuMDYzMTQgMC4wNzIzMy0wLjE0MjY4IDAuMDcyMzMtMC4yMzkgMC0wLjA2NTg1LTAuMDE2MDktMC4xMTU5NS0wLjA0ODc2LTAuMTUxMzQtMC4wMzI2OS0wLjAzNTY1LTAuMDc5NDEtMC4wNTM1My0wLjEzOTc3LTAuMDUzNTN6bTAuMTIzNTMgMC4wMzY4OWgwLjA1MjgzYzAuMDg0MTkgMCAwLjEyNTk2IDAuMDUzNDkgMC4xMjU5NiAwLjE1OTY0IDAgMC4wOTA5My0wLjAxODYzIDAuMTY0NzctMC4wNTYwOCAwLjIyMDU1LTAuMDM3MjIgMC4wNTU3OC0wLjA4NzkxIDAuMDgzMDctMC4xNTE5NiAwLjA4MzA3aC0wLjA1Nzd6bS0xLjQzMjYgMC4wODk1MWMtMC4wNTkwOCAwLTAuMTA3MjcgMC4wMjcxNS0wLjE0MzgzIDAuMDgxMjItMC4wMzYzNCAwLjA1MzgyLTAuMDU0NDQgMC4xMTQ4Ny0wLjA1NDQ0IDAuMTgyNzEgMCAwLjA0ODkxIDAuMDExNjcgMC4wODY5MSAwLjAzNDE0IDAuMTE0NDIgMC4wMjI1IDAuMDI3NTIgMC4wNTM0MiAwLjA0MTUyIDAuMDkzNDYgMC4wNDE1MiAwLjA1ODg1IDAgMC4xMDY4OC0wLjAyNzE1IDAuMTQzMDItMC4wODEyIDAuMDM2MTQtMC4wNTQzMSAwLjA1MzY0LTAuMTE1NjIgMC4wNTM2NC0wLjE4MjcyIDAtMC4wNTA2My0wLjAxMDk5LTAuMDg4NTUtMC4wMzMzMS0wLjExNTM2LTAuMDIyNS0wLjAyNjc4LTAuMDUzNDctMC4wNDA1OS0wLjA5MjYzLTAuMDQwNTl6bTAuNTgzNDYgMGMtMC4wNTkwOCAwLTAuMTA2NDYgMC4wMjcxNS0wLjE0MzAyIDAuMDgxMjItMC4wMzYzNSAwLjA1MzgyLTAuMDU0NDYgMC4xMTQ4Ny0wLjA1NDQ2IDAuMTgyNzEgMCAwLjA0ODkxIDAuMDEwOTkgMC4wODY5MSAwLjAzMzMzIDAuMTE0NDIgMC4wMjI1IDAuMDI3NTIgMC4wNTQyMyAwLjA0MTUyIDAuMDk0MjYgMC4wNDE1MiAwLjA1ODg1IDAgMC4xMDYwOC0wLjAyNzE1IDAuMTQyMjEtMC4wODEyIDAuMDM2MTUtMC4wNTQzMSAwLjA1NDQzLTAuMTE1NjIgMC4wNTQ0My0wLjE4MjcyIDAtMC4wNTA2My0wLjAxMTY3LTAuMDg4NTUtMC4wMzQxMy0wLjExNTM2LTAuMDIyNS0wLjAyNjc4LTAuMDUzNDYtMC4wNDA1OS0wLjA5MjYzLTAuMDQwNTl6bTAuNDE1MjUgMGMtMC4wMjI5NSAwLTAuMDQyODMgMC4wMDc5LTAuMDYwMTMgMC4wMjQtMC4wMTczIDAuMDE2MjEtMC4wMzUwNyAwLjA0NzMxLTAuMDUyODMgMC4wOTIyOGgtMC4wMDY1bDAuMDEzOC0wLjEwODg5aC0wLjExNzAxbC0wLjAwNjUgMC4wMzEzOGgwLjAwNTdjMC4wMzUyOCAwIDAuMDUyODMgMC4wMTIxNiAwLjA1MjgzIDAuMDM1OTkgMCAwLjAwODYtMC4wMDE0IDAuMDIwMTUtMC4wMDQxIDAuMDM0MTNsLTAuMDU2MDkgMC4zMDM2aDAuMDYyNTdsMC4wMjQzNy0wLjEzNzQ5YzAuMDExMTMtMC4wNTc5OSAwLjAyODI1LTAuMTEgMC4wNTEyLTAuMTU1OTUgMC4wMjMxNi0wLjA0NTk2IDAuMDQ1MjctMC4wNjkyIDAuMDY1ODMtMC4wNjkyIDAuMDE3NzQgMCAwLjAyNjggMC4wMjAxNyAwLjAyNjggMC4wNTk5OCAwLjAzNjc3IDAgMC4wNTUyNy0wLjAxOTggMC4wNTUyNy0wLjA1ODE0IDAtMC4wMzQ2NC0wLjAxODkyLTAuMDUxNjctMC4wNTUyNy0wLjA1MTY3em0xLjQ4NzEgMGMtMC4wNDkxMSAwLTAuMDg5ODYgMC4wMzU5OC0wLjEyMTg4IDAuMTA3OTdoLTAuMDAzM2wwLjAxNjI0LTAuMTAwNTdoLTAuMTE3ODNsLTAuMDA1NyAwLjAzMTM4aDAuMDA0OWMwLjAzMDk0IDAgMC4wNDYzMSAwLjAxMjE2IDAuMDQ2MzEgMC4wMzU5OSAwIDAuMDA1NS0wLjAwMTkgMC4wMTg1NC0wLjAwNTcgMC4wMzk2OGwtMC4wODg1NyAwLjQ3ODkzaDAuMTI1MTZsMC4wMDU3LTAuMDMxMzhoLTllLTNjLTAuMDMwOTQgMC0wLjA0NjMxLTAuMDExNzQtMC4wNDYzMS0wLjAzNTA4IDAtN2UtMyAwLjAwMjQtMC4wMjE1NSAwLjAwNjUtMC4wNDI0NWw5ZS0zIC0wLjA0NjEzYzAuMDAxOC0wLjAwODIgMC4wMDM4LTAuMDE5NzcgMC4wMDU3LTAuMDM1OTggMC4wMTc5NCAwLjAxMTQ3IDAuMDM5NjggMC4wMTc1MiAwLjA2NTAxIDAuMDE3NTIgMC4wNTgwMSAwIDAuMTA1MjEtMC4wMzA5MSAwLjE0MjIxLTAuMDkxMzQgMC4wMzcyMi0wLjA2MDcgMC4wNTYwOS0wLjEyNDM3IDAuMDU2MDktMC4xOTE5NCAwLTAuMDQ0MjMtMC4wMDcyLTAuMDc4MTgtMC4wMjE5My0wLjEwMTUxLTAuMDE0NDgtMC4wMjMzNC0wLjAzNTUzLTAuMDM1MDgtMC4wNjI1Ny0wLjAzNTA4em0wLjU0MjAyIDBjLTAuMDU2MDYgMC0wLjEwMzMyIDAuMDI5MzctMC4xNDE0IDAuMDg4NTgtMC4wMzc4NyAwLjA1OTIzLTAuMDU2OSAwLjEyMzU3LTAuMDU2OSAwLjE5Mjg2IDAgMC4wNDM1IDAuMDA3OSAwLjA3ODA5IDAuMDIyNzQgMC4xMDI0NCAwLjAxNTE0IDAuMDI0MDggMC4wMzYzNCAwLjAzNTk5IDAuMDYzMzkgMC4wMzU5OSAwLjA1MTA4IDAgMC4wOTI1Mi0wLjA0MDk1IDAuMTI0MzMtMC4xMjE4MWgwLjAwNDFjLTAuMDA0NiAwLjAyMzEtMC4wMDczIDAuMDQzMDktMC4wMDczIDAuMDU5MDUgMCAwLjA0MTc3IDAuMDE3MzggMC4wNjI3NiAwLjA1MjAxIDAuMDYyNzYgMC4wMzA3NCAwIDAuMDYyNDUtMC4wMTUyNCAwLjA5NDI2LTAuMDQ1MjJsLTAuMDEyMjEtMC4wMjIxNWMtMC4wMTk0NyAwLjAxMjk5LTAuMDM1MzggMC4wMTkzNy0wLjA0NzkzIDAuMDE5MzctMC4wMTQ0OSAwLTAuMDIxOTYtMC4wMTIzLTAuMDIxOTYtMC4wMzc4MiAwLTAuMDIxMTMgMC4wMDMzLTAuMDQ5MzEgMC4wMDk2LTAuMDgzOThsMC4wNDU1LTAuMjQxNzdoLTAuMDIxMTNsLTAuMDI5MjYgMC4wMTkzN2MtMC4wMjE4NS0wLjAxODE3LTAuMDQ3OTMtMC4wMjc2OC0wLjA3ODAxLTAuMDI3Njh6bS0wLjkzNDUxIDguOTFlLTRjLTAuMDM4MDkgMC0wLjA2ODgzIDAuMDEwMjMtMC4wOTI2MyAwLjAzMTM4LTAuMDIzNTggMC4wMjA4OS0wLjAzNTc2IDAuMDQ4MjgtMC4wMzU3NiAwLjA4MTIgMCAwLjAyNDA4IDAuMDA1NCAwLjA0NTI0IDAuMDE2MjQgMC4wNjM2NiAwLjAxMTEzIDAuMDE4MTcgMC4wMzMyMSAwLjAzNTQgMC4wNjUwMSAwLjA1MjYgMC4wMjQ0NSAwLjAxMjcxIDAuMDQxMDIgMC4wMjYyNCAwLjA1MTIgMC4wMzg3NiAwLjAxMDE4IDAuMDEyMyAwLjAxNTQzIDAuMDI3MjkgMC4wMTU0MyAwLjA0NTIxIDAgMC4wNDY2OS0wLjAyMzY5IDAuMDcwMTMtMC4wNzE1MSAwLjA3MDEzLTAuMDI0MDIgMC0wLjA0MjY1LTAuMDA4Ny0wLjA1NjA4LTAuMDI1ODQtMC4wMTMxNi0wLjAxNzQ1LTAuMDIwMy0wLjA0MTY5LTAuMDIwMy0wLjA3MjktMC4wMTIwOCAwLTAuMDIyMDYgMC4wMDMzLTAuMDMwMDcgMC4wMTIwMi0wLjAwNzcgMC4wMDg0LTAuMDExNCAwLjAyMDY4LTAuMDExNCAwLjAzNjkgMCAwLjAyNjA2IDAuMDA5NSAwLjA0NzI3IDAuMDI5MjQgMC4wNjI3NCAwLjAxOTkxIDAuMDE1MjQgMC4wNDY5IDAuMDIzMDYgMC4wODA0NCAwLjAyMzA2IDAuMDQxNTQgMCAwLjA3NDg1LTAuMDExMzMgMC4wOTk5Ni0wLjAzNDE0IDAuMDI1MS0wLjAyMjg1IDAuMDM3MzktMC4wNTMzMiAwLjAzNzM5LTAuMDkwNDMgMC0wLjA1MTExLTAuMDI2NDEtMC4wOTAxNi0wLjA3OTY0LTAuMTE3MTgtMC4wMjMxNi0wLjAxMTQ3LTAuMDQwMTctMC4wMjMyOC0wLjA1MTItMC4wMzUwOC0wLjAxMTEzLTAuMDExNzQtMC4wMTYyNC0wLjAyNTc0LTAuMDE2MjQtMC4wNDI0NSAwLTAuMDE4OTIgMC4wMDU3LTAuMDM1MDEgMC4wMTcwNi0wLjA0NzA2IDAuMDExNjctMC4wMTIzIDAuMDI3MjMtMC4wMTg0NSAwLjA0NzE0LTAuMDE4NDUgMC4wMTg4MiAwIDAuMDMzNSAwLjAwNzkgMC4wNDM4OSAwLjAyMzA2IDAuMDEwNTggMC4wMTUyNCAwLjAxNjI0IDAuMDM1NjEgMC4wMTYyNCAwLjA2MDkyIDAuMDMzMzQgMCAwLjA0OTU3LTAuMDE1ODUgMC4wNDk1Ny0wLjA0NzA2IDAtMC4wMjAxNC0wLjAwOTItMC4wMzY5OS0wLjAyNzYzLTAuMDUwNzUtMC4wMTgxNy0wLjAxMzgyLTAuMDQzNzEtMC4wMjAzMS0wLjA3NjM5LTAuMDIwMzF6bTEuMzY0NCAwYy0wLjAxMTY3IDAtMC4wMjE0MSAwLjAwNDctMC4wMzAwNyAwLjAxNDc2LTAuMDA4NyAwLjAwOTktMC4wMTMwMyAwLjAyMzY0LTAuMDEzMDMgMC4wNDA1OSAwLjAyMTgzIDAgMC4wMzI1MSAwLjAxNDI2IDAuMDMyNTEgMC4wNDE1MiAwIDAuMDYzNjMtMC4wMjk0NSAwLjE0NjYyLTAuMDg5MzcgMC4yNTAwN2gtMC4wMDI2Yy0wLjAwMjYtMC4wMjgwMS0wLjAxMTY3LTAuMDczNDItMC4wMjc2My0wLjEzNjU3bC0wLjA1MjAxLTAuMjAzOTJoLTAuMDk2NzFsLTAuMDA1NyAwLjAzMTM4aDAuMDA3M2MwLjAxMzE2IDAgMC4wMjI1NCAzZS0zIDAuMDI5MjQgMC4wMDkzIDAuMDA2OCAwLjAwNTkgMC4wMTIzNSAwLjAxNjY0IDAuMDE2MjQgMC4wMzEzOGwwLjA4Nzc2IDAuMzM0MDVjLTAuMDYxMDIgMC4wOTE2Ni0wLjEyMzUgMC4xMzc0OS0wLjE4NjkgMC4xMzc0OS0wLjAxOTA0IDAtMC4wMzY0MS0wLjAwMzYtMC4wNTItMC4wMDkzbC0wLjAwOTYgMC4wMzc4M2MwLjAxODQgMC4wMDkxIDAuMDM5MiAwLjAxMzgzIDAuMDYyNTcgMC4wMTM4MyAwLjA1ODg1IDAgMC4xMDYyOS0wLjAxNzM4IDAuMTQyMjEtMC4wNTM1MyAwLjAzNjE0LTAuMDM2MTIgMC4wODQxMS0wLjEwOTc5IDAuMTQzODQtMC4yMTk2MiAwLjA1OTczLTAuMTEwMDggMC4wODkzNy0wLjE5NDkyIDAuMDg5MzctMC4yNTU2MSAwLTAuMDQyMjgtMC4wMTU0Mi0wLjA2MzY1LTAuMDQ1NS0wLjA2MzY1em0tMS43MDU3IDAuMDA2NC0wLjAwNjUgMC4wMzEzOCA5ZS0zIDguOTFlLTRjMC4wMjcwNSAwIDAuMDQwNjMgMC4wMTAyMiAwLjA0MDYzIDAuMDMxMzggMCAwLjAwNTMtOS40MmUtNCAwLjAxMTMzLTAuMDAyNiAwLjAxOTM3bC0wLjAyNTE5IDAuMTM5MzRjLTAuMDA5OSAwLjA1NjUzLTAuMDE1NDMgMC4wOTU1LTAuMDE1NDMgMC4xMTgxMSAwIDAuMDIwNjQgMC4wMDUzIDAuMDM4MTYgMC4wMTU0MyAwLjA1MTY4IDAuMDEwMTggMC4wMTM1NCAwLjAyMzM4IDAuMDIwMzEgMC4wMzk4MSAwLjAyMDMxIDAuMDI5MjIgMCAwLjA1OTQ5LTAuMDE1MjQgMC4wOTAxOS0wLjA0NTIybC0wLjAxMjIxLTAuMDIyMTVjLTAuMDE5MDQgMC4wMTI5OS0wLjAzNTE5IDAuMDE5MzctMC4wNDc5MyAwLjAxOTM3LTAuMDE0NzEgMC0wLjAyMTkzLTAuMDEyMy0wLjAyMTkzLTAuMDM3ODIgMC0wLjAxOTY1IDAuMDAzOC0wLjA0Nzg1IDAuMDEwNTgtMC4wODM5OWwwLjA0NDY5LTAuMjQyNjl6bTEuMjc5MSAwLjAyNjc4YzAuMDIzMzcgMCAwLjA0MDE5IDAuMDA4NiAwLjA1MDM4IDAuMDI2NzZsLTAuMDI0MzcgMC4xMzM4MmMtMC4wMDc3IDAuMDQzOTktMC4wMjM3MSAwLjA4NDcxLTAuMDQ3OTMgMC4xMjE4MS0wLjAyNDI0IDAuMDM3MS0wLjA0NzgxIDAuMDU1MzgtMC4wNjk4OCAwLjA1NTM4LTAuMDI3OTEgMC0wLjA0MTQzLTAuMDI4NTItMC4wNDE0My0wLjA4Njc0IDAtMC4wNTc3NiAwLjAxMjc2LTAuMTE0MzIgMC4wMzgxNy0wLjE2ODg3IDAuMDI1NzYtMC4wNTQ4IDAuMDU3MjItMC4wODIxMyAwLjA5NTA3LTAuMDgyMTN6bS0zLjAzOTIgMC4wMDU1YzAuMDQzMjggMCAwLjA2NTAxIDAuMDM1MTYgMC4wNjUwMSAwLjEwNTIgMCAwLjA1OTk1LTAuMDEwNTggMC4xMTQ4NS0wLjAzMjUxIDAuMTY0MjYtMC4wMjE2NCAwLjA0OTE1LTAuMDUxMiAwLjA3MzgyLTAuMDg3NzYgMC4wNzM4Mi0wLjA0MzkzIDAtMC4wNjU4My0wLjAzNDk4LTAuMDY1ODMtMC4xMDQyOCAwLTAuMDYwNDUgMC4wMTExMy0wLjExNDg2IDAuMDMzMzMtMC4xNjQyNiAwLjAyMjMtMC4wNDk0IDAuMDUxNjItMC4wNzQ3NCAwLjA4Nzc2LTAuMDc0NzR6bTAuNTg0MjggMGMwLjA0MzI3IDAgMC4wNjUwMSAwLjAzNTE2IDAuMDY1MDEgMC4xMDUyIDAgMC4wNTk5NS0wLjAxMTQgMC4xMTQ4NS0wLjAzMzMzIDAuMTY0MjYtMC4wMjE2NCAwLjA0OTE1LTAuMDUwMzcgMC4wNzM4Mi0wLjA4Njk0IDAuMDczODItMC4wNDM5MyAwLTAuMDY1ODMtMC4wMzQ5OC0wLjA2NTgzLTAuMTA0MjggMC0wLjA2MDQ1IDAuMDExMTMtMC4xMTQ4NiAwLjAzMzMxLTAuMTY0MjYgMC4wMjIzLTAuMDQ5NCAwLjA1MTYyLTAuMDc0NzQgMC4wODc3Ni0wLjA3NDc0em0xLjg4NDUgMC4wMDgzYzAuMDI3OTEgMCAwLjA0MjI2IDAuMDI4OTUgMC4wNDIyNiAwLjA4NzY1IDAgMC4wNTY3Ny0wLjAxMzMgMC4xMTI5LTAuMDM5IDAuMTY3OTUtMC4wMjU1MiAwLjA1NDgtMC4wNTY0NSAwLjA4MjEzLTAuMDkzNDYgMC4wODIxMy0wLjAyMDc4IDAtMC4wMzg1NC0wLjAwODgtMC4wNTI4My0wLjAyNjc2bDAuMDI2ODEtMC4xNDM5NmMwLjAwNzYtMC4wMzkwOCAwLjAyMzc1LTAuMDc2NDUgMC4wNDcxNC0wLjExMjU4IDAuMDIzMzgtMC4wMzYzNyAwLjA0NjE0LTAuMDU0NDQgMC4wNjkwNy0wLjA1NDQ0eiIvPjxyZWN0IHN0eWxlPSJtaXgtYmxlbmQtbW9kZTpub3JtYWw7cGFpbnQtb3JkZXI6ZmlsbCBtYXJrZXJzIHN0cm9rZSIgZmlsbD0iIzgwMCIgcnk9IjIuNzIzMmUtMTciIHJ4PSIxLjg0NjllLTE3IiBoZWlnaHQ9IjIuMDczNyIgd2lkdGg9IjIuMDgxNiIgeT0iMTMuNTQ2IiB4PSI1My40OTciLz48cmVjdCBzdHlsZT0ibWl4LWJsZW5kLW1vZGU6bm9ybWFsO3BhaW50LW9yZGVyOmZpbGwgbWFya2VycyBzdHJva2UiIGZpbGw9IiMwNjEiIHJ5PSIyLjcyMzJlLTE3IiByeD0iMS44NDY5ZS0xNyIgaGVpZ2h0PSIyLjA3MzciIHdpZHRoPSIyLjA4MTYiIHk9IjEzLjU0NiIgeD0iNTUuNTc4Ii8+PHJlY3Qgc3R5bGU9Im1peC1ibGVuZC1tb2RlOm5vcm1hbDtwYWludC1vcmRlcjpmaWxsIG1hcmtlcnMgc3Ryb2tlIiBmaWxsPSIjMDM5IiByeT0iMi43MjMyZS0xNyIgcng9IjEuODQ2OWUtMTciIGhlaWdodD0iMi4wNzM3IiB3aWR0aD0iMi4wODE2IiB5PSIxMy41NDYiIHg9IjU3LjY2Ii8+PC9nPjxlbGxpcHNlIHN0eWxlPSJtaXgtYmxlbmQtbW9kZTpub3JtYWw7cGFpbnQtb3JkZXI6c3Ryb2tlIG1hcmtlcnMgZmlsbCIgZmlsbD0idXJsKCNoKSIgcnk9Ii41Njc2NiIgcng9Ii41NTc1MSIgY3k9Ii41MzQ3NyIgY3g9IjEyLjMyMiIvPjxlbGxpcHNlIHN0eWxlPSJtaXgtYmxlbmQtbW9kZTpub3JtYWw7cGFpbnQtb3JkZXI6c3Ryb2tlIG1hcmtlcnMgZmlsbCIgZmlsbD0idXJsKCNqKSIgcnk9Ii4xNzAzIiByeD0iLjE2NzI1IiBjeT0iLjUzNDc3IiBjeD0iMTIuMzIyIi8+PGcgdHJhbnNmb3JtPSJtYXRyaXgoLjMwNzA1IDAgMCAuMzEzODIgLTQuMjYzIC0zLjM3NjcpIiBpZD0ieSI+PHBhdGggc3R5bGU9InBhaW50LW9yZGVyOnN0cm9rZSBmaWxsIG1hcmtlcnMiIHN0cm9rZS13aWR0aD0iLjI2NDU4IiBzdHJva2UtbWl0ZXJsaW1pdD0iMy42IiBmaWxsPSJ1cmwoI2YpIiBkPSJtNTYuMjgzIDIxLjk2djMuNjE3N2gtMy42MzE0di0xLjgwODlsMS44MTU3LTEuODA4OXoiLz48ZWxsaXBzZSBzdHlsZT0icGFpbnQtb3JkZXI6c3Ryb2tlIGZpbGwgbWFya2VycyIgc3Ryb2tlLXdpZHRoPSIuMjY0NTgiIHN0cm9rZS1taXRlcmxpbWl0PSIzLjYiIHN0cm9rZT0idXJsKCNuKSIgZmlsbD0idXJsKCNlKSIgcnk9IjEuMjY2MiIgcng9IjEuMjcxIiBjeT0iMjMuMzU5IiBjeD0iNTQuMDU1Ii8+PGVsbGlwc2Ugc3R5bGU9InBhaW50LW9yZGVyOnN0cm9rZSBtYXJrZXJzIGZpbGwiIHN0cm9rZS13aWR0aD0iLjI2NDU4IiBzdHJva2UtbWl0ZXJsaW1pdD0iMy42IiBzdHJva2U9InVybCgjbSkiIGZpbGw9IiM4NDdjNmEiIHJ5PSIuOTA0NDMiIHJ4PSIuOTA3ODUiIGN5PSIyMy42MjMiIGN4PSI1NC4zMiIvPjwvZz48dXNlIHhsaW5rOmhyZWY9IiN5IiB0cmFuc2Zvcm09InRyYW5zbGF0ZSgwIC0xLjEzNTMpIiBpZD0iZCIvPjx1c2UgeGxpbms6aHJlZj0iI2QiIHRyYW5zZm9ybT0idHJhbnNsYXRlKDAgLTEuMTM1MykiLz48L2c+PC9zdmc+;" parent="1" vertex="1">
          <mxGeometry x="4" y="44" width="32" height="32" as="geometry" />
        </mxCell>
        <mxCell id="fSjbTYhbLkrsspspIT7g-7" value="&lt;font style=&quot;font-size: 13px;&quot;&gt;486 PC&lt;/font&gt;&lt;div style=&quot;&quot;&gt;&lt;font color=&quot;#4d4d4d&quot; style=&quot;font-size: 11px;&quot;&gt;Computer from 90&#39;s&lt;/font&gt;&lt;/div&gt;" style="text;html=1;align=left;verticalAlign=middle;whiteSpace=wrap;rounded=0;" parent="1" vertex="1">
          <mxGeometry x="40" y="45" width="110" height="30" as="geometry" />
        </mxCell>
        <mxCell id="fSjbTYhbLkrsspspIT7g-8" value="" style="rounded=0;whiteSpace=wrap;html=1;fillColor=#1A1A1A;" parent="1" vertex="1">
          <mxGeometry x="160" width="160" height="40" as="geometry" />
        </mxCell>
        <mxCell id="fSjbTYhbLkrsspspIT7g-9" value="" style="shape=image;verticalLabelPosition=bottom;labelBackgroundColor=default;verticalAlign=top;aspect=fixed;imageAspect=0;image=data:image/svg+xml,PHN2ZyB4bWxuczp4bGluaz0iaHR0cDovL3d3dy53My5vcmcvMTk5OS94bGluayIgeG1sbnM9Imh0dHA6Ly93d3cudzMub3JnLzIwMDAvc3ZnIiB2aWV3Qm94PSIwIDAgOC40NjY3IDguNDY2NyIgdmVyc2lvbj0iMS4xIiBoZWlnaHQ9IjMyIiB3aWR0aD0iMzIiPjxkZWZzPjxsaW5lYXJHcmFkaWVudCBpZD0iYyI+PHN0b3Agb2Zmc2V0PSIwIiBzdG9wLWNvbG9yPSIjMjkyOTI5Ii8+PHN0b3Agb2Zmc2V0PSIxIiBzdG9wLWNvbG9yPSIjM2QzZDNkIi8+PC9saW5lYXJHcmFkaWVudD48bGluZWFyR3JhZGllbnQgaWQ9ImIiPjxzdG9wIG9mZnNldD0iMCIgc3RvcC1jb2xvcj0iI2MyY2FkYSIvPjxzdG9wIG9mZnNldD0iMSIgc3RvcC1jb2xvcj0iIzllYTA5ZiIvPjwvbGluZWFyR3JhZGllbnQ+PGxpbmVhckdyYWRpZW50IGdyYWRpZW50VW5pdHM9InVzZXJTcGFjZU9uVXNlIiBncmFkaWVudFRyYW5zZm9ybT0ibWF0cml4KC41MzgyMiAwIDAgLjU3NjkxIC0xLjE4NTkgLTQuODg0KSIgeTI9IjY1LjA4OCIgeTE9IjQ5LjQ3NyIgeDI9IjIuNjQ1OCIgeDE9IjIuNjQ1OCIgaWQ9InciPjxzdG9wIG9mZnNldD0iMCIgc3RvcC1jb2xvcj0iI2NmY2NjMyIvPjxzdG9wIG9mZnNldD0iMSIgc3RvcC1jb2xvcj0iI2FiYThhNSIvPjwvbGluZWFyR3JhZGllbnQ+PGxpbmVhckdyYWRpZW50IHhsaW5rOmhyZWY9IiNiIiBncmFkaWVudFVuaXRzPSJ1c2VyU3BhY2VPblVzZSIgZ3JhZGllbnRUcmFuc2Zvcm09Im1hdHJpeCguOTM0OTEgMCAwIC45MzUwOSAtMy41Mjg4IC0yNy41MzgpIiB5Mj0iNTUuOTg5IiB5MT0iNTIuOTcxIiB4Mj0iOC4yNzU2IiB4MT0iNS4yNTczIiBpZD0ibCIvPjxsaW5lYXJHcmFkaWVudCBncmFkaWVudFVuaXRzPSJ1c2VyU3BhY2VPblVzZSIgZ3JhZGllbnRUcmFuc2Zvcm09Im1hdHJpeCguNjk3NzUgMCAwIC43NDU3NiAtMi4wMDczIC0xNy44NDMpIiB5Mj0iNjEuMzgzIiB5MT0iNTEuMzI5IiB4Mj0iMjMuMDE5IiB4MT0iMjMuMDE5IiBpZD0ieCI+PHN0b3Agb2Zmc2V0PSIwIiBzdG9wLWNvbG9yPSIjMWMxYzIxIi8+PHN0b3Agb2Zmc2V0PSIxIiBzdG9wLWNvbG9yPSIjMmYyZTM4Ii8+PC9saW5lYXJHcmFkaWVudD48bGluZWFyR3JhZGllbnQgeGxpbms6aHJlZj0iI2MiIGdyYWRpZW50VW5pdHM9InVzZXJTcGFjZU9uVXNlIiBncmFkaWVudFRyYW5zZm9ybT0ibWF0cml4KC42NjI4IDAgMCAuNjg4NjcgLS4zMzA3NyAtMTQuMjI3KSIgeTI9IjYxLjM4MyIgeTE9IjUxLjMyOSIgeDI9IjQyLjU5OCIgeDE9IjQyLjU5OCIgaWQ9InQiLz48bGluZWFyR3JhZGllbnQgeGxpbms6aHJlZj0iI2MiIGdyYWRpZW50VW5pdHM9InVzZXJTcGFjZU9uVXNlIiBncmFkaWVudFRyYW5zZm9ybT0ibWF0cml4KC42NjI4IDAgMCAuNjg4NjcgLS43ODI4NiAtMTQuMjI3KSIgeTI9IjYxLjM4MyIgeTE9IjUxLjMyOSIgeDI9IjQyLjU5OCIgeDE9IjQyLjU5OCIgaWQ9InMiLz48cmFkaWFsR3JhZGllbnQgZ3JhZGllbnRVbml0cz0idXNlclNwYWNlT25Vc2UiIGdyYWRpZW50VHJhbnNmb3JtPSJtYXRyaXgoLTkuMjI5MmUtNiAxLjkwNjYgLTEuOTE1NSAtOS40NTQ4ZS02IDEyNi42MiAtMjUuNDIpIiByPSIuNTI5MTciIGN5PSI1Ny44NTYiIGN4PSIyNy4yMDgiIGlkPSJpIj48c3RvcCBvZmZzZXQ9IjAiIHN0b3AtY29sb3I9IiNmZmYiLz48c3RvcCBvZmZzZXQ9Ii40OTgwNiIgc3RvcC1jb2xvcj0iI2YwMCIvPjxzdG9wIG9mZnNldD0iMSIgc3RvcC1jb2xvcj0iI2EwMCIvPjwvcmFkaWFsR3JhZGllbnQ+PGxpbmVhckdyYWRpZW50IGdyYWRpZW50VW5pdHM9InVzZXJTcGFjZU9uVXNlIiBncmFkaWVudFRyYW5zZm9ybT0ibWF0cml4KC4zMDA5NiAwIDAgLjMwNzYgLTMuNTg1MSAtNS4yNDYxKSIgeTI9IjM5LjU1NSIgeTE9IjIuNjQ1OCIgeDI9IjcuOTMyNiIgeDE9IjcuOTM3NSIgaWQ9InYiPjxzdG9wIG9mZnNldD0iMCIgc3RvcC1jb2xvcj0iI2Q1ZDJkNCIvPjxzdG9wIG9mZnNldD0iLjA3IiBzdG9wLWNvbG9yPSIjYWJhYWFiIi8+PHN0b3Agb2Zmc2V0PSIuOTMiIHN0b3AtY29sb3I9IiNhMmEyYTIiLz48c3RvcCBvZmZzZXQ9IjEiIHN0b3AtY29sb3I9IiM2ODY4NjgiLz48L2xpbmVhckdyYWRpZW50PjxsaW5lYXJHcmFkaWVudCBncmFkaWVudFVuaXRzPSJ1c2VyU3BhY2VPblVzZSIgZ3JhZGllbnRUcmFuc2Zvcm09Im1hdHJpeCguMzAwOTYgMCAwIC4zMDc2IC0zLjU4NTEgLTUuMjQ2MSkiIHkyPSIzNS45ODMiIHkxPSIzMy40NzgiIHgyPSIxMi43NDciIHgxPSIxMS4xNTkiIGlkPSJ1Ij48c3RvcCBvZmZzZXQ9IjAiIHN0b3AtY29sb3I9IiM1YjU5NTgiLz48c3RvcCBvZmZzZXQ9Ii41IiBzdG9wLWNvbG9yPSIjODQ3ZTdiIi8+PHN0b3Agb2Zmc2V0PSIxIiBzdG9wLWNvbG9yPSIjYzBiZmJlIi8+PC9saW5lYXJHcmFkaWVudD48bGluZWFyR3JhZGllbnQgZ3JhZGllbnRVbml0cz0idXNlclNwYWNlT25Vc2UiIGdyYWRpZW50VHJhbnNmb3JtPSJtYXRyaXgoLjMwMDk2IDAgMCAuMzA3NiAtNC4wNjQxIC01LjI0NjEpIiB5Mj0iMzMuODY3IiB5MT0iNi44NzkyIiB4Mj0iMjUuNCIgeDE9IjEzLjIyOSIgaWQ9InIiPjxzdG9wIG9mZnNldD0iMCIgc3RvcC1jb2xvcj0iIzQxM2YzZiIvPjxzdG9wIG9mZnNldD0iLjUiIHN0b3AtY29sb3I9IiM3MjZjNjkiLz48c3RvcCBvZmZzZXQ9IjEiIHN0b3AtY29sb3I9IiNhN2E1YTQiLz48L2xpbmVhckdyYWRpZW50PjxsaW5lYXJHcmFkaWVudCB4bGluazpocmVmPSIjYiIgZ3JhZGllbnRVbml0cz0idXNlclNwYWNlT25Vc2UiIGdyYWRpZW50VHJhbnNmb3JtPSJtYXRyaXgoMS44ODYyIDAgMCAxLjU4OTIgLTQzLjkzNyAtOC4xNzUzKSIgeTI9IjEzLjY2OCIgeTE9IjkuNzUzNSIgeDI9IjU0Ljk2OCIgeDE9IjUxLjY1NiIgaWQ9ImsiLz48cmFkaWFsR3JhZGllbnQgZ3JhZGllbnRVbml0cz0idXNlclNwYWNlT25Vc2UiIGdyYWRpZW50VHJhbnNmb3JtPSJtYXRyaXgoLTIuMDMwNmUtNiAuNDI5MSAtLjQyMTQzIC0yLjEyNzllLTYgMzYuNjQ4IC0xMS4xOTcpIiByPSIuNTI5MTciIGN5PSI1Ny44NTYiIGN4PSIyNy4yMDgiIGlkPSJqIj48c3RvcCBvZmZzZXQ9IjAiIHN0b3AtY29sb3I9IiNmZmIiLz48c3RvcCBvZmZzZXQ9Ii40OTgwNiIgc3RvcC1jb2xvcj0iI2FmMCIvPjxzdG9wIG9mZnNldD0iMSIgc3RvcC1jb2xvcj0iIzBmMCIvPjwvcmFkaWFsR3JhZGllbnQ+PHJhZGlhbEdyYWRpZW50IGdyYWRpZW50VW5pdHM9InVzZXJTcGFjZU9uVXNlIiBncmFkaWVudFRyYW5zZm9ybT0ibWF0cml4KC43MDIzOCAyLjUxMjVlLTYgLTEuMjE2OWUtNiAuNzE1MTYgLTI1LjU4OSAtMTQuMjI1KSIgcj0iLjc5Mzc1IiBjeT0iMjAuNjM3IiBjeD0iNTMuOTc1IiBpZD0iaCI+PHN0b3Agb2Zmc2V0PSIuMyIgc3RvcC1vcGFjaXR5PSIuMiIgc3RvcC1jb2xvcj0iIzBmMCIvPjxzdG9wIG9mZnNldD0iMSIgc3RvcC1vcGFjaXR5PSIwIiBzdG9wLWNvbG9yPSIjMGYwIi8+PC9yYWRpYWxHcmFkaWVudD48cmFkaWFsR3JhZGllbnQgZ3JhZGllbnRVbml0cz0idXNlclNwYWNlT25Vc2UiIGdyYWRpZW50VHJhbnNmb3JtPSJtYXRyaXgoMS4wNzA1IDEuMDcwNSAtLjU3NjQzIC41NzY0MyA5LjY0OTYgLTQ3Ljk1MykiIHI9IjEuNjA2NSIgY3k9IjIzLjM0MyIgY3g9IjUzLjk3NSIgaWQ9ImYiPjxzdG9wIG9mZnNldD0iMCIgc3RvcC1vcGFjaXR5PSIuNSIvPjxzdG9wIG9mZnNldD0iMSIgc3RvcC1vcGFjaXR5PSIwIi8+PC9yYWRpYWxHcmFkaWVudD48cmFkaWFsR3JhZGllbnQgZ3JhZGllbnRVbml0cz0idXNlclNwYWNlT25Vc2UiIGdyYWRpZW50VHJhbnNmb3JtPSJtYXRyaXgoLS41IC42IC0uOTgzOCAtLjgxOTg0IDEwMy4yMiA4Ljc0NDIpIiByPSIxLjMyMjkiIGN5PSIyMy4wNjMiIGN4PSI1NC41NDgiIGlkPSJlIj48c3RvcCBvZmZzZXQ9IjAiIHN0b3AtY29sb3I9IiNkNmNiYWUiLz48c3RvcCBvZmZzZXQ9IjEiIHN0b3AtY29sb3I9IiM5ZDk3ODYiLz48L3JhZGlhbEdyYWRpZW50PjxsaW5lYXJHcmFkaWVudCBncmFkaWVudFVuaXRzPSJ1c2VyU3BhY2VPblVzZSIgZ3JhZGllbnRUcmFuc2Zvcm09InRyYW5zbGF0ZSguMDgwMzYzIC4wNzU1ODQpIiB5Mj0iMjQuNjA2IiB5MT0iMjEuOTYiIHgyPSI1NS4yOTgiIHgxPSI1Mi42NTIiIGlkPSJuIj48c3RvcCBvZmZzZXQ9IjAiIHN0b3AtY29sb3I9IiNiYWIyOGQiLz48c3RvcCBvZmZzZXQ9Ii40OTgzMiIgc3RvcC1vcGFjaXR5PSIwIiBzdG9wLWNvbG9yPSIjYjhiMzg5Ii8+PC9saW5lYXJHcmFkaWVudD48bGluZWFyR3JhZGllbnQgZ3JhZGllbnRVbml0cz0idXNlclNwYWNlT25Vc2UiIGdyYWRpZW50VHJhbnNmb3JtPSJ0cmFuc2xhdGUoLjA4MDM2MyAuMDc1NTg0KSIgeTI9IjI0LjM0MiIgeTE9IjIyLjc1NCIgeDI9IjU1LjAzMyIgeDE9IjUzLjQ0NiIgaWQ9Im0iPjxzdG9wIG9mZnNldD0iMCIgc3RvcC1jb2xvcj0iIzlkOTc4NiIvPjxzdG9wIG9mZnNldD0iMSIgc3RvcC1jb2xvcj0iIzc3NzA1ZiIvPjwvbGluZWFyR3JhZGllbnQ+PGxpbmVhckdyYWRpZW50IGdyYWRpZW50VW5pdHM9InVzZXJTcGFjZU9uVXNlIiBncmFkaWVudFRyYW5zZm9ybT0ibWF0cml4KC4zMTcyNSAwIDAgLjMwNzYgLTQuMTM2NiAtNS4yNDYxKSIgeTI9IjM1LjA1NyIgeTE9IjYuMjE3NyIgeDI9IjU1Ljk1OSIgeDE9IjExLjc3NCIgaWQ9InAiPjxzdG9wIG9mZnNldD0iMCIgc3RvcC1jb2xvcj0iIzc0NzA2ZCIvPjxzdG9wIG9mZnNldD0iMSIgc3RvcC1jb2xvcj0iIzdlN2E3NyIvPjwvbGluZWFyR3JhZGllbnQ+PHJhZGlhbEdyYWRpZW50IGdyYWRpZW50VW5pdHM9InVzZXJTcGFjZU9uVXNlIiBncmFkaWVudFRyYW5zZm9ybT0ibWF0cml4KC4zNTMwMSAtLjEzODc3IC4wNTU1MjQgLjE0NzU1IC01LjYxNDQgLS4xODExNykiIHI9IjE3LjU5NSIgY3k9IjEwLjA2NSIgY3g9IjE5LjA1IiBpZD0iZyI+PHN0b3Agb2Zmc2V0PSIwIiBzdG9wLW9wYWNpdHk9Ii4yIiBzdG9wLWNvbG9yPSIjZmZmIi8+PHN0b3Agb2Zmc2V0PSIxIiBzdG9wLW9wYWNpdHk9IjAiIHN0b3AtY29sb3I9IiNmZmYiLz48L3JhZGlhbEdyYWRpZW50PjxsaW5lYXJHcmFkaWVudCBncmFkaWVudFVuaXRzPSJ1c2VyU3BhY2VPblVzZSIgZ3JhZGllbnRUcmFuc2Zvcm09Im1hdHJpeCgxIDAgMCAxIC0uMzgwOTYgLTcuOTU1NmUtNykiIHkyPSIyNS45NSIgeTE9IjIxLjQxIiB4Mj0iMTguNzIiIHgxPSIxOC43MiIgaWQ9InEiPjxzdG9wIG9mZnNldD0iMCIgc3RvcC1jb2xvcj0iIzI5MjkyOSIvPjxzdG9wIG9mZnNldD0iLjMzMTI2IiBzdG9wLWNvbG9yPSIjMmIyYjJiIi8+PHN0b3Agb2Zmc2V0PSIuNTIwMzEiIHN0b3AtY29sb3I9IiM0NzQ3NDciLz48c3RvcCBvZmZzZXQ9IjEiIHN0b3AtY29sb3I9IiMzZTNlM2UiLz48L2xpbmVhckdyYWRpZW50PjxsaW5lYXJHcmFkaWVudCBncmFkaWVudFVuaXRzPSJ1c2VyU3BhY2VPblVzZSIgeTI9IjI4LjIyIiB5MT0iMjUuOTUiIHgyPSIxNS4yOTgiIHgxPSIxNS4yOTgiIGlkPSJvIj48c3RvcCBvZmZzZXQ9IjAiLz48c3RvcCBvZmZzZXQ9IjEiIHN0b3Atb3BhY2l0eT0iMCIvPjwvbGluZWFyR3JhZGllbnQ+PC9kZWZzPjxnIHN0eWxlPSJtaXgtYmxlbmQtbW9kZTpub3JtYWwiIHRyYW5zZm9ybT0ibWF0cml4KC4yMjAzNCAwIDAgLjIyMDM0IC40Nzk4MyAuNzM5ODIpIj48cGF0aCBzdHlsZT0ibWl4LWJsZW5kLW1vZGU6bm9ybWFsIiBzdHJva2Utd2lkdGg9Ii4xNDY5IiBzdHJva2UtbGluZWpvaW49InJvdW5kIiBzdHJva2UtbGluZWNhcD0icm91bmQiIGZpbGw9IiNlZGYxZWEiIGQ9Im0xLjIyMTIgMjIuNzU5aDMxLjYyN2MwLjU1MjQ4IDAgMC45OTcyNSAwLjQ3Mjg4IDAuOTk3MjUgMS4wNjAzdjAuNzQwOWgtMzMuNjIybDFlLTcgLTAuNzQwOWMwLTAuNTg3MzkgMC40NDQ3Ny0xLjA2MDMgMC45OTcyNS0xLjA2MDN6Ii8+PHBhdGggZmlsbD0idXJsKCN3KSIgZD0ibTEuMDY0MSAyMy42NmgzMS45MjdjMC40MjcyMSAwIDAuODM5NDMgMC41MTg5OCAwLjg0MDE5IDAuOTAwNThsMC4wMTQyNiA3LjE4OTRjOS43OWUtNCAwLjUwNzM4LTAuMzgxMSAwLjkxNTg0LTAuODU0NDUgMC45MTU4NGgtMzEuOTI3Yy0wLjQ3MzM1IDAtMC44NDAxOC0wLjM5MzItMC44NDAxOC0wLjkwMDU4di03LjIwNDZjMC0wLjM4MTYgMC40MTI5Ny0wLjkwMDU4IDAuODQwMTgtMC45MDA1OHoiLz48ZyBzdHlsZT0ibWl4LWJsZW5kLW1vZGU6bm9ybWFsIiBzdHJva2Utd2lkdGg9Ii45NTM5NCIgdHJhbnNmb3JtPSJtYXRyaXgoLjg1MTA3IDAgMCAuODUwOTcgLjI0NDg3IDUuNTQ0KSI+PHJlY3Qgc3R5bGU9Im1peC1ibGVuZC1tb2RlOm5vcm1hbDtwYWludC1vcmRlcjptYXJrZXJzIHN0cm9rZSBmaWxsIiBzdHJva2Utd2lkdGg9Ii4zNTI3NSIgc3Ryb2tlLW9wYWNpdHk9Ii41IiBzdHJva2UtbGluZWpvaW49InJvdW5kIiBzdHJva2UtbGluZWNhcD0icm91bmQiIHN0cm9rZT0iIzAwMCIgZmlsbD0idXJsKCNsKSIgcnk9IjYuODY3ZS0xOCIgcng9IjYuODY1N2UtMTgiIGhlaWdodD0iMi40Njk0IiB3aWR0aD0iMi40NjkxIiB5PSIyMy40MDUiIHg9IjEuNTYyNiIvPjwvZz48ZyBzdHlsZT0ibWl4LWJsZW5kLW1vZGU6bm9ybWFsIiB0cmFuc2Zvcm09Im1hdHJpeCguNzY5MjUgMCAwIC43NjkyNSAuNjEwNTIgOS43NTQzKSI+PHBhdGggc3R5bGU9InBhaW50LW9yZGVyOm1hcmtlcnMgc3Ryb2tlIGZpbGwiIHN0cm9rZS13aWR0aD0iLjc4MDQ4IiBzdHJva2Utb3BhY2l0eT0iLjUzMzMzIiBzdHJva2UtbGluZWpvaW49InJvdW5kIiBzdHJva2UtbGluZWNhcD0icm91bmQiIHN0cm9rZT0iIzAwMCIgZmlsbD0ibm9uZSIgZD0ibTEuNDQ4NiAyNS40OTF2Mi4zNDE0IiBpZD0iYSIvPjx1c2UgeGxpbms6aHJlZj0iI2EiIHRyYW5zZm9ybT0idHJhbnNsYXRlKDEuNTYxKSIvPjx1c2UgeGxpbms6aHJlZj0iI2EiIHRyYW5zZm9ybT0idHJhbnNsYXRlKDMuMTIxOSkiLz48dXNlIHhsaW5rOmhyZWY9IiNhIiB0cmFuc2Zvcm09InRyYW5zbGF0ZSg2LjI0MzkpIi8+PHVzZSB4bGluazpocmVmPSIjYSIgdHJhbnNmb3JtPSJ0cmFuc2xhdGUoNC42ODI5KSIvPjx1c2UgeGxpbms6aHJlZj0iI2EiIHRyYW5zZm9ybT0idHJhbnNsYXRlKDcuODA0OCkiLz48L2c+PGcgdHJhbnNmb3JtPSJtYXRyaXgoLjc5MTMyIDAgMCAuNzc1ODEgLjA5MDI3NCA5LjM3ODkpIj48cmVjdCBzdHlsZT0ibWl4LWJsZW5kLW1vZGU6bm9ybWFsO3BhaW50LW9yZGVyOm1hcmtlcnMgc3Ryb2tlIGZpbGwiIHN0cm9rZS13aWR0aD0iLjE5MDg2IiBzdHJva2Utb3BhY2l0eT0iLjUiIHN0cm9rZS1saW5lam9pbj0icm91bmQiIHN0cm9rZS1saW5lY2FwPSJyb3VuZCIgZmlsbD0idXJsKCN4KSIgcnk9IjEuMDYxOCIgcng9IjEuMDYxOCIgaGVpZ2h0PSI5LjI4NjYiIHdpZHRoPSIyOC44MzEiIHk9IjE5LjE4MiIgeD0iMTIuMzA4Ii8+PGcgc3R5bGU9Im1peC1ibGVuZC1tb2RlOm5vcm1hbCIgdHJhbnNmb3JtPSJtYXRyaXgoLjk5ODA0IDAgMCAxLjAyMjcgLjA3NTA3NiAtMS4xNjY2KSI+PHJlY3Qgc3R5bGU9Im1peC1ibGVuZC1tb2RlOm5vcm1hbDtwYWludC1vcmRlcjptYXJrZXJzIHN0cm9rZSBmaWxsIiBmaWxsLW9wYWNpdHk9Ii41MDIxNiIgZmlsbD0idXJsKCNzKSIgaGVpZ2h0PSI5LjA4MDMiIHdpZHRoPSIxMi4xNjMiIHk9IjE5Ljg5NiIgeD0iMTMuNzc4Ii8+PHBhdGggc3R5bGU9Im1peC1ibGVuZC1tb2RlOm5vcm1hbDtwYWludC1vcmRlcjpzdHJva2UgbWFya2VycyBmaWxsIiBzdHJva2Utd2lkdGg9Ii4zOTEwMiIgc3Ryb2tlLW9wYWNpdHk9Ii43NSIgc3Ryb2tlLWxpbmVjYXA9InJvdW5kIiBmaWxsPSJ1cmwoI28pIiBkPSJtMTMuNzc4IDIzLjY4aDQuMTgxMXYtMi42NDg0aDMuODAxdjIuNjQ4NGg0LjE4MTF2MC43NTY2OWgtNC4xODExdjMuNzgzNGgtMy44MDF2LTMuNzgzNGgtNC4xODExeiIvPjxlbGxpcHNlIHN0eWxlPSJwYWludC1vcmRlcjpzdHJva2UgbWFya2VycyBmaWxsIiBmaWxsPSJ1cmwoI2kpIiByeT0iLjc1NjY5IiByeD0iLjc2MDIiIGN5PSIyNi43MDYiIGN4PSIxNi4wNTgiLz48cmVjdCBzdHlsZT0icGFpbnQtb3JkZXI6c3Ryb2tlIGZpbGwgbWFya2VycyIgZmlsbD0idXJsKCNxKSIgaGVpZ2h0PSI0LjU0MDEiIHdpZHRoPSIzLjA0MDgiIHk9IjIxLjQxIiB4PSIxOC4zMzkiLz48cmVjdCBzdHlsZT0icGFpbnQtb3JkZXI6c3Ryb2tlIGZpbGwgbWFya2VycyIgZmlsbD0iIzhiOGI4YiIgaGVpZ2h0PSIuNzU2NjkiIHdpZHRoPSI0LjE4MTEiIHk9IjI0LjQzNiIgeD0iMTMuNzc4Ii8+PHJlY3Qgc3R5bGU9InBhaW50LW9yZGVyOnN0cm9rZSBmaWxsIG1hcmtlcnMiIGZpbGw9IiM4YjhiOGIiIGhlaWdodD0iLjc1NjY5IiB3aWR0aD0iNC4xODExIiB5PSIyNC40MzYiIHg9IjIxLjc2Ii8+PC9nPjxnIHN0eWxlPSJtaXgtYmxlbmQtbW9kZTpub3JtYWwiIHRyYW5zZm9ybT0ibWF0cml4KC45OTgwNCAwIDAgMS4wMjI3IC4wOTA2MDYgLTEuMTY2NikiPjxyZWN0IHN0eWxlPSJtaXgtYmxlbmQtbW9kZTpub3JtYWw7cGFpbnQtb3JkZXI6bWFya2VycyBzdHJva2UgZmlsbCIgZmlsbC1vcGFjaXR5PSIuNTAyMTYiIGZpbGw9InVybCgjdCkiIGhlaWdodD0iOS4wODAzIiB3aWR0aD0iMTIuMTYzIiB5PSIxOS44OTYiIHg9IjI3LjQ0NiIvPjxyZWN0IHN0eWxlPSJtaXgtYmxlbmQtbW9kZTpub3JtYWw7cGFpbnQtb3JkZXI6c3Ryb2tlIG1hcmtlcnMgZmlsbCIgZmlsbD0iIzI1MjUyNSIgaGVpZ2h0PSIxLjUxMzQiIHdpZHRoPSI5LjEyMDMiIHk9IjI1Ljk1IiB4PSIyOC45NjYiLz48cmVjdCBzdHlsZT0ibWl4LWJsZW5kLW1vZGU6bm9ybWFsO3BhaW50LW9yZGVyOnN0cm9rZSBtYXJrZXJzIGZpbGwiIGZpbGw9IiNjMDAiIHJ5PSIwIiBoZWlnaHQ9IjEuNTEzNCIgd2lkdGg9IjEuNTIwNCIgeT0iMjUuOTUiIHg9IjMwLjQ4NiIvPjwvZz48L2c+PC9nPjxnIHRyYW5zZm9ybT0ibWF0cml4KC40NzQ1OCAwIDAgLjQ2NjA5IDEuMDk3NSAyLjU5NSkiPjxwYXRoIHN0eWxlPSJwYWludC1vcmRlcjpub3JtYWwiIGZpbGw9InVybCgjdikiIGQ9Im0tMC40Nzk0OS00LjMxMDJjMi4zNjE1LTAuMDc2MjE4IDQuNzI0NC0wLjEyMjA4IDcuMDg3MS0wLjEyMjA4IDIuMzYyNyAwIDQuNzI1NSAwLjA0NTg2MSA3LjA4NzEgMC4xMjIwOCAwLjMzNzkgMC4wMTA5MDYgMC42MTEzIDAuMDIyODAzIDAuNjM3MDQgMC42MTAzOSAwLjA3MjQ0IDEuNjUzNCAwLjA4NjI3IDMuMzA5NSAwLjA3OTYzIDQuOTY0NS0wLjAwNjYgMS42NTUzLTAuMDM0OTUgMy4zMTE0LTAuMTE5NDQgNC45NjQ1LTAuMDE3OCAwLjMxMDQyLTAuMTE2NTEgMC41NTg5Ny0wLjQzNzk2IDAuNTY5Ny0yLjQxNDkgMC4wNjUyOTktNC44MzA2IDAuMTIyMDgtNy4yNDYzIDAuMTIyMDgtMi40MTU4IDAtNC44MzE0LTAuMDU2Nzg3LTcuMjQ2My0wLjEyMjA4LTAuMzI5NTEgMC4wMjAzNjEtMC40MTA2Ny0wLjI4NTkzLTAuNDM3OTYtMC41Njk3LTAuMDg0NDkyLTEuNjUzMS0wLjExMjgxLTMuMzA5Mi0wLjExOTQ0LTQuOTY0NS0wLjAwNjY0LTEuNjU1IDAuMDA3MTktMy4zMTExIDAuMDc5NjMtNC45NjQ1IDAuMDI1NzQzLTAuNTg3NTkgMC4yOTkxNS0wLjU5OTQ4IDAuNjM3MDQtMC42MTAzOXoiLz48cmVjdCBzdHlsZT0ibWl4LWJsZW5kLW1vZGU6bm9ybWFsIiBmaWxsLW9wYWNpdHk9Ii43NSIgZmlsbD0idXJsKCNwKSIgcnk9IjIuMjc5OGUtMTgiIHJ4PSIyLjMxNTllLTE4IiBoZWlnaHQ9IjguODcxIiB3aWR0aD0iMTQuMDE4IiB5PSItMy4zMzM2IiB4PSItLjQwMTI5Ii8+PHBhdGggZmlsbD0idXJsKCN1KSIgZD0ibTYuNjA3Ni0zLjYxODRjLTIuMDgzNiAwLTQuNTY2NiAwLjAzOTAyMi02LjY0OTIgMC4xMDI4NC0wLjMxMjEgMC4wMDk1Ni0wLjUwNzIxIDAuMDI3NTgyLTAuNTI4MDEgMC40Nzg0Ni0wLjA2Mzg1NCAxLjM4MzktMC4wNzYzMDcgMi43NzAxLTAuMDcwNDUzIDQuMTU1OSAwLjAwNTg1IDEuMzg2IDAuMDMwODA3IDIuNzcyNCAwLjEwNTI5IDQuMTU2IDAuMDIyNTQ2IDAuMzczMjUgMC4xOTMxNSAwLjQzOTcxIDAuMzUyNDIgMC40NDQ3NiAyLjEyOTkgMC4wNTQ2OCA0LjY1OTYgMC4xMDI2OCA2Ljc4OTggMC4xMDI2OWgyLjk3N2UtNGMyLjEzMDItNC40ZS02IDQuNjU5OC0wLjA0ODAxMSA2Ljc4OTctMC4xMDI2OSAwLjE1OTI5LTAuMDA0OTQgMC4zMzAwNC0wLjA3MTUxOCAwLjM1MjU4LTAuNDQ0NzYgMC4wNzQ0OC0xLjM4MzcgMC4wOTk0NC0yLjc3IDAuMTA1MjktNC4xNTYgMC4wMDU4LTEuMzg1OC0wLjAwNjYtMi43NzItMC4wNzA0Ni00LjE1NTktMC4wMjA3OS0wLjQ1MDg3LTAuMjE1OS0wLjQ2ODg5LTAuNTI4LTAuNDc4NDYtMi4wODI3LTAuMDYzODIzLTQuNTY1Ny0wLjEwMjg0LTYuNjQ5Mi0wLjEwMjg0em0wIDAuMzI1NTRjMi4wMTA5IDAgNC40MjEzIDAuMDM2MjcgNi40MzEzIDAuMDk1NjkyIDAuMzAxMjIgMC4wMDg5IDAuNDg5MjcgMC4wMjU2MTMgMC41MDkzNSAwLjQ0NTM5IDAuMDYxNjMgMS4yODg0IDAuMDczNzggMi41NzkyIDAuMDY4MTIgMy44Njk1LTAuMDA1NyAxLjI5MDQtMC4wMjk2NyAyLjU4MTItMC4xMDE1NiAzLjg2OTUtMC4wMjE3NSAwLjM0NzUtMC4xODY1NiAwLjQwOTM5LTAuMzQwMjkgMC40MTQwOC0yLjA1NTYgMC4wNTA5MTQtNC41MTA5IDAuMDk1NTI5LTYuNTY2OCAwLjA5NTUzM2gtMi45NjhlLTRjLTIuMDU1OS0zLjdlLTYgLTQuNTExMi0wLjA0NDYyMy02LjU2NjgtMC4wOTU1MzMtMC4xNTM3Mi0wLjAwNDY5LTAuMzE4NTQtMC4wNjY1NjYtMC4zNDAyOS0wLjQxNDA4LTAuMDcxODg2LTEuMjg4Mi0wLjA5NTkxMy0yLjU3OS0wLjEwMTU2LTMuODY5NS0wLjAwNTY0LTEuMjkwMiAwLjAwNjQ5LTIuNTgxIDAuMDY4MTItMy44Njk1IDAuMDIwMDc3LTAuNDE5NzggMC4yMDgxMy0wLjQzNjQ5IDAuNTA5MzUtMC40NDUzOSAyLjAxLTAuMDU5NDIyIDQuNDIwNS0wLjA5NTY5MiA2LjQzMTMtMC4wOTU2OTJ6Ii8+PHJlY3Qgcnk9IjIuMjU4OWUtMTgiIHJ4PSIyLjIxMDJlLTE4IiBoZWlnaHQ9IjguMTY5OCIgd2lkdGg9IjEwLjczOSIgeT0iLTMuMDY0NCIgeD0iLjExNjQ2Ii8+PGcgc3Ryb2tlLXdpZHRoPSIuMTQwNjQiIHN0cm9rZS1vcGFjaXR5PSIuMjUiIHN0cm9rZS1taXRlcmxpbWl0PSIzLjMiIHN0cm9rZS1saW5lam9pbj0icm91bmQiIHN0cm9rZS1saW5lY2FwPSJyb3VuZCIgZmlsbD0iIzgwZmZkZiI+PHBhdGggc3R5bGU9InBhaW50LW9yZGVyOnN0cm9rZSBmaWxsIG1hcmtlcnMiIGQ9Im0xLjU4OTktMS41OTRoMC41NTc1MXYxLjk4NjhsMC4yNzg3NiAwLjI4MzgzaDAuNTU3NTFsMC4yNzg3Ni0wLjI4Mzgzdi0xLjk4NjhoMC41NTc1MXY1LjEwOWgtMC41NTc1MXYtMS45ODY4bC0wLjI3ODc2LTAuMjgzODNoLTEuMTE1bC0wLjI3ODc2LTAuMjgzODN6Ii8+PHBhdGggc3R5bGU9InBhaW50LW9yZGVyOnN0cm9rZSBmaWxsIG1hcmtlcnMiIGQ9Im00LjkzNS0xLjU5NC0wLjU1NzUxIDAuNTY3NjYgMmUtNyAxLjQxOTIgMC41NTc1MSAwLjU2NzY2LTAuNTU3NTEgMC41Njc2Ni0yZS03IDEuNDE5MiAwLjU1NzUxIDAuNTY3NjZoMS4xMTVsMC41NTc1MS0wLjU2NzY2IDJlLTcgLTEuNDE5Mi0wLjU1NzUxLTAuNTY3NjYgMC41NTc1MS0wLjU2NzY2LTJlLTcgLTEuNDE5Mi0wLjU1NzUxLTAuNTY3NjZ6bTAuMjc4NzYgMC41Njc2NmgwLjU1NzUxbDAuMjc4NzYgMC4yODM4MyAyZS03IDAuODUxNDktMC4yNzg3NiAwLjI4MzgzaC0wLjU1NzUxbC0wLjI3ODc2LTAuMjgzODMtMmUtNyAtMC44NTE0OXptMCAyLjU1NDVoMC41NTc1MWwwLjI3ODc2IDAuMjgzODMtMmUtNyAwLjg1MTQ5LTAuMjc4NzYgMC4yODM4M2gtMC41NTc1MWwtMC4yNzg3Ni0wLjI4MzgzIDJlLTcgLTAuODUxNDl6Ii8+PHBhdGggc3R5bGU9InBhaW50LW9yZGVyOnN0cm9rZSBmaWxsIG1hcmtlcnMiIGQ9Im03LjcyMjYtMS41OTQtMC41NTc1MSAwLjU2NzY2djMuOTczNmwwLjU1NzUxIDAuNTY3NjZoMS4xMTVsMC41NTc1MS0wLjU2NzY2di0xLjcwM2wtMC41NTc1MS0wLjU2NzY2aC0wLjgzNjI3bC0wLjI3ODc2IDAuMjgzODN2LTEuNzAzbDAuMjc4NzYtMC4yODM4M2gwLjU1NzUxbDAuMjc4NzYgMC4yODM4M3YwLjI4MzgzaDAuNTU3NTF2LTAuNTY3NjZsLTAuNTU3NTEtMC41Njc2NnptMC4yNzg3NiAyLjgzODNoMC41NTc1MWwwLjI3ODc2IDAuMjgzODMtM2UtNyAxLjEzNTMtMC4yNzg3NiAwLjI4MzgzaC0wLjU1NzUxbC0wLjI3ODc2LTAuMjgzODMgM2UtNyAtMS4xMzUzeiIvPjwvZz48cmVjdCBmaWxsPSJ1cmwoI2cpIiByeT0iMi4yNTg5ZS0xOCIgcng9IjIuMjEwMmUtMTgiIGhlaWdodD0iOC4wNTcxIiB3aWR0aD0iMTAuNTkxIiB5PSItMy4wMDgiIHg9Ii4xMTY0NiIvPjxwYXRoIHN0eWxlPSJwYWludC1vcmRlcjpmaWxsIG1hcmtlcnMgc3Ryb2tlIiBzdHJva2Utd2lkdGg9Ii4wODA1MDMiIHN0cm9rZS1vcGFjaXR5PSIuNSIgc3Ryb2tlLW1pdGVybGltaXQ9IjMuNiIgZmlsbD0idXJsKCNyKSIgZD0ibTAuMDc2NjQ3LTMuMTMwMWMtMC4wODgyMyAwLTAuMTU5MjYgMC4wNzI1OTctMC4xNTkyNiAwLjE2Mjc3djcuOTc1N2MwIDAuMDkwMTc0IDAuMDcxMDMgMC4xNjI3NyAwLjE1OTI2IDAuMTYyNzcgMCAwIDMuNTU2OCAwLjA4MTM4NCA1LjMzNTIgMC4wODEzODQgMS43Nzg0IDAgNS40OTY2LTAuMDgxMzg0IDUuNDk2Ni0wLjA4MTM4NCAwLjA4ODIzIDAgMC4xNTkyNi0wLjA3MjU5NCAwLjE1OTI2LTAuMTYyNzd2LTcuOTc1N2MwLTAuMDkwMTc1LTAuMDcxMDMtMC4xNjI3Ny0wLjE1OTI2LTAuMTYyNzd6bTUuMzM1MiAwLjE2Mjc3YzEuNjczMSAyZS03IDMuNTA2MiAwLjA5NjU0NCA1LjE3ODEgMC4xNjI3NyAwLjEwMjU2IDAuMDA0MDYgMC4xNTU1MyAwLjA0NDYyMiAwLjE1OTI2IDAuMTYyNzcgMC4xNDU4OSAyLjQxNzEgMC4xMzczNyA0LjkxMSAwIDcuMzI0Ny0wLjAwNDYgMC4wODEzNzQtMC4wNzk2MyAwLjE1Ny0wLjE1OTI2IDAuMTYyNzctMS42NDUgMC4xMTkxNC0zLjUyOSAwLjE2Mjc3LTUuMTc4MSAwLjE2Mjc3LTEuNjIyNiAwLTMuMzE4Ni0wLjA0MzcxNC00LjkzNzEtMC4xNjI3Ny0wLjA3OTYzLTAuMDA1ODUtMC4xNDkwMy0wLjA4MTgwOC0wLjE1OTI2LTAuMTYyNzctMC4zMDQwOC0yLjQwNy0wLjE1NjE2LTQuOTA3LTAuMDc5NjMtNy4zMjQ3IDAuMDAzNzUtMC4xMTgxMyAwLjA1NjY4Mi0wLjE1ODcxIDAuMTU5MjYtMC4xNjI3NyAxLjY3MTgtMC4wNjYyMjggMy4zNDQ1LTAuMTYyNzcgNS4wMTY3LTAuMTYyNzd6Ii8+PGcgc3R5bGU9Im1peC1ibGVuZC1tb2RlOm5vcm1hbCIgc3Ryb2tlLXdpZHRoPSIxLjIiIHRyYW5zZm9ybT0ibWF0cml4KC4yNjc4MyAwIDAgLjI3Mzc0IC0yLjcwMzEgLTQuNzM0NSkiPjxyZWN0IHN0eWxlPSJtaXgtYmxlbmQtbW9kZTpub3JtYWw7cGFpbnQtb3JkZXI6bWFya2VycyBzdHJva2UgZmlsbCIgZmlsbD0idXJsKCNrKSIgcnk9IjEuMTY3MWUtMTciIHJ4PSIxLjM4NTJlLTE3IiBoZWlnaHQ9IjYuMjIxMiIgd2lkdGg9IjYuMjQ0NyIgeT0iNy4zMjUyIiB4PSI1My40OTciLz48cGF0aCBhcmlhLWxhYmVsPSJIQUwiIHN0eWxlPSJtaXgtYmxlbmQtbW9kZTpub3JtYWw7cGFpbnQtb3JkZXI6bWFya2VycyBzdHJva2UgZmlsbCIgc3Ryb2tlLXdpZHRoPSIuNTA0NTYiIHN0cm9rZS1vcGFjaXR5PSIuNSIgc3Ryb2tlLWxpbmVqb2luPSJyb3VuZCIgc3Ryb2tlLWxpbmVjYXA9InJvdW5kIiBkPSJtNTUuODc3IDguNDgzOGgtMC41ODM1OHYtMC4xMjE3NGgwLjU4MzU4em0wIDAuMjM2MmgtMC41ODM1OHYtMC4xMjE3NGgwLjU4MzU4em0tMC4yMDY4OSAwLjIxNjcyaC0wLjM3NjY5di0wLjEwNDdoMC4zNzY2OXptLTAuNTcxODctMC40NTI5MWgtMC41NjAxNnYtMC4xMjE3NGgwLjU2MDE2em0wLjU3MTg3IDAuNjY5NjNoLTAuOTQ0NjZ2LTAuMTA3MTRoMC45NDQ2NnptLTAuNTcxODctMC40MzM0M2gtMC41NjAxNnYtMC4xMjE3NGgwLjU2MDE2em0wLjU3MTg3IDAuODg2MzRoLTAuMzc2Njl2LTAuMTM2MzZoMC4zNzY2OXptLTAuNTcxODctMC42Njk2M2gtMC4zNzI3OXYtMC4xMDQ3aDAuMzcyNzl6bTAuNzc4NzYgMC45MDgyNmgtMC41ODM1OHYtMC4xMjE3NmgwLjU4MzU4em0tMC4yMDY4OS0wLjQ4MjEzaC0wLjk0NDY2di0wLjExMmgwLjk0NDY2em0wLjIwNjg5IDAuNzE4MzNoLTAuNTgzNTh2LTAuMTE5MzJoMC41ODM1OHptLTAuNzc4NzYtMC40NzQ4M2gtMC4zNzI3OXYtMC4xMzYzNmgwLjM3Mjc5em0wIDAuMjM4NjNoLTAuNTYwMTZ2LTAuMTIxNzZoMC41NjAxNnptMCAwLjIzNjE5aC0wLjU2MDE2di0wLjExOTMyaDAuNTYwMTZ6bTEuOTYyNC0xLjU5NzRoLTAuNjMyMzhsMC4wMTU1Ny0wLjEyMTc0aDAuNTk5MnptMC4wNjYzNyAwLjQ2MDIyaC0wLjM0MzUxbC0wLjAxNTU2LTAuMTEyaDAuMzQxNTV6bS0wLjAzMzE5LTAuMjI0MDJoLTAuMzQxNTZsLTAuMDA5OC0wLjA3NTUwNC0wLjAwOTggMC4wNzU1MDRoLTAuMzM3NjZsMC4wMTU1Ni0wLjEyMTc0aDAuNjY1NTZ6bTAuMDY0NDIgMC40NDU2MWgtMC4zNDM1MWwtMC4wMTU1OC0wLjExMmgwLjM0MTU2em0tMC40NDExLTAuMzMzNi0wLjAxNzU3IDAuMTEyaC0wLjMzNTdsMC4wMTU1Ny0wLjExMnptMC43MTA0NSAxLjAxM2gtMC41NDg0NmwtMC4wMTM2OC0wLjEyMTc2aDAuNTYyMTF6bS0wLjIzODEyLTAuNDU3NzhoLTAuODg4MDZsMC4wMTU1Ny0wLjEwOTU4aDAuODU2ODN6bS0wLjUwMzU2LTAuMzMzNi0wLjAxNzU3IDAuMTEyaC0wLjMzNTdsMC4wMTU1Ni0wLjExMnptMC43NDE2OCAxLjAyNzZoLTAuNTIxMTJsLTAuMDEzNjgtMC4xMTkzMmgwLjUzNDc4em0tMC4yMDY4OS0wLjQ3NDgzaC0wLjk0ODU2bDAuMDE1NTctMC4xMTE5OWgwLjkxNzM0em0tMC42MDExNSAwLjExNjg4LTAuMDEzNjggMC4xMjE3NmgtMC41NTA0MXYtMC4xMjE3NnptLTAuMDI3MzMgMC4yMzg2My0wLjAxMzY4IDAuMTE5MzJoLTAuNTIzMDh2LTAuMTE5MzJ6bTEuNzc2OS0xLjQ3ODFoLTAuNzQ1NTh2LTAuMTIxNzRoMC43NDU1OHptMCAwLjIzNjJoLTAuNzQ1NTh2LTAuMTIxNzRoMC43NDU1OHptMC4zMzM3NiAwLjg4NjM0aC0wLjM1MTMydi0wLjEzNjM2aDAuMzUxMzJ6bS0wLjUxOTE4LTAuNjY5NjJoLTAuMzc0NzR2LTAuMTA0N2gwLjM3NDc0em0wIDAuMjE2NzJoLTAuMzc0NzR2LTAuMTA3MTRoMC4zNzQ3NHptMCAwLjIwOTQxaC0wLjM3NDc0di0wLjExMmgwLjM3NDc0em0wIDAuMjQzNWgtMC4zNzQ3NHYtMC4xMzYzNmgwLjM3NDc0em0wLjUxOTE3IDAuMjM4NjNoLTEuMDc5M3YtMC4xMjE3NmgxLjA3OTN6bTAgMC4yMzYxOWgtMS4wNzkzdi0wLjExOTMyaDEuMDc5M3oiLz48cGF0aCBzdHlsZT0ibWl4LWJsZW5kLW1vZGU6bm9ybWFsO3BhaW50LW9yZGVyOmZpbGwgbWFya2VycyBzdHJva2UiIHN0cm9rZS13aWR0aD0iLjQ4MzE2IiBzdHJva2Utb3BhY2l0eT0iLjUiIHN0cm9rZS1taXRlcmxpbWl0PSIzLjYiIGQ9Im01Ny4yNjYgMTAuODA5Yy0wLjAxMjA4IDAtMC4wMjE4OSA1ZS0zIC0wLjAyOTI0IDAuMDE0NzYtMC4wMDcyIDAuMDA5NS0wLjAxMDU5IDAuMDIyNzgtMC4wMTA1OSAwLjAzODc2IDAgMC4wMjc1MSAwLjAxMjQ4IDAuMDQwNTkgMC4wMzczOSAwLjA0MDU5IDAuMDExNjcgMCAwLjAyMTA5LTAuMDA0MSAwLjAyODQ2LTAuMDEyODUgMC4wMDc2LTAuMDA5MSAwLjAxMTQtMC4wMjI0OCAwLjAxMTQtMC4wMzk2OCAwLTAuMDI3NzctMC4wMTI0OC0wLjA0MTUyLTAuMDM3MzktMC4wNDE1MnptLTEuNTAyNSA4LjkxZS00IC0wLjAwNTcgMC4wMzIzaDAuMDA1N2MwLjAzMTE3IDAgMC4wNDYzMSAwLjAxMTQ3IDAuMDQ2MzEgMC4wMzUwNyAwIDAuMDA0NC0wLjAwMjQgMC4wMTc1Ni0wLjAwNjUgMC4wMzk2N2wtMC4wODYxMyAwLjQ2NjkzaDAuMDYxNzRsMC4wMzU3NC0wLjE5Mzc5YzAuMDA2OS0wLjAzNjg2IDAuMDIzNi0wLjA3MzU2IDAuMDQ5NTctMC4xMTE2NiAwLjAyNjE4LTAuMDM4MzEgMC4wNTE3My0wLjA1ODE0IDAuMDc2MzgtMC4wNTgxNCAwLjAyMDMzIDAgMC4wMzA4OSAwLjAxNTQ4IDAuMDMwODkgMC4wNDUyMSAwIDAuMDE2NDctMC4wMDMzIDAuMDM5NjctMC4wMDk2IDAuMDcwMTRsLTAuMDE1NDQgMC4wNzg0MmMtMC4wMDg0IDAuMDQ0OTYtMC4wMTMwMyAwLjA3ODQxLTAuMDEzMDMgMC4xMDE1MSAwIDAuMDIzMSAwLjAwNTQgMC4wNDE4NCAwLjAxNjI0IDAuMDU1MzggMC4wMTExMyAwLjAxMzU0IDAuMDI1NDggMC4wMjAzIDAuMDQzODggMC4wMjAzIDAuMDI1MTIgMCAwLjA1MjI3LTAuMDE0ODcgMC4wODEyNy0wLjA0MzM3bC0wLjAxMTQtMC4wMjIxNWMtMC4wMTU1OCAwLjAxMTQ3LTAuMDMwMyAwLjAxNzUzLTAuMDQzMDYgMC4wMTc1My0wLjAxNTU4IDAtMC4wMjM1Ny0wLjAxMTg4LTAuMDIzNTctMC4wMzU5OCAwLTAuMDIyNiAzZS0zIC0wLjA0OTEzIDllLTMgLTAuMDc5MzZsMC4wMTcwNi0wLjA4OTUxYzhlLTMgLTAuMDM5MzIgMC4wMTIyMS0wLjA2NjE2IDAuMDEyMjEtMC4wODIxMyAwLTAuMDU1NzgtMC4wMjMzLTAuMDgzOTgtMC4wNzA2OS0wLjA4Mzk4LTAuMDQ1MjEgMC0wLjA4NjczIDAuMDMzNjktMC4xMjM1MyAwLjEwMTUxaC0wLjAwNjVjMC4wMDk2LTAuMDQyMjggMC4wMTgyMS0wLjA4NDIxIDAuMDI2MDEtMC4xMjU1MWwwLjAyNi0wLjEzODQyem0tMS4xMjU1IDAuMDM1MDctMC4wMDU3IDAuMDMxMzhoOWUtM2MwLjAxOTA0IDAgMC4wMzEzMiAzZS0zIDAuMDM3MzkgMC4wMDkzIDZlLTMgMC4wMDYxIDllLTMgMC4wMTQ5NiA5ZS0zIDAuMDI2NzYgMCAwLjAwNTMtMy4xOGUtNCAwLjAxMTQ3LTAuMDAxOCAwLjAxODQ0bC0wLjA2OTA3IDAuMzcwOTZjLTNlLTMgMC4wMTU3Mi0wLjAwOTEgMC4wMjc4MS0wLjAxNzg3IDAuMDM2OTItMC4wMDg3IDAuMDA4OC0wLjAyNDYzIDAuMDEyODUtMC4wNDcxNCAwLjAxMjg1aC05ZS0zbC0wLjAwNDkgMC4wMzIzMWgwLjM1Njc0bDAuMDI5MjQtMC4xMzE5N2gtMC4wMzQ5NGwtMC4wMTA1OCAwLjAzMjNjLTAuMDEyNzUgMC4wNDEyNy0wLjAzODEyIDAuMDYxODQtMC4wNzU1NyAwLjA2MTg0aC0wLjEyNzU4bDAuMDQyMjYtMC4yMjYwOGgwLjE2MDA4bDAuMDA2NS0wLjAzNjkyaC0wLjE2MDA5bDAuMDM4MTgtMC4yMDAyNWgwLjExMTMzYzAuMDMxNiAwIDAuMDQ3MTQgMC4wMTYxNSAwLjA0NzE0IDAuMDQ5ODIgMCAwLjAwMjEtNS4yNWUtNCAwLjAwOTQtMC4wMDE4IDAuMDIxMjJsLTAuMDAxOCAwLjAyMzA2aDAuMDM0OTZsMC4wMjExMy0wLjEzMTk3em0yLjM4NSAwLjA0MDU5Yy0wLjAyNDQ1IDAuMDcwNTItMC4wNTgzMSAwLjEwNjEzLTAuMTAxNTcgMC4xMDYxM2wtMC4wMDU3IDAuMDMwNDVoMC4wNTAzOWwtMC4wNDA2NCAwLjIxNzc4Yy0wLjAwNDMgMC4wMjMzNS0wLjAwNjUgMC4wNDM4My0wLjAwNjUgMC4wNjI3NCAwIDAuMDU4NzQgMC4wMjQwNiAwLjA4ODU4IDAuMDcyMzMgMC4wODg1OCAwLjAyOTg3IDAgMC4wNTk1My0wLjAxMTg4IDAuMDg5MzctMC4wMzU5OGwtMC4wMTE0LTAuMDI4NmMtMC4wMTgxNyAwLjAxMTE5LTAuMDM1NjcgMC4wMTY2MS0wLjA1MzY0IDAuMDE2NjEtMC4wMjM1OCAwLTAuMDM1NzQtMC4wMTQwMS0wLjAzNTc0LTAuMDQxNTIgMC0wLjAxNDI1IDAuMDAyNy0wLjAzNTYxIDAuMDA4MS0wLjA2NDZsMC4wNDA2My0wLjIxNTAxaDAuMDgwNDZsMC4wMDgxLTAuMDQzMzZoLTAuMDgwNDRsMC4wMTcwNi0wLjA5MzIxem0xLjA1NTYgMC4wNTYyOGMtMC4wMjY4MyAwLTAuMDUwNTQgMC4wMTc4OC0wLjA3MTUxIDAuMDUzNTMtMC4wMTczLTAuMDE1OTYtMC4wMzk5LTAuMDIzOTktMC4wNjgyNi0wLjAyMzk5LTAuMDQ2MzEgMC0wLjA4Mzc5IDAuMDE3Ny0wLjExMjE0IDAuMDUyNi0wLjAyODE0IDAuMDM0NjUtMC4wNDIyNiAwLjA3MjgzLTAuMDQyMjYgMC4xMTUzNiAwIDAuMDQzIDAuMDE1MzYgMC4wNzMwNSAwLjA0NjMxIDAuMDg5NTEtMC4wMjQ0NSAwLjAxNDI1LTAuMDQwNjggMC4wMjcwMy0wLjA0OTU3IDAuMDM3ODItMC4wMDg3IDAuMDEwOTItMC4wMTMwMyAwLjAyMzI4LTAuMDEzMDMgMC4wMzg3NiAwIDAuMDIyODQgMC4wMTA0NSAwLjA0MDggMC4wMzE3IDAuMDUyNi0wLjAzMzU1IDAuMDA3NS0wLjA2MDE3IDAuMDE5ODMtMC4wNzk2NCAwLjAzODc2LTAuMDE5MjYgMC4wMTkxNi0wLjAyODQ0IDAuMDQzMTEtMC4wMjg0NCAwLjA3MDE0IDAgMC4wNjU2MiAwLjA0NzkyIDAuMDk3ODEgMC4xNDQ2NSAwLjA5NzgxIDAuMDU3NzggMCAwLjEwMjExLTAuMDEzNCAwLjEzMzI2LTAuMDM5NjggMC4wMzExNy0wLjAyNjA1IDAuMDQ3MTQtMC4wNjE5NiAwLjA0NzE0LTAuMTA4ODkgMC0wLjA1NzUxLTAuMDM0MzktMC4wOTAzOC0wLjEwMzIxLTAuMDk4NzRsLTAuMDY0MTktMC4wMDgzYy0wLjAyMjcyLTAuMDAyNi0wLjAzMzMzLTAuMDA5Ny0wLjAzMzMzLTAuMDIyMTUgMC0wLjAxNzE5IDAuMDE1NTQtMC4wMzM0OSAwLjA0NzE0LTAuMDQ3OTkgMC4wMDM5IDkuODFlLTQgMC4wMTExMyAwLjAwMTkgMC4wMjExMyAwLjAwMTkgMC4wNDU2NSAwIDAuMDgyNi0wLjAxNzQ2IDAuMTEwNTEtMC4wNTI2IDAuMDI3OTEtMC4wMzU0IDAuMDQxNDMtMC4wNzQgMC4wNDE0My0wLjExNjI3IDAtMC4wMjMxLTAuMDA0OS0wLjA0MjQtMC4wMTQ2My0wLjA1ODE0IDAuMDEzMTYtMC4wMTE0NyAwLjAyNDY2LTAuMDE3NTIgMC4wMzMzMy0wLjAxNzUyIDAuMDEyMzUgMCAwLjAxNzg3IDAuMDA4NiAwLjAxNzg3IDAuMDI2NzYgMC4wMjYxOCAwIDAuMDM5ODEtMC4wMTQ5MiAwLjAzOTgxLTAuMDQ2MTQgMC0wLjAyMzEtMC4wMTE4MS0wLjAzNTA4LTAuMDM0MTQtMC4wMzUwOHptLTIuNDg3NCAwLjAyOTU0Yy0wLjA1NzEzIDAtMC4xMDQ3NyAwLjAyNzk5LTAuMTQyMjEgMC4wODMwNS0wLjAzNzQ0IDAuMDU0OC0wLjA1NjA4IDAuMTE1LTAuMDU2MDggMC4xODA4NyAwIDAuMDQ4NCAwLjAxMTk0IDAuMDg2NjYgMC4wMzU3NyAwLjExNDQzIDAuMDIzODEgMC4wMjc3NyAwLjA1NTU0IDAuMDQxNTIgMC4wOTQyNiAwLjA0MTUyIDAuMDM1MDQgMCAwLjA2MjkyLTAuMDA5NCAwLjA4MzctMC4wMjY3OCAwLjAyMDk4LTAuMDE3NyAwLjAzMDktMC4wMzYxNSAwLjAzMDktMC4wNTYyOSAwLTAuMDA5NC0yZS0zIC0wLjAxNjE1LTAuMDA2NS0wLjAxOTM3LTAuMDI1MSAwLjAzNjEyLTAuMDU3MTQgMC4wNTQ0NC0wLjA5NTg4IDAuMDU0NDQtMC4wNDg2OSAwLTAuMDczMTMtMC4wMzQxMi0wLjA3MzEzLTAuMTAyNDQgMC0wLjA1MDM4IDAuMDEyMDgtMC4xMDE1MSAwLjAzNDk0LTAuMTU0MTEgMC4wMjMxNS0wLjA1MjYgMC4wNDk1LTAuMDc5MzYgMC4wODA0NC0wLjA3OTM2IDAuMDE2MDEgMCAwLjAyOTExIDAuMDA4NCAwLjAzODE3IDAuMDI0OTEgMC4wMDkxIDAuMDE2MjEgMC4wMTM4MSAwLjAzNzgyIDAuMDEzODEgMC4wNjQ1OSAwLjAxNzk1IDAgMC4wMzE2NC0wLjAwNDcgMC4wNDIyNi0wLjAxNDc2IDAuMDEwOTktMC4wMDk5IDAuMDE2MjQtMC4wMjM1MiAwLjAxNjI0LTAuMDM4NzYgMC0wLjAyMDY0LTAuMDA4MS0wLjAzNjk5LTAuMDI1Mi0wLjA1MDc1LTAuMDE3MDktMC4wMTM4Mi0wLjA0MTAxLTAuMDIxMjItMC4wNzE1MS0wLjAyMTIyem0wLjcyMTYxIDBjLTAuMDU2MDYgMC0wLjEwMzMyIDAuMDI5MzctMC4xNDE0IDAuMDg4NTgtMC4wMzc4NiAwLjA1OTIzLTAuMDU2ODkgMC4xMjM1Ni0wLjA1Njg5IDAuMTkyODYgMCAwLjA0MzUgMC4wMDc5IDAuMDc4MDkgMC4wMjI3NCAwLjEwMjQ0IDAuMDE1MTQgMC4wMjQwOCAwLjAzNjM0IDAuMDM1OTggMC4wNjMzOCAwLjAzNTk4IDAuMDUxMDggMCAwLjA5MjUyLTAuMDQwOTUgMC4xMjQzMy0wLjEyMTgxaDAuMDA0MWMtMC4wMDQ1IDAuMDIzMS0wLjAwNjUgMC4wNDMxLTAuMDA2NSAwLjA1OTA1IDAgMC4wNDE3NyAwLjAxNzM4IDAuMDYyNzQgMC4wNTIgMC4wNjI3NCAwLjAzMDc0IDAgMC4wNjE2NS0wLjAxNTI0IDAuMDkzNDYtMC4wNDUyMmwtMC4wMTIyMS0wLjAyMjE1Yy0wLjAxOTQ3IDAuMDEyOTktMC4wMzUzOSAwLjAxOTM3LTAuMDQ3OTMgMC4wMTkzNy0wLjAxNDQ5IDAtMC4wMjE5My0wLjAxMjMtMC4wMjE5My0wLjAzNzgyIDAtMC4wMjExMyAwLjAwMzMtMC4wNDkzMSAwLjAwOTYtMC4wODM5OGwwLjA0NTUtMC4yNDE3N2gtMC4wMjExM2wtMC4wMjkyNCAwLjAxOTM3Yy0wLjAyMTgzLTAuMDE4MTgtMC4wNDc5My0wLjAyNzY4LTAuMDc4MDEtMC4wMjc2OHptLTEuMDcxIDguOTNlLTRjLTAuMDQ0NzggMC0wLjA4NTE2IDAuMDMzNjktMC4xMjEwOCAwLjEwMTUxaC0wLjAwNjVsMC4wMTc4Ny0wLjA5NTA1aC0wLjEyMjc0bC0wLjAwNTcgMC4wMzEzOGgwLjAwNDljMC4wMzA5NCAwIDAuMDQ2MzEgMC4wMTIxNiAwLjA0NjMxIDAuMDM1OTkgMCAwLjAwODYtNi4zNWUtNCAwLjAyMDEzLTAuMDAzMyAwLjAzNDE0bC0wLjA1NjA5IDAuMzAzNmgwLjA2MTc2bDAuMDM1NzYtMC4xOTM3OGMwLjAwNzMtMC4wMzc2IDAuMDIzODEtMC4wNzQ3NSAwLjA0OTU3LTAuMTEyNTggMC4wMjU5Ni0wLjAzNzg0IDAuMDUxNzMtMC4wNTcyMiAwLjA3NjM4LTAuMDU3MjIgMC4wMjAzNCAwIDAuMDMwMDcgMC4wMTU0OCAwLjAzMDA3IDAuMDQ1MjEgMCAwLjAxNjQ3LTAuMDAzMyAwLjAzOTY3LTAuMDA5NiAwLjA3MDEzbC0wLjAxNTQzIDAuMDc4NDNjLTAuMDA4NCAwLjA0NDk2LTAuMDEyMjEgMC4wNzg0MS0wLjAxMjIxIDAuMTAxNSAwIDAuMDIzMSAwLjAwNTQgMC4wNDE4NCAwLjAxNjI0IDAuMDU1MzggMC4wMTExMyAwLjAxMzU0IDAuMDI1NDggMC4wMjAzIDAuMDQzODkgMC4wMjAzIDAuMDI1MTIgMCAwLjA1MjI2LTAuMDE0ODcgMC4wODEyNy0wLjA0MzM3bC0wLjAxMjIxLTAuMDIyMTVjLTAuMDE1NTggMC4wMTE0Ny0wLjAyOTQ5IDAuMDE3NTItMC4wNDIyNiAwLjAxNzUyLTAuMDE1NTggMC0wLjAyMzU3LTAuMDExODgtMC4wMjM1Ny0wLjAzNTk4IDAtMC4wMjI2IDNlLTMgLTAuMDQ5MTMgOWUtMyAtMC4wNzkzNmwwLjAxNzA2LTAuMDg4NThjOGUtMyAtMC4wMzkzMiAwLjAxMjIxLTAuMDY3MDcgMC4wMTIyMS0wLjA4MzA1IDAtMC4wNTU3OC0wLjAyNDEzLTAuMDgzOTgtMC4wNzE1MS0wLjA4Mzk4em0xLjUwNTggMGMtMC4wNDQ3OSAwLTAuMDg1MTUgMC4wMzM2OS0wLjEyMTA4IDAuMTAxNTFoLTAuMDA2NWwwLjAxNzg3LTAuMDk1MDVoLTAuMTIzNTNsLTAuMDA1NyAwLjAzMTM4aDAuMDA0OWMwLjAzMDk0IDAgMC4wNDcxNCAwLjAxMjE2IDAuMDQ3MTQgMC4wMzU5OSAwIDAuMDA4Ni0wLjAwMTQgMC4wMjAxMy0wLjAwNDEgMC4wMzQxNGwtMC4wNTYwOCAwLjMwMzZoMC4wNjE3N2wwLjAzNTc3LTAuMTkzNzhjMC4wMDczLTAuMDM3NiAwLjAyMzgxLTAuMDc0NzUgMC4wNDk1Ni0wLjExMjU4IDAuMDI1OTYtMC4wMzc4NCAwLjA1MTczLTAuMDU3MjIgMC4wNzYzOS0wLjA1NzIyIDAuMDIwMzMgMCAwLjAzMDA3IDAuMDE1NDggMC4wMzAwNyAwLjA0NTIxIDAgMC4wMTY0Ny0wLjAwMzMgMC4wMzk2Ny0wLjAwOTYgMC4wNzAxM2wtMC4wMTQ2MyAwLjA3ODQzYy0wLjAwODQgMC4wNDQ5Ni0wLjAxMzAzIDAuMDc4NDEtMC4wMTMwMyAwLjEwMTUgMCAwLjAyMzEgMC4wMDU0IDAuMDQxODQgMC4wMTYyNCAwLjA1NTM4IDAuMDExMTMgMC4wMTM1NCAwLjAyNTQ5IDAuMDIwMyAwLjA0Mzg5IDAuMDIwMyAwLjAyNTEgMCAwLjA1MjI3LTAuMDE0ODcgMC4wODEyNy0wLjA0MzM3bC0wLjAxMjIxLTAuMDIyMTVjLTAuMDE1NTggMC4wMTE0Ny0wLjAyOTUgMC4wMTc1Mi0wLjA0MjI2IDAuMDE3NTItMC4wMTU1OCAwLTAuMDIzNTctMC4wMTE4OC0wLjAyMzU3LTAuMDM1OTggMC0wLjAyMjYgM2UtMyAtMC4wNDkxMyA5ZS0zIC0wLjA3OTM2bDAuMDE3MDYtMC4wODg1OGM4ZS0zIC0wLjAzOTMyIDAuMDEyMjEtMC4wNjcwNyAwLjAxMjIxLTAuMDgzMDUgMC0wLjA1NTc4LTAuMDIzMy0wLjA4Mzk4LTAuMDcwNjktMC4wODM5OHptMC44NDUxMiAwYy0wLjA0NDc5IDAtMC4wODUxNCAwLjAzMzY5LTAuMTIxMDggMC4xMDE1MWgtMC4wMDY1bDAuMDE3ODctMC4wOTUwNWgtMC4xMjM1M2wtMC4wMDU3IDAuMDMxMzhoMC4wMDU3YzAuMDMwOTQgMCAwLjA0NjMxIDAuMDEyMTYgMC4wNDYzMSAwLjAzNTk5IDAgMC4wMDg2LTAuMDAxNCAwLjAyMDEzLTAuMDA0MSAwLjAzNDE0bC0wLjA1NjA4IDAuMzAzNmgwLjA2MTc2bDAuMDM1NzctMC4xOTM3OGMwLjAwNzMtMC4wMzc2IDAuMDI0NjItMC4wNzQ3NSAwLjA1MDM5LTAuMTEyNTggMC4wMjU5Ny0wLjAzNzg0IDAuMDUwOS0wLjA1NzIyIDAuMDc1NTctMC4wNTcyMiAwLjAyMDMzIDAgMC4wMzA4OCAwLjAxNTQ4IDAuMDMwODggMC4wNDUyMSAwIDAuMDE2NDctMC4wMDMzIDAuMDM5NjctMC4wMDk2IDAuMDcwMTNsLTAuMDE1NDQgMC4wNzg0M2MtMC4wMDg0IDAuMDQ0OTYtMC4wMTMwMyAwLjA3ODQxLTAuMDEzMDMgMC4xMDE1IDAgMC4wMjMxIDAuMDA1NCAwLjA0MTg0IDAuMDE2MjQgMC4wNTUzOCAwLjAxMTEzIDAuMDEzNTQgMC4wMjYzIDAuMDIwMyAwLjA0NDY5IDAuMDIwMyAwLjAyNTA5IDAgMC4wNTE0Ni0wLjAxNDg3IDAuMDgwNDQtMC4wNDMzN2wtMC4wMTE0LTAuMDIyMTVjLTAuMDE1NTggMC4wMTE0Ny0wLjAzMDMgMC4wMTc1Mi0wLjA0MzA2IDAuMDE3NTItMC4wMTU1OCAwLTAuMDIyNzQtMC4wMTE4OC0wLjAyMjc0LTAuMDM1OTggMC0wLjAyMjYgMC4wMDIzLTAuMDQ5MTMgMC4wMDgxLTAuMDc5MzZsMC4wMTcwNi0wLjA4OTUxYzhlLTMgLTAuMDM5MzEgMC4wMTIyMS0wLjA2NjE2IDAuMDEyMjEtMC4wODIxMyAwLTAuMDU1NzgtMC4wMjMzLTAuMDgzOTgtMC4wNzA3LTAuMDgzOTh6bS0wLjQzMTUgMC4wMDY0LTAuMDA1NyAwLjAzMTM4aDllLTNjMC4wMjcwNSAwIDAuMDQwNjQgMC4wMTExOSAwLjA0MDY0IDAuMDMyMyAwIDAuMDA1My05LjQzZS00IDAuMDExMzMtMC4wMDI2IDAuMDE5MzdsLTAuMDI2IDAuMTM5MzRjLTAuMDA5OSAwLjA1NjUxLTAuMDE0NjMgMC4wOTU1LTAuMDE0NjMgMC4xMTgxMSAwIDAuMDIwNjQgMC4wMDUzIDAuMDM4MTYgMC4wMTU0MyAwLjA1MTY5IDAuMDEwMTggMC4wMTM1NCAwLjAyMzM4IDAuMDIwMyAwLjAzOTgxIDAuMDIwMyAwLjAyOTIyIDAgMC4wNTk0OS0wLjAxNTI0IDAuMDkwMTktMC4wNDUyMmwtMC4wMTIyMS0wLjAyMjE1Yy0wLjAxOTA0IDAuMDEyOTktMC4wMzUxOSAwLjAxOTM3LTAuMDQ3OTMgMC4wMTkzNy0wLjAxNDcxIDAtMC4wMjE5Ni0wLjAxMjMtMC4wMjE5Ni0wLjAzNzgzIDAtMC4wMTk2NSAzZS0zIC0wLjA0Nzg1IDAuMDA5Ni0wLjA4Mzk4bDAuMDQ1NS0wLjI0Mjd6bS0wLjg0NDMxIDAuMDI2NzhjMC4wMjMzOCAwIDAuMDM5MzkgMC4wMDg2IDAuMDQ5NTcgMC4wMjY3NmwtMC4wMjQzNyAwLjEzMzgyYy0wLjAwNzcgMC4wNDM5OC0wLjAyMzcyIDAuMDg0Ny0wLjA0Nzk0IDAuMTIxODEtMC4wMjQyNSAwLjAzNzExLTAuMDQ3ODIgMC4wNTUzOC0wLjA2OTg4IDAuMDU1MzgtMC4wMjc5MSAwLTAuMDQxNDMtMC4wMjg1Mi0wLjA0MTQzLTAuMDg2NzQgMC0wLjA1Nzc2IDAuMDEyNzYtMC4xMTQzMiAwLjAzODE5LTAuMTY4ODcgMC4wMjU3Ni0wLjA1NDggMC4wNTgwMy0wLjA4MjEzIDAuMDk1ODgtMC4wODIxM3ptMS42MTM5IDguOTFlLTRjMC4wMzA1MiAwIDAuMDQ1NSAwLjAyMDUzIDAuMDQ1NSAwLjA2MTgzIDAgMC4wMzM5Mi04ZS0zIDAuMDY1MzctMC4wMjM1NyAwLjA5NDEyLTAuMDE1MzYgMC4wMjg1Mi0wLjAzNTYyIDAuMDQyNDUtMC4wNjA5NCAwLjA0MjQ1LTAuMDMwNzIgMC0wLjA0NjMxLTAuMDIwNTMtMC4wNDYzMS0wLjA2MTgzIDAtMC4wMzM0MSAwLjAwNzYtMC4wNjQ0NCAwLjAyMjc0LTAuMDkzMjEgMC4wMTUzNi0wLjAyOSAwLjAzNjU5LTAuMDQzMzcgMC4wNjI1OS0wLjA0MzM3em0tMC4wOTgzMSAwLjM2ODE5IDAuMDY0MTkgMC4wMDY0YzAuMDQxMzMgMC4wMDQxIDAuMDYyNTcgMC4wMjMzNSAwLjA2MjU3IDAuMDU2MjggMCAwLjAyNzc3LTAuMDEwMzEgMC4wNDkzLTAuMDMwODkgMC4wNjU0OS0wLjAyMDMzIDAuMDE2NDctMC4wNTA0NCAwLjAyNDkxLTAuMDg5MzcgMC4wMjQ5MS0wLjA2MjU0IDAtMC4wOTM0Ni0wLjAyMTc3LTAuMDkzNDYtMC4wNjU1MSAwLTAuMDIwMzkgMC4wMDU3LTAuMDM3NjcgMC4wMTcwNi0wLjA1MTY4IDAuMDExNTMtMC4wMTQwMSAwLjAyNDgzLTAuMDIzNDMgMC4wNDA2My0wLjAyODYgMC4wMTYtMC4wMDUzIDAuMDI2MDEtMC4wMDc3IDAuMDI5MjYtMC4wMDc1em0tMC43ODA5MyAwLjM3OTI3Yy0wLjAxMjA4IDAtMC4wMjE4OSA1ZS0zIC0wLjAyOTI2IDAuMDE0NzYtMC4wMDcyIDAuMDA5NS0wLjAxMDU4IDAuMDIyNzgtMC4wMTA1OCAwLjAzODc2IDAgMC4wMjc1MiAwLjAxMjQ4IDAuMDQwNiAwLjAzNzM5IDAuMDQwNiAwLjAxMTY3IDAgMC4wMjEwOS0wLjAwNDEgMC4wMjg0NC0wLjAxMjg1IDAuMDA3Ni0wLjAwOTEgMC4wMTE0LTAuMDIyNDcgMC4wMTE0LTAuMDM5NjcgMC0wLjAyNzc3LTAuMDEyNDgtMC4wNDE1Mi0wLjAzNzM5LTAuMDQxNTJ6bS0xLjYyNzcgOC45M2UtNCAtMC4wMDY1IDAuMDMyM2gwLjAwODFjMC4wMzExNyAwIDAuMDQ3MTQgMC4wMTE0NyAwLjA0NzE0IDAuMDM1MDcgMCAwLjAwNzctMC4wMDIyIDAuMDE5MTUtMC4wMDQ5IDAuMDM0MTRsLTAuMDUzNjQgMC4yODk3NmMtMC4wMDk2IDAuMDU1My0wLjAxNDYzIDAuMDk0MjctMC4wMTQ2MyAwLjExODExIDAgMC4wMjExMyAwLjAwNDMgMC4wMzg0IDAuMDE0NjMgMC4wNTE2OSAwLjAxMDMxIDAuMDEzMjYgMC4wMjM4MSAwLjAyMDMgMC4wMzk4MSAwLjAyMDMgMC4wMjkyMiAwIDAuMDU5NDgtMC4wMTUyNCAwLjA5MDE5LTAuMDQ1MjJsLTAuMDEyMjEtMC4wMjIxNWMtMC4wMTkwNCAwLjAxMjk5LTAuMDM1MTkgMC4wMTkzNy0wLjA0NzkzIDAuMDE5MzctMC4wMTQ3MSAwLTAuMDIxOTYtMC4wMTIzLTAuMDIxOTYtMC4wMzc4MiAwLTAuMDE5OSAwLjAwMzgtMC4wNDgwOCAwLjAxMDU4LTAuMDgzOThsMC4wNzYzOS0wLjQxMTU3em0yLjQ0MzUgMC0wLjAwNTcgMC4wMzIzaDAuMDA3M2MwLjAzMTE2IDAgMC4wNDcxNCAwLjAxMTQ3IDAuMDQ3MTQgMC4wMzUwNyAwIDAuMDA3Ny0wLjAwMTMgMC4wMTkxNS0wLjAwNDEgMC4wMzQxNGwtMC4wNTQ0MyAwLjI4OTc2Yy0wLjAwOTYgMC4wNTUzLTAuMDE0NjMgMC4wOTQyNy0wLjAxNDYzIDAuMTE4MTEgMCAwLjAyMTEzIDAuMDA1MyAwLjAzODQgMC4wMTU0MyAwLjA1MTY5IDAuMDEwMzEgMC4wMTMyNiAwLjAyMzgxIDAuMDIwMyAwLjAzOTgxIDAuMDIwMyAwLjAyOTIyIDAgMC4wNTg2OC0wLjAxNTI0IDAuMDg5MzctMC4wNDUyMmwtMC4wMTIyMS0wLjAyMjE1Yy0wLjAxOTA0IDAuMDEyOTktMC4wMzQzNyAwLjAxOTM3LTAuMDQ3MTQgMC4wMTkzNy0wLjAxNDcxIDAtMC4wMjE5Ni0wLjAxMjMtMC4wMjE5Ni0wLjAzNzgyIDAtMC4wMTk5IDNlLTMgLTAuMDQ4MDggMC4wMDk2LTAuMDgzOThsMC4wNzcyLTAuNDExNTd6bS0zLjAwNjcgMC4wMjY3NmMtMC4wNzc5MSAwLTAuMTQzNDcgMC4wMzU0MS0wLjE5NTg0IDAuMTA1Mi0wLjA1MjM3IDAuMDY5NTQtMC4wNzgwMSAwLjE1MTk2LTAuMDc4MDEgMC4yNDczMSAwIDAuMDY0MzkgMC4wMTU2OSAwLjExNDM1IDAuMDQ3OTMgMC4xNDk0OSAwLjAzMjQ3IDAuMDM1MTQgMC4wNzc5MyAwLjA1MjYgMC4xMzU3MSAwLjA1MjYgMC4wNDMyOCAwIDAuMDc2OTEtMC4wMDk4IDAuMTAxNTctMC4wMjg2MiAwLjAyNDY3LTAuMDE4OTMgMC4wMzczOS0wLjA0MDUxIDAuMDM3MzktMC4wNjQ1OSAwLTAuMDEyMDItM2UtMyAtMC4wMjAyMS05ZS0zIC0wLjAyNDkxLTAuMDMwNzMgMC4wNDU3Mi0wLjA3MjIyIDAuMDY5Mi0wLjEyMzUzIDAuMDY5Mi0wLjA3ODc3IDAtMC4xMTc4My0wLjA0NzA3LTAuMTE3ODMtMC4xNDExOSAwLTAuMDgwMzUgMC4wMTg0Ni0wLjE1NDgyIDAuMDU1MjYtMC4yMjIzOSAwLjAzNzAxLTAuMDY3ODMgMC4wODI1OS0wLjEwMTUgMC4xMzczMy0wLjEwMTUgMC4wNDQxNCAwIDAuMDY2NjMgMC4wMzQxIDAuMDY2NjMgMC4xMDI0NCAwLjAxOTY5IDAgMC4wMzUyMy0wLjAwNTEgMC4wNDcxNC0wLjAxNTcgMC4wMTE5NC0wLjAxMDY0IDAuMDE3ODctMC4wMjU0MiAwLjAxNzg3LTAuMDQzMzYgMC0wLjAyNTgxLTAuMDEwOTktMC4wNDU5My0wLjAzMjUxLTAuMDYwOTItMC4wMjE2NC0wLjAxNTI0LTAuMDUxNDgtMC4wMjMwNi0wLjA5MDItMC4wMjMwNnptMS42NDM5IDAuMDA4My0wLjAwNTcgMC4wMzEzOGgwLjAwODFjMC4wMzIwMyAwIDAuMDQ3OTQgMC4wMTAzNiAwLjA0Nzk0IDAuMDMwNDUgMCAwLjAwNDctNy4xMmUtNCAwLjAxMTg4LTAuMDAyNiAwLjAyMTIybC0wLjA2OTA3IDAuMzcwMDRjLTAuMDA2NiAwLjAzNjEyLTAuMDI4MjMgMC4wNTM1My0wLjA2NSAwLjA1MzUzaC05ZS0zbC0wLjAwNTcgMC4wMzIzaDAuMjA5NjZjMC4wODA3MSAwIDAuMTQ1MTUtMC4wMzIxNSAwLjE5MzQtMC4wOTUwNSAwLjA0ODI0LTAuMDYzMTQgMC4wNzIzMy0wLjE0MjY4IDAuMDcyMzMtMC4yMzkgMC0wLjA2NTg1LTAuMDE2MDktMC4xMTU5NS0wLjA0ODc2LTAuMTUxMzQtMC4wMzI2OS0wLjAzNTY1LTAuMDc5NDEtMC4wNTM1My0wLjEzOTc3LTAuMDUzNTN6bTAuMTIzNTMgMC4wMzY4OWgwLjA1MjgzYzAuMDg0MTkgMCAwLjEyNTk2IDAuMDUzNDkgMC4xMjU5NiAwLjE1OTY0IDAgMC4wOTA5My0wLjAxODYzIDAuMTY0NzctMC4wNTYwOCAwLjIyMDU1LTAuMDM3MjIgMC4wNTU3OC0wLjA4NzkxIDAuMDgzMDctMC4xNTE5NiAwLjA4MzA3aC0wLjA1Nzd6bS0xLjQzMjYgMC4wODk1MWMtMC4wNTkwOCAwLTAuMTA3MjcgMC4wMjcxNS0wLjE0MzgzIDAuMDgxMjItMC4wMzYzNCAwLjA1MzgyLTAuMDU0NDQgMC4xMTQ4Ny0wLjA1NDQ0IDAuMTgyNzEgMCAwLjA0ODkxIDAuMDExNjcgMC4wODY5MSAwLjAzNDE0IDAuMTE0NDIgMC4wMjI1IDAuMDI3NTIgMC4wNTM0MiAwLjA0MTUyIDAuMDkzNDYgMC4wNDE1MiAwLjA1ODg1IDAgMC4xMDY4OC0wLjAyNzE1IDAuMTQzMDItMC4wODEyIDAuMDM2MTQtMC4wNTQzMSAwLjA1MzY0LTAuMTE1NjIgMC4wNTM2NC0wLjE4MjcyIDAtMC4wNTA2My0wLjAxMDk5LTAuMDg4NTUtMC4wMzMzMS0wLjExNTM2LTAuMDIyNS0wLjAyNjc4LTAuMDUzNDctMC4wNDA1OS0wLjA5MjYzLTAuMDQwNTl6bTAuNTgzNDYgMGMtMC4wNTkwOCAwLTAuMTA2NDYgMC4wMjcxNS0wLjE0MzAyIDAuMDgxMjItMC4wMzYzNSAwLjA1MzgyLTAuMDU0NDYgMC4xMTQ4Ny0wLjA1NDQ2IDAuMTgyNzEgMCAwLjA0ODkxIDAuMDEwOTkgMC4wODY5MSAwLjAzMzMzIDAuMTE0NDIgMC4wMjI1IDAuMDI3NTIgMC4wNTQyMyAwLjA0MTUyIDAuMDk0MjYgMC4wNDE1MiAwLjA1ODg1IDAgMC4xMDYwOC0wLjAyNzE1IDAuMTQyMjEtMC4wODEyIDAuMDM2MTUtMC4wNTQzMSAwLjA1NDQzLTAuMTE1NjIgMC4wNTQ0My0wLjE4MjcyIDAtMC4wNTA2My0wLjAxMTY3LTAuMDg4NTUtMC4wMzQxMy0wLjExNTM2LTAuMDIyNS0wLjAyNjc4LTAuMDUzNDYtMC4wNDA1OS0wLjA5MjYzLTAuMDQwNTl6bTAuNDE1MjUgMGMtMC4wMjI5NSAwLTAuMDQyODMgMC4wMDc5LTAuMDYwMTMgMC4wMjQtMC4wMTczIDAuMDE2MjEtMC4wMzUwNyAwLjA0NzMxLTAuMDUyODMgMC4wOTIyOGgtMC4wMDY1bDAuMDEzOC0wLjEwODg5aC0wLjExNzAxbC0wLjAwNjUgMC4wMzEzOGgwLjAwNTdjMC4wMzUyOCAwIDAuMDUyODMgMC4wMTIxNiAwLjA1MjgzIDAuMDM1OTkgMCAwLjAwODYtMC4wMDE0IDAuMDIwMTUtMC4wMDQxIDAuMDM0MTNsLTAuMDU2MDkgMC4zMDM2aDAuMDYyNTdsMC4wMjQzNy0wLjEzNzQ5YzAuMDExMTMtMC4wNTc5OSAwLjAyODI1LTAuMTEgMC4wNTEyLTAuMTU1OTUgMC4wMjMxNi0wLjA0NTk2IDAuMDQ1MjctMC4wNjkyIDAuMDY1ODMtMC4wNjkyIDAuMDE3NzQgMCAwLjAyNjggMC4wMjAxNyAwLjAyNjggMC4wNTk5OCAwLjAzNjc3IDAgMC4wNTUyNy0wLjAxOTggMC4wNTUyNy0wLjA1ODE0IDAtMC4wMzQ2NC0wLjAxODkyLTAuMDUxNjctMC4wNTUyNy0wLjA1MTY3em0xLjQ4NzEgMGMtMC4wNDkxMSAwLTAuMDg5ODYgMC4wMzU5OC0wLjEyMTg4IDAuMTA3OTdoLTAuMDAzM2wwLjAxNjI0LTAuMTAwNTdoLTAuMTE3ODNsLTAuMDA1NyAwLjAzMTM4aDAuMDA0OWMwLjAzMDk0IDAgMC4wNDYzMSAwLjAxMjE2IDAuMDQ2MzEgMC4wMzU5OSAwIDAuMDA1NS0wLjAwMTkgMC4wMTg1NC0wLjAwNTcgMC4wMzk2OGwtMC4wODg1NyAwLjQ3ODkzaDAuMTI1MTZsMC4wMDU3LTAuMDMxMzhoLTllLTNjLTAuMDMwOTQgMC0wLjA0NjMxLTAuMDExNzQtMC4wNDYzMS0wLjAzNTA4IDAtN2UtMyAwLjAwMjQtMC4wMjE1NSAwLjAwNjUtMC4wNDI0NWw5ZS0zIC0wLjA0NjEzYzAuMDAxOC0wLjAwODIgMC4wMDM4LTAuMDE5NzcgMC4wMDU3LTAuMDM1OTggMC4wMTc5NCAwLjAxMTQ3IDAuMDM5NjggMC4wMTc1MiAwLjA2NTAxIDAuMDE3NTIgMC4wNTgwMSAwIDAuMTA1MjEtMC4wMzA5MSAwLjE0MjIxLTAuMDkxMzQgMC4wMzcyMi0wLjA2MDcgMC4wNTYwOS0wLjEyNDM3IDAuMDU2MDktMC4xOTE5NCAwLTAuMDQ0MjMtMC4wMDcyLTAuMDc4MTgtMC4wMjE5My0wLjEwMTUxLTAuMDE0NDgtMC4wMjMzNC0wLjAzNTUzLTAuMDM1MDgtMC4wNjI1Ny0wLjAzNTA4em0wLjU0MjAyIDBjLTAuMDU2MDYgMC0wLjEwMzMyIDAuMDI5MzctMC4xNDE0IDAuMDg4NTgtMC4wMzc4NyAwLjA1OTIzLTAuMDU2OSAwLjEyMzU3LTAuMDU2OSAwLjE5Mjg2IDAgMC4wNDM1IDAuMDA3OSAwLjA3ODA5IDAuMDIyNzQgMC4xMDI0NCAwLjAxNTE0IDAuMDI0MDggMC4wMzYzNCAwLjAzNTk5IDAuMDYzMzkgMC4wMzU5OSAwLjA1MTA4IDAgMC4wOTI1Mi0wLjA0MDk1IDAuMTI0MzMtMC4xMjE4MWgwLjAwNDFjLTAuMDA0NiAwLjAyMzEtMC4wMDczIDAuMDQzMDktMC4wMDczIDAuMDU5MDUgMCAwLjA0MTc3IDAuMDE3MzggMC4wNjI3NiAwLjA1MjAxIDAuMDYyNzYgMC4wMzA3NCAwIDAuMDYyNDUtMC4wMTUyNCAwLjA5NDI2LTAuMDQ1MjJsLTAuMDEyMjEtMC4wMjIxNWMtMC4wMTk0NyAwLjAxMjk5LTAuMDM1MzggMC4wMTkzNy0wLjA0NzkzIDAuMDE5MzctMC4wMTQ0OSAwLTAuMDIxOTYtMC4wMTIzLTAuMDIxOTYtMC4wMzc4MiAwLTAuMDIxMTMgMC4wMDMzLTAuMDQ5MzEgMC4wMDk2LTAuMDgzOThsMC4wNDU1LTAuMjQxNzdoLTAuMDIxMTNsLTAuMDI5MjYgMC4wMTkzN2MtMC4wMjE4NS0wLjAxODE3LTAuMDQ3OTMtMC4wMjc2OC0wLjA3ODAxLTAuMDI3Njh6bS0wLjkzNDUxIDguOTFlLTRjLTAuMDM4MDkgMC0wLjA2ODgzIDAuMDEwMjMtMC4wOTI2MyAwLjAzMTM4LTAuMDIzNTggMC4wMjA4OS0wLjAzNTc2IDAuMDQ4MjgtMC4wMzU3NiAwLjA4MTIgMCAwLjAyNDA4IDAuMDA1NCAwLjA0NTI0IDAuMDE2MjQgMC4wNjM2NiAwLjAxMTEzIDAuMDE4MTcgMC4wMzMyMSAwLjAzNTQgMC4wNjUwMSAwLjA1MjYgMC4wMjQ0NSAwLjAxMjcxIDAuMDQxMDIgMC4wMjYyNCAwLjA1MTIgMC4wMzg3NiAwLjAxMDE4IDAuMDEyMyAwLjAxNTQzIDAuMDI3MjkgMC4wMTU0MyAwLjA0NTIxIDAgMC4wNDY2OS0wLjAyMzY5IDAuMDcwMTMtMC4wNzE1MSAwLjA3MDEzLTAuMDI0MDIgMC0wLjA0MjY1LTAuMDA4Ny0wLjA1NjA4LTAuMDI1ODQtMC4wMTMxNi0wLjAxNzQ1LTAuMDIwMy0wLjA0MTY5LTAuMDIwMy0wLjA3MjktMC4wMTIwOCAwLTAuMDIyMDYgMC4wMDMzLTAuMDMwMDcgMC4wMTIwMi0wLjAwNzcgMC4wMDg0LTAuMDExNCAwLjAyMDY4LTAuMDExNCAwLjAzNjkgMCAwLjAyNjA2IDAuMDA5NSAwLjA0NzI3IDAuMDI5MjQgMC4wNjI3NCAwLjAxOTkxIDAuMDE1MjQgMC4wNDY5IDAuMDIzMDYgMC4wODA0NCAwLjAyMzA2IDAuMDQxNTQgMCAwLjA3NDg1LTAuMDExMzMgMC4wOTk5Ni0wLjAzNDE0IDAuMDI1MS0wLjAyMjg1IDAuMDM3MzktMC4wNTMzMiAwLjAzNzM5LTAuMDkwNDMgMC0wLjA1MTExLTAuMDI2NDEtMC4wOTAxNi0wLjA3OTY0LTAuMTE3MTgtMC4wMjMxNi0wLjAxMTQ3LTAuMDQwMTctMC4wMjMyOC0wLjA1MTItMC4wMzUwOC0wLjAxMTEzLTAuMDExNzQtMC4wMTYyNC0wLjAyNTc0LTAuMDE2MjQtMC4wNDI0NSAwLTAuMDE4OTIgMC4wMDU3LTAuMDM1MDEgMC4wMTcwNi0wLjA0NzA2IDAuMDExNjctMC4wMTIzIDAuMDI3MjMtMC4wMTg0NSAwLjA0NzE0LTAuMDE4NDUgMC4wMTg4MiAwIDAuMDMzNSAwLjAwNzkgMC4wNDM4OSAwLjAyMzA2IDAuMDEwNTggMC4wMTUyNCAwLjAxNjI0IDAuMDM1NjEgMC4wMTYyNCAwLjA2MDkyIDAuMDMzMzQgMCAwLjA0OTU3LTAuMDE1ODUgMC4wNDk1Ny0wLjA0NzA2IDAtMC4wMjAxNC0wLjAwOTItMC4wMzY5OS0wLjAyNzYzLTAuMDUwNzUtMC4wMTgxNy0wLjAxMzgyLTAuMDQzNzEtMC4wMjAzMS0wLjA3NjM5LTAuMDIwMzF6bTEuMzY0NCAwYy0wLjAxMTY3IDAtMC4wMjE0MSAwLjAwNDctMC4wMzAwNyAwLjAxNDc2LTAuMDA4NyAwLjAwOTktMC4wMTMwMyAwLjAyMzY0LTAuMDEzMDMgMC4wNDA1OSAwLjAyMTgzIDAgMC4wMzI1MSAwLjAxNDI2IDAuMDMyNTEgMC4wNDE1MiAwIDAuMDYzNjMtMC4wMjk0NSAwLjE0NjYyLTAuMDg5MzcgMC4yNTAwN2gtMC4wMDI2Yy0wLjAwMjYtMC4wMjgwMS0wLjAxMTY3LTAuMDczNDItMC4wMjc2My0wLjEzNjU3bC0wLjA1MjAxLTAuMjAzOTJoLTAuMDk2NzFsLTAuMDA1NyAwLjAzMTM4aDAuMDA3M2MwLjAxMzE2IDAgMC4wMjI1NCAzZS0zIDAuMDI5MjQgMC4wMDkzIDAuMDA2OCAwLjAwNTkgMC4wMTIzNSAwLjAxNjY0IDAuMDE2MjQgMC4wMzEzOGwwLjA4Nzc2IDAuMzM0MDVjLTAuMDYxMDIgMC4wOTE2Ni0wLjEyMzUgMC4xMzc0OS0wLjE4NjkgMC4xMzc0OS0wLjAxOTA0IDAtMC4wMzY0MS0wLjAwMzYtMC4wNTItMC4wMDkzbC0wLjAwOTYgMC4wMzc4M2MwLjAxODQgMC4wMDkxIDAuMDM5MiAwLjAxMzgzIDAuMDYyNTcgMC4wMTM4MyAwLjA1ODg1IDAgMC4xMDYyOS0wLjAxNzM4IDAuMTQyMjEtMC4wNTM1MyAwLjAzNjE0LTAuMDM2MTIgMC4wODQxMS0wLjEwOTc5IDAuMTQzODQtMC4yMTk2MiAwLjA1OTczLTAuMTEwMDggMC4wODkzNy0wLjE5NDkyIDAuMDg5MzctMC4yNTU2MSAwLTAuMDQyMjgtMC4wMTU0Mi0wLjA2MzY1LTAuMDQ1NS0wLjA2MzY1em0tMS43MDU3IDAuMDA2NC0wLjAwNjUgMC4wMzEzOCA5ZS0zIDguOTFlLTRjMC4wMjcwNSAwIDAuMDQwNjMgMC4wMTAyMiAwLjA0MDYzIDAuMDMxMzggMCAwLjAwNTMtOS40MmUtNCAwLjAxMTMzLTAuMDAyNiAwLjAxOTM3bC0wLjAyNTE5IDAuMTM5MzRjLTAuMDA5OSAwLjA1NjUzLTAuMDE1NDMgMC4wOTU1LTAuMDE1NDMgMC4xMTgxMSAwIDAuMDIwNjQgMC4wMDUzIDAuMDM4MTYgMC4wMTU0MyAwLjA1MTY4IDAuMDEwMTggMC4wMTM1NCAwLjAyMzM4IDAuMDIwMzEgMC4wMzk4MSAwLjAyMDMxIDAuMDI5MjIgMCAwLjA1OTQ5LTAuMDE1MjQgMC4wOTAxOS0wLjA0NTIybC0wLjAxMjIxLTAuMDIyMTVjLTAuMDE5MDQgMC4wMTI5OS0wLjAzNTE5IDAuMDE5MzctMC4wNDc5MyAwLjAxOTM3LTAuMDE0NzEgMC0wLjAyMTkzLTAuMDEyMy0wLjAyMTkzLTAuMDM3ODIgMC0wLjAxOTY1IDAuMDAzOC0wLjA0Nzg1IDAuMDEwNTgtMC4wODM5OWwwLjA0NDY5LTAuMjQyNjl6bTEuMjc5MSAwLjAyNjc4YzAuMDIzMzcgMCAwLjA0MDE5IDAuMDA4NiAwLjA1MDM4IDAuMDI2NzZsLTAuMDI0MzcgMC4xMzM4MmMtMC4wMDc3IDAuMDQzOTktMC4wMjM3MSAwLjA4NDcxLTAuMDQ3OTMgMC4xMjE4MS0wLjAyNDI0IDAuMDM3MS0wLjA0NzgxIDAuMDU1MzgtMC4wNjk4OCAwLjA1NTM4LTAuMDI3OTEgMC0wLjA0MTQzLTAuMDI4NTItMC4wNDE0My0wLjA4Njc0IDAtMC4wNTc3NiAwLjAxMjc2LTAuMTE0MzIgMC4wMzgxNy0wLjE2ODg3IDAuMDI1NzYtMC4wNTQ4IDAuMDU3MjItMC4wODIxMyAwLjA5NTA3LTAuMDgyMTN6bS0zLjAzOTIgMC4wMDU1YzAuMDQzMjggMCAwLjA2NTAxIDAuMDM1MTYgMC4wNjUwMSAwLjEwNTIgMCAwLjA1OTk1LTAuMDEwNTggMC4xMTQ4NS0wLjAzMjUxIDAuMTY0MjYtMC4wMjE2NCAwLjA0OTE1LTAuMDUxMiAwLjA3MzgyLTAuMDg3NzYgMC4wNzM4Mi0wLjA0MzkzIDAtMC4wNjU4My0wLjAzNDk4LTAuMDY1ODMtMC4xMDQyOCAwLTAuMDYwNDUgMC4wMTExMy0wLjExNDg2IDAuMDMzMzMtMC4xNjQyNiAwLjAyMjMtMC4wNDk0IDAuMDUxNjItMC4wNzQ3NCAwLjA4Nzc2LTAuMDc0NzR6bTAuNTg0MjggMGMwLjA0MzI3IDAgMC4wNjUwMSAwLjAzNTE2IDAuMDY1MDEgMC4xMDUyIDAgMC4wNTk5NS0wLjAxMTQgMC4xMTQ4NS0wLjAzMzMzIDAuMTY0MjYtMC4wMjE2NCAwLjA0OTE1LTAuMDUwMzcgMC4wNzM4Mi0wLjA4Njk0IDAuMDczODItMC4wNDM5MyAwLTAuMDY1ODMtMC4wMzQ5OC0wLjA2NTgzLTAuMTA0MjggMC0wLjA2MDQ1IDAuMDExMTMtMC4xMTQ4NiAwLjAzMzMxLTAuMTY0MjYgMC4wMjIzLTAuMDQ5NCAwLjA1MTYyLTAuMDc0NzQgMC4wODc3Ni0wLjA3NDc0em0xLjg4NDUgMC4wMDgzYzAuMDI3OTEgMCAwLjA0MjI2IDAuMDI4OTUgMC4wNDIyNiAwLjA4NzY1IDAgMC4wNTY3Ny0wLjAxMzMgMC4xMTI5LTAuMDM5IDAuMTY3OTUtMC4wMjU1MiAwLjA1NDgtMC4wNTY0NSAwLjA4MjEzLTAuMDkzNDYgMC4wODIxMy0wLjAyMDc4IDAtMC4wMzg1NC0wLjAwODgtMC4wNTI4My0wLjAyNjc2bDAuMDI2ODEtMC4xNDM5NmMwLjAwNzYtMC4wMzkwOCAwLjAyMzc1LTAuMDc2NDUgMC4wNDcxNC0wLjExMjU4IDAuMDIzMzgtMC4wMzYzNyAwLjA0NjE0LTAuMDU0NDQgMC4wNjkwNy0wLjA1NDQ0eiIvPjxyZWN0IHN0eWxlPSJtaXgtYmxlbmQtbW9kZTpub3JtYWw7cGFpbnQtb3JkZXI6ZmlsbCBtYXJrZXJzIHN0cm9rZSIgZmlsbD0iIzgwMCIgcnk9IjIuNzIzMmUtMTciIHJ4PSIxLjg0NjllLTE3IiBoZWlnaHQ9IjIuMDczNyIgd2lkdGg9IjIuMDgxNiIgeT0iMTMuNTQ2IiB4PSI1My40OTciLz48cmVjdCBzdHlsZT0ibWl4LWJsZW5kLW1vZGU6bm9ybWFsO3BhaW50LW9yZGVyOmZpbGwgbWFya2VycyBzdHJva2UiIGZpbGw9IiMwNjEiIHJ5PSIyLjcyMzJlLTE3IiByeD0iMS44NDY5ZS0xNyIgaGVpZ2h0PSIyLjA3MzciIHdpZHRoPSIyLjA4MTYiIHk9IjEzLjU0NiIgeD0iNTUuNTc4Ii8+PHJlY3Qgc3R5bGU9Im1peC1ibGVuZC1tb2RlOm5vcm1hbDtwYWludC1vcmRlcjpmaWxsIG1hcmtlcnMgc3Ryb2tlIiBmaWxsPSIjMDM5IiByeT0iMi43MjMyZS0xNyIgcng9IjEuODQ2OWUtMTciIGhlaWdodD0iMi4wNzM3IiB3aWR0aD0iMi4wODE2IiB5PSIxMy41NDYiIHg9IjU3LjY2Ii8+PC9nPjxlbGxpcHNlIHN0eWxlPSJtaXgtYmxlbmQtbW9kZTpub3JtYWw7cGFpbnQtb3JkZXI6c3Ryb2tlIG1hcmtlcnMgZmlsbCIgZmlsbD0idXJsKCNoKSIgcnk9Ii41Njc2NiIgcng9Ii41NTc1MSIgY3k9Ii41MzQ3NyIgY3g9IjEyLjMyMiIvPjxlbGxpcHNlIHN0eWxlPSJtaXgtYmxlbmQtbW9kZTpub3JtYWw7cGFpbnQtb3JkZXI6c3Ryb2tlIG1hcmtlcnMgZmlsbCIgZmlsbD0idXJsKCNqKSIgcnk9Ii4xNzAzIiByeD0iLjE2NzI1IiBjeT0iLjUzNDc3IiBjeD0iMTIuMzIyIi8+PGcgdHJhbnNmb3JtPSJtYXRyaXgoLjMwNzA1IDAgMCAuMzEzODIgLTQuMjYzIC0zLjM3NjcpIiBpZD0ieSI+PHBhdGggc3R5bGU9InBhaW50LW9yZGVyOnN0cm9rZSBmaWxsIG1hcmtlcnMiIHN0cm9rZS13aWR0aD0iLjI2NDU4IiBzdHJva2UtbWl0ZXJsaW1pdD0iMy42IiBmaWxsPSJ1cmwoI2YpIiBkPSJtNTYuMjgzIDIxLjk2djMuNjE3N2gtMy42MzE0di0xLjgwODlsMS44MTU3LTEuODA4OXoiLz48ZWxsaXBzZSBzdHlsZT0icGFpbnQtb3JkZXI6c3Ryb2tlIGZpbGwgbWFya2VycyIgc3Ryb2tlLXdpZHRoPSIuMjY0NTgiIHN0cm9rZS1taXRlcmxpbWl0PSIzLjYiIHN0cm9rZT0idXJsKCNuKSIgZmlsbD0idXJsKCNlKSIgcnk9IjEuMjY2MiIgcng9IjEuMjcxIiBjeT0iMjMuMzU5IiBjeD0iNTQuMDU1Ii8+PGVsbGlwc2Ugc3R5bGU9InBhaW50LW9yZGVyOnN0cm9rZSBtYXJrZXJzIGZpbGwiIHN0cm9rZS13aWR0aD0iLjI2NDU4IiBzdHJva2UtbWl0ZXJsaW1pdD0iMy42IiBzdHJva2U9InVybCgjbSkiIGZpbGw9IiM4NDdjNmEiIHJ5PSIuOTA0NDMiIHJ4PSIuOTA3ODUiIGN5PSIyMy42MjMiIGN4PSI1NC4zMiIvPjwvZz48dXNlIHhsaW5rOmhyZWY9IiN5IiB0cmFuc2Zvcm09InRyYW5zbGF0ZSgwIC0xLjEzNTMpIiBpZD0iZCIvPjx1c2UgeGxpbms6aHJlZj0iI2QiIHRyYW5zZm9ybT0idHJhbnNsYXRlKDAgLTEuMTM1MykiLz48L2c+PC9zdmc+;" parent="1" vertex="1">
          <mxGeometry x="164" y="4" width="32" height="32" as="geometry" />
        </mxCell>
        <mxCell id="fSjbTYhbLkrsspspIT7g-10" value="&lt;b&gt;486 PC&lt;/b&gt;&lt;div&gt;&lt;i&gt;Computer from 90&#39;s&lt;/i&gt;&lt;/div&gt;" style="text;html=1;align=left;verticalAlign=middle;whiteSpace=wrap;rounded=0;fontColor=#FFFFFF;" parent="1" vertex="1">
          <mxGeometry x="200" y="5" width="110" height="30" as="geometry" />
        </mxCell>
        <mxCell id="fSjbTYhbLkrsspspIT7g-11" value="" style="rounded=0;whiteSpace=wrap;html=1;fillColor=#1A1A1A;" parent="1" vertex="1">
          <mxGeometry x="160" y="40" width="160" height="40" as="geometry" />
        </mxCell>
        <mxCell id="fSjbTYhbLkrsspspIT7g-12" value="" style="shape=image;verticalLabelPosition=bottom;labelBackgroundColor=default;verticalAlign=top;aspect=fixed;imageAspect=0;image=data:image/svg+xml,PHN2ZyB4bWxuczp4bGluaz0iaHR0cDovL3d3dy53My5vcmcvMTk5OS94bGluayIgeG1sbnM9Imh0dHA6Ly93d3cudzMub3JnLzIwMDAvc3ZnIiB2aWV3Qm94PSIwIDAgOC40NjY3IDguNDY2NyIgdmVyc2lvbj0iMS4xIiBoZWlnaHQ9IjMyIiB3aWR0aD0iMzIiPjxkZWZzPjxsaW5lYXJHcmFkaWVudCBpZD0iYyI+PHN0b3Agb2Zmc2V0PSIwIiBzdG9wLWNvbG9yPSIjMjkyOTI5Ii8+PHN0b3Agb2Zmc2V0PSIxIiBzdG9wLWNvbG9yPSIjM2QzZDNkIi8+PC9saW5lYXJHcmFkaWVudD48bGluZWFyR3JhZGllbnQgaWQ9ImIiPjxzdG9wIG9mZnNldD0iMCIgc3RvcC1jb2xvcj0iI2MyY2FkYSIvPjxzdG9wIG9mZnNldD0iMSIgc3RvcC1jb2xvcj0iIzllYTA5ZiIvPjwvbGluZWFyR3JhZGllbnQ+PGxpbmVhckdyYWRpZW50IGdyYWRpZW50VW5pdHM9InVzZXJTcGFjZU9uVXNlIiBncmFkaWVudFRyYW5zZm9ybT0ibWF0cml4KC41MzgyMiAwIDAgLjU3NjkxIC0xLjE4NTkgLTQuODg0KSIgeTI9IjY1LjA4OCIgeTE9IjQ5LjQ3NyIgeDI9IjIuNjQ1OCIgeDE9IjIuNjQ1OCIgaWQ9InciPjxzdG9wIG9mZnNldD0iMCIgc3RvcC1jb2xvcj0iI2NmY2NjMyIvPjxzdG9wIG9mZnNldD0iMSIgc3RvcC1jb2xvcj0iI2FiYThhNSIvPjwvbGluZWFyR3JhZGllbnQ+PGxpbmVhckdyYWRpZW50IHhsaW5rOmhyZWY9IiNiIiBncmFkaWVudFVuaXRzPSJ1c2VyU3BhY2VPblVzZSIgZ3JhZGllbnRUcmFuc2Zvcm09Im1hdHJpeCguOTM0OTEgMCAwIC45MzUwOSAtMy41Mjg4IC0yNy41MzgpIiB5Mj0iNTUuOTg5IiB5MT0iNTIuOTcxIiB4Mj0iOC4yNzU2IiB4MT0iNS4yNTczIiBpZD0ibCIvPjxsaW5lYXJHcmFkaWVudCBncmFkaWVudFVuaXRzPSJ1c2VyU3BhY2VPblVzZSIgZ3JhZGllbnRUcmFuc2Zvcm09Im1hdHJpeCguNjk3NzUgMCAwIC43NDU3NiAtMi4wMDczIC0xNy44NDMpIiB5Mj0iNjEuMzgzIiB5MT0iNTEuMzI5IiB4Mj0iMjMuMDE5IiB4MT0iMjMuMDE5IiBpZD0ieCI+PHN0b3Agb2Zmc2V0PSIwIiBzdG9wLWNvbG9yPSIjMWMxYzIxIi8+PHN0b3Agb2Zmc2V0PSIxIiBzdG9wLWNvbG9yPSIjMmYyZTM4Ii8+PC9saW5lYXJHcmFkaWVudD48bGluZWFyR3JhZGllbnQgeGxpbms6aHJlZj0iI2MiIGdyYWRpZW50VW5pdHM9InVzZXJTcGFjZU9uVXNlIiBncmFkaWVudFRyYW5zZm9ybT0ibWF0cml4KC42NjI4IDAgMCAuNjg4NjcgLS4zMzA3NyAtMTQuMjI3KSIgeTI9IjYxLjM4MyIgeTE9IjUxLjMyOSIgeDI9IjQyLjU5OCIgeDE9IjQyLjU5OCIgaWQ9InQiLz48bGluZWFyR3JhZGllbnQgeGxpbms6aHJlZj0iI2MiIGdyYWRpZW50VW5pdHM9InVzZXJTcGFjZU9uVXNlIiBncmFkaWVudFRyYW5zZm9ybT0ibWF0cml4KC42NjI4IDAgMCAuNjg4NjcgLS43ODI4NiAtMTQuMjI3KSIgeTI9IjYxLjM4MyIgeTE9IjUxLjMyOSIgeDI9IjQyLjU5OCIgeDE9IjQyLjU5OCIgaWQ9InMiLz48cmFkaWFsR3JhZGllbnQgZ3JhZGllbnRVbml0cz0idXNlclNwYWNlT25Vc2UiIGdyYWRpZW50VHJhbnNmb3JtPSJtYXRyaXgoLTkuMjI5MmUtNiAxLjkwNjYgLTEuOTE1NSAtOS40NTQ4ZS02IDEyNi42MiAtMjUuNDIpIiByPSIuNTI5MTciIGN5PSI1Ny44NTYiIGN4PSIyNy4yMDgiIGlkPSJpIj48c3RvcCBvZmZzZXQ9IjAiIHN0b3AtY29sb3I9IiNmZmYiLz48c3RvcCBvZmZzZXQ9Ii40OTgwNiIgc3RvcC1jb2xvcj0iI2YwMCIvPjxzdG9wIG9mZnNldD0iMSIgc3RvcC1jb2xvcj0iI2EwMCIvPjwvcmFkaWFsR3JhZGllbnQ+PGxpbmVhckdyYWRpZW50IGdyYWRpZW50VW5pdHM9InVzZXJTcGFjZU9uVXNlIiBncmFkaWVudFRyYW5zZm9ybT0ibWF0cml4KC4zMDA5NiAwIDAgLjMwNzYgLTMuNTg1MSAtNS4yNDYxKSIgeTI9IjM5LjU1NSIgeTE9IjIuNjQ1OCIgeDI9IjcuOTMyNiIgeDE9IjcuOTM3NSIgaWQ9InYiPjxzdG9wIG9mZnNldD0iMCIgc3RvcC1jb2xvcj0iI2Q1ZDJkNCIvPjxzdG9wIG9mZnNldD0iLjA3IiBzdG9wLWNvbG9yPSIjYWJhYWFiIi8+PHN0b3Agb2Zmc2V0PSIuOTMiIHN0b3AtY29sb3I9IiNhMmEyYTIiLz48c3RvcCBvZmZzZXQ9IjEiIHN0b3AtY29sb3I9IiM2ODY4NjgiLz48L2xpbmVhckdyYWRpZW50PjxsaW5lYXJHcmFkaWVudCBncmFkaWVudFVuaXRzPSJ1c2VyU3BhY2VPblVzZSIgZ3JhZGllbnRUcmFuc2Zvcm09Im1hdHJpeCguMzAwOTYgMCAwIC4zMDc2IC0zLjU4NTEgLTUuMjQ2MSkiIHkyPSIzNS45ODMiIHkxPSIzMy40NzgiIHgyPSIxMi43NDciIHgxPSIxMS4xNTkiIGlkPSJ1Ij48c3RvcCBvZmZzZXQ9IjAiIHN0b3AtY29sb3I9IiM1YjU5NTgiLz48c3RvcCBvZmZzZXQ9Ii41IiBzdG9wLWNvbG9yPSIjODQ3ZTdiIi8+PHN0b3Agb2Zmc2V0PSIxIiBzdG9wLWNvbG9yPSIjYzBiZmJlIi8+PC9saW5lYXJHcmFkaWVudD48bGluZWFyR3JhZGllbnQgZ3JhZGllbnRVbml0cz0idXNlclNwYWNlT25Vc2UiIGdyYWRpZW50VHJhbnNmb3JtPSJtYXRyaXgoLjMwMDk2IDAgMCAuMzA3NiAtNC4wNjQxIC01LjI0NjEpIiB5Mj0iMzMuODY3IiB5MT0iNi44NzkyIiB4Mj0iMjUuNCIgeDE9IjEzLjIyOSIgaWQ9InIiPjxzdG9wIG9mZnNldD0iMCIgc3RvcC1jb2xvcj0iIzQxM2YzZiIvPjxzdG9wIG9mZnNldD0iLjUiIHN0b3AtY29sb3I9IiM3MjZjNjkiLz48c3RvcCBvZmZzZXQ9IjEiIHN0b3AtY29sb3I9IiNhN2E1YTQiLz48L2xpbmVhckdyYWRpZW50PjxsaW5lYXJHcmFkaWVudCB4bGluazpocmVmPSIjYiIgZ3JhZGllbnRVbml0cz0idXNlclNwYWNlT25Vc2UiIGdyYWRpZW50VHJhbnNmb3JtPSJtYXRyaXgoMS44ODYyIDAgMCAxLjU4OTIgLTQzLjkzNyAtOC4xNzUzKSIgeTI9IjEzLjY2OCIgeTE9IjkuNzUzNSIgeDI9IjU0Ljk2OCIgeDE9IjUxLjY1NiIgaWQ9ImsiLz48cmFkaWFsR3JhZGllbnQgZ3JhZGllbnRVbml0cz0idXNlclNwYWNlT25Vc2UiIGdyYWRpZW50VHJhbnNmb3JtPSJtYXRyaXgoLTIuMDMwNmUtNiAuNDI5MSAtLjQyMTQzIC0yLjEyNzllLTYgMzYuNjQ4IC0xMS4xOTcpIiByPSIuNTI5MTciIGN5PSI1Ny44NTYiIGN4PSIyNy4yMDgiIGlkPSJqIj48c3RvcCBvZmZzZXQ9IjAiIHN0b3AtY29sb3I9IiNmZmIiLz48c3RvcCBvZmZzZXQ9Ii40OTgwNiIgc3RvcC1jb2xvcj0iI2FmMCIvPjxzdG9wIG9mZnNldD0iMSIgc3RvcC1jb2xvcj0iIzBmMCIvPjwvcmFkaWFsR3JhZGllbnQ+PHJhZGlhbEdyYWRpZW50IGdyYWRpZW50VW5pdHM9InVzZXJTcGFjZU9uVXNlIiBncmFkaWVudFRyYW5zZm9ybT0ibWF0cml4KC43MDIzOCAyLjUxMjVlLTYgLTEuMjE2OWUtNiAuNzE1MTYgLTI1LjU4OSAtMTQuMjI1KSIgcj0iLjc5Mzc1IiBjeT0iMjAuNjM3IiBjeD0iNTMuOTc1IiBpZD0iaCI+PHN0b3Agb2Zmc2V0PSIuMyIgc3RvcC1vcGFjaXR5PSIuMiIgc3RvcC1jb2xvcj0iIzBmMCIvPjxzdG9wIG9mZnNldD0iMSIgc3RvcC1vcGFjaXR5PSIwIiBzdG9wLWNvbG9yPSIjMGYwIi8+PC9yYWRpYWxHcmFkaWVudD48cmFkaWFsR3JhZGllbnQgZ3JhZGllbnRVbml0cz0idXNlclNwYWNlT25Vc2UiIGdyYWRpZW50VHJhbnNmb3JtPSJtYXRyaXgoMS4wNzA1IDEuMDcwNSAtLjU3NjQzIC41NzY0MyA5LjY0OTYgLTQ3Ljk1MykiIHI9IjEuNjA2NSIgY3k9IjIzLjM0MyIgY3g9IjUzLjk3NSIgaWQ9ImYiPjxzdG9wIG9mZnNldD0iMCIgc3RvcC1vcGFjaXR5PSIuNSIvPjxzdG9wIG9mZnNldD0iMSIgc3RvcC1vcGFjaXR5PSIwIi8+PC9yYWRpYWxHcmFkaWVudD48cmFkaWFsR3JhZGllbnQgZ3JhZGllbnRVbml0cz0idXNlclNwYWNlT25Vc2UiIGdyYWRpZW50VHJhbnNmb3JtPSJtYXRyaXgoLS41IC42IC0uOTgzOCAtLjgxOTg0IDEwMy4yMiA4Ljc0NDIpIiByPSIxLjMyMjkiIGN5PSIyMy4wNjMiIGN4PSI1NC41NDgiIGlkPSJlIj48c3RvcCBvZmZzZXQ9IjAiIHN0b3AtY29sb3I9IiNkNmNiYWUiLz48c3RvcCBvZmZzZXQ9IjEiIHN0b3AtY29sb3I9IiM5ZDk3ODYiLz48L3JhZGlhbEdyYWRpZW50PjxsaW5lYXJHcmFkaWVudCBncmFkaWVudFVuaXRzPSJ1c2VyU3BhY2VPblVzZSIgZ3JhZGllbnRUcmFuc2Zvcm09InRyYW5zbGF0ZSguMDgwMzYzIC4wNzU1ODQpIiB5Mj0iMjQuNjA2IiB5MT0iMjEuOTYiIHgyPSI1NS4yOTgiIHgxPSI1Mi42NTIiIGlkPSJuIj48c3RvcCBvZmZzZXQ9IjAiIHN0b3AtY29sb3I9IiNiYWIyOGQiLz48c3RvcCBvZmZzZXQ9Ii40OTgzMiIgc3RvcC1vcGFjaXR5PSIwIiBzdG9wLWNvbG9yPSIjYjhiMzg5Ii8+PC9saW5lYXJHcmFkaWVudD48bGluZWFyR3JhZGllbnQgZ3JhZGllbnRVbml0cz0idXNlclNwYWNlT25Vc2UiIGdyYWRpZW50VHJhbnNmb3JtPSJ0cmFuc2xhdGUoLjA4MDM2MyAuMDc1NTg0KSIgeTI9IjI0LjM0MiIgeTE9IjIyLjc1NCIgeDI9IjU1LjAzMyIgeDE9IjUzLjQ0NiIgaWQ9Im0iPjxzdG9wIG9mZnNldD0iMCIgc3RvcC1jb2xvcj0iIzlkOTc4NiIvPjxzdG9wIG9mZnNldD0iMSIgc3RvcC1jb2xvcj0iIzc3NzA1ZiIvPjwvbGluZWFyR3JhZGllbnQ+PGxpbmVhckdyYWRpZW50IGdyYWRpZW50VW5pdHM9InVzZXJTcGFjZU9uVXNlIiBncmFkaWVudFRyYW5zZm9ybT0ibWF0cml4KC4zMTcyNSAwIDAgLjMwNzYgLTQuMTM2NiAtNS4yNDYxKSIgeTI9IjM1LjA1NyIgeTE9IjYuMjE3NyIgeDI9IjU1Ljk1OSIgeDE9IjExLjc3NCIgaWQ9InAiPjxzdG9wIG9mZnNldD0iMCIgc3RvcC1jb2xvcj0iIzc0NzA2ZCIvPjxzdG9wIG9mZnNldD0iMSIgc3RvcC1jb2xvcj0iIzdlN2E3NyIvPjwvbGluZWFyR3JhZGllbnQ+PHJhZGlhbEdyYWRpZW50IGdyYWRpZW50VW5pdHM9InVzZXJTcGFjZU9uVXNlIiBncmFkaWVudFRyYW5zZm9ybT0ibWF0cml4KC4zNTMwMSAtLjEzODc3IC4wNTU1MjQgLjE0NzU1IC01LjYxNDQgLS4xODExNykiIHI9IjE3LjU5NSIgY3k9IjEwLjA2NSIgY3g9IjE5LjA1IiBpZD0iZyI+PHN0b3Agb2Zmc2V0PSIwIiBzdG9wLW9wYWNpdHk9Ii4yIiBzdG9wLWNvbG9yPSIjZmZmIi8+PHN0b3Agb2Zmc2V0PSIxIiBzdG9wLW9wYWNpdHk9IjAiIHN0b3AtY29sb3I9IiNmZmYiLz48L3JhZGlhbEdyYWRpZW50PjxsaW5lYXJHcmFkaWVudCBncmFkaWVudFVuaXRzPSJ1c2VyU3BhY2VPblVzZSIgZ3JhZGllbnRUcmFuc2Zvcm09Im1hdHJpeCgxIDAgMCAxIC0uMzgwOTYgLTcuOTU1NmUtNykiIHkyPSIyNS45NSIgeTE9IjIxLjQxIiB4Mj0iMTguNzIiIHgxPSIxOC43MiIgaWQ9InEiPjxzdG9wIG9mZnNldD0iMCIgc3RvcC1jb2xvcj0iIzI5MjkyOSIvPjxzdG9wIG9mZnNldD0iLjMzMTI2IiBzdG9wLWNvbG9yPSIjMmIyYjJiIi8+PHN0b3Agb2Zmc2V0PSIuNTIwMzEiIHN0b3AtY29sb3I9IiM0NzQ3NDciLz48c3RvcCBvZmZzZXQ9IjEiIHN0b3AtY29sb3I9IiMzZTNlM2UiLz48L2xpbmVhckdyYWRpZW50PjxsaW5lYXJHcmFkaWVudCBncmFkaWVudFVuaXRzPSJ1c2VyU3BhY2VPblVzZSIgeTI9IjI4LjIyIiB5MT0iMjUuOTUiIHgyPSIxNS4yOTgiIHgxPSIxNS4yOTgiIGlkPSJvIj48c3RvcCBvZmZzZXQ9IjAiLz48c3RvcCBvZmZzZXQ9IjEiIHN0b3Atb3BhY2l0eT0iMCIvPjwvbGluZWFyR3JhZGllbnQ+PC9kZWZzPjxnIHN0eWxlPSJtaXgtYmxlbmQtbW9kZTpub3JtYWwiIHRyYW5zZm9ybT0ibWF0cml4KC4yMjAzNCAwIDAgLjIyMDM0IC40Nzk4MyAuNzM5ODIpIj48cGF0aCBzdHlsZT0ibWl4LWJsZW5kLW1vZGU6bm9ybWFsIiBzdHJva2Utd2lkdGg9Ii4xNDY5IiBzdHJva2UtbGluZWpvaW49InJvdW5kIiBzdHJva2UtbGluZWNhcD0icm91bmQiIGZpbGw9IiNlZGYxZWEiIGQ9Im0xLjIyMTIgMjIuNzU5aDMxLjYyN2MwLjU1MjQ4IDAgMC45OTcyNSAwLjQ3Mjg4IDAuOTk3MjUgMS4wNjAzdjAuNzQwOWgtMzMuNjIybDFlLTcgLTAuNzQwOWMwLTAuNTg3MzkgMC40NDQ3Ny0xLjA2MDMgMC45OTcyNS0xLjA2MDN6Ii8+PHBhdGggZmlsbD0idXJsKCN3KSIgZD0ibTEuMDY0MSAyMy42NmgzMS45MjdjMC40MjcyMSAwIDAuODM5NDMgMC41MTg5OCAwLjg0MDE5IDAuOTAwNThsMC4wMTQyNiA3LjE4OTRjOS43OWUtNCAwLjUwNzM4LTAuMzgxMSAwLjkxNTg0LTAuODU0NDUgMC45MTU4NGgtMzEuOTI3Yy0wLjQ3MzM1IDAtMC44NDAxOC0wLjM5MzItMC44NDAxOC0wLjkwMDU4di03LjIwNDZjMC0wLjM4MTYgMC40MTI5Ny0wLjkwMDU4IDAuODQwMTgtMC45MDA1OHoiLz48ZyBzdHlsZT0ibWl4LWJsZW5kLW1vZGU6bm9ybWFsIiBzdHJva2Utd2lkdGg9Ii45NTM5NCIgdHJhbnNmb3JtPSJtYXRyaXgoLjg1MTA3IDAgMCAuODUwOTcgLjI0NDg3IDUuNTQ0KSI+PHJlY3Qgc3R5bGU9Im1peC1ibGVuZC1tb2RlOm5vcm1hbDtwYWludC1vcmRlcjptYXJrZXJzIHN0cm9rZSBmaWxsIiBzdHJva2Utd2lkdGg9Ii4zNTI3NSIgc3Ryb2tlLW9wYWNpdHk9Ii41IiBzdHJva2UtbGluZWpvaW49InJvdW5kIiBzdHJva2UtbGluZWNhcD0icm91bmQiIHN0cm9rZT0iIzAwMCIgZmlsbD0idXJsKCNsKSIgcnk9IjYuODY3ZS0xOCIgcng9IjYuODY1N2UtMTgiIGhlaWdodD0iMi40Njk0IiB3aWR0aD0iMi40NjkxIiB5PSIyMy40MDUiIHg9IjEuNTYyNiIvPjwvZz48ZyBzdHlsZT0ibWl4LWJsZW5kLW1vZGU6bm9ybWFsIiB0cmFuc2Zvcm09Im1hdHJpeCguNzY5MjUgMCAwIC43NjkyNSAuNjEwNTIgOS43NTQzKSI+PHBhdGggc3R5bGU9InBhaW50LW9yZGVyOm1hcmtlcnMgc3Ryb2tlIGZpbGwiIHN0cm9rZS13aWR0aD0iLjc4MDQ4IiBzdHJva2Utb3BhY2l0eT0iLjUzMzMzIiBzdHJva2UtbGluZWpvaW49InJvdW5kIiBzdHJva2UtbGluZWNhcD0icm91bmQiIHN0cm9rZT0iIzAwMCIgZmlsbD0ibm9uZSIgZD0ibTEuNDQ4NiAyNS40OTF2Mi4zNDE0IiBpZD0iYSIvPjx1c2UgeGxpbms6aHJlZj0iI2EiIHRyYW5zZm9ybT0idHJhbnNsYXRlKDEuNTYxKSIvPjx1c2UgeGxpbms6aHJlZj0iI2EiIHRyYW5zZm9ybT0idHJhbnNsYXRlKDMuMTIxOSkiLz48dXNlIHhsaW5rOmhyZWY9IiNhIiB0cmFuc2Zvcm09InRyYW5zbGF0ZSg2LjI0MzkpIi8+PHVzZSB4bGluazpocmVmPSIjYSIgdHJhbnNmb3JtPSJ0cmFuc2xhdGUoNC42ODI5KSIvPjx1c2UgeGxpbms6aHJlZj0iI2EiIHRyYW5zZm9ybT0idHJhbnNsYXRlKDcuODA0OCkiLz48L2c+PGcgdHJhbnNmb3JtPSJtYXRyaXgoLjc5MTMyIDAgMCAuNzc1ODEgLjA5MDI3NCA5LjM3ODkpIj48cmVjdCBzdHlsZT0ibWl4LWJsZW5kLW1vZGU6bm9ybWFsO3BhaW50LW9yZGVyOm1hcmtlcnMgc3Ryb2tlIGZpbGwiIHN0cm9rZS13aWR0aD0iLjE5MDg2IiBzdHJva2Utb3BhY2l0eT0iLjUiIHN0cm9rZS1saW5lam9pbj0icm91bmQiIHN0cm9rZS1saW5lY2FwPSJyb3VuZCIgZmlsbD0idXJsKCN4KSIgcnk9IjEuMDYxOCIgcng9IjEuMDYxOCIgaGVpZ2h0PSI5LjI4NjYiIHdpZHRoPSIyOC44MzEiIHk9IjE5LjE4MiIgeD0iMTIuMzA4Ii8+PGcgc3R5bGU9Im1peC1ibGVuZC1tb2RlOm5vcm1hbCIgdHJhbnNmb3JtPSJtYXRyaXgoLjk5ODA0IDAgMCAxLjAyMjcgLjA3NTA3NiAtMS4xNjY2KSI+PHJlY3Qgc3R5bGU9Im1peC1ibGVuZC1tb2RlOm5vcm1hbDtwYWludC1vcmRlcjptYXJrZXJzIHN0cm9rZSBmaWxsIiBmaWxsLW9wYWNpdHk9Ii41MDIxNiIgZmlsbD0idXJsKCNzKSIgaGVpZ2h0PSI5LjA4MDMiIHdpZHRoPSIxMi4xNjMiIHk9IjE5Ljg5NiIgeD0iMTMuNzc4Ii8+PHBhdGggc3R5bGU9Im1peC1ibGVuZC1tb2RlOm5vcm1hbDtwYWludC1vcmRlcjpzdHJva2UgbWFya2VycyBmaWxsIiBzdHJva2Utd2lkdGg9Ii4zOTEwMiIgc3Ryb2tlLW9wYWNpdHk9Ii43NSIgc3Ryb2tlLWxpbmVjYXA9InJvdW5kIiBmaWxsPSJ1cmwoI28pIiBkPSJtMTMuNzc4IDIzLjY4aDQuMTgxMXYtMi42NDg0aDMuODAxdjIuNjQ4NGg0LjE4MTF2MC43NTY2OWgtNC4xODExdjMuNzgzNGgtMy44MDF2LTMuNzgzNGgtNC4xODExeiIvPjxlbGxpcHNlIHN0eWxlPSJwYWludC1vcmRlcjpzdHJva2UgbWFya2VycyBmaWxsIiBmaWxsPSJ1cmwoI2kpIiByeT0iLjc1NjY5IiByeD0iLjc2MDIiIGN5PSIyNi43MDYiIGN4PSIxNi4wNTgiLz48cmVjdCBzdHlsZT0icGFpbnQtb3JkZXI6c3Ryb2tlIGZpbGwgbWFya2VycyIgZmlsbD0idXJsKCNxKSIgaGVpZ2h0PSI0LjU0MDEiIHdpZHRoPSIzLjA0MDgiIHk9IjIxLjQxIiB4PSIxOC4zMzkiLz48cmVjdCBzdHlsZT0icGFpbnQtb3JkZXI6c3Ryb2tlIGZpbGwgbWFya2VycyIgZmlsbD0iIzhiOGI4YiIgaGVpZ2h0PSIuNzU2NjkiIHdpZHRoPSI0LjE4MTEiIHk9IjI0LjQzNiIgeD0iMTMuNzc4Ii8+PHJlY3Qgc3R5bGU9InBhaW50LW9yZGVyOnN0cm9rZSBmaWxsIG1hcmtlcnMiIGZpbGw9IiM4YjhiOGIiIGhlaWdodD0iLjc1NjY5IiB3aWR0aD0iNC4xODExIiB5PSIyNC40MzYiIHg9IjIxLjc2Ii8+PC9nPjxnIHN0eWxlPSJtaXgtYmxlbmQtbW9kZTpub3JtYWwiIHRyYW5zZm9ybT0ibWF0cml4KC45OTgwNCAwIDAgMS4wMjI3IC4wOTA2MDYgLTEuMTY2NikiPjxyZWN0IHN0eWxlPSJtaXgtYmxlbmQtbW9kZTpub3JtYWw7cGFpbnQtb3JkZXI6bWFya2VycyBzdHJva2UgZmlsbCIgZmlsbC1vcGFjaXR5PSIuNTAyMTYiIGZpbGw9InVybCgjdCkiIGhlaWdodD0iOS4wODAzIiB3aWR0aD0iMTIuMTYzIiB5PSIxOS44OTYiIHg9IjI3LjQ0NiIvPjxyZWN0IHN0eWxlPSJtaXgtYmxlbmQtbW9kZTpub3JtYWw7cGFpbnQtb3JkZXI6c3Ryb2tlIG1hcmtlcnMgZmlsbCIgZmlsbD0iIzI1MjUyNSIgaGVpZ2h0PSIxLjUxMzQiIHdpZHRoPSI5LjEyMDMiIHk9IjI1Ljk1IiB4PSIyOC45NjYiLz48cmVjdCBzdHlsZT0ibWl4LWJsZW5kLW1vZGU6bm9ybWFsO3BhaW50LW9yZGVyOnN0cm9rZSBtYXJrZXJzIGZpbGwiIGZpbGw9IiNjMDAiIHJ5PSIwIiBoZWlnaHQ9IjEuNTEzNCIgd2lkdGg9IjEuNTIwNCIgeT0iMjUuOTUiIHg9IjMwLjQ4NiIvPjwvZz48L2c+PC9nPjxnIHRyYW5zZm9ybT0ibWF0cml4KC40NzQ1OCAwIDAgLjQ2NjA5IDEuMDk3NSAyLjU5NSkiPjxwYXRoIHN0eWxlPSJwYWludC1vcmRlcjpub3JtYWwiIGZpbGw9InVybCgjdikiIGQ9Im0tMC40Nzk0OS00LjMxMDJjMi4zNjE1LTAuMDc2MjE4IDQuNzI0NC0wLjEyMjA4IDcuMDg3MS0wLjEyMjA4IDIuMzYyNyAwIDQuNzI1NSAwLjA0NTg2MSA3LjA4NzEgMC4xMjIwOCAwLjMzNzkgMC4wMTA5MDYgMC42MTEzIDAuMDIyODAzIDAuNjM3MDQgMC42MTAzOSAwLjA3MjQ0IDEuNjUzNCAwLjA4NjI3IDMuMzA5NSAwLjA3OTYzIDQuOTY0NS0wLjAwNjYgMS42NTUzLTAuMDM0OTUgMy4zMTE0LTAuMTE5NDQgNC45NjQ1LTAuMDE3OCAwLjMxMDQyLTAuMTE2NTEgMC41NTg5Ny0wLjQzNzk2IDAuNTY5Ny0yLjQxNDkgMC4wNjUyOTktNC44MzA2IDAuMTIyMDgtNy4yNDYzIDAuMTIyMDgtMi40MTU4IDAtNC44MzE0LTAuMDU2Nzg3LTcuMjQ2My0wLjEyMjA4LTAuMzI5NTEgMC4wMjAzNjEtMC40MTA2Ny0wLjI4NTkzLTAuNDM3OTYtMC41Njk3LTAuMDg0NDkyLTEuNjUzMS0wLjExMjgxLTMuMzA5Mi0wLjExOTQ0LTQuOTY0NS0wLjAwNjY0LTEuNjU1IDAuMDA3MTktMy4zMTExIDAuMDc5NjMtNC45NjQ1IDAuMDI1NzQzLTAuNTg3NTkgMC4yOTkxNS0wLjU5OTQ4IDAuNjM3MDQtMC42MTAzOXoiLz48cmVjdCBzdHlsZT0ibWl4LWJsZW5kLW1vZGU6bm9ybWFsIiBmaWxsLW9wYWNpdHk9Ii43NSIgZmlsbD0idXJsKCNwKSIgcnk9IjIuMjc5OGUtMTgiIHJ4PSIyLjMxNTllLTE4IiBoZWlnaHQ9IjguODcxIiB3aWR0aD0iMTQuMDE4IiB5PSItMy4zMzM2IiB4PSItLjQwMTI5Ii8+PHBhdGggZmlsbD0idXJsKCN1KSIgZD0ibTYuNjA3Ni0zLjYxODRjLTIuMDgzNiAwLTQuNTY2NiAwLjAzOTAyMi02LjY0OTIgMC4xMDI4NC0wLjMxMjEgMC4wMDk1Ni0wLjUwNzIxIDAuMDI3NTgyLTAuNTI4MDEgMC40Nzg0Ni0wLjA2Mzg1NCAxLjM4MzktMC4wNzYzMDcgMi43NzAxLTAuMDcwNDUzIDQuMTU1OSAwLjAwNTg1IDEuMzg2IDAuMDMwODA3IDIuNzcyNCAwLjEwNTI5IDQuMTU2IDAuMDIyNTQ2IDAuMzczMjUgMC4xOTMxNSAwLjQzOTcxIDAuMzUyNDIgMC40NDQ3NiAyLjEyOTkgMC4wNTQ2OCA0LjY1OTYgMC4xMDI2OCA2Ljc4OTggMC4xMDI2OWgyLjk3N2UtNGMyLjEzMDItNC40ZS02IDQuNjU5OC0wLjA0ODAxMSA2Ljc4OTctMC4xMDI2OSAwLjE1OTI5LTAuMDA0OTQgMC4zMzAwNC0wLjA3MTUxOCAwLjM1MjU4LTAuNDQ0NzYgMC4wNzQ0OC0xLjM4MzcgMC4wOTk0NC0yLjc3IDAuMTA1MjktNC4xNTYgMC4wMDU4LTEuMzg1OC0wLjAwNjYtMi43NzItMC4wNzA0Ni00LjE1NTktMC4wMjA3OS0wLjQ1MDg3LTAuMjE1OS0wLjQ2ODg5LTAuNTI4LTAuNDc4NDYtMi4wODI3LTAuMDYzODIzLTQuNTY1Ny0wLjEwMjg0LTYuNjQ5Mi0wLjEwMjg0em0wIDAuMzI1NTRjMi4wMTA5IDAgNC40MjEzIDAuMDM2MjcgNi40MzEzIDAuMDk1NjkyIDAuMzAxMjIgMC4wMDg5IDAuNDg5MjcgMC4wMjU2MTMgMC41MDkzNSAwLjQ0NTM5IDAuMDYxNjMgMS4yODg0IDAuMDczNzggMi41NzkyIDAuMDY4MTIgMy44Njk1LTAuMDA1NyAxLjI5MDQtMC4wMjk2NyAyLjU4MTItMC4xMDE1NiAzLjg2OTUtMC4wMjE3NSAwLjM0NzUtMC4xODY1NiAwLjQwOTM5LTAuMzQwMjkgMC40MTQwOC0yLjA1NTYgMC4wNTA5MTQtNC41MTA5IDAuMDk1NTI5LTYuNTY2OCAwLjA5NTUzM2gtMi45NjhlLTRjLTIuMDU1OS0zLjdlLTYgLTQuNTExMi0wLjA0NDYyMy02LjU2NjgtMC4wOTU1MzMtMC4xNTM3Mi0wLjAwNDY5LTAuMzE4NTQtMC4wNjY1NjYtMC4zNDAyOS0wLjQxNDA4LTAuMDcxODg2LTEuMjg4Mi0wLjA5NTkxMy0yLjU3OS0wLjEwMTU2LTMuODY5NS0wLjAwNTY0LTEuMjkwMiAwLjAwNjQ5LTIuNTgxIDAuMDY4MTItMy44Njk1IDAuMDIwMDc3LTAuNDE5NzggMC4yMDgxMy0wLjQzNjQ5IDAuNTA5MzUtMC40NDUzOSAyLjAxLTAuMDU5NDIyIDQuNDIwNS0wLjA5NTY5MiA2LjQzMTMtMC4wOTU2OTJ6Ii8+PHJlY3Qgcnk9IjIuMjU4OWUtMTgiIHJ4PSIyLjIxMDJlLTE4IiBoZWlnaHQ9IjguMTY5OCIgd2lkdGg9IjEwLjczOSIgeT0iLTMuMDY0NCIgeD0iLjExNjQ2Ii8+PGcgc3Ryb2tlLXdpZHRoPSIuMTQwNjQiIHN0cm9rZS1vcGFjaXR5PSIuMjUiIHN0cm9rZS1taXRlcmxpbWl0PSIzLjMiIHN0cm9rZS1saW5lam9pbj0icm91bmQiIHN0cm9rZS1saW5lY2FwPSJyb3VuZCIgZmlsbD0iIzgwZmZkZiI+PHBhdGggc3R5bGU9InBhaW50LW9yZGVyOnN0cm9rZSBmaWxsIG1hcmtlcnMiIGQ9Im0xLjU4OTktMS41OTRoMC41NTc1MXYxLjk4NjhsMC4yNzg3NiAwLjI4MzgzaDAuNTU3NTFsMC4yNzg3Ni0wLjI4Mzgzdi0xLjk4NjhoMC41NTc1MXY1LjEwOWgtMC41NTc1MXYtMS45ODY4bC0wLjI3ODc2LTAuMjgzODNoLTEuMTE1bC0wLjI3ODc2LTAuMjgzODN6Ii8+PHBhdGggc3R5bGU9InBhaW50LW9yZGVyOnN0cm9rZSBmaWxsIG1hcmtlcnMiIGQ9Im00LjkzNS0xLjU5NC0wLjU1NzUxIDAuNTY3NjYgMmUtNyAxLjQxOTIgMC41NTc1MSAwLjU2NzY2LTAuNTU3NTEgMC41Njc2Ni0yZS03IDEuNDE5MiAwLjU1NzUxIDAuNTY3NjZoMS4xMTVsMC41NTc1MS0wLjU2NzY2IDJlLTcgLTEuNDE5Mi0wLjU1NzUxLTAuNTY3NjYgMC41NTc1MS0wLjU2NzY2LTJlLTcgLTEuNDE5Mi0wLjU1NzUxLTAuNTY3NjZ6bTAuMjc4NzYgMC41Njc2NmgwLjU1NzUxbDAuMjc4NzYgMC4yODM4MyAyZS03IDAuODUxNDktMC4yNzg3NiAwLjI4MzgzaC0wLjU1NzUxbC0wLjI3ODc2LTAuMjgzODMtMmUtNyAtMC44NTE0OXptMCAyLjU1NDVoMC41NTc1MWwwLjI3ODc2IDAuMjgzODMtMmUtNyAwLjg1MTQ5LTAuMjc4NzYgMC4yODM4M2gtMC41NTc1MWwtMC4yNzg3Ni0wLjI4MzgzIDJlLTcgLTAuODUxNDl6Ii8+PHBhdGggc3R5bGU9InBhaW50LW9yZGVyOnN0cm9rZSBmaWxsIG1hcmtlcnMiIGQ9Im03LjcyMjYtMS41OTQtMC41NTc1MSAwLjU2NzY2djMuOTczNmwwLjU1NzUxIDAuNTY3NjZoMS4xMTVsMC41NTc1MS0wLjU2NzY2di0xLjcwM2wtMC41NTc1MS0wLjU2NzY2aC0wLjgzNjI3bC0wLjI3ODc2IDAuMjgzODN2LTEuNzAzbDAuMjc4NzYtMC4yODM4M2gwLjU1NzUxbDAuMjc4NzYgMC4yODM4M3YwLjI4MzgzaDAuNTU3NTF2LTAuNTY3NjZsLTAuNTU3NTEtMC41Njc2NnptMC4yNzg3NiAyLjgzODNoMC41NTc1MWwwLjI3ODc2IDAuMjgzODMtM2UtNyAxLjEzNTMtMC4yNzg3NiAwLjI4MzgzaC0wLjU1NzUxbC0wLjI3ODc2LTAuMjgzODMgM2UtNyAtMS4xMzUzeiIvPjwvZz48cmVjdCBmaWxsPSJ1cmwoI2cpIiByeT0iMi4yNTg5ZS0xOCIgcng9IjIuMjEwMmUtMTgiIGhlaWdodD0iOC4wNTcxIiB3aWR0aD0iMTAuNTkxIiB5PSItMy4wMDgiIHg9Ii4xMTY0NiIvPjxwYXRoIHN0eWxlPSJwYWludC1vcmRlcjpmaWxsIG1hcmtlcnMgc3Ryb2tlIiBzdHJva2Utd2lkdGg9Ii4wODA1MDMiIHN0cm9rZS1vcGFjaXR5PSIuNSIgc3Ryb2tlLW1pdGVybGltaXQ9IjMuNiIgZmlsbD0idXJsKCNyKSIgZD0ibTAuMDc2NjQ3LTMuMTMwMWMtMC4wODgyMyAwLTAuMTU5MjYgMC4wNzI1OTctMC4xNTkyNiAwLjE2Mjc3djcuOTc1N2MwIDAuMDkwMTc0IDAuMDcxMDMgMC4xNjI3NyAwLjE1OTI2IDAuMTYyNzcgMCAwIDMuNTU2OCAwLjA4MTM4NCA1LjMzNTIgMC4wODEzODQgMS43Nzg0IDAgNS40OTY2LTAuMDgxMzg0IDUuNDk2Ni0wLjA4MTM4NCAwLjA4ODIzIDAgMC4xNTkyNi0wLjA3MjU5NCAwLjE1OTI2LTAuMTYyNzd2LTcuOTc1N2MwLTAuMDkwMTc1LTAuMDcxMDMtMC4xNjI3Ny0wLjE1OTI2LTAuMTYyNzd6bTUuMzM1MiAwLjE2Mjc3YzEuNjczMSAyZS03IDMuNTA2MiAwLjA5NjU0NCA1LjE3ODEgMC4xNjI3NyAwLjEwMjU2IDAuMDA0MDYgMC4xNTU1MyAwLjA0NDYyMiAwLjE1OTI2IDAuMTYyNzcgMC4xNDU4OSAyLjQxNzEgMC4xMzczNyA0LjkxMSAwIDcuMzI0Ny0wLjAwNDYgMC4wODEzNzQtMC4wNzk2MyAwLjE1Ny0wLjE1OTI2IDAuMTYyNzctMS42NDUgMC4xMTkxNC0zLjUyOSAwLjE2Mjc3LTUuMTc4MSAwLjE2Mjc3LTEuNjIyNiAwLTMuMzE4Ni0wLjA0MzcxNC00LjkzNzEtMC4xNjI3Ny0wLjA3OTYzLTAuMDA1ODUtMC4xNDkwMy0wLjA4MTgwOC0wLjE1OTI2LTAuMTYyNzctMC4zMDQwOC0yLjQwNy0wLjE1NjE2LTQuOTA3LTAuMDc5NjMtNy4zMjQ3IDAuMDAzNzUtMC4xMTgxMyAwLjA1NjY4Mi0wLjE1ODcxIDAuMTU5MjYtMC4xNjI3NyAxLjY3MTgtMC4wNjYyMjggMy4zNDQ1LTAuMTYyNzcgNS4wMTY3LTAuMTYyNzd6Ii8+PGcgc3R5bGU9Im1peC1ibGVuZC1tb2RlOm5vcm1hbCIgc3Ryb2tlLXdpZHRoPSIxLjIiIHRyYW5zZm9ybT0ibWF0cml4KC4yNjc4MyAwIDAgLjI3Mzc0IC0yLjcwMzEgLTQuNzM0NSkiPjxyZWN0IHN0eWxlPSJtaXgtYmxlbmQtbW9kZTpub3JtYWw7cGFpbnQtb3JkZXI6bWFya2VycyBzdHJva2UgZmlsbCIgZmlsbD0idXJsKCNrKSIgcnk9IjEuMTY3MWUtMTciIHJ4PSIxLjM4NTJlLTE3IiBoZWlnaHQ9IjYuMjIxMiIgd2lkdGg9IjYuMjQ0NyIgeT0iNy4zMjUyIiB4PSI1My40OTciLz48cGF0aCBhcmlhLWxhYmVsPSJIQUwiIHN0eWxlPSJtaXgtYmxlbmQtbW9kZTpub3JtYWw7cGFpbnQtb3JkZXI6bWFya2VycyBzdHJva2UgZmlsbCIgc3Ryb2tlLXdpZHRoPSIuNTA0NTYiIHN0cm9rZS1vcGFjaXR5PSIuNSIgc3Ryb2tlLWxpbmVqb2luPSJyb3VuZCIgc3Ryb2tlLWxpbmVjYXA9InJvdW5kIiBkPSJtNTUuODc3IDguNDgzOGgtMC41ODM1OHYtMC4xMjE3NGgwLjU4MzU4em0wIDAuMjM2MmgtMC41ODM1OHYtMC4xMjE3NGgwLjU4MzU4em0tMC4yMDY4OSAwLjIxNjcyaC0wLjM3NjY5di0wLjEwNDdoMC4zNzY2OXptLTAuNTcxODctMC40NTI5MWgtMC41NjAxNnYtMC4xMjE3NGgwLjU2MDE2em0wLjU3MTg3IDAuNjY5NjNoLTAuOTQ0NjZ2LTAuMTA3MTRoMC45NDQ2NnptLTAuNTcxODctMC40MzM0M2gtMC41NjAxNnYtMC4xMjE3NGgwLjU2MDE2em0wLjU3MTg3IDAuODg2MzRoLTAuMzc2Njl2LTAuMTM2MzZoMC4zNzY2OXptLTAuNTcxODctMC42Njk2M2gtMC4zNzI3OXYtMC4xMDQ3aDAuMzcyNzl6bTAuNzc4NzYgMC45MDgyNmgtMC41ODM1OHYtMC4xMjE3NmgwLjU4MzU4em0tMC4yMDY4OS0wLjQ4MjEzaC0wLjk0NDY2di0wLjExMmgwLjk0NDY2em0wLjIwNjg5IDAuNzE4MzNoLTAuNTgzNTh2LTAuMTE5MzJoMC41ODM1OHptLTAuNzc4NzYtMC40NzQ4M2gtMC4zNzI3OXYtMC4xMzYzNmgwLjM3Mjc5em0wIDAuMjM4NjNoLTAuNTYwMTZ2LTAuMTIxNzZoMC41NjAxNnptMCAwLjIzNjE5aC0wLjU2MDE2di0wLjExOTMyaDAuNTYwMTZ6bTEuOTYyNC0xLjU5NzRoLTAuNjMyMzhsMC4wMTU1Ny0wLjEyMTc0aDAuNTk5MnptMC4wNjYzNyAwLjQ2MDIyaC0wLjM0MzUxbC0wLjAxNTU2LTAuMTEyaDAuMzQxNTV6bS0wLjAzMzE5LTAuMjI0MDJoLTAuMzQxNTZsLTAuMDA5OC0wLjA3NTUwNC0wLjAwOTggMC4wNzU1MDRoLTAuMzM3NjZsMC4wMTU1Ni0wLjEyMTc0aDAuNjY1NTZ6bTAuMDY0NDIgMC40NDU2MWgtMC4zNDM1MWwtMC4wMTU1OC0wLjExMmgwLjM0MTU2em0tMC40NDExLTAuMzMzNi0wLjAxNzU3IDAuMTEyaC0wLjMzNTdsMC4wMTU1Ny0wLjExMnptMC43MTA0NSAxLjAxM2gtMC41NDg0NmwtMC4wMTM2OC0wLjEyMTc2aDAuNTYyMTF6bS0wLjIzODEyLTAuNDU3NzhoLTAuODg4MDZsMC4wMTU1Ny0wLjEwOTU4aDAuODU2ODN6bS0wLjUwMzU2LTAuMzMzNi0wLjAxNzU3IDAuMTEyaC0wLjMzNTdsMC4wMTU1Ni0wLjExMnptMC43NDE2OCAxLjAyNzZoLTAuNTIxMTJsLTAuMDEzNjgtMC4xMTkzMmgwLjUzNDc4em0tMC4yMDY4OS0wLjQ3NDgzaC0wLjk0ODU2bDAuMDE1NTctMC4xMTE5OWgwLjkxNzM0em0tMC42MDExNSAwLjExNjg4LTAuMDEzNjggMC4xMjE3NmgtMC41NTA0MXYtMC4xMjE3NnptLTAuMDI3MzMgMC4yMzg2My0wLjAxMzY4IDAuMTE5MzJoLTAuNTIzMDh2LTAuMTE5MzJ6bTEuNzc2OS0xLjQ3ODFoLTAuNzQ1NTh2LTAuMTIxNzRoMC43NDU1OHptMCAwLjIzNjJoLTAuNzQ1NTh2LTAuMTIxNzRoMC43NDU1OHptMC4zMzM3NiAwLjg4NjM0aC0wLjM1MTMydi0wLjEzNjM2aDAuMzUxMzJ6bS0wLjUxOTE4LTAuNjY5NjJoLTAuMzc0NzR2LTAuMTA0N2gwLjM3NDc0em0wIDAuMjE2NzJoLTAuMzc0NzR2LTAuMTA3MTRoMC4zNzQ3NHptMCAwLjIwOTQxaC0wLjM3NDc0di0wLjExMmgwLjM3NDc0em0wIDAuMjQzNWgtMC4zNzQ3NHYtMC4xMzYzNmgwLjM3NDc0em0wLjUxOTE3IDAuMjM4NjNoLTEuMDc5M3YtMC4xMjE3NmgxLjA3OTN6bTAgMC4yMzYxOWgtMS4wNzkzdi0wLjExOTMyaDEuMDc5M3oiLz48cGF0aCBzdHlsZT0ibWl4LWJsZW5kLW1vZGU6bm9ybWFsO3BhaW50LW9yZGVyOmZpbGwgbWFya2VycyBzdHJva2UiIHN0cm9rZS13aWR0aD0iLjQ4MzE2IiBzdHJva2Utb3BhY2l0eT0iLjUiIHN0cm9rZS1taXRlcmxpbWl0PSIzLjYiIGQ9Im01Ny4yNjYgMTAuODA5Yy0wLjAxMjA4IDAtMC4wMjE4OSA1ZS0zIC0wLjAyOTI0IDAuMDE0NzYtMC4wMDcyIDAuMDA5NS0wLjAxMDU5IDAuMDIyNzgtMC4wMTA1OSAwLjAzODc2IDAgMC4wMjc1MSAwLjAxMjQ4IDAuMDQwNTkgMC4wMzczOSAwLjA0MDU5IDAuMDExNjcgMCAwLjAyMTA5LTAuMDA0MSAwLjAyODQ2LTAuMDEyODUgMC4wMDc2LTAuMDA5MSAwLjAxMTQtMC4wMjI0OCAwLjAxMTQtMC4wMzk2OCAwLTAuMDI3NzctMC4wMTI0OC0wLjA0MTUyLTAuMDM3MzktMC4wNDE1MnptLTEuNTAyNSA4LjkxZS00IC0wLjAwNTcgMC4wMzIzaDAuMDA1N2MwLjAzMTE3IDAgMC4wNDYzMSAwLjAxMTQ3IDAuMDQ2MzEgMC4wMzUwNyAwIDAuMDA0NC0wLjAwMjQgMC4wMTc1Ni0wLjAwNjUgMC4wMzk2N2wtMC4wODYxMyAwLjQ2NjkzaDAuMDYxNzRsMC4wMzU3NC0wLjE5Mzc5YzAuMDA2OS0wLjAzNjg2IDAuMDIzNi0wLjA3MzU2IDAuMDQ5NTctMC4xMTE2NiAwLjAyNjE4LTAuMDM4MzEgMC4wNTE3My0wLjA1ODE0IDAuMDc2MzgtMC4wNTgxNCAwLjAyMDMzIDAgMC4wMzA4OSAwLjAxNTQ4IDAuMDMwODkgMC4wNDUyMSAwIDAuMDE2NDctMC4wMDMzIDAuMDM5NjctMC4wMDk2IDAuMDcwMTRsLTAuMDE1NDQgMC4wNzg0MmMtMC4wMDg0IDAuMDQ0OTYtMC4wMTMwMyAwLjA3ODQxLTAuMDEzMDMgMC4xMDE1MSAwIDAuMDIzMSAwLjAwNTQgMC4wNDE4NCAwLjAxNjI0IDAuMDU1MzggMC4wMTExMyAwLjAxMzU0IDAuMDI1NDggMC4wMjAzIDAuMDQzODggMC4wMjAzIDAuMDI1MTIgMCAwLjA1MjI3LTAuMDE0ODcgMC4wODEyNy0wLjA0MzM3bC0wLjAxMTQtMC4wMjIxNWMtMC4wMTU1OCAwLjAxMTQ3LTAuMDMwMyAwLjAxNzUzLTAuMDQzMDYgMC4wMTc1My0wLjAxNTU4IDAtMC4wMjM1Ny0wLjAxMTg4LTAuMDIzNTctMC4wMzU5OCAwLTAuMDIyNiAzZS0zIC0wLjA0OTEzIDllLTMgLTAuMDc5MzZsMC4wMTcwNi0wLjA4OTUxYzhlLTMgLTAuMDM5MzIgMC4wMTIyMS0wLjA2NjE2IDAuMDEyMjEtMC4wODIxMyAwLTAuMDU1NzgtMC4wMjMzLTAuMDgzOTgtMC4wNzA2OS0wLjA4Mzk4LTAuMDQ1MjEgMC0wLjA4NjczIDAuMDMzNjktMC4xMjM1MyAwLjEwMTUxaC0wLjAwNjVjMC4wMDk2LTAuMDQyMjggMC4wMTgyMS0wLjA4NDIxIDAuMDI2MDEtMC4xMjU1MWwwLjAyNi0wLjEzODQyem0tMS4xMjU1IDAuMDM1MDctMC4wMDU3IDAuMDMxMzhoOWUtM2MwLjAxOTA0IDAgMC4wMzEzMiAzZS0zIDAuMDM3MzkgMC4wMDkzIDZlLTMgMC4wMDYxIDllLTMgMC4wMTQ5NiA5ZS0zIDAuMDI2NzYgMCAwLjAwNTMtMy4xOGUtNCAwLjAxMTQ3LTAuMDAxOCAwLjAxODQ0bC0wLjA2OTA3IDAuMzcwOTZjLTNlLTMgMC4wMTU3Mi0wLjAwOTEgMC4wMjc4MS0wLjAxNzg3IDAuMDM2OTItMC4wMDg3IDAuMDA4OC0wLjAyNDYzIDAuMDEyODUtMC4wNDcxNCAwLjAxMjg1aC05ZS0zbC0wLjAwNDkgMC4wMzIzMWgwLjM1Njc0bDAuMDI5MjQtMC4xMzE5N2gtMC4wMzQ5NGwtMC4wMTA1OCAwLjAzMjNjLTAuMDEyNzUgMC4wNDEyNy0wLjAzODEyIDAuMDYxODQtMC4wNzU1NyAwLjA2MTg0aC0wLjEyNzU4bDAuMDQyMjYtMC4yMjYwOGgwLjE2MDA4bDAuMDA2NS0wLjAzNjkyaC0wLjE2MDA5bDAuMDM4MTgtMC4yMDAyNWgwLjExMTMzYzAuMDMxNiAwIDAuMDQ3MTQgMC4wMTYxNSAwLjA0NzE0IDAuMDQ5ODIgMCAwLjAwMjEtNS4yNWUtNCAwLjAwOTQtMC4wMDE4IDAuMDIxMjJsLTAuMDAxOCAwLjAyMzA2aDAuMDM0OTZsMC4wMjExMy0wLjEzMTk3em0yLjM4NSAwLjA0MDU5Yy0wLjAyNDQ1IDAuMDcwNTItMC4wNTgzMSAwLjEwNjEzLTAuMTAxNTcgMC4xMDYxM2wtMC4wMDU3IDAuMDMwNDVoMC4wNTAzOWwtMC4wNDA2NCAwLjIxNzc4Yy0wLjAwNDMgMC4wMjMzNS0wLjAwNjUgMC4wNDM4My0wLjAwNjUgMC4wNjI3NCAwIDAuMDU4NzQgMC4wMjQwNiAwLjA4ODU4IDAuMDcyMzMgMC4wODg1OCAwLjAyOTg3IDAgMC4wNTk1My0wLjAxMTg4IDAuMDg5MzctMC4wMzU5OGwtMC4wMTE0LTAuMDI4NmMtMC4wMTgxNyAwLjAxMTE5LTAuMDM1NjcgMC4wMTY2MS0wLjA1MzY0IDAuMDE2NjEtMC4wMjM1OCAwLTAuMDM1NzQtMC4wMTQwMS0wLjAzNTc0LTAuMDQxNTIgMC0wLjAxNDI1IDAuMDAyNy0wLjAzNTYxIDAuMDA4MS0wLjA2NDZsMC4wNDA2My0wLjIxNTAxaDAuMDgwNDZsMC4wMDgxLTAuMDQzMzZoLTAuMDgwNDRsMC4wMTcwNi0wLjA5MzIxem0xLjA1NTYgMC4wNTYyOGMtMC4wMjY4MyAwLTAuMDUwNTQgMC4wMTc4OC0wLjA3MTUxIDAuMDUzNTMtMC4wMTczLTAuMDE1OTYtMC4wMzk5LTAuMDIzOTktMC4wNjgyNi0wLjAyMzk5LTAuMDQ2MzEgMC0wLjA4Mzc5IDAuMDE3Ny0wLjExMjE0IDAuMDUyNi0wLjAyODE0IDAuMDM0NjUtMC4wNDIyNiAwLjA3MjgzLTAuMDQyMjYgMC4xMTUzNiAwIDAuMDQzIDAuMDE1MzYgMC4wNzMwNSAwLjA0NjMxIDAuMDg5NTEtMC4wMjQ0NSAwLjAxNDI1LTAuMDQwNjggMC4wMjcwMy0wLjA0OTU3IDAuMDM3ODItMC4wMDg3IDAuMDEwOTItMC4wMTMwMyAwLjAyMzI4LTAuMDEzMDMgMC4wMzg3NiAwIDAuMDIyODQgMC4wMTA0NSAwLjA0MDggMC4wMzE3IDAuMDUyNi0wLjAzMzU1IDAuMDA3NS0wLjA2MDE3IDAuMDE5ODMtMC4wNzk2NCAwLjAzODc2LTAuMDE5MjYgMC4wMTkxNi0wLjAyODQ0IDAuMDQzMTEtMC4wMjg0NCAwLjA3MDE0IDAgMC4wNjU2MiAwLjA0NzkyIDAuMDk3ODEgMC4xNDQ2NSAwLjA5NzgxIDAuMDU3NzggMCAwLjEwMjExLTAuMDEzNCAwLjEzMzI2LTAuMDM5NjggMC4wMzExNy0wLjAyNjA1IDAuMDQ3MTQtMC4wNjE5NiAwLjA0NzE0LTAuMTA4ODkgMC0wLjA1NzUxLTAuMDM0MzktMC4wOTAzOC0wLjEwMzIxLTAuMDk4NzRsLTAuMDY0MTktMC4wMDgzYy0wLjAyMjcyLTAuMDAyNi0wLjAzMzMzLTAuMDA5Ny0wLjAzMzMzLTAuMDIyMTUgMC0wLjAxNzE5IDAuMDE1NTQtMC4wMzM0OSAwLjA0NzE0LTAuMDQ3OTkgMC4wMDM5IDkuODFlLTQgMC4wMTExMyAwLjAwMTkgMC4wMjExMyAwLjAwMTkgMC4wNDU2NSAwIDAuMDgyNi0wLjAxNzQ2IDAuMTEwNTEtMC4wNTI2IDAuMDI3OTEtMC4wMzU0IDAuMDQxNDMtMC4wNzQgMC4wNDE0My0wLjExNjI3IDAtMC4wMjMxLTAuMDA0OS0wLjA0MjQtMC4wMTQ2My0wLjA1ODE0IDAuMDEzMTYtMC4wMTE0NyAwLjAyNDY2LTAuMDE3NTIgMC4wMzMzMy0wLjAxNzUyIDAuMDEyMzUgMCAwLjAxNzg3IDAuMDA4NiAwLjAxNzg3IDAuMDI2NzYgMC4wMjYxOCAwIDAuMDM5ODEtMC4wMTQ5MiAwLjAzOTgxLTAuMDQ2MTQgMC0wLjAyMzEtMC4wMTE4MS0wLjAzNTA4LTAuMDM0MTQtMC4wMzUwOHptLTIuNDg3NCAwLjAyOTU0Yy0wLjA1NzEzIDAtMC4xMDQ3NyAwLjAyNzk5LTAuMTQyMjEgMC4wODMwNS0wLjAzNzQ0IDAuMDU0OC0wLjA1NjA4IDAuMTE1LTAuMDU2MDggMC4xODA4NyAwIDAuMDQ4NCAwLjAxMTk0IDAuMDg2NjYgMC4wMzU3NyAwLjExNDQzIDAuMDIzODEgMC4wMjc3NyAwLjA1NTU0IDAuMDQxNTIgMC4wOTQyNiAwLjA0MTUyIDAuMDM1MDQgMCAwLjA2MjkyLTAuMDA5NCAwLjA4MzctMC4wMjY3OCAwLjAyMDk4LTAuMDE3NyAwLjAzMDktMC4wMzYxNSAwLjAzMDktMC4wNTYyOSAwLTAuMDA5NC0yZS0zIC0wLjAxNjE1LTAuMDA2NS0wLjAxOTM3LTAuMDI1MSAwLjAzNjEyLTAuMDU3MTQgMC4wNTQ0NC0wLjA5NTg4IDAuMDU0NDQtMC4wNDg2OSAwLTAuMDczMTMtMC4wMzQxMi0wLjA3MzEzLTAuMTAyNDQgMC0wLjA1MDM4IDAuMDEyMDgtMC4xMDE1MSAwLjAzNDk0LTAuMTU0MTEgMC4wMjMxNS0wLjA1MjYgMC4wNDk1LTAuMDc5MzYgMC4wODA0NC0wLjA3OTM2IDAuMDE2MDEgMCAwLjAyOTExIDAuMDA4NCAwLjAzODE3IDAuMDI0OTEgMC4wMDkxIDAuMDE2MjEgMC4wMTM4MSAwLjAzNzgyIDAuMDEzODEgMC4wNjQ1OSAwLjAxNzk1IDAgMC4wMzE2NC0wLjAwNDcgMC4wNDIyNi0wLjAxNDc2IDAuMDEwOTktMC4wMDk5IDAuMDE2MjQtMC4wMjM1MiAwLjAxNjI0LTAuMDM4NzYgMC0wLjAyMDY0LTAuMDA4MS0wLjAzNjk5LTAuMDI1Mi0wLjA1MDc1LTAuMDE3MDktMC4wMTM4Mi0wLjA0MTAxLTAuMDIxMjItMC4wNzE1MS0wLjAyMTIyem0wLjcyMTYxIDBjLTAuMDU2MDYgMC0wLjEwMzMyIDAuMDI5MzctMC4xNDE0IDAuMDg4NTgtMC4wMzc4NiAwLjA1OTIzLTAuMDU2ODkgMC4xMjM1Ni0wLjA1Njg5IDAuMTkyODYgMCAwLjA0MzUgMC4wMDc5IDAuMDc4MDkgMC4wMjI3NCAwLjEwMjQ0IDAuMDE1MTQgMC4wMjQwOCAwLjAzNjM0IDAuMDM1OTggMC4wNjMzOCAwLjAzNTk4IDAuMDUxMDggMCAwLjA5MjUyLTAuMDQwOTUgMC4xMjQzMy0wLjEyMTgxaDAuMDA0MWMtMC4wMDQ1IDAuMDIzMS0wLjAwNjUgMC4wNDMxLTAuMDA2NSAwLjA1OTA1IDAgMC4wNDE3NyAwLjAxNzM4IDAuMDYyNzQgMC4wNTIgMC4wNjI3NCAwLjAzMDc0IDAgMC4wNjE2NS0wLjAxNTI0IDAuMDkzNDYtMC4wNDUyMmwtMC4wMTIyMS0wLjAyMjE1Yy0wLjAxOTQ3IDAuMDEyOTktMC4wMzUzOSAwLjAxOTM3LTAuMDQ3OTMgMC4wMTkzNy0wLjAxNDQ5IDAtMC4wMjE5My0wLjAxMjMtMC4wMjE5My0wLjAzNzgyIDAtMC4wMjExMyAwLjAwMzMtMC4wNDkzMSAwLjAwOTYtMC4wODM5OGwwLjA0NTUtMC4yNDE3N2gtMC4wMjExM2wtMC4wMjkyNCAwLjAxOTM3Yy0wLjAyMTgzLTAuMDE4MTgtMC4wNDc5My0wLjAyNzY4LTAuMDc4MDEtMC4wMjc2OHptLTEuMDcxIDguOTNlLTRjLTAuMDQ0NzggMC0wLjA4NTE2IDAuMDMzNjktMC4xMjEwOCAwLjEwMTUxaC0wLjAwNjVsMC4wMTc4Ny0wLjA5NTA1aC0wLjEyMjc0bC0wLjAwNTcgMC4wMzEzOGgwLjAwNDljMC4wMzA5NCAwIDAuMDQ2MzEgMC4wMTIxNiAwLjA0NjMxIDAuMDM1OTkgMCAwLjAwODYtNi4zNWUtNCAwLjAyMDEzLTAuMDAzMyAwLjAzNDE0bC0wLjA1NjA5IDAuMzAzNmgwLjA2MTc2bDAuMDM1NzYtMC4xOTM3OGMwLjAwNzMtMC4wMzc2IDAuMDIzODEtMC4wNzQ3NSAwLjA0OTU3LTAuMTEyNTggMC4wMjU5Ni0wLjAzNzg0IDAuMDUxNzMtMC4wNTcyMiAwLjA3NjM4LTAuMDU3MjIgMC4wMjAzNCAwIDAuMDMwMDcgMC4wMTU0OCAwLjAzMDA3IDAuMDQ1MjEgMCAwLjAxNjQ3LTAuMDAzMyAwLjAzOTY3LTAuMDA5NiAwLjA3MDEzbC0wLjAxNTQzIDAuMDc4NDNjLTAuMDA4NCAwLjA0NDk2LTAuMDEyMjEgMC4wNzg0MS0wLjAxMjIxIDAuMTAxNSAwIDAuMDIzMSAwLjAwNTQgMC4wNDE4NCAwLjAxNjI0IDAuMDU1MzggMC4wMTExMyAwLjAxMzU0IDAuMDI1NDggMC4wMjAzIDAuMDQzODkgMC4wMjAzIDAuMDI1MTIgMCAwLjA1MjI2LTAuMDE0ODcgMC4wODEyNy0wLjA0MzM3bC0wLjAxMjIxLTAuMDIyMTVjLTAuMDE1NTggMC4wMTE0Ny0wLjAyOTQ5IDAuMDE3NTItMC4wNDIyNiAwLjAxNzUyLTAuMDE1NTggMC0wLjAyMzU3LTAuMDExODgtMC4wMjM1Ny0wLjAzNTk4IDAtMC4wMjI2IDNlLTMgLTAuMDQ5MTMgOWUtMyAtMC4wNzkzNmwwLjAxNzA2LTAuMDg4NThjOGUtMyAtMC4wMzkzMiAwLjAxMjIxLTAuMDY3MDcgMC4wMTIyMS0wLjA4MzA1IDAtMC4wNTU3OC0wLjAyNDEzLTAuMDgzOTgtMC4wNzE1MS0wLjA4Mzk4em0xLjUwNTggMGMtMC4wNDQ3OSAwLTAuMDg1MTUgMC4wMzM2OS0wLjEyMTA4IDAuMTAxNTFoLTAuMDA2NWwwLjAxNzg3LTAuMDk1MDVoLTAuMTIzNTNsLTAuMDA1NyAwLjAzMTM4aDAuMDA0OWMwLjAzMDk0IDAgMC4wNDcxNCAwLjAxMjE2IDAuMDQ3MTQgMC4wMzU5OSAwIDAuMDA4Ni0wLjAwMTQgMC4wMjAxMy0wLjAwNDEgMC4wMzQxNGwtMC4wNTYwOCAwLjMwMzZoMC4wNjE3N2wwLjAzNTc3LTAuMTkzNzhjMC4wMDczLTAuMDM3NiAwLjAyMzgxLTAuMDc0NzUgMC4wNDk1Ni0wLjExMjU4IDAuMDI1OTYtMC4wMzc4NCAwLjA1MTczLTAuMDU3MjIgMC4wNzYzOS0wLjA1NzIyIDAuMDIwMzMgMCAwLjAzMDA3IDAuMDE1NDggMC4wMzAwNyAwLjA0NTIxIDAgMC4wMTY0Ny0wLjAwMzMgMC4wMzk2Ny0wLjAwOTYgMC4wNzAxM2wtMC4wMTQ2MyAwLjA3ODQzYy0wLjAwODQgMC4wNDQ5Ni0wLjAxMzAzIDAuMDc4NDEtMC4wMTMwMyAwLjEwMTUgMCAwLjAyMzEgMC4wMDU0IDAuMDQxODQgMC4wMTYyNCAwLjA1NTM4IDAuMDExMTMgMC4wMTM1NCAwLjAyNTQ5IDAuMDIwMyAwLjA0Mzg5IDAuMDIwMyAwLjAyNTEgMCAwLjA1MjI3LTAuMDE0ODcgMC4wODEyNy0wLjA0MzM3bC0wLjAxMjIxLTAuMDIyMTVjLTAuMDE1NTggMC4wMTE0Ny0wLjAyOTUgMC4wMTc1Mi0wLjA0MjI2IDAuMDE3NTItMC4wMTU1OCAwLTAuMDIzNTctMC4wMTE4OC0wLjAyMzU3LTAuMDM1OTggMC0wLjAyMjYgM2UtMyAtMC4wNDkxMyA5ZS0zIC0wLjA3OTM2bDAuMDE3MDYtMC4wODg1OGM4ZS0zIC0wLjAzOTMyIDAuMDEyMjEtMC4wNjcwNyAwLjAxMjIxLTAuMDgzMDUgMC0wLjA1NTc4LTAuMDIzMy0wLjA4Mzk4LTAuMDcwNjktMC4wODM5OHptMC44NDUxMiAwYy0wLjA0NDc5IDAtMC4wODUxNCAwLjAzMzY5LTAuMTIxMDggMC4xMDE1MWgtMC4wMDY1bDAuMDE3ODctMC4wOTUwNWgtMC4xMjM1M2wtMC4wMDU3IDAuMDMxMzhoMC4wMDU3YzAuMDMwOTQgMCAwLjA0NjMxIDAuMDEyMTYgMC4wNDYzMSAwLjAzNTk5IDAgMC4wMDg2LTAuMDAxNCAwLjAyMDEzLTAuMDA0MSAwLjAzNDE0bC0wLjA1NjA4IDAuMzAzNmgwLjA2MTc2bDAuMDM1NzctMC4xOTM3OGMwLjAwNzMtMC4wMzc2IDAuMDI0NjItMC4wNzQ3NSAwLjA1MDM5LTAuMTEyNTggMC4wMjU5Ny0wLjAzNzg0IDAuMDUwOS0wLjA1NzIyIDAuMDc1NTctMC4wNTcyMiAwLjAyMDMzIDAgMC4wMzA4OCAwLjAxNTQ4IDAuMDMwODggMC4wNDUyMSAwIDAuMDE2NDctMC4wMDMzIDAuMDM5NjctMC4wMDk2IDAuMDcwMTNsLTAuMDE1NDQgMC4wNzg0M2MtMC4wMDg0IDAuMDQ0OTYtMC4wMTMwMyAwLjA3ODQxLTAuMDEzMDMgMC4xMDE1IDAgMC4wMjMxIDAuMDA1NCAwLjA0MTg0IDAuMDE2MjQgMC4wNTUzOCAwLjAxMTEzIDAuMDEzNTQgMC4wMjYzIDAuMDIwMyAwLjA0NDY5IDAuMDIwMyAwLjAyNTA5IDAgMC4wNTE0Ni0wLjAxNDg3IDAuMDgwNDQtMC4wNDMzN2wtMC4wMTE0LTAuMDIyMTVjLTAuMDE1NTggMC4wMTE0Ny0wLjAzMDMgMC4wMTc1Mi0wLjA0MzA2IDAuMDE3NTItMC4wMTU1OCAwLTAuMDIyNzQtMC4wMTE4OC0wLjAyMjc0LTAuMDM1OTggMC0wLjAyMjYgMC4wMDIzLTAuMDQ5MTMgMC4wMDgxLTAuMDc5MzZsMC4wMTcwNi0wLjA4OTUxYzhlLTMgLTAuMDM5MzEgMC4wMTIyMS0wLjA2NjE2IDAuMDEyMjEtMC4wODIxMyAwLTAuMDU1NzgtMC4wMjMzLTAuMDgzOTgtMC4wNzA3LTAuMDgzOTh6bS0wLjQzMTUgMC4wMDY0LTAuMDA1NyAwLjAzMTM4aDllLTNjMC4wMjcwNSAwIDAuMDQwNjQgMC4wMTExOSAwLjA0MDY0IDAuMDMyMyAwIDAuMDA1My05LjQzZS00IDAuMDExMzMtMC4wMDI2IDAuMDE5MzdsLTAuMDI2IDAuMTM5MzRjLTAuMDA5OSAwLjA1NjUxLTAuMDE0NjMgMC4wOTU1LTAuMDE0NjMgMC4xMTgxMSAwIDAuMDIwNjQgMC4wMDUzIDAuMDM4MTYgMC4wMTU0MyAwLjA1MTY5IDAuMDEwMTggMC4wMTM1NCAwLjAyMzM4IDAuMDIwMyAwLjAzOTgxIDAuMDIwMyAwLjAyOTIyIDAgMC4wNTk0OS0wLjAxNTI0IDAuMDkwMTktMC4wNDUyMmwtMC4wMTIyMS0wLjAyMjE1Yy0wLjAxOTA0IDAuMDEyOTktMC4wMzUxOSAwLjAxOTM3LTAuMDQ3OTMgMC4wMTkzNy0wLjAxNDcxIDAtMC4wMjE5Ni0wLjAxMjMtMC4wMjE5Ni0wLjAzNzgzIDAtMC4wMTk2NSAzZS0zIC0wLjA0Nzg1IDAuMDA5Ni0wLjA4Mzk4bDAuMDQ1NS0wLjI0Mjd6bS0wLjg0NDMxIDAuMDI2NzhjMC4wMjMzOCAwIDAuMDM5MzkgMC4wMDg2IDAuMDQ5NTcgMC4wMjY3NmwtMC4wMjQzNyAwLjEzMzgyYy0wLjAwNzcgMC4wNDM5OC0wLjAyMzcyIDAuMDg0Ny0wLjA0Nzk0IDAuMTIxODEtMC4wMjQyNSAwLjAzNzExLTAuMDQ3ODIgMC4wNTUzOC0wLjA2OTg4IDAuMDU1MzgtMC4wMjc5MSAwLTAuMDQxNDMtMC4wMjg1Mi0wLjA0MTQzLTAuMDg2NzQgMC0wLjA1Nzc2IDAuMDEyNzYtMC4xMTQzMiAwLjAzODE5LTAuMTY4ODcgMC4wMjU3Ni0wLjA1NDggMC4wNTgwMy0wLjA4MjEzIDAuMDk1ODgtMC4wODIxM3ptMS42MTM5IDguOTFlLTRjMC4wMzA1MiAwIDAuMDQ1NSAwLjAyMDUzIDAuMDQ1NSAwLjA2MTgzIDAgMC4wMzM5Mi04ZS0zIDAuMDY1MzctMC4wMjM1NyAwLjA5NDEyLTAuMDE1MzYgMC4wMjg1Mi0wLjAzNTYyIDAuMDQyNDUtMC4wNjA5NCAwLjA0MjQ1LTAuMDMwNzIgMC0wLjA0NjMxLTAuMDIwNTMtMC4wNDYzMS0wLjA2MTgzIDAtMC4wMzM0MSAwLjAwNzYtMC4wNjQ0NCAwLjAyMjc0LTAuMDkzMjEgMC4wMTUzNi0wLjAyOSAwLjAzNjU5LTAuMDQzMzcgMC4wNjI1OS0wLjA0MzM3em0tMC4wOTgzMSAwLjM2ODE5IDAuMDY0MTkgMC4wMDY0YzAuMDQxMzMgMC4wMDQxIDAuMDYyNTcgMC4wMjMzNSAwLjA2MjU3IDAuMDU2MjggMCAwLjAyNzc3LTAuMDEwMzEgMC4wNDkzLTAuMDMwODkgMC4wNjU0OS0wLjAyMDMzIDAuMDE2NDctMC4wNTA0NCAwLjAyNDkxLTAuMDg5MzcgMC4wMjQ5MS0wLjA2MjU0IDAtMC4wOTM0Ni0wLjAyMTc3LTAuMDkzNDYtMC4wNjU1MSAwLTAuMDIwMzkgMC4wMDU3LTAuMDM3NjcgMC4wMTcwNi0wLjA1MTY4IDAuMDExNTMtMC4wMTQwMSAwLjAyNDgzLTAuMDIzNDMgMC4wNDA2My0wLjAyODYgMC4wMTYtMC4wMDUzIDAuMDI2MDEtMC4wMDc3IDAuMDI5MjYtMC4wMDc1em0tMC43ODA5MyAwLjM3OTI3Yy0wLjAxMjA4IDAtMC4wMjE4OSA1ZS0zIC0wLjAyOTI2IDAuMDE0NzYtMC4wMDcyIDAuMDA5NS0wLjAxMDU4IDAuMDIyNzgtMC4wMTA1OCAwLjAzODc2IDAgMC4wMjc1MiAwLjAxMjQ4IDAuMDQwNiAwLjAzNzM5IDAuMDQwNiAwLjAxMTY3IDAgMC4wMjEwOS0wLjAwNDEgMC4wMjg0NC0wLjAxMjg1IDAuMDA3Ni0wLjAwOTEgMC4wMTE0LTAuMDIyNDcgMC4wMTE0LTAuMDM5NjcgMC0wLjAyNzc3LTAuMDEyNDgtMC4wNDE1Mi0wLjAzNzM5LTAuMDQxNTJ6bS0xLjYyNzcgOC45M2UtNCAtMC4wMDY1IDAuMDMyM2gwLjAwODFjMC4wMzExNyAwIDAuMDQ3MTQgMC4wMTE0NyAwLjA0NzE0IDAuMDM1MDcgMCAwLjAwNzctMC4wMDIyIDAuMDE5MTUtMC4wMDQ5IDAuMDM0MTRsLTAuMDUzNjQgMC4yODk3NmMtMC4wMDk2IDAuMDU1My0wLjAxNDYzIDAuMDk0MjctMC4wMTQ2MyAwLjExODExIDAgMC4wMjExMyAwLjAwNDMgMC4wMzg0IDAuMDE0NjMgMC4wNTE2OSAwLjAxMDMxIDAuMDEzMjYgMC4wMjM4MSAwLjAyMDMgMC4wMzk4MSAwLjAyMDMgMC4wMjkyMiAwIDAuMDU5NDgtMC4wMTUyNCAwLjA5MDE5LTAuMDQ1MjJsLTAuMDEyMjEtMC4wMjIxNWMtMC4wMTkwNCAwLjAxMjk5LTAuMDM1MTkgMC4wMTkzNy0wLjA0NzkzIDAuMDE5MzctMC4wMTQ3MSAwLTAuMDIxOTYtMC4wMTIzLTAuMDIxOTYtMC4wMzc4MiAwLTAuMDE5OSAwLjAwMzgtMC4wNDgwOCAwLjAxMDU4LTAuMDgzOThsMC4wNzYzOS0wLjQxMTU3em0yLjQ0MzUgMC0wLjAwNTcgMC4wMzIzaDAuMDA3M2MwLjAzMTE2IDAgMC4wNDcxNCAwLjAxMTQ3IDAuMDQ3MTQgMC4wMzUwNyAwIDAuMDA3Ny0wLjAwMTMgMC4wMTkxNS0wLjAwNDEgMC4wMzQxNGwtMC4wNTQ0MyAwLjI4OTc2Yy0wLjAwOTYgMC4wNTUzLTAuMDE0NjMgMC4wOTQyNy0wLjAxNDYzIDAuMTE4MTEgMCAwLjAyMTEzIDAuMDA1MyAwLjAzODQgMC4wMTU0MyAwLjA1MTY5IDAuMDEwMzEgMC4wMTMyNiAwLjAyMzgxIDAuMDIwMyAwLjAzOTgxIDAuMDIwMyAwLjAyOTIyIDAgMC4wNTg2OC0wLjAxNTI0IDAuMDg5MzctMC4wNDUyMmwtMC4wMTIyMS0wLjAyMjE1Yy0wLjAxOTA0IDAuMDEyOTktMC4wMzQzNyAwLjAxOTM3LTAuMDQ3MTQgMC4wMTkzNy0wLjAxNDcxIDAtMC4wMjE5Ni0wLjAxMjMtMC4wMjE5Ni0wLjAzNzgyIDAtMC4wMTk5IDNlLTMgLTAuMDQ4MDggMC4wMDk2LTAuMDgzOThsMC4wNzcyLTAuNDExNTd6bS0zLjAwNjcgMC4wMjY3NmMtMC4wNzc5MSAwLTAuMTQzNDcgMC4wMzU0MS0wLjE5NTg0IDAuMTA1Mi0wLjA1MjM3IDAuMDY5NTQtMC4wNzgwMSAwLjE1MTk2LTAuMDc4MDEgMC4yNDczMSAwIDAuMDY0MzkgMC4wMTU2OSAwLjExNDM1IDAuMDQ3OTMgMC4xNDk0OSAwLjAzMjQ3IDAuMDM1MTQgMC4wNzc5MyAwLjA1MjYgMC4xMzU3MSAwLjA1MjYgMC4wNDMyOCAwIDAuMDc2OTEtMC4wMDk4IDAuMTAxNTctMC4wMjg2MiAwLjAyNDY3LTAuMDE4OTMgMC4wMzczOS0wLjA0MDUxIDAuMDM3MzktMC4wNjQ1OSAwLTAuMDEyMDItM2UtMyAtMC4wMjAyMS05ZS0zIC0wLjAyNDkxLTAuMDMwNzMgMC4wNDU3Mi0wLjA3MjIyIDAuMDY5Mi0wLjEyMzUzIDAuMDY5Mi0wLjA3ODc3IDAtMC4xMTc4My0wLjA0NzA3LTAuMTE3ODMtMC4xNDExOSAwLTAuMDgwMzUgMC4wMTg0Ni0wLjE1NDgyIDAuMDU1MjYtMC4yMjIzOSAwLjAzNzAxLTAuMDY3ODMgMC4wODI1OS0wLjEwMTUgMC4xMzczMy0wLjEwMTUgMC4wNDQxNCAwIDAuMDY2NjMgMC4wMzQxIDAuMDY2NjMgMC4xMDI0NCAwLjAxOTY5IDAgMC4wMzUyMy0wLjAwNTEgMC4wNDcxNC0wLjAxNTcgMC4wMTE5NC0wLjAxMDY0IDAuMDE3ODctMC4wMjU0MiAwLjAxNzg3LTAuMDQzMzYgMC0wLjAyNTgxLTAuMDEwOTktMC4wNDU5My0wLjAzMjUxLTAuMDYwOTItMC4wMjE2NC0wLjAxNTI0LTAuMDUxNDgtMC4wMjMwNi0wLjA5MDItMC4wMjMwNnptMS42NDM5IDAuMDA4My0wLjAwNTcgMC4wMzEzOGgwLjAwODFjMC4wMzIwMyAwIDAuMDQ3OTQgMC4wMTAzNiAwLjA0Nzk0IDAuMDMwNDUgMCAwLjAwNDctNy4xMmUtNCAwLjAxMTg4LTAuMDAyNiAwLjAyMTIybC0wLjA2OTA3IDAuMzcwMDRjLTAuMDA2NiAwLjAzNjEyLTAuMDI4MjMgMC4wNTM1My0wLjA2NSAwLjA1MzUzaC05ZS0zbC0wLjAwNTcgMC4wMzIzaDAuMjA5NjZjMC4wODA3MSAwIDAuMTQ1MTUtMC4wMzIxNSAwLjE5MzQtMC4wOTUwNSAwLjA0ODI0LTAuMDYzMTQgMC4wNzIzMy0wLjE0MjY4IDAuMDcyMzMtMC4yMzkgMC0wLjA2NTg1LTAuMDE2MDktMC4xMTU5NS0wLjA0ODc2LTAuMTUxMzQtMC4wMzI2OS0wLjAzNTY1LTAuMDc5NDEtMC4wNTM1My0wLjEzOTc3LTAuMDUzNTN6bTAuMTIzNTMgMC4wMzY4OWgwLjA1MjgzYzAuMDg0MTkgMCAwLjEyNTk2IDAuMDUzNDkgMC4xMjU5NiAwLjE1OTY0IDAgMC4wOTA5My0wLjAxODYzIDAuMTY0NzctMC4wNTYwOCAwLjIyMDU1LTAuMDM3MjIgMC4wNTU3OC0wLjA4NzkxIDAuMDgzMDctMC4xNTE5NiAwLjA4MzA3aC0wLjA1Nzd6bS0xLjQzMjYgMC4wODk1MWMtMC4wNTkwOCAwLTAuMTA3MjcgMC4wMjcxNS0wLjE0MzgzIDAuMDgxMjItMC4wMzYzNCAwLjA1MzgyLTAuMDU0NDQgMC4xMTQ4Ny0wLjA1NDQ0IDAuMTgyNzEgMCAwLjA0ODkxIDAuMDExNjcgMC4wODY5MSAwLjAzNDE0IDAuMTE0NDIgMC4wMjI1IDAuMDI3NTIgMC4wNTM0MiAwLjA0MTUyIDAuMDkzNDYgMC4wNDE1MiAwLjA1ODg1IDAgMC4xMDY4OC0wLjAyNzE1IDAuMTQzMDItMC4wODEyIDAuMDM2MTQtMC4wNTQzMSAwLjA1MzY0LTAuMTE1NjIgMC4wNTM2NC0wLjE4MjcyIDAtMC4wNTA2My0wLjAxMDk5LTAuMDg4NTUtMC4wMzMzMS0wLjExNTM2LTAuMDIyNS0wLjAyNjc4LTAuMDUzNDctMC4wNDA1OS0wLjA5MjYzLTAuMDQwNTl6bTAuNTgzNDYgMGMtMC4wNTkwOCAwLTAuMTA2NDYgMC4wMjcxNS0wLjE0MzAyIDAuMDgxMjItMC4wMzYzNSAwLjA1MzgyLTAuMDU0NDYgMC4xMTQ4Ny0wLjA1NDQ2IDAuMTgyNzEgMCAwLjA0ODkxIDAuMDEwOTkgMC4wODY5MSAwLjAzMzMzIDAuMTE0NDIgMC4wMjI1IDAuMDI3NTIgMC4wNTQyMyAwLjA0MTUyIDAuMDk0MjYgMC4wNDE1MiAwLjA1ODg1IDAgMC4xMDYwOC0wLjAyNzE1IDAuMTQyMjEtMC4wODEyIDAuMDM2MTUtMC4wNTQzMSAwLjA1NDQzLTAuMTE1NjIgMC4wNTQ0My0wLjE4MjcyIDAtMC4wNTA2My0wLjAxMTY3LTAuMDg4NTUtMC4wMzQxMy0wLjExNTM2LTAuMDIyNS0wLjAyNjc4LTAuMDUzNDYtMC4wNDA1OS0wLjA5MjYzLTAuMDQwNTl6bTAuNDE1MjUgMGMtMC4wMjI5NSAwLTAuMDQyODMgMC4wMDc5LTAuMDYwMTMgMC4wMjQtMC4wMTczIDAuMDE2MjEtMC4wMzUwNyAwLjA0NzMxLTAuMDUyODMgMC4wOTIyOGgtMC4wMDY1bDAuMDEzOC0wLjEwODg5aC0wLjExNzAxbC0wLjAwNjUgMC4wMzEzOGgwLjAwNTdjMC4wMzUyOCAwIDAuMDUyODMgMC4wMTIxNiAwLjA1MjgzIDAuMDM1OTkgMCAwLjAwODYtMC4wMDE0IDAuMDIwMTUtMC4wMDQxIDAuMDM0MTNsLTAuMDU2MDkgMC4zMDM2aDAuMDYyNTdsMC4wMjQzNy0wLjEzNzQ5YzAuMDExMTMtMC4wNTc5OSAwLjAyODI1LTAuMTEgMC4wNTEyLTAuMTU1OTUgMC4wMjMxNi0wLjA0NTk2IDAuMDQ1MjctMC4wNjkyIDAuMDY1ODMtMC4wNjkyIDAuMDE3NzQgMCAwLjAyNjggMC4wMjAxNyAwLjAyNjggMC4wNTk5OCAwLjAzNjc3IDAgMC4wNTUyNy0wLjAxOTggMC4wNTUyNy0wLjA1ODE0IDAtMC4wMzQ2NC0wLjAxODkyLTAuMDUxNjctMC4wNTUyNy0wLjA1MTY3em0xLjQ4NzEgMGMtMC4wNDkxMSAwLTAuMDg5ODYgMC4wMzU5OC0wLjEyMTg4IDAuMTA3OTdoLTAuMDAzM2wwLjAxNjI0LTAuMTAwNTdoLTAuMTE3ODNsLTAuMDA1NyAwLjAzMTM4aDAuMDA0OWMwLjAzMDk0IDAgMC4wNDYzMSAwLjAxMjE2IDAuMDQ2MzEgMC4wMzU5OSAwIDAuMDA1NS0wLjAwMTkgMC4wMTg1NC0wLjAwNTcgMC4wMzk2OGwtMC4wODg1NyAwLjQ3ODkzaDAuMTI1MTZsMC4wMDU3LTAuMDMxMzhoLTllLTNjLTAuMDMwOTQgMC0wLjA0NjMxLTAuMDExNzQtMC4wNDYzMS0wLjAzNTA4IDAtN2UtMyAwLjAwMjQtMC4wMjE1NSAwLjAwNjUtMC4wNDI0NWw5ZS0zIC0wLjA0NjEzYzAuMDAxOC0wLjAwODIgMC4wMDM4LTAuMDE5NzcgMC4wMDU3LTAuMDM1OTggMC4wMTc5NCAwLjAxMTQ3IDAuMDM5NjggMC4wMTc1MiAwLjA2NTAxIDAuMDE3NTIgMC4wNTgwMSAwIDAuMTA1MjEtMC4wMzA5MSAwLjE0MjIxLTAuMDkxMzQgMC4wMzcyMi0wLjA2MDcgMC4wNTYwOS0wLjEyNDM3IDAuMDU2MDktMC4xOTE5NCAwLTAuMDQ0MjMtMC4wMDcyLTAuMDc4MTgtMC4wMjE5My0wLjEwMTUxLTAuMDE0NDgtMC4wMjMzNC0wLjAzNTUzLTAuMDM1MDgtMC4wNjI1Ny0wLjAzNTA4em0wLjU0MjAyIDBjLTAuMDU2MDYgMC0wLjEwMzMyIDAuMDI5MzctMC4xNDE0IDAuMDg4NTgtMC4wMzc4NyAwLjA1OTIzLTAuMDU2OSAwLjEyMzU3LTAuMDU2OSAwLjE5Mjg2IDAgMC4wNDM1IDAuMDA3OSAwLjA3ODA5IDAuMDIyNzQgMC4xMDI0NCAwLjAxNTE0IDAuMDI0MDggMC4wMzYzNCAwLjAzNTk5IDAuMDYzMzkgMC4wMzU5OSAwLjA1MTA4IDAgMC4wOTI1Mi0wLjA0MDk1IDAuMTI0MzMtMC4xMjE4MWgwLjAwNDFjLTAuMDA0NiAwLjAyMzEtMC4wMDczIDAuMDQzMDktMC4wMDczIDAuMDU5MDUgMCAwLjA0MTc3IDAuMDE3MzggMC4wNjI3NiAwLjA1MjAxIDAuMDYyNzYgMC4wMzA3NCAwIDAuMDYyNDUtMC4wMTUyNCAwLjA5NDI2LTAuMDQ1MjJsLTAuMDEyMjEtMC4wMjIxNWMtMC4wMTk0NyAwLjAxMjk5LTAuMDM1MzggMC4wMTkzNy0wLjA0NzkzIDAuMDE5MzctMC4wMTQ0OSAwLTAuMDIxOTYtMC4wMTIzLTAuMDIxOTYtMC4wMzc4MiAwLTAuMDIxMTMgMC4wMDMzLTAuMDQ5MzEgMC4wMDk2LTAuMDgzOThsMC4wNDU1LTAuMjQxNzdoLTAuMDIxMTNsLTAuMDI5MjYgMC4wMTkzN2MtMC4wMjE4NS0wLjAxODE3LTAuMDQ3OTMtMC4wMjc2OC0wLjA3ODAxLTAuMDI3Njh6bS0wLjkzNDUxIDguOTFlLTRjLTAuMDM4MDkgMC0wLjA2ODgzIDAuMDEwMjMtMC4wOTI2MyAwLjAzMTM4LTAuMDIzNTggMC4wMjA4OS0wLjAzNTc2IDAuMDQ4MjgtMC4wMzU3NiAwLjA4MTIgMCAwLjAyNDA4IDAuMDA1NCAwLjA0NTI0IDAuMDE2MjQgMC4wNjM2NiAwLjAxMTEzIDAuMDE4MTcgMC4wMzMyMSAwLjAzNTQgMC4wNjUwMSAwLjA1MjYgMC4wMjQ0NSAwLjAxMjcxIDAuMDQxMDIgMC4wMjYyNCAwLjA1MTIgMC4wMzg3NiAwLjAxMDE4IDAuMDEyMyAwLjAxNTQzIDAuMDI3MjkgMC4wMTU0MyAwLjA0NTIxIDAgMC4wNDY2OS0wLjAyMzY5IDAuMDcwMTMtMC4wNzE1MSAwLjA3MDEzLTAuMDI0MDIgMC0wLjA0MjY1LTAuMDA4Ny0wLjA1NjA4LTAuMDI1ODQtMC4wMTMxNi0wLjAxNzQ1LTAuMDIwMy0wLjA0MTY5LTAuMDIwMy0wLjA3MjktMC4wMTIwOCAwLTAuMDIyMDYgMC4wMDMzLTAuMDMwMDcgMC4wMTIwMi0wLjAwNzcgMC4wMDg0LTAuMDExNCAwLjAyMDY4LTAuMDExNCAwLjAzNjkgMCAwLjAyNjA2IDAuMDA5NSAwLjA0NzI3IDAuMDI5MjQgMC4wNjI3NCAwLjAxOTkxIDAuMDE1MjQgMC4wNDY5IDAuMDIzMDYgMC4wODA0NCAwLjAyMzA2IDAuMDQxNTQgMCAwLjA3NDg1LTAuMDExMzMgMC4wOTk5Ni0wLjAzNDE0IDAuMDI1MS0wLjAyMjg1IDAuMDM3MzktMC4wNTMzMiAwLjAzNzM5LTAuMDkwNDMgMC0wLjA1MTExLTAuMDI2NDEtMC4wOTAxNi0wLjA3OTY0LTAuMTE3MTgtMC4wMjMxNi0wLjAxMTQ3LTAuMDQwMTctMC4wMjMyOC0wLjA1MTItMC4wMzUwOC0wLjAxMTEzLTAuMDExNzQtMC4wMTYyNC0wLjAyNTc0LTAuMDE2MjQtMC4wNDI0NSAwLTAuMDE4OTIgMC4wMDU3LTAuMDM1MDEgMC4wMTcwNi0wLjA0NzA2IDAuMDExNjctMC4wMTIzIDAuMDI3MjMtMC4wMTg0NSAwLjA0NzE0LTAuMDE4NDUgMC4wMTg4MiAwIDAuMDMzNSAwLjAwNzkgMC4wNDM4OSAwLjAyMzA2IDAuMDEwNTggMC4wMTUyNCAwLjAxNjI0IDAuMDM1NjEgMC4wMTYyNCAwLjA2MDkyIDAuMDMzMzQgMCAwLjA0OTU3LTAuMDE1ODUgMC4wNDk1Ny0wLjA0NzA2IDAtMC4wMjAxNC0wLjAwOTItMC4wMzY5OS0wLjAyNzYzLTAuMDUwNzUtMC4wMTgxNy0wLjAxMzgyLTAuMDQzNzEtMC4wMjAzMS0wLjA3NjM5LTAuMDIwMzF6bTEuMzY0NCAwYy0wLjAxMTY3IDAtMC4wMjE0MSAwLjAwNDctMC4wMzAwNyAwLjAxNDc2LTAuMDA4NyAwLjAwOTktMC4wMTMwMyAwLjAyMzY0LTAuMDEzMDMgMC4wNDA1OSAwLjAyMTgzIDAgMC4wMzI1MSAwLjAxNDI2IDAuMDMyNTEgMC4wNDE1MiAwIDAuMDYzNjMtMC4wMjk0NSAwLjE0NjYyLTAuMDg5MzcgMC4yNTAwN2gtMC4wMDI2Yy0wLjAwMjYtMC4wMjgwMS0wLjAxMTY3LTAuMDczNDItMC4wMjc2My0wLjEzNjU3bC0wLjA1MjAxLTAuMjAzOTJoLTAuMDk2NzFsLTAuMDA1NyAwLjAzMTM4aDAuMDA3M2MwLjAxMzE2IDAgMC4wMjI1NCAzZS0zIDAuMDI5MjQgMC4wMDkzIDAuMDA2OCAwLjAwNTkgMC4wMTIzNSAwLjAxNjY0IDAuMDE2MjQgMC4wMzEzOGwwLjA4Nzc2IDAuMzM0MDVjLTAuMDYxMDIgMC4wOTE2Ni0wLjEyMzUgMC4xMzc0OS0wLjE4NjkgMC4xMzc0OS0wLjAxOTA0IDAtMC4wMzY0MS0wLjAwMzYtMC4wNTItMC4wMDkzbC0wLjAwOTYgMC4wMzc4M2MwLjAxODQgMC4wMDkxIDAuMDM5MiAwLjAxMzgzIDAuMDYyNTcgMC4wMTM4MyAwLjA1ODg1IDAgMC4xMDYyOS0wLjAxNzM4IDAuMTQyMjEtMC4wNTM1MyAwLjAzNjE0LTAuMDM2MTIgMC4wODQxMS0wLjEwOTc5IDAuMTQzODQtMC4yMTk2MiAwLjA1OTczLTAuMTEwMDggMC4wODkzNy0wLjE5NDkyIDAuMDg5MzctMC4yNTU2MSAwLTAuMDQyMjgtMC4wMTU0Mi0wLjA2MzY1LTAuMDQ1NS0wLjA2MzY1em0tMS43MDU3IDAuMDA2NC0wLjAwNjUgMC4wMzEzOCA5ZS0zIDguOTFlLTRjMC4wMjcwNSAwIDAuMDQwNjMgMC4wMTAyMiAwLjA0MDYzIDAuMDMxMzggMCAwLjAwNTMtOS40MmUtNCAwLjAxMTMzLTAuMDAyNiAwLjAxOTM3bC0wLjAyNTE5IDAuMTM5MzRjLTAuMDA5OSAwLjA1NjUzLTAuMDE1NDMgMC4wOTU1LTAuMDE1NDMgMC4xMTgxMSAwIDAuMDIwNjQgMC4wMDUzIDAuMDM4MTYgMC4wMTU0MyAwLjA1MTY4IDAuMDEwMTggMC4wMTM1NCAwLjAyMzM4IDAuMDIwMzEgMC4wMzk4MSAwLjAyMDMxIDAuMDI5MjIgMCAwLjA1OTQ5LTAuMDE1MjQgMC4wOTAxOS0wLjA0NTIybC0wLjAxMjIxLTAuMDIyMTVjLTAuMDE5MDQgMC4wMTI5OS0wLjAzNTE5IDAuMDE5MzctMC4wNDc5MyAwLjAxOTM3LTAuMDE0NzEgMC0wLjAyMTkzLTAuMDEyMy0wLjAyMTkzLTAuMDM3ODIgMC0wLjAxOTY1IDAuMDAzOC0wLjA0Nzg1IDAuMDEwNTgtMC4wODM5OWwwLjA0NDY5LTAuMjQyNjl6bTEuMjc5MSAwLjAyNjc4YzAuMDIzMzcgMCAwLjA0MDE5IDAuMDA4NiAwLjA1MDM4IDAuMDI2NzZsLTAuMDI0MzcgMC4xMzM4MmMtMC4wMDc3IDAuMDQzOTktMC4wMjM3MSAwLjA4NDcxLTAuMDQ3OTMgMC4xMjE4MS0wLjAyNDI0IDAuMDM3MS0wLjA0NzgxIDAuMDU1MzgtMC4wNjk4OCAwLjA1NTM4LTAuMDI3OTEgMC0wLjA0MTQzLTAuMDI4NTItMC4wNDE0My0wLjA4Njc0IDAtMC4wNTc3NiAwLjAxMjc2LTAuMTE0MzIgMC4wMzgxNy0wLjE2ODg3IDAuMDI1NzYtMC4wNTQ4IDAuMDU3MjItMC4wODIxMyAwLjA5NTA3LTAuMDgyMTN6bS0zLjAzOTIgMC4wMDU1YzAuMDQzMjggMCAwLjA2NTAxIDAuMDM1MTYgMC4wNjUwMSAwLjEwNTIgMCAwLjA1OTk1LTAuMDEwNTggMC4xMTQ4NS0wLjAzMjUxIDAuMTY0MjYtMC4wMjE2NCAwLjA0OTE1LTAuMDUxMiAwLjA3MzgyLTAuMDg3NzYgMC4wNzM4Mi0wLjA0MzkzIDAtMC4wNjU4My0wLjAzNDk4LTAuMDY1ODMtMC4xMDQyOCAwLTAuMDYwNDUgMC4wMTExMy0wLjExNDg2IDAuMDMzMzMtMC4xNjQyNiAwLjAyMjMtMC4wNDk0IDAuMDUxNjItMC4wNzQ3NCAwLjA4Nzc2LTAuMDc0NzR6bTAuNTg0MjggMGMwLjA0MzI3IDAgMC4wNjUwMSAwLjAzNTE2IDAuMDY1MDEgMC4xMDUyIDAgMC4wNTk5NS0wLjAxMTQgMC4xMTQ4NS0wLjAzMzMzIDAuMTY0MjYtMC4wMjE2NCAwLjA0OTE1LTAuMDUwMzcgMC4wNzM4Mi0wLjA4Njk0IDAuMDczODItMC4wNDM5MyAwLTAuMDY1ODMtMC4wMzQ5OC0wLjA2NTgzLTAuMTA0MjggMC0wLjA2MDQ1IDAuMDExMTMtMC4xMTQ4NiAwLjAzMzMxLTAuMTY0MjYgMC4wMjIzLTAuMDQ5NCAwLjA1MTYyLTAuMDc0NzQgMC4wODc3Ni0wLjA3NDc0em0xLjg4NDUgMC4wMDgzYzAuMDI3OTEgMCAwLjA0MjI2IDAuMDI4OTUgMC4wNDIyNiAwLjA4NzY1IDAgMC4wNTY3Ny0wLjAxMzMgMC4xMTI5LTAuMDM5IDAuMTY3OTUtMC4wMjU1MiAwLjA1NDgtMC4wNTY0NSAwLjA4MjEzLTAuMDkzNDYgMC4wODIxMy0wLjAyMDc4IDAtMC4wMzg1NC0wLjAwODgtMC4wNTI4My0wLjAyNjc2bDAuMDI2ODEtMC4xNDM5NmMwLjAwNzYtMC4wMzkwOCAwLjAyMzc1LTAuMDc2NDUgMC4wNDcxNC0wLjExMjU4IDAuMDIzMzgtMC4wMzYzNyAwLjA0NjE0LTAuMDU0NDQgMC4wNjkwNy0wLjA1NDQ0eiIvPjxyZWN0IHN0eWxlPSJtaXgtYmxlbmQtbW9kZTpub3JtYWw7cGFpbnQtb3JkZXI6ZmlsbCBtYXJrZXJzIHN0cm9rZSIgZmlsbD0iIzgwMCIgcnk9IjIuNzIzMmUtMTciIHJ4PSIxLjg0NjllLTE3IiBoZWlnaHQ9IjIuMDczNyIgd2lkdGg9IjIuMDgxNiIgeT0iMTMuNTQ2IiB4PSI1My40OTciLz48cmVjdCBzdHlsZT0ibWl4LWJsZW5kLW1vZGU6bm9ybWFsO3BhaW50LW9yZGVyOmZpbGwgbWFya2VycyBzdHJva2UiIGZpbGw9IiMwNjEiIHJ5PSIyLjcyMzJlLTE3IiByeD0iMS44NDY5ZS0xNyIgaGVpZ2h0PSIyLjA3MzciIHdpZHRoPSIyLjA4MTYiIHk9IjEzLjU0NiIgeD0iNTUuNTc4Ii8+PHJlY3Qgc3R5bGU9Im1peC1ibGVuZC1tb2RlOm5vcm1hbDtwYWludC1vcmRlcjpmaWxsIG1hcmtlcnMgc3Ryb2tlIiBmaWxsPSIjMDM5IiByeT0iMi43MjMyZS0xNyIgcng9IjEuODQ2OWUtMTciIGhlaWdodD0iMi4wNzM3IiB3aWR0aD0iMi4wODE2IiB5PSIxMy41NDYiIHg9IjU3LjY2Ii8+PC9nPjxlbGxpcHNlIHN0eWxlPSJtaXgtYmxlbmQtbW9kZTpub3JtYWw7cGFpbnQtb3JkZXI6c3Ryb2tlIG1hcmtlcnMgZmlsbCIgZmlsbD0idXJsKCNoKSIgcnk9Ii41Njc2NiIgcng9Ii41NTc1MSIgY3k9Ii41MzQ3NyIgY3g9IjEyLjMyMiIvPjxlbGxpcHNlIHN0eWxlPSJtaXgtYmxlbmQtbW9kZTpub3JtYWw7cGFpbnQtb3JkZXI6c3Ryb2tlIG1hcmtlcnMgZmlsbCIgZmlsbD0idXJsKCNqKSIgcnk9Ii4xNzAzIiByeD0iLjE2NzI1IiBjeT0iLjUzNDc3IiBjeD0iMTIuMzIyIi8+PGcgdHJhbnNmb3JtPSJtYXRyaXgoLjMwNzA1IDAgMCAuMzEzODIgLTQuMjYzIC0zLjM3NjcpIiBpZD0ieSI+PHBhdGggc3R5bGU9InBhaW50LW9yZGVyOnN0cm9rZSBmaWxsIG1hcmtlcnMiIHN0cm9rZS13aWR0aD0iLjI2NDU4IiBzdHJva2UtbWl0ZXJsaW1pdD0iMy42IiBmaWxsPSJ1cmwoI2YpIiBkPSJtNTYuMjgzIDIxLjk2djMuNjE3N2gtMy42MzE0di0xLjgwODlsMS44MTU3LTEuODA4OXoiLz48ZWxsaXBzZSBzdHlsZT0icGFpbnQtb3JkZXI6c3Ryb2tlIGZpbGwgbWFya2VycyIgc3Ryb2tlLXdpZHRoPSIuMjY0NTgiIHN0cm9rZS1taXRlcmxpbWl0PSIzLjYiIHN0cm9rZT0idXJsKCNuKSIgZmlsbD0idXJsKCNlKSIgcnk9IjEuMjY2MiIgcng9IjEuMjcxIiBjeT0iMjMuMzU5IiBjeD0iNTQuMDU1Ii8+PGVsbGlwc2Ugc3R5bGU9InBhaW50LW9yZGVyOnN0cm9rZSBtYXJrZXJzIGZpbGwiIHN0cm9rZS13aWR0aD0iLjI2NDU4IiBzdHJva2UtbWl0ZXJsaW1pdD0iMy42IiBzdHJva2U9InVybCgjbSkiIGZpbGw9IiM4NDdjNmEiIHJ5PSIuOTA0NDMiIHJ4PSIuOTA3ODUiIGN5PSIyMy42MjMiIGN4PSI1NC4zMiIvPjwvZz48dXNlIHhsaW5rOmhyZWY9IiN5IiB0cmFuc2Zvcm09InRyYW5zbGF0ZSgwIC0xLjEzNTMpIiBpZD0iZCIvPjx1c2UgeGxpbms6aHJlZj0iI2QiIHRyYW5zZm9ybT0idHJhbnNsYXRlKDAgLTEuMTM1MykiLz48L2c+PC9zdmc+;" parent="1" vertex="1">
          <mxGeometry x="164" y="44" width="32" height="32" as="geometry" />
        </mxCell>
        <mxCell id="fSjbTYhbLkrsspspIT7g-13" value="&lt;font style=&quot;font-size: 13px;&quot;&gt;486 PC&lt;/font&gt;&lt;div style=&quot;&quot;&gt;&lt;font color=&quot;#b3b3b3&quot; style=&quot;font-size: 11px;&quot;&gt;Computer from 90&#39;s&lt;/font&gt;&lt;/div&gt;" style="text;html=1;align=left;verticalAlign=middle;whiteSpace=wrap;rounded=0;fontColor=#FFFFFF;" parent="1" vertex="1">
          <mxGeometry x="200" y="45" width="110" height="30" as="geometry" />
        </mxCell>
      </root>
    </mxGraphModel>
  </diagram>
  <diagram name="Layout" id="8iMLr3HZTybPz_l2_1Io">
    <mxGraphModel dx="1434" dy="815" grid="1" gridSize="10" guides="1" tooltips="1" connect="1" arrows="1" fold="1" page="1" pageScale="1" pageWidth="800" pageHeight="280" math="0" shadow="0">
      <root>
        <mxCell id="0" />
        <mxCell id="1" parent="0" />
        <mxCell id="OCffc4tApoNDre1wWEVC-14" value="" style="rounded=0;whiteSpace=wrap;html=1;" parent="1" vertex="1">
          <mxGeometry x="20" y="20" width="760" height="240" as="geometry" />
        </mxCell>
        <mxCell id="OCffc4tApoNDre1wWEVC-2" value="Icon area" style="rounded=0;whiteSpace=wrap;html=1;fillColor=#dae8fc;strokeColor=#6c8ebf;" parent="1" vertex="1">
          <mxGeometry x="60" y="60" width="160" height="160" as="geometry" />
        </mxCell>
        <mxCell id="OCffc4tApoNDre1wWEVC-3" value="PM_LayoutTopMargin" style="endArrow=classic;startArrow=classic;html=1;rounded=0;entryX=0;entryY=0;entryDx=0;entryDy=0;align=left;" parent="1" target="OCffc4tApoNDre1wWEVC-2" edge="1">
          <mxGeometry width="50" height="50" relative="1" as="geometry">
            <mxPoint x="60" y="20" as="sourcePoint" />
            <mxPoint x="620" y="410" as="targetPoint" />
          </mxGeometry>
        </mxCell>
        <mxCell id="OCffc4tApoNDre1wWEVC-4" value="PM_LayoutLeftMargin" style="endArrow=classic;startArrow=classic;html=1;rounded=0;entryX=0;entryY=0;entryDx=0;entryDy=0;textDirection=vertical-rl;verticalAlign=top;align=center;" parent="1" target="OCffc4tApoNDre1wWEVC-2" edge="1">
          <mxGeometry width="50" height="50" relative="1" as="geometry">
            <mxPoint x="20" y="60" as="sourcePoint" />
            <mxPoint x="620" y="260" as="targetPoint" />
            <mxPoint as="offset" />
          </mxGeometry>
        </mxCell>
        <mxCell id="OCffc4tApoNDre1wWEVC-5" value="PM_LayoutBottomMargin" style="endArrow=classic;startArrow=classic;html=1;rounded=0;align=left;exitX=0;exitY=1;exitDx=0;exitDy=0;" parent="1" source="OCffc4tApoNDre1wWEVC-2" edge="1">
          <mxGeometry width="50" height="50" relative="1" as="geometry">
            <mxPoint x="150" y="30" as="sourcePoint" />
            <mxPoint x="60" y="260" as="targetPoint" />
          </mxGeometry>
        </mxCell>
        <mxCell id="OCffc4tApoNDre1wWEVC-6" value="PM_LayoutHorizontalSpacing" style="endArrow=classic;startArrow=classic;html=1;rounded=0;exitX=1;exitY=0;exitDx=0;exitDy=0;textDirection=vertical-lr;verticalAlign=top;" parent="1" source="OCffc4tApoNDre1wWEVC-2" edge="1">
          <mxGeometry width="50" height="50" relative="1" as="geometry">
            <mxPoint x="570" y="310" as="sourcePoint" />
            <mxPoint x="260" y="60" as="targetPoint" />
          </mxGeometry>
        </mxCell>
        <mxCell id="OCffc4tApoNDre1wWEVC-7" value="Name label" style="rounded=0;whiteSpace=wrap;html=1;fillColor=#d5e8d4;strokeColor=#82b366;" parent="1" vertex="1">
          <mxGeometry x="260" y="60" width="480" height="90" as="geometry" />
        </mxCell>
        <mxCell id="OCffc4tApoNDre1wWEVC-8" value="PM_LayoutTopMargin" style="endArrow=classic;startArrow=classic;html=1;rounded=0;entryX=0;entryY=0;entryDx=0;entryDy=0;align=left;" parent="1" target="OCffc4tApoNDre1wWEVC-7" edge="1">
          <mxGeometry width="50" height="50" relative="1" as="geometry">
            <mxPoint x="260" y="20" as="sourcePoint" />
            <mxPoint x="70" y="70" as="targetPoint" />
          </mxGeometry>
        </mxCell>
        <mxCell id="OCffc4tApoNDre1wWEVC-9" value="Summary label" style="rounded=0;whiteSpace=wrap;html=1;fillColor=#d5e8d4;strokeColor=#82b366;" parent="1" vertex="1">
          <mxGeometry x="260" y="150" width="480" height="70" as="geometry" />
        </mxCell>
        <mxCell id="OCffc4tApoNDre1wWEVC-11" value="PM_LayoutBottomMargin" style="endArrow=classic;startArrow=classic;html=1;rounded=0;align=left;exitX=0;exitY=1;exitDx=0;exitDy=0;" parent="1" source="OCffc4tApoNDre1wWEVC-9" edge="1">
          <mxGeometry width="50" height="50" relative="1" as="geometry">
            <mxPoint x="70" y="230" as="sourcePoint" />
            <mxPoint x="260" y="260" as="targetPoint" />
          </mxGeometry>
        </mxCell>
        <mxCell id="OCffc4tApoNDre1wWEVC-13" value="PM_LayoutRightMargin" style="endArrow=classic;startArrow=classic;html=1;rounded=0;textDirection=vertical-rl;verticalAlign=top;align=center;exitX=1;exitY=0;exitDx=0;exitDy=0;" parent="1" source="OCffc4tApoNDre1wWEVC-7" edge="1">
          <mxGeometry width="50" height="50" relative="1" as="geometry">
            <mxPoint x="30" y="70" as="sourcePoint" />
            <mxPoint x="780" y="60" as="targetPoint" />
            <mxPoint as="offset" />
          </mxGeometry>
        </mxCell>
      </root>
    </mxGraphModel>
  </diagram>
</mxfile>
